<?xml version="1.0" standalone="no"?>
 <!DOCTYPE svg PUBLIC "-//W3C//DTD SVG 1.1//EN" 
 "http://www.w3.org/Graphics/SVG/1.1/DTD/svg11.dtd"> 
<svg xmlns="http://www.w3.org/2000/svg" version="1.1" 
    width="29.7002cm" height="21.0007cm" viewBox="0 0 116930 82680 ">
<title>SVG Picture created as shim-PCB-F_CrtYd.svg date 2020/06/19 17:13:16 </title>
  <desc>Picture generated by PCBNEW </desc>
<g style="fill:#000000; fill-opacity:1;stroke:#000000; stroke-opacity:1;
stroke-linecap:round; stroke-linejoin:round; "
 transform="translate(0 0) scale(1 1)">
</g>
<g style="fill:#000000; fill-opacity:0.0; 
stroke:#000000; stroke-width:-0.000393701; stroke-opacity:1; 
stroke-linecap:round; stroke-linejoin:round;">
</g>
<g style="fill:#000000; fill-opacity:0.0; 
stroke:#000000; stroke-width:19.685; stroke-opacity:1; 
stroke-linecap:round; stroke-linejoin:round;">
<path d="M67591 21480
L67591 23072
" />
<path d="M42471 18896
L69065 18896
" />
<path d="M67591 27107
L67591 28699
" />
<path d="M66091.4 23072.9 A750 750 0.0 0 0 67591.4 23072.9 " />
<path d="M67591.4 27107.2 A750 750 0.0 0 0 66091.4 27107.2 " />
<path d="M69065 18896
L69065 53434
" />
<path d="M66091 23072
L66091 21480
" />
<path d="M67591.4 21480.5 A750 750 0.0 0 0 66091.4 21480.5 " />
<path d="M66091.4 28699.7 A750 750 0.0 0 0 67591.4 28699.7 " />
<path d="M42471 53434
L42471 18896
" />
<path d="M66091 28699
L66091 27107
" />
<path d="M42471.7 53434.7 A30748.7 30748.7 0.0 0 0 69043.9 53444.9 " />
<path d="M67757 20954
L69155 20954
" />
<path d="M69155 20954
L69155 27352
" />
<path d="M69155 27352
L67757 27352
" />
<path d="M67757 27352
L67757 20954
" />
<path d="M42450 27352
L42450 20954
" />
<path d="M43848 27352
L42450 27352
" />
<path d="M43848 20954
L43848 27352
" />
<path d="M42450 20954
L43848 20954
" />
<path d="M47891 51708
L47891 50311
" />
<path d="M47891 50311
L52300 50311
" />
<path d="M52300 50311
L52300 51708
" />
<path d="M52300 51708
L47891 51708
" />
<path d="M59883 22104
L59883 23501
" />
<path d="M59883 23501
L53486 23501
" />
<path d="M53486 23501
L53486 22104
" />
<path d="M53486 22104
L59883 22104
" />
<path d="M52883 22104
L52883 23501
" />
<path d="M52883 23501
L49478 23501
" />
<path d="M49478 23501
L49478 22104
" />
<path d="M49478 22104
L52883 22104
" />
<path d="M52503 50291
L55908 50291
" />
<path d="M52503 51688
L52503 50291
" />
<path d="M55908 51688
L52503 51688
" />
<path d="M55908 50291
L55908 51688
" />
<path d="M59708 50291
L59708 51688
" />
<path d="M59708 51688
L56303 51688
" />
<path d="M56303 51688
L56303 50291
" />
<path d="M56303 50291
L59708 50291
" />
<path d="M47891 54708
L47891 53311
" />
<path d="M47891 53311
L52300 53311
" />
<path d="M52300 53311
L52300 54708
" />
<path d="M52300 54708
L47891 54708
" />
<path d="M42891 42448
L42891 41051
" />
<path d="M42891 41051
L55292 41051
" />
<path d="M55292 41051
L55292 42448
" />
<path d="M55292 42448
L42891 42448
" />
<path d="M42891 34449
L42891 33051
" />
<path d="M42891 33051
L59308 33051
" />
<path d="M59308 33051
L59308 34449
" />
<path d="M59308 34449
L42891 34449
" />
<path d="M45127 21253
L45127 25080
" />
<path d="M46111 21253
L45127 21253
" />
<path d="M46111 25080
L46111 21253
" />
<path d="M45127 25080
L46111 25080
" />
<path d="M62972 21253
L62972 25080
" />
<path d="M63956 21253
L62972 21253
" />
<path d="M63956 25080
L63956 21253
" />
<path d="M62972 25080
L63956 25080
" />
<path d="M46127 25080
L47111 25080
" />
<path d="M47111 25080
L47111 21253
" />
<path d="M47111 21253
L46127 21253
" />
<path d="M46127 21253
L46127 25080
" />
<path d="M63972 25080
L64956 25080
" />
<path d="M64956 25080
L64956 21253
" />
<path d="M64956 21253
L63972 21253
" />
<path d="M63972 21253
L63972 25080
" />
<path d="M56261 24174
L56261 25159
" />
<path d="M56261 25159
L60088 25159
" />
<path d="M60088 25159
L60088 24174
" />
<path d="M60088 24174
L56261 24174
" />
<path d="M57291 54708
L57291 53311
" />
<path d="M57291 53311
L63688 53311
" />
<path d="M63688 53311
L63688 54708
" />
<path d="M63688 54708
L57291 54708
" />
<circle cx="65297.2" cy="52194.1" r="846.457" /> 
<circle cx="46335.4" cy="52194.1" r="846.457" /> 
<path d="M62300 48808
L42891 48808
" />
<path d="M62300 47411
L62300 48808
" />
<path d="M42891 47411
L62300 47411
" />
<path d="M42891 48808
L42891 47411
" />
<path d="M62300 46808
L42891 46808
" />
<path d="M62300 45411
L62300 46808
" />
<path d="M42891 45411
L62300 45411
" />
<path d="M42891 46808
L42891 45411
" />
<path d="M42891 35768
L42891 34371
" />
<path d="M42891 34371
L62300 34371
" />
<path d="M62300 34371
L62300 35768
" />
<path d="M62300 35768
L42891 35768
" />
<path d="M42891 31308
L42891 29911
" />
<path d="M42891 29911
L62300 29911
" />
<path d="M62300 29911
L62300 31308
" />
<path d="M62300 31308
L42891 31308
" />
<path d="M54291 24291
L55688 24291
" />
<path d="M55688 24291
L55688 26692
" />
<path d="M55688 26692
L54291 26692
" />
<path d="M54291 26692
L54291 24291
" />
<path d="M56261 25507
L56261 26492
" />
<path d="M56261 26492
L60088 26492
" />
<path d="M60088 26492
L60088 25507
" />
<path d="M60088 25507
L56261 25507
" />
<path d="M52491 54708
L52491 53311
" />
<path d="M52491 53311
L56900 53311
" />
<path d="M56900 53311
L56900 54708
" />
<path d="M56900 54708
L52491 54708
" />
<g >
</g>
<g >
</g>
<g >
</g>
<g >
</g>
<g >
</g>
<g >
</g>
<g >
</g>
<g >
</g>
<g >
</g>
<g >
</g>
<g >
</g>
<g >
</g>
<g >
</g>
<g >
</g>
<g >
</g>
<g >
</g>
<g >
</g>
<g >
</g>
<g >
</g>
<g >
</g>
<g >
</g>
<g >
</g>
<g >
</g>
<g >
</g>
<g >
</g>
<g >
</g>
</g> 
</svg>
