<?xml version="1.0" standalone="no"?>
 <!DOCTYPE svg PUBLIC "-//W3C//DTD SVG 1.1//EN" 
 "http://www.w3.org/Graphics/SVG/1.1/DTD/svg11.dtd"> 
<svg xmlns="http://www.w3.org/2000/svg" version="1.1" 
    width="29.7002cm" height="21.0007cm" viewBox="0 0 116930 82680 ">
<title>SVG Picture created as shim-PCB-Edge_Cuts.svg date 2020/06/19 17:09:38 </title>
  <desc>Picture generated by PCBNEW </desc>
<g style="fill:#000000; fill-opacity:1;stroke:#000000; stroke-opacity:1;
stroke-linecap:round; stroke-linejoin:round; "
 transform="translate(0 0) scale(1 1)">
</g>
<g style="fill:#000000; fill-opacity:0.0; 
stroke:#000000; stroke-width:-0.000393701; stroke-opacity:1; 
stroke-linecap:round; stroke-linejoin:round;">
</g>
<g style="fill:#000000; fill-opacity:0.0; 
stroke:#000000; stroke-width:19.685; stroke-opacity:1; 
stroke-linecap:round; stroke-linejoin:round;">
<path d="M67591 21480
L67591 23072
" />
<path d="M42471 18896
L69065 18896
" />
<path d="M67591 27107
L67591 28699
" />
<path d="M66091.4 23072.9 A750 750 0.0 0 0 67591.4 23072.9 " />
<path d="M67591.4 27107.2 A750 750 0.0 0 0 66091.4 27107.2 " />
<path d="M69065 18896
L69065 53434
" />
<path d="M66091 23072
L66091 21480
" />
<path d="M67591.4 21480.5 A750 750 0.0 0 0 66091.4 21480.5 " />
<path d="M66091.4 28699.7 A750 750 0.0 0 0 67591.4 28699.7 " />
<path d="M42471 53434
L42471 18896
" />
<path d="M66091 28699
L66091 27107
" />
<path d="M42471.7 53434.7 A30748.7 30748.7 0.0 0 0 69043.9 53444.9 " />
<g >
</g>
<g >
</g>
<g >
</g>
<g >
</g>
<g >
</g>
<g >
</g>
<g >
</g>
<g >
</g>
<g >
</g>
<g >
</g>
<g >
</g>
<g >
</g>
<g >
</g>
<g >
</g>
<g >
</g>
<g >
</g>
<g >
</g>
<g >
</g>
<g >
</g>
<g >
</g>
<g >
</g>
<g >
</g>
<g >
</g>
<g >
</g>
<g >
</g>
<g >
</g>
</g> 
</svg>
