0
SECTION
2
HEADER
9
$INSUNITS
70
1
9
$ACADVER
1
AC1014
9
$HANDSEED
5
FFFF
0
ENDSEC
0
SECTION
2
TABLES
0
TABLE
2
VPORT
5
8
100
AcDbSymbolTable
0
ENDTAB
0
TABLE
2
LTYPE
5
5
100
AcDbSymbolTable
0
LTYPE
5
14
100
AcDbSymbolTableRecord
100
AcDbLinetypeTableRecord
2
BYBLOCK
70
0
0
LTYPE
5
15
100
AcDbSymbolTableRecord
100
AcDbLinetypeTableRecord
2
BYLAYER
70
0
0
ENDTAB
0
TABLE
2
LAYER
5
2
100
AcDbSymbolTable
70
2
0
LAYER
5
50
100
AcDbSymbolTableRecord
100
AcDbLayerTableRecord
2
0
70
0
6
CONTINUOUS
0
ENDTAB
0
TABLE
2
STYLE
5
3
100
AcDbSymbolTable
70
1
0
STYLE
5
11
100
AcDbSymbolTableRecord
100
AcDbTextStyleTableRecord
2
STANDARD
70
0
0
ENDTAB
0
TABLE
2
VIEW
5
6
100
AcDbSymbolTable
70
0
0
ENDTAB
0
TABLE
2
UCS
5
7
100
AcDbSymbolTable
70
0
0
ENDTAB
0
TABLE
2
APPID
5
9
100
AcDbSymbolTable
70
2
0
APPID
5
12
100
AcDbSymbolTableRecord
100
AcDbRegAppTableRecord
2
ACAD
70
0
0
ENDTAB
0
TABLE
2
DIMSTYLE
5
A
100
AcDbSymbolTable
70
1
0
ENDTAB
0
TABLE
2
BLOCK_RECORD
5
1
100
AcDbSymbolTable
70
1
0
BLOCK_RECORD
5
1F
100
AcDbSymbolTableRecord
100
AcDbBlockTableRecord
2
*MODEL_SPACE
0
BLOCK_RECORD
5
1B
100
AcDbSymbolTableRecord
100
AcDbBlockTableRecord
2
*PAPER_SPACE
0
ENDTAB
0
ENDSEC
0
SECTION
2
BLOCKS
0
BLOCK
5
20
100
AcDbEntity
100
AcDbBlockBegin
2
*MODEL_SPACE
0
ENDBLK
5
21
100
AcDbEntity
100
AcDbBlockEnd
0
BLOCK
5
1C
100
AcDbEntity
100
AcDbBlockBegin
2
*PAPER_SPACE
0
ENDBLK
5
1D
100
AcDbEntity
100
AcDbBlockEnd
0
ENDSEC
0
SECTION
2
ENTITIES
0
CIRCLE
5
100
100
AcDbEntity
8
0
100
AcDbCircle
10
-1.1736786760108526
20
-2.9718780073085482
30
0
40
0.045275590551181528
210
-0
220
0
230
1
0
CIRCLE
5
101
100
AcDbEntity
8
0
100
AcDbCircle
10
0.72253075429035118
20
-2.9718780073085345
30
0
40
0.045275590551181528
210
-0
220
0
230
1
0
CIRCLE
5
102
100
AcDbEntity
8
0
100
AcDbCircle
10
-1.2472051132562185
20
-2.5624686162709178
30
0
40
0.025590551181102338
210
0
220
-0
230
1
0
CIRCLE
5
103
100
AcDbEntity
8
0
100
AcDbCircle
10
-0.34720511325621867
20
-2.9624686162709195
30
0
40
0.025590551181102428
210
0
220
-0
230
1
0
CIRCLE
5
104
100
AcDbEntity
8
0
100
AcDbCircle
10
-0.74720511325621686
20
-2.8624686162709194
30
0
40
0.025590551181102428
210
0
220
-0
230
1
0
CIRCLE
5
105
100
AcDbEntity
8
0
100
AcDbCircle
10
-0.94720511325622048
20
-3.06246861627092
30
0
40
0.025590551181102338
210
0
220
-0
230
1
0
CIRCLE
5
106
100
AcDbEntity
8
0
100
AcDbCircle
10
-0.14720511325621694
20
-2.8624686162709194
30
0
40
0.025590551181102428
210
0
220
-0
230
1
0
CIRCLE
5
107
100
AcDbEntity
8
0
100
AcDbCircle
10
-0.8472051132562175
20
-0.81246861627092504
30
0
40
0.025590551181102338
210
0
220
-0
230
1
0
CIRCLE
5
108
100
AcDbEntity
8
0
100
AcDbCircle
10
-0.047205113256215021
20
-0.81246861627093825
30
0
40
0.025590551181102421
210
0
220
-0
230
1
0
CIRCLE
5
109
100
AcDbEntity
8
0
100
AcDbCircle
10
-0.34720511325621589
20
-0.81246861627093336
30
0
40
0.025590551181102383
210
0
220
-0
230
1
0
CIRCLE
5
110
100
AcDbEntity
8
0
100
AcDbCircle
10
-0.74720511325621708
20
-0.81246861627092637
30
0
40
0.025590551181102428
210
0
220
-0
230
1
0
CIRCLE
5
111
100
AcDbEntity
8
0
100
AcDbCircle
10
-0.8472051132562175
20
-2.5624686162709249
30
0
40
0.025590551181102338
210
0
220
-0
230
1
0
CIRCLE
5
112
100
AcDbEntity
8
0
100
AcDbCircle
10
-0.54720511325621646
20
-2.5624686162709298
30
0
40
0.025590551181102428
210
0
220
-0
230
1
0
CIRCLE
5
113
100
AcDbEntity
8
0
100
AcDbCircle
10
-0.54720511325621646
20
-2.3624686162709301
30
0
40
0.025590551181102428
210
0
220
-0
230
1
0
CIRCLE
5
114
100
AcDbEntity
8
0
100
AcDbCircle
10
-0.74720511325621708
20
-2.3624686162709265
30
0
40
0.025590551181102428
210
0
220
-0
230
1
0
CIRCLE
5
115
100
AcDbEntity
8
0
100
AcDbCircle
10
-0.24720511325621561
20
-2.362468616270935
30
0
40
0.025590551181102428
210
0
220
-0
230
1
0
CIRCLE
5
116
100
AcDbEntity
8
0
100
AcDbCircle
10
-0.64720511325621677
20
-2.3624686162709283
30
0
40
0.025590551181102428
210
0
220
-0
230
1
0
CIRCLE
5
117
100
AcDbEntity
8
0
100
AcDbCircle
10
-0.14720511325621535
20
-2.2624686162709366
30
0
40
0.025590551181102338
210
0
220
-0
230
1
0
CIRCLE
5
118
100
AcDbEntity
8
0
100
AcDbCircle
10
0.052794886743805516
20
-1.2585316083969214
30
0
40
0.025590551181102351
210
0
220
-0
230
1
0
CIRCLE
5
119
100
AcDbEntity
8
0
100
AcDbCircle
10
-0.34720511325621589
20
-2.2624686162709335
30
0
40
0.025590551181102383
210
0
220
-0
230
1
0
CIRCLE
5
120
100
AcDbEntity
8
0
100
AcDbCircle
10
-1.147205113256198
20
-1.2585316083969016
30
0
40
0.025590551181102338
210
0
220
-0
230
1
0
CIRCLE
5
121
100
AcDbEntity
8
0
100
AcDbCircle
10
-0.24720511325619535
20
-1.2585316083969165
30
0
40
0.025590551181102428
210
0
220
-0
230
1
0
CIRCLE
5
122
100
AcDbEntity
8
0
100
AcDbCircle
10
-1.2472051132561983
20
-1.2585316083968998
30
0
40
0.025590551181102338
210
0
220
-0
230
1
0
CIRCLE
5
123
100
AcDbEntity
8
0
100
AcDbCircle
10
-0.9472051132562177
20
-2.2624686162709233
30
0
40
0.025590551181102338
210
0
220
-0
230
1
0
CIRCLE
5
124
100
AcDbEntity
8
0
100
AcDbCircle
10
-0.047205113256215021
20
-2.2624686162709384
30
0
40
0.025590551181102421
210
0
220
-0
230
1
0
CIRCLE
5
125
100
AcDbEntity
8
0
100
AcDbCircle
10
-0.94720511325619738
20
-1.2585316083969047
30
0
40
0.025590551181102338
210
0
220
-0
230
1
0
CIRCLE
5
126
100
AcDbEntity
8
0
100
AcDbCircle
10
-0.84720511325619718
20
-1.2585316083969065
30
0
40
0.025590551181102338
210
0
220
-0
230
1
0
CIRCLE
5
127
100
AcDbEntity
8
0
100
AcDbCircle
10
-1.3472051132561984
20
-1.258531608396898
30
0
40
0.025590551181102338
210
0
220
-0
230
1
0
CIRCLE
5
128
100
AcDbEntity
8
0
100
AcDbCircle
10
-0.54720511325621646
20
-2.26246861627093
30
0
40
0.025590551181102428
210
0
220
-0
230
1
0
CIRCLE
5
129
100
AcDbEntity
8
0
100
AcDbCircle
10
-0.64720511325619645
20
-1.2585316083969098
30
0
40
0.025590551181102428
210
0
220
-0
230
1
0
CIRCLE
5
130
100
AcDbEntity
8
0
100
AcDbCircle
10
-0.44720511325619594
20
-1.2585316083969131
30
0
40
0.025590551181102428
210
0
220
-0
230
1
0
CIRCLE
5
131
100
AcDbEntity
8
0
100
AcDbCircle
10
-0.24720511325621561
20
-2.2624686162709349
30
0
40
0.025590551181102428
210
0
220
-0
230
1
0
CIRCLE
5
132
100
AcDbEntity
8
0
100
AcDbCircle
10
-0.34720511325621589
20
-2.3624686162709332
30
0
40
0.025590551181102383
210
0
220
-0
230
1
0
CIRCLE
5
133
100
AcDbEntity
8
0
100
AcDbCircle
10
-0.9472051132562177
20
-2.3624686162709234
30
0
40
0.025590551181102338
210
0
220
-0
230
1
0
CIRCLE
5
134
100
AcDbEntity
8
0
100
AcDbCircle
10
-1.2472051132562185
20
-2.3624686162709181
30
0
40
0.025590551181102338
210
0
220
-0
230
1
0
CIRCLE
5
135
100
AcDbEntity
8
0
100
AcDbCircle
10
-0.14720511325621535
20
-2.3624686162709363
30
0
40
0.025590551181102338
210
0
220
-0
230
1
0
CIRCLE
5
136
100
AcDbEntity
8
0
100
AcDbCircle
10
-0.9472051132562177
20
-2.5624686162709231
30
0
40
0.025590551181102338
210
0
220
-0
230
1
0
CIRCLE
5
137
100
AcDbEntity
8
0
100
AcDbCircle
10
-0.34720511325621589
20
-2.5624686162709334
30
0
40
0.025590551181102383
210
0
220
-0
230
1
0
CIRCLE
5
138
100
AcDbEntity
8
0
100
AcDbCircle
10
-0.4472051132562162
20
-2.5624686162709316
30
0
40
0.025590551181102428
210
0
220
-0
230
1
0
CIRCLE
5
139
100
AcDbEntity
8
0
100
AcDbCircle
10
-0.4472051132562162
20
-0.81246861627093159
30
0
40
0.025590551181102428
210
0
220
-0
230
1
0
CIRCLE
5
140
100
AcDbEntity
8
0
100
AcDbCircle
10
-0.64720511325621677
20
-0.81246861627092815
30
0
40
0.025590551181102428
210
0
220
-0
230
1
0
CIRCLE
5
141
100
AcDbEntity
8
0
100
AcDbCircle
10
-0.24720511325621561
20
-0.81246861627093481
30
0
40
0.025590551181102428
210
0
220
-0
230
1
0
CIRCLE
5
142
100
AcDbEntity
8
0
100
AcDbCircle
10
-0.94720511325622181
20
-3.1624686162709201
30
0
40
0.025590551181102338
210
0
220
-0
230
1
0
CIRCLE
5
143
100
AcDbEntity
8
0
100
AcDbCircle
10
-0.74720511325622041
20
-3.06246861627092
30
0
40
0.025590551181102338
210
0
220
-0
230
1
0
CIRCLE
5
144
100
AcDbEntity
8
0
100
AcDbCircle
10
-0.14720511325622043
20
-3.06246861627092
30
0
40
0.025590551181102362
210
0
220
-0
230
1
0
CIRCLE
5
145
100
AcDbEntity
8
0
100
AcDbCircle
10
-0.5472051132562169
20
-2.8624686162709194
30
0
40
0.025590551181102428
210
0
220
-0
230
1
0
CIRCLE
5
146
100
AcDbEntity
8
0
100
AcDbCircle
10
-1.3472051132562186
20
-2.5624686162709165
30
0
40
0.025590551181102338
210
0
220
-0
230
1
0
CIRCLE
5
147
100
AcDbEntity
8
0
100
AcDbCircle
10
-1.1472051132562184
20
-2.5624686162709196
30
0
40
0.025590551181102338
210
0
220
-0
230
1
0
CIRCLE
5
148
100
AcDbEntity
8
0
100
AcDbCircle
10
-0.54720511325622045
20
-3.06246861627092
30
0
40
0.025590551181102338
210
0
220
-0
230
1
0
CIRCLE
5
149
100
AcDbEntity
8
0
100
AcDbCircle
10
-0.9472051132562187
20
-2.9624686162709195
30
0
40
0.025590551181102515
210
0
220
-0
230
1
0
CIRCLE
5
150
100
AcDbEntity
8
0
100
AcDbCircle
10
-0.34720511325622044
20
-3.06246861627092
30
0
40
0.025590551181102338
210
0
220
-0
230
1
0
CIRCLE
5
151
100
AcDbEntity
8
0
100
AcDbCircle
10
-0.34720511325621695
20
-2.8624686162709194
30
0
40
0.025590551181102428
210
0
220
-0
230
1
0
CIRCLE
5
152
100
AcDbEntity
8
0
100
AcDbCircle
10
-0.54720511325621646
20
-0.81246861627092992
30
0
40
0.025590551181102428
210
0
220
-0
230
1
0
CIRCLE
5
153
100
AcDbEntity
8
0
100
AcDbCircle
10
-1.2472051132562185
20
-0.81246861627091804
30
0
40
0.025590551181102338
210
0
220
-0
230
1
0
CIRCLE
5
154
100
AcDbEntity
8
0
100
AcDbCircle
10
0.052794886743785234
20
-0.81246861627093969
30
0
40
0.025590551181102351
210
0
220
-0
230
1
0
CIRCLE
5
155
100
AcDbEntity
8
0
100
AcDbCircle
10
-1.1472051132562184
20
-0.81246861627091971
30
0
40
0.025590551181102338
210
0
220
-0
230
1
0
CIRCLE
5
156
100
AcDbEntity
8
0
100
AcDbCircle
10
-0.14720511325621535
20
-2.5624686162709365
30
0
40
0.025590551181102338
210
0
220
-0
230
1
0
CIRCLE
5
157
100
AcDbEntity
8
0
100
AcDbCircle
10
-0.64720511325621677
20
-2.562468616270928
30
0
40
0.025590551181102428
210
0
220
-0
230
1
0
CIRCLE
5
158
100
AcDbEntity
8
0
100
AcDbCircle
10
-0.74720511325621708
20
-2.5624686162709263
30
0
40
0.025590551181102428
210
0
220
-0
230
1
0
CIRCLE
5
159
100
AcDbEntity
8
0
100
AcDbCircle
10
0.052794886743785234
20
-2.3624686162709398
30
0
40
0.025590551181102351
210
0
220
-0
230
1
0
CIRCLE
5
160
100
AcDbEntity
8
0
100
AcDbCircle
10
-0.4472051132562162
20
-2.3624686162709314
30
0
40
0.025590551181102428
210
0
220
-0
230
1
0
CIRCLE
5
161
100
AcDbEntity
8
0
100
AcDbCircle
10
-1.0472051132562181
20
-2.3624686162709216
30
0
40
0.025590551181102338
210
0
220
-0
230
1
0
CIRCLE
5
162
100
AcDbEntity
8
0
100
AcDbCircle
10
-0.74720511325619676
20
-1.2585316083969078
30
0
40
0.025590551181102428
210
0
220
-0
230
1
0
CIRCLE
5
163
100
AcDbEntity
8
0
100
AcDbCircle
10
-0.047205113256194739
20
-1.2585316083969198
30
0
40
0.025590551181102421
210
0
220
-0
230
1
0
CIRCLE
5
164
100
AcDbEntity
8
0
100
AcDbCircle
10
-0.54720511325619614
20
-1.2585316083969114
30
0
40
0.025590551181102428
210
0
220
-0
230
1
0
CIRCLE
5
165
100
AcDbEntity
8
0
100
AcDbCircle
10
-0.34720511325619557
20
-1.2585316083969149
30
0
40
0.025590551181102383
210
0
220
-0
230
1
0
CIRCLE
5
166
100
AcDbEntity
8
0
100
AcDbCircle
10
-0.74720511325621708
20
-2.2624686162709264
30
0
40
0.025590551181102428
210
0
220
-0
230
1
0
CIRCLE
5
167
100
AcDbEntity
8
0
100
AcDbCircle
10
-1.0472051132562181
20
-2.2624686162709216
30
0
40
0.025590551181102338
210
0
220
-0
230
1
0
CIRCLE
5
168
100
AcDbEntity
8
0
100
AcDbCircle
10
-1.3472051132562186
20
-2.2624686162709167
30
0
40
0.025590551181102338
210
0
220
-0
230
1
0
CIRCLE
5
169
100
AcDbEntity
8
0
100
AcDbCircle
10
-1.1472051132562184
20
-2.2624686162709198
30
0
40
0.025590551181102338
210
0
220
-0
230
1
0
CIRCLE
5
170
100
AcDbEntity
8
0
100
AcDbCircle
10
-1.2472051132562185
20
-2.262468616270918
30
0
40
0.025590551181102338
210
0
220
-0
230
1
0
CIRCLE
5
171
100
AcDbEntity
8
0
100
AcDbCircle
10
-1.0472051132561979
20
-1.2585316083969029
30
0
40
0.025590551181102338
210
0
220
-0
230
1
0
CIRCLE
5
172
100
AcDbEntity
8
0
100
AcDbCircle
10
0.052794886743785234
20
-2.2624686162709398
30
0
40
0.025590551181102351
210
0
220
-0
230
1
0
CIRCLE
5
173
100
AcDbEntity
8
0
100
AcDbCircle
10
-0.4472051132562162
20
-2.2624686162709318
30
0
40
0.025590551181102428
210
0
220
-0
230
1
0
CIRCLE
5
174
100
AcDbEntity
8
0
100
AcDbCircle
10
-0.64720511325621677
20
-2.2624686162709282
30
0
40
0.025590551181102428
210
0
220
-0
230
1
0
CIRCLE
5
175
100
AcDbEntity
8
0
100
AcDbCircle
10
-0.8472051132562175
20
-2.2624686162709251
30
0
40
0.025590551181102338
210
0
220
-0
230
1
0
CIRCLE
5
176
100
AcDbEntity
8
0
100
AcDbCircle
10
-0.14720511325619509
20
-1.258531608396918
30
0
40
0.025590551181102338
210
0
220
-0
230
1
0
CIRCLE
5
177
100
AcDbEntity
8
0
100
AcDbCircle
10
-1.1472051132562184
20
-2.3624686162709199
30
0
40
0.025590551181102338
210
0
220
-0
230
1
0
CIRCLE
5
178
100
AcDbEntity
8
0
100
AcDbCircle
10
-0.047205113256215021
20
-2.3624686162709381
30
0
40
0.025590551181102421
210
0
220
-0
230
1
0
CIRCLE
5
179
100
AcDbEntity
8
0
100
AcDbCircle
10
-1.3472051132562186
20
-2.3624686162709168
30
0
40
0.025590551181102338
210
0
220
-0
230
1
0
CIRCLE
5
180
100
AcDbEntity
8
0
100
AcDbCircle
10
-0.8472051132562175
20
-2.3624686162709252
30
0
40
0.025590551181102338
210
0
220
-0
230
1
0
CIRCLE
5
181
100
AcDbEntity
8
0
100
AcDbCircle
10
-0.24720511325621561
20
-2.5624686162709347
30
0
40
0.025590551181102428
210
0
220
-0
230
1
0
CIRCLE
5
182
100
AcDbEntity
8
0
100
AcDbCircle
10
0.052794886743785234
20
-2.5624686162709396
30
0
40
0.025590551181102351
210
0
220
-0
230
1
0
CIRCLE
5
183
100
AcDbEntity
8
0
100
AcDbCircle
10
-0.047205113256215021
20
-2.5624686162709382
30
0
40
0.025590551181102421
210
0
220
-0
230
1
0
CIRCLE
5
184
100
AcDbEntity
8
0
100
AcDbCircle
10
-0.14720511325621535
20
-0.81246861627093658
30
0
40
0.025590551181102338
210
0
220
-0
230
1
0
CIRCLE
5
185
100
AcDbEntity
8
0
100
AcDbCircle
10
-1.0472051132562181
20
-0.81246861627092148
30
0
40
0.025590551181102338
210
0
220
-0
230
1
0
CIRCLE
5
186
100
AcDbEntity
8
0
100
AcDbCircle
10
-0.9472051132562177
20
-0.81246861627092326
30
0
40
0.025590551181102338
210
0
220
-0
230
1
0
CIRCLE
5
187
100
AcDbEntity
8
0
100
AcDbCircle
10
-1.3472051132562186
20
-0.8124686162709166
30
0
40
0.025590551181102338
210
0
220
-0
230
1
0
CIRCLE
5
188
100
AcDbEntity
8
0
100
AcDbCircle
10
-0.74720511325621863
20
-2.9624686162709195
30
0
40
0.025590551181102428
210
0
220
-0
230
1
0
CIRCLE
5
189
100
AcDbEntity
8
0
100
AcDbCircle
10
-0.14720511325621868
20
-2.9624686162709195
30
0
40
0.025590551181102428
210
0
220
-0
230
1
0
CIRCLE
5
190
100
AcDbEntity
8
0
100
AcDbCircle
10
-0.94720511325621692
20
-2.8624686162709194
30
0
40
0.025590551181102515
210
0
220
-0
230
1
0
CIRCLE
5
191
100
AcDbEntity
8
0
100
AcDbCircle
10
-0.54720511325621868
20
-2.9624686162709195
30
0
40
0.025590551181102428
210
0
220
-0
230
1
0
CIRCLE
5
192
100
AcDbEntity
8
0
100
AcDbCircle
10
-1.0472051132562181
20
-2.5624686162709214
30
0
40
0.025590551181102338
210
0
220
-0
230
1
0
CIRCLE
5
193
100
AcDbEntity
8
0
100
AcDbCircle
10
-0.90243400687569819
20
-1.026502913408063
30
0
40
0.020000000000000066
210
0
220
-0
230
1
0
CIRCLE
5
194
100
AcDbEntity
8
0
100
AcDbCircle
10
0.1975659931243017
20
-1.0265029134080572
30
0
40
0.020000000000000066
210
0
220
-0
230
1
0
CIRCLE
5
195
100
AcDbEntity
8
0
100
AcDbCircle
10
-1.3024340068756943
20
-1.8265029134080637
30
0
40
0.020000000000000066
210
0
220
-0
230
1
0
CIRCLE
5
196
100
AcDbEntity
8
0
100
AcDbCircle
10
-1.0024340068756941
20
-1.8265029134080619
30
0
40
0.020000000000000066
210
0
220
-0
230
1
0
CIRCLE
5
197
100
AcDbEntity
8
0
100
AcDbCircle
10
-0.50243400687569406
20
-1.8265029134080595
30
0
40
0.01999999999999998
210
0
220
-0
230
1
0
CIRCLE
5
198
100
AcDbEntity
8
0
100
AcDbCircle
10
-0.70243400687569391
20
-1.8265029134080606
30
0
40
0.01999999999999998
210
0
220
-0
230
1
0
CIRCLE
5
199
100
AcDbEntity
8
0
100
AcDbCircle
10
-1.3024340068756985
20
-1.026502913408065
30
0
40
0.020000000000000066
210
0
220
-0
230
1
0
CIRCLE
5
200
100
AcDbEntity
8
0
100
AcDbCircle
10
-1.1024340068756986
20
-1.0265029134080639
30
0
40
0.020000000000000066
210
0
220
-0
230
1
0
CIRCLE
5
201
100
AcDbEntity
8
0
100
AcDbCircle
10
-0.80243400687569377
20
-1.826502913408061
30
0
40
0.01999999999999998
210
0
220
-0
230
1
0
CIRCLE
5
202
100
AcDbEntity
8
0
100
AcDbCircle
10
-1.1024340068756944
20
-1.8265029134080626
30
0
40
0.020000000000000066
210
0
220
-0
230
1
0
CIRCLE
5
203
100
AcDbEntity
8
0
100
AcDbCircle
10
-0.4024340068756983
20
-1.0265029134080603
30
0
40
0.020000000000000066
210
0
220
-0
230
1
0
CIRCLE
5
204
100
AcDbEntity
8
0
100
AcDbCircle
10
-0.20243400687569826
20
-1.0265029134080592
30
0
40
0.020000000000000066
210
0
220
-0
230
1
0
CIRCLE
5
205
100
AcDbEntity
8
0
100
AcDbCircle
10
-0.60243400687569826
20
-1.0265029134080614
30
0
40
0.020000000000000066
210
0
220
-0
230
1
0
CIRCLE
5
206
100
AcDbEntity
8
0
100
AcDbCircle
10
-1.0024340068756983
20
-1.0265029134080634
30
0
40
0.020000000000000066
210
0
220
-0
230
1
0
CIRCLE
5
207
100
AcDbEntity
8
0
100
AcDbCircle
10
-0.80243400687569799
20
-1.0265029134080623
30
0
40
0.020000000000000066
210
0
220
-0
230
1
0
CIRCLE
5
208
100
AcDbEntity
8
0
100
AcDbCircle
10
-0.0024340068756983028
20
-1.0265029134080581
30
0
40
0.02000000000000007
210
0
220
-0
230
1
0
CIRCLE
5
209
100
AcDbEntity
8
0
100
AcDbCircle
10
-0.90243400687569397
20
-1.8265029134080617
30
0
40
0.020000000000000066
210
0
220
-0
230
1
0
CIRCLE
5
210
100
AcDbEntity
8
0
100
AcDbCircle
10
-0.1024340068756983
20
-1.0265029134080588
30
0
40
0.020000000000000066
210
0
220
-0
230
1
0
CIRCLE
5
211
100
AcDbEntity
8
0
100
AcDbCircle
10
-0.30243400687569405
20
-1.8265029134080586
30
0
40
0.020000000000000021
210
0
220
-0
230
1
0
CIRCLE
5
212
100
AcDbEntity
8
0
100
AcDbCircle
10
-0.60243400687569404
20
-1.8265029134080599
30
0
40
0.01999999999999998
210
0
220
-0
230
1
0
CIRCLE
5
213
100
AcDbEntity
8
0
100
AcDbCircle
10
-0.20243400687569407
20
-1.8265029134080577
30
0
40
0.020000000000000004
210
0
220
-0
230
1
0
CIRCLE
5
214
100
AcDbEntity
8
0
100
AcDbCircle
10
-1.2024340068756982
20
-1.0265029134080645
30
0
40
0.020000000000000066
210
0
220
-0
230
1
0
CIRCLE
5
215
100
AcDbEntity
8
0
100
AcDbCircle
10
-0.40243400687569408
20
-1.8265029134080588
30
0
40
0.020000000000000021
210
0
220
-0
230
1
0
CIRCLE
5
216
100
AcDbEntity
8
0
100
AcDbCircle
10
0.097565993124301684
20
-1.0265029134080577
30
0
40
0.020000000000000066
210
0
220
-0
230
1
0
CIRCLE
5
217
100
AcDbEntity
8
0
100
AcDbCircle
10
-0.30243400687569827
20
-1.0265029134080599
30
0
40
0.020000000000000066
210
0
220
-0
230
1
0
CIRCLE
5
218
100
AcDbEntity
8
0
100
AcDbCircle
10
-1.2024340068756942
20
-1.826502913408063
30
0
40
0.020000000000000066
210
0
220
-0
230
1
0
CIRCLE
5
219
100
AcDbEntity
8
0
100
AcDbCircle
10
-0.50243400687569828
20
-1.0265029134080608
30
0
40
0.020000000000000066
210
0
220
-0
230
1
0
CIRCLE
5
220
100
AcDbEntity
8
0
100
AcDbCircle
10
-0.70243400687569812
20
-1.0265029134080619
30
0
40
0.020000000000000066
210
0
220
-0
230
1
0
CIRCLE
5
221
100
AcDbEntity
8
0
100
AcDbCircle
10
1.0394561508804965
20
-0.11878438936281455
30
0
40
0.019999999999999719
210
-0
220
0
230
1
0
CIRCLE
5
222
100
AcDbEntity
8
0
100
AcDbCircle
10
-1.4912528491193691
20
0.081215610637186145
30
0
40
0.019999999999999369
210
-0
220
0
230
1
0
CIRCLE
5
223
100
AcDbEntity
8
0
100
AcDbCircle
10
-1.4912528491193724
20
-0.41878438936280316
30
0
40
0.019999999999999369
210
-0
220
0
230
1
0
CIRCLE
5
224
100
AcDbEntity
8
0
100
AcDbCircle
10
0.010322150880550669
20
-0.033744389362814119
30
0
40
0.019999999999999636
210
-0
220
0
230
1
0
CIRCLE
5
225
100
AcDbEntity
8
0
100
AcDbCircle
10
1.0394561508804945
20
-0.41878438936280804
30
0
40
0.019999999999999719
210
-0
220
0
230
1
0
CIRCLE
5
226
100
AcDbEntity
8
0
100
AcDbCircle
10
0.31032215088053511
20
-0.033744389362814813
30
0
40
0.019999999999999629
210
-0
220
0
230
1
0
CIRCLE
5
227
100
AcDbEntity
8
0
100
AcDbCircle
10
1.0394561508804974
20
-0.01878438936281648
30
0
40
0.019999999999999719
210
-0
220
0
230
1
0
CIRCLE
5
228
100
AcDbEntity
8
0
100
AcDbCircle
10
-0.18967784911943844
20
-0.033744389362813765
30
0
40
0.019999999999999629
210
-0
220
0
230
1
0
CIRCLE
5
229
100
AcDbEntity
8
0
100
AcDbCircle
10
-1.4912528491193717
20
-0.31878438936280545
30
0
40
0.019999999999999369
210
-0
220
0
230
1
0
CIRCLE
5
230
100
AcDbEntity
8
0
100
AcDbCircle
10
-0.78967784911940764
20
-0.033744389362812717
30
0
40
0.019999999999999369
210
-0
220
0
230
1
0
CIRCLE
5
231
100
AcDbEntity
8
0
100
AcDbCircle
10
-1.4912528491193711
20
-0.21878438936280736
30
0
40
0.019999999999999369
210
-0
220
0
230
1
0
CIRCLE
5
232
100
AcDbEntity
8
0
100
AcDbCircle
10
-0.5896778491194179
20
-0.033744389362813064
30
0
40
0.019999999999999369
210
-0
220
0
230
1
0
CIRCLE
5
233
100
AcDbEntity
8
0
100
AcDbCircle
10
1.0394561508804958
20
-0.21878438936281228
30
0
40
0.019999999999999719
210
-0
220
0
230
1
0
CIRCLE
5
234
100
AcDbEntity
8
0
100
AcDbCircle
10
0.11032215088054559
20
-0.033744389362814466
30
0
40
0.019999999999999629
210
-0
220
0
230
1
0
CIRCLE
5
235
100
AcDbEntity
8
0
100
AcDbCircle
10
0.41032215088053003
20
-0.033744389362814813
30
0
40
0.019999999999999629
210
-0
220
0
230
1
0
CIRCLE
5
236
100
AcDbEntity
8
0
100
AcDbCircle
10
-1.4912528491193697
20
-0.018784389362811585
30
0
40
0.019999999999999369
210
-0
220
0
230
1
0
CIRCLE
5
237
100
AcDbEntity
8
0
100
AcDbCircle
10
1.039456150880498
20
0.081215610637181246
30
0
40
0.019999999999999719
210
-0
220
0
230
1
0
CIRCLE
5
238
100
AcDbEntity
8
0
100
AcDbCircle
10
1.0394561508804951
20
-0.31878438936281034
30
0
40
0.019999999999999719
210
-0
220
0
230
1
0
CIRCLE
5
239
100
AcDbEntity
8
0
100
AcDbCircle
10
-0.089677849119443903
20
-0.033744389362814119
30
0
40
0.019999999999999629
210
-0
220
0
230
1
0
CIRCLE
5
240
100
AcDbEntity
8
0
100
AcDbCircle
10
-1.4912528491193704
20
-0.11878438936280965
30
0
40
0.019999999999999369
210
-0
220
0
230
1
0
CIRCLE
5
241
100
AcDbEntity
8
0
100
AcDbCircle
10
-0.6896778491194121
20
-0.033744389362812717
30
0
40
0.019999999999999369
210
-0
220
0
230
1
0
CIRCLE
5
242
100
AcDbEntity
8
0
100
AcDbCircle
10
-0.28967784911943339
20
-0.033744389362813765
30
0
40
0.019999999999999629
210
-0
220
0
230
1
0
CIRCLE
5
243
100
AcDbEntity
8
0
100
AcDbCircle
10
-0.38967784911942799
20
-0.033744389362813418
30
0
40
0.019999999999999629
210
-0
220
0
230
1
0
LWPOLYLINE
5
244
100
AcDbEntity
8
0
100
AcDbPolyline
90
4
70
1
43
0.0
10
0.95193242513284804
20
-0.059763052120150643
42
-0.99999999999999989
10
0.80193242513284801
20
-0.059763052120150616
10
0.80193242513284801
20
0.099481610202509813
42
-0.99999999999999989
10
0.95193242513284804
20
0.099481610202509813
0
LWPOLYLINE
5
245
100
AcDbEntity
8
0
100
AcDbPolyline
90
4
70
1
43
0.0
10
0.95193242513284804
20
-0.62243666372859552
42
-0.99999999999999989
10
0.80193242513284801
20
-0.62243666372859552
10
0.80193242513284801
20
-0.46319200140593508
42
-0.99999999999999989
10
0.95193242513284804
20
-0.46319200140593508
0
LWPOLYLINE
5
246
100
AcDbEntity
8
0
100
AcDbPolyline
90
4
70
1
43
0.0
10
-1.560036773936184
20
-3.0959354046762746
10
-1.5600367739361842
20
0.35785613429747298
10
1.0993186196840454
20
0.35785613429747315
10
1.099318619684047
20
-3.0959354046762737
42
-0.22739712443721688
0
ENDSEC
0
SECTION
2
OBJECTS
0
DICTIONARY
5
C
100
AcDbDictionary
3
ACAD_GROUP
350
D
3
ACAD_MLINESTYLE
350
17
0
DICTIONARY
5
D
100
AcDbDictionary
0
DICTIONARY
5
1A
330
C
100
AcDbDictionary
0
DICTIONARY
5
17
100
AcDbDictionary
0
ENDSEC
0
EOF
