G04 #@! TF.GenerationSoftware,KiCad,Pcbnew,(5.1.2)-2*
G04 #@! TF.CreationDate,2020-07-24T13:05:48-04:00*
G04 #@! TF.ProjectId,shim-PCB,7368696d-2d50-4434-922e-6b696361645f,rev?*
G04 #@! TF.SameCoordinates,Original*
G04 #@! TF.FileFunction,Copper,L2,Inr*
G04 #@! TF.FilePolarity,Positive*
%FSLAX46Y46*%
G04 Gerber Fmt 4.6, Leading zero omitted, Abs format (unit mm)*
G04 Created by KiCad (PCBNEW (5.1.2)-2) date 2020-07-24 13:05:48*
%MOMM*%
%LPD*%
G04 APERTURE LIST*
%ADD10C,0.050000*%
%ADD11R,1.700000X1.700000*%
%ADD12O,1.700000X1.700000*%
%ADD13C,1.400000*%
%ADD14O,1.400000X1.400000*%
%ADD15R,1.600000X1.600000*%
%ADD16O,1.600000X1.600000*%
%ADD17C,0.800000*%
%ADD18C,0.250000*%
G04 APERTURE END LIST*
D10*
X107878075Y-48006000D02*
X175425701Y-48006000D01*
X107878075Y-135724057D02*
X107878075Y-139534057D01*
X171682092Y-54560466D02*
X171682092Y-58605279D01*
X107878075Y-47997753D02*
X175425701Y-47997753D01*
X171682092Y-68852374D02*
X171682092Y-72897189D01*
X171682092Y-58605279D02*
G75*
G02X167872092Y-58605279I-1905000J0D01*
G01*
X167872092Y-68852374D02*
G75*
G02X171682092Y-68852374I1905000J0D01*
G01*
X175425701Y-47997753D02*
X175425701Y-139534057D01*
X167872092Y-58605279D02*
X167872092Y-54560466D01*
X167872092Y-54560466D02*
G75*
G02X171682092Y-54560466I1905000J0D01*
G01*
X171682092Y-72897189D02*
G75*
G02X167872092Y-72897189I-1905000J0D01*
G01*
X107878075Y-135724057D02*
X107878075Y-47997753D01*
X167872092Y-72897189D02*
X167872092Y-68852374D01*
X175371400Y-139560075D02*
G75*
G02X107878075Y-139534057I-33719511J70447727D01*
G01*
D11*
X154940000Y-129540000D03*
D12*
X157480000Y-129540000D03*
X160020000Y-129540000D03*
D13*
X111506000Y-128270000D03*
D14*
X119126000Y-128270000D03*
D15*
X118414000Y-62654400D03*
D16*
X118414000Y-55034400D03*
D15*
X120954000Y-62654400D03*
D16*
X120954000Y-55034400D03*
D11*
X110744000Y-85700500D03*
D12*
X113284000Y-85700500D03*
X115824000Y-85700500D03*
X118364000Y-85700500D03*
X120904000Y-85700500D03*
X123444000Y-85700500D03*
X125984000Y-85700500D03*
X128524000Y-85700500D03*
X131064000Y-85700500D03*
X133604000Y-85700500D03*
X136144000Y-85700500D03*
X138684000Y-85700500D03*
X141224000Y-85700500D03*
X143764000Y-85700500D03*
X146304000Y-85700500D03*
X148844000Y-85700500D03*
D11*
X131064000Y-137160000D03*
D12*
X128524000Y-137160000D03*
X125984000Y-137160000D03*
X123444000Y-137160000D03*
D11*
X135128000Y-137160000D03*
D12*
X137668000Y-137160000D03*
X140208000Y-137160000D03*
X142748000Y-137160000D03*
D11*
X147320000Y-137160000D03*
D12*
X149860000Y-137160000D03*
X152400000Y-137160000D03*
X154940000Y-137160000D03*
X157480000Y-137160000D03*
X160020000Y-137160000D03*
D11*
X149860000Y-129540000D03*
D12*
X147320000Y-129540000D03*
X144780000Y-129540000D03*
X135128000Y-129540000D03*
X137668000Y-129540000D03*
D11*
X140208000Y-129540000D03*
X123444000Y-129540000D03*
D12*
X125984000Y-129540000D03*
X128524000Y-129540000D03*
X131064000Y-129540000D03*
X156464000Y-122174000D03*
X153924000Y-122174000D03*
X151384000Y-122174000D03*
X148844000Y-122174000D03*
X146304000Y-122174000D03*
X143764000Y-122174000D03*
X141224000Y-122174000D03*
X138684000Y-122174000D03*
X136144000Y-122174000D03*
X133604000Y-122174000D03*
X131064000Y-122174000D03*
X128524000Y-122174000D03*
X125984000Y-122174000D03*
X123444000Y-122174000D03*
X120904000Y-122174000D03*
X118364000Y-122174000D03*
X115824000Y-122174000D03*
X113284000Y-122174000D03*
D11*
X110744000Y-122174000D03*
D12*
X156464000Y-114554000D03*
X153924000Y-114554000D03*
X151384000Y-114554000D03*
X148844000Y-114554000D03*
X146304000Y-114554000D03*
X143764000Y-114554000D03*
X141224000Y-114554000D03*
X138684000Y-114554000D03*
X136144000Y-114554000D03*
X133604000Y-114554000D03*
X131064000Y-114554000D03*
X128524000Y-114554000D03*
X125984000Y-114554000D03*
X123444000Y-114554000D03*
X120904000Y-114554000D03*
X118364000Y-114554000D03*
X115824000Y-114554000D03*
X113284000Y-114554000D03*
D11*
X110744000Y-114554000D03*
X110744000Y-106020000D03*
D12*
X113284000Y-106020000D03*
X115824000Y-106020000D03*
X118364000Y-106020000D03*
X120904000Y-106020000D03*
X123444000Y-106020000D03*
X125984000Y-106020000D03*
X128524000Y-106020000D03*
X131064000Y-106020000D03*
X133604000Y-106020000D03*
X136144000Y-106020000D03*
X138684000Y-106020000D03*
D11*
X110744000Y-89052400D03*
D12*
X113284000Y-89052400D03*
X115824000Y-89052400D03*
X118364000Y-89052400D03*
X120904000Y-89052400D03*
X123444000Y-89052400D03*
X125984000Y-89052400D03*
X128524000Y-89052400D03*
X131064000Y-89052400D03*
X133604000Y-89052400D03*
X136144000Y-89052400D03*
X138684000Y-89052400D03*
X141224000Y-89052400D03*
X143764000Y-89052400D03*
X146304000Y-89052400D03*
X148844000Y-89052400D03*
X151384000Y-89052400D03*
X153924000Y-89052400D03*
X156464000Y-89052400D03*
D11*
X110744000Y-77724000D03*
D12*
X113284000Y-77724000D03*
X115824000Y-77724000D03*
X118364000Y-77724000D03*
X120904000Y-77724000D03*
X123444000Y-77724000D03*
X125984000Y-77724000D03*
X128524000Y-77724000D03*
X131064000Y-77724000D03*
X133604000Y-77724000D03*
X136144000Y-77724000D03*
X138684000Y-77724000D03*
X141224000Y-77724000D03*
X143764000Y-77724000D03*
X146304000Y-77724000D03*
X148844000Y-77724000D03*
X151384000Y-77724000D03*
X153924000Y-77724000D03*
X156464000Y-77724000D03*
D11*
X132525000Y-57944400D03*
D12*
X129985000Y-57944400D03*
X127445000Y-57944400D03*
D11*
X150305000Y-57944400D03*
D12*
X147765000Y-57944400D03*
X145225000Y-57944400D03*
X142685000Y-57944400D03*
X140145000Y-57944400D03*
X137605000Y-57944400D03*
D11*
X173914000Y-67716400D03*
D12*
X173914000Y-65176400D03*
X173914000Y-62636400D03*
X173914000Y-60096400D03*
X173914000Y-57556400D03*
X173914000Y-55016400D03*
X109625000Y-67724400D03*
X109625000Y-65184400D03*
X109625000Y-62644400D03*
X109625000Y-60104400D03*
X109625000Y-57564400D03*
D11*
X109625000Y-55024400D03*
D15*
X143955000Y-66040000D03*
D16*
X151575000Y-66040000D03*
D15*
X143955000Y-62654400D03*
D16*
X151575000Y-62654400D03*
D15*
X163740000Y-62654400D03*
D16*
X163740000Y-55034400D03*
X161200000Y-55034400D03*
D15*
X161200000Y-62654400D03*
D16*
X115874000Y-55034400D03*
D15*
X115874000Y-62654400D03*
D17*
X134638700Y-75771500D03*
X137319300Y-91425600D03*
X139204700Y-94427100D03*
X150290500Y-90340200D03*
X162570000Y-122174000D03*
X167650000Y-122174000D03*
X165544500Y-122301000D03*
D18*
X113284000Y-85700500D02*
X114459300Y-85700500D01*
X134638700Y-75771500D02*
X131350900Y-75771500D01*
X131350900Y-75771500D02*
X129794000Y-77328400D01*
X129794000Y-77328400D02*
X129794000Y-78142400D01*
X129794000Y-78142400D02*
X123411200Y-84525200D01*
X123411200Y-84525200D02*
X115267200Y-84525200D01*
X115267200Y-84525200D02*
X114459300Y-85333100D01*
X114459300Y-85333100D02*
X114459300Y-85700500D01*
X136144000Y-89052400D02*
X136144000Y-87877100D01*
X136144000Y-77724000D02*
X136144000Y-78899300D01*
X136144000Y-78899300D02*
X137319300Y-80074600D01*
X137319300Y-80074600D02*
X137319300Y-86701800D01*
X137319300Y-86701800D02*
X136144000Y-87877100D01*
X128524000Y-89052400D02*
X127348700Y-89052400D01*
X127348700Y-89052400D02*
X127348700Y-88685000D01*
X127348700Y-88685000D02*
X126540800Y-87877100D01*
X126540800Y-87877100D02*
X122900000Y-87877100D01*
X122900000Y-87877100D02*
X121898700Y-86875800D01*
X121898700Y-86875800D02*
X120347200Y-86875800D01*
X120347200Y-86875800D02*
X119539300Y-86067900D01*
X119539300Y-86067900D02*
X119539300Y-85700500D01*
X118364000Y-85700500D02*
X119539300Y-85700500D01*
X120904000Y-85700500D02*
X122079300Y-85700500D01*
X131064000Y-89052400D02*
X129888700Y-89052400D01*
X129888700Y-89052400D02*
X129888700Y-88685100D01*
X129888700Y-88685100D02*
X128630300Y-87426700D01*
X128630300Y-87426700D02*
X123504200Y-87426700D01*
X123504200Y-87426700D02*
X122079300Y-86001800D01*
X122079300Y-86001800D02*
X122079300Y-85700500D01*
X137668000Y-129540000D02*
X136492700Y-129540000D01*
X115824000Y-122174000D02*
X116999300Y-122174000D01*
X116999300Y-122174000D02*
X116999300Y-122541300D01*
X116999300Y-122541300D02*
X121934400Y-127476400D01*
X121934400Y-127476400D02*
X134796400Y-127476400D01*
X134796400Y-127476400D02*
X136492700Y-129172700D01*
X136492700Y-129172700D02*
X136492700Y-129540000D01*
X147320000Y-129540000D02*
X146144700Y-129540000D01*
X118364000Y-122174000D02*
X119539300Y-122174000D01*
X119539300Y-122174000D02*
X119539300Y-122541400D01*
X119539300Y-122541400D02*
X120347200Y-123349300D01*
X120347200Y-123349300D02*
X140321300Y-123349300D01*
X140321300Y-123349300D02*
X146144700Y-129172700D01*
X146144700Y-129172700D02*
X146144700Y-129540000D01*
X133604000Y-85700500D02*
X133604000Y-86875800D01*
X120904000Y-114554000D02*
X120904000Y-111836500D01*
X120904000Y-111836500D02*
X117187000Y-108119500D01*
X117187000Y-108119500D02*
X117187000Y-105495300D01*
X117187000Y-105495300D02*
X132060800Y-90621500D01*
X132060800Y-90621500D02*
X133697400Y-90621500D01*
X133697400Y-90621500D02*
X134779300Y-89539600D01*
X134779300Y-89539600D02*
X134779300Y-88051100D01*
X134779300Y-88051100D02*
X133604000Y-86875800D01*
X133604000Y-85700500D02*
X133604000Y-84525200D01*
X143955000Y-66040000D02*
X143955000Y-68184200D01*
X143955000Y-68184200D02*
X134779300Y-77359900D01*
X134779300Y-77359900D02*
X134779300Y-83349900D01*
X134779300Y-83349900D02*
X133604000Y-84525200D01*
X125984000Y-114554000D02*
X124808700Y-114554000D01*
X118364000Y-106020000D02*
X118364000Y-107195300D01*
X118364000Y-107195300D02*
X124808700Y-113640000D01*
X124808700Y-113640000D02*
X124808700Y-114554000D01*
X109625000Y-57564400D02*
X110800300Y-57564400D01*
X115874000Y-62654400D02*
X114748700Y-62654400D01*
X114748700Y-62654400D02*
X110800300Y-58706000D01*
X110800300Y-58706000D02*
X110800300Y-57564400D01*
X131064000Y-114554000D02*
X131064000Y-113378700D01*
X131064000Y-113378700D02*
X124714000Y-107028700D01*
X124714000Y-107028700D02*
X124714000Y-104030900D01*
X124714000Y-104030900D02*
X137319300Y-91425600D01*
X138684000Y-85700500D02*
X138684000Y-86875800D01*
X133604000Y-114554000D02*
X132428700Y-114554000D01*
X132428700Y-114554000D02*
X132428700Y-114921300D01*
X132428700Y-114921300D02*
X131580300Y-115769700D01*
X131580300Y-115769700D02*
X130617400Y-115769700D01*
X130617400Y-115769700D02*
X129794000Y-114946300D01*
X129794000Y-114946300D02*
X129794000Y-114064500D01*
X129794000Y-114064500D02*
X123075100Y-107345600D01*
X123075100Y-107345600D02*
X120556000Y-107345600D01*
X120556000Y-107345600D02*
X119727200Y-106516800D01*
X119727200Y-106516800D02*
X119727200Y-105523800D01*
X119727200Y-105523800D02*
X120641000Y-104610000D01*
X120641000Y-104610000D02*
X122248700Y-104610000D01*
X122248700Y-104610000D02*
X137414000Y-89444700D01*
X137414000Y-89444700D02*
X137414000Y-88145800D01*
X137414000Y-88145800D02*
X138684000Y-86875800D01*
X163740000Y-62654400D02*
X162614600Y-61529000D01*
X162614600Y-61529000D02*
X160244800Y-61529000D01*
X160244800Y-61529000D02*
X147574000Y-74199800D01*
X147574000Y-74199800D02*
X147574000Y-78142400D01*
X147574000Y-78142400D02*
X141191200Y-84525200D01*
X141191200Y-84525200D02*
X140667200Y-84525200D01*
X140667200Y-84525200D02*
X139859300Y-85333100D01*
X139859300Y-85333100D02*
X139859300Y-85700500D01*
X163740000Y-62654400D02*
X172720700Y-62654400D01*
X172720700Y-62654400D02*
X172738700Y-62636400D01*
X138684000Y-85700500D02*
X139859300Y-85700500D01*
X173914000Y-62636400D02*
X172738700Y-62636400D01*
X126571700Y-106020000D02*
X141036100Y-91555600D01*
X141036100Y-91555600D02*
X148037100Y-91555600D01*
X148037100Y-91555600D02*
X150114000Y-89478700D01*
X150114000Y-89478700D02*
X150114000Y-84373000D01*
X150114000Y-84373000D02*
X155194000Y-79293000D01*
X155194000Y-79293000D02*
X155194000Y-74126400D01*
X155194000Y-74126400D02*
X164144000Y-65176400D01*
X164144000Y-65176400D02*
X173914000Y-65176400D01*
X162325300Y-62654400D02*
X162325300Y-63357700D01*
X162325300Y-63357700D02*
X164144000Y-65176400D01*
X126571700Y-106020000D02*
X127159300Y-106020000D01*
X125984000Y-106020000D02*
X126571700Y-106020000D01*
X136144000Y-114554000D02*
X134968700Y-114554000D01*
X127159300Y-106020000D02*
X127159300Y-106387400D01*
X127159300Y-106387400D02*
X134968700Y-114196800D01*
X134968700Y-114196800D02*
X134968700Y-114554000D01*
X161200000Y-62654400D02*
X162325300Y-62654400D01*
X114475700Y-63779800D02*
X110800300Y-60104400D01*
X117288700Y-62654400D02*
X117288700Y-63357700D01*
X117288700Y-63357700D02*
X116866600Y-63779800D01*
X116866600Y-63779800D02*
X114475700Y-63779800D01*
X114475700Y-63779800D02*
X114475700Y-65194100D01*
X114475700Y-65194100D02*
X109568600Y-70101200D01*
X109568600Y-70101200D02*
X109568600Y-98589300D01*
X109568600Y-98589300D02*
X115824000Y-104844700D01*
X115824000Y-106020000D02*
X115824000Y-104844700D01*
X109625000Y-60104400D02*
X110800300Y-60104400D01*
X118414000Y-62654400D02*
X117288700Y-62654400D01*
X138684000Y-114554000D02*
X137508700Y-114554000D01*
X115824000Y-106020000D02*
X115824000Y-108557100D01*
X115824000Y-108557100D02*
X119634000Y-112367100D01*
X119634000Y-112367100D02*
X119634000Y-114948600D01*
X119634000Y-114948600D02*
X120911700Y-116226300D01*
X120911700Y-116226300D02*
X136201700Y-116226300D01*
X136201700Y-116226300D02*
X137508700Y-114919300D01*
X137508700Y-114919300D02*
X137508700Y-114554000D01*
X129404000Y-106020000D02*
X129404000Y-104227800D01*
X129404000Y-104227800D02*
X139204700Y-94427100D01*
X140048700Y-114554000D02*
X140048700Y-114186600D01*
X140048700Y-114186600D02*
X139240800Y-113378700D01*
X139240800Y-113378700D02*
X136688300Y-113378700D01*
X136688300Y-113378700D02*
X129404000Y-106094400D01*
X129404000Y-106094400D02*
X129404000Y-106020000D01*
X141224000Y-114554000D02*
X140048700Y-114554000D01*
X128524000Y-106020000D02*
X129404000Y-106020000D01*
X137504400Y-107195300D02*
X138137300Y-107195300D01*
X138137300Y-107195300D02*
X145128700Y-114186700D01*
X145128700Y-114186700D02*
X145128700Y-114554000D01*
X132239300Y-106020000D02*
X132239300Y-106349000D01*
X132239300Y-106349000D02*
X133085600Y-107195300D01*
X133085600Y-107195300D02*
X137504400Y-107195300D01*
X137504400Y-107195300D02*
X137504400Y-103126300D01*
X137504400Y-103126300D02*
X150290500Y-90340200D01*
X146304000Y-114554000D02*
X145128700Y-114554000D01*
X131064000Y-106020000D02*
X132239300Y-106020000D01*
X110744000Y-106020000D02*
X111919300Y-106020000D01*
X162570000Y-122174000D02*
X161394700Y-122174000D01*
X161394700Y-122174000D02*
X160219400Y-120998700D01*
X160219400Y-120998700D02*
X123146300Y-120998700D01*
X123146300Y-120998700D02*
X117094000Y-114946400D01*
X117094000Y-114946400D02*
X117094000Y-110551600D01*
X117094000Y-110551600D02*
X115373600Y-108831200D01*
X115373600Y-108831200D02*
X115373600Y-107469800D01*
X115373600Y-107469800D02*
X114554000Y-106650200D01*
X114554000Y-106650200D02*
X114554000Y-105599200D01*
X114554000Y-105599200D02*
X113799500Y-104844700D01*
X113799500Y-104844700D02*
X112727200Y-104844700D01*
X112727200Y-104844700D02*
X111919300Y-105652600D01*
X111919300Y-105652600D02*
X111919300Y-106020000D01*
X113284000Y-106020000D02*
X113284000Y-107195300D01*
X113284000Y-107195300D02*
X114459300Y-108370600D01*
X114459300Y-108370600D02*
X114459300Y-122722800D01*
X114459300Y-122722800D02*
X126451100Y-134714600D01*
X126451100Y-134714600D02*
X137762600Y-134714600D01*
X137762600Y-134714600D02*
X140208000Y-137160000D01*
X137668000Y-137160000D02*
X138843300Y-137160000D01*
X167650000Y-122174000D02*
X167650000Y-123577100D01*
X167650000Y-123577100D02*
X159668300Y-131558800D01*
X159668300Y-131558800D02*
X158850000Y-131558800D01*
X158850000Y-131558800D02*
X153670000Y-136738800D01*
X153670000Y-136738800D02*
X153670000Y-137561300D01*
X153670000Y-137561300D02*
X152896000Y-138335300D01*
X152896000Y-138335300D02*
X139651200Y-138335300D01*
X139651200Y-138335300D02*
X138843300Y-137527400D01*
X138843300Y-137527400D02*
X138843300Y-137160000D01*
X123444000Y-89052400D02*
X122268700Y-89052400D01*
X110744000Y-85700500D02*
X111919300Y-85700500D01*
X111919300Y-85700500D02*
X111919300Y-86067900D01*
X111919300Y-86067900D02*
X113728500Y-87877100D01*
X113728500Y-87877100D02*
X121460800Y-87877100D01*
X121460800Y-87877100D02*
X122268700Y-88685000D01*
X122268700Y-88685000D02*
X122268700Y-89052400D01*
X129845600Y-86875800D02*
X125427200Y-86875800D01*
X125427200Y-86875800D02*
X124619300Y-86067900D01*
X124619300Y-86067900D02*
X124619300Y-85700500D01*
X132428700Y-89052400D02*
X132428700Y-88685100D01*
X132428700Y-88685100D02*
X130619400Y-86875800D01*
X130619400Y-86875800D02*
X129845600Y-86875800D01*
X133604000Y-78899300D02*
X129845600Y-82657700D01*
X129845600Y-82657700D02*
X129845600Y-86875800D01*
X133604000Y-77724000D02*
X133604000Y-78899300D01*
X123444000Y-85700500D02*
X124619300Y-85700500D01*
X133604000Y-89052400D02*
X132428700Y-89052400D01*
X125984000Y-84525200D02*
X132334000Y-78175200D01*
X132334000Y-78175200D02*
X132334000Y-77314100D01*
X132334000Y-77314100D02*
X133151300Y-76496800D01*
X133151300Y-76496800D02*
X134939200Y-76496800D01*
X134939200Y-76496800D02*
X135385800Y-76050200D01*
X135385800Y-76050200D02*
X135385800Y-72523200D01*
X135385800Y-72523200D02*
X143001200Y-64907800D01*
X143001200Y-64907800D02*
X145132800Y-64907800D01*
X145132800Y-64907800D02*
X147765000Y-62275600D01*
X147765000Y-62275600D02*
X147765000Y-57944400D01*
X141224000Y-76548700D02*
X145132800Y-72639900D01*
X145132800Y-72639900D02*
X145132800Y-64907800D01*
X125984000Y-85700500D02*
X125984000Y-84525200D01*
X141224000Y-77724000D02*
X141224000Y-76548700D01*
X120904000Y-106020000D02*
X122079300Y-106020000D01*
X148844000Y-89052400D02*
X147668700Y-89052400D01*
X147668700Y-89052400D02*
X147668700Y-89419800D01*
X147668700Y-89419800D02*
X146860800Y-90227700D01*
X146860800Y-90227700D02*
X137420900Y-90227700D01*
X137420900Y-90227700D02*
X122079300Y-105569300D01*
X122079300Y-105569300D02*
X122079300Y-106020000D01*
X143955000Y-62654400D02*
X143955000Y-61529100D01*
X143955000Y-61529100D02*
X143860300Y-61434400D01*
X143860300Y-61434400D02*
X143860300Y-57944400D01*
X150305000Y-57944400D02*
X149129700Y-57944400D01*
X142685000Y-57944400D02*
X143860300Y-57944400D01*
X143860300Y-57944400D02*
X143860300Y-57577100D01*
X143860300Y-57577100D02*
X144668300Y-56769100D01*
X144668300Y-56769100D02*
X148321800Y-56769100D01*
X148321800Y-56769100D02*
X149129700Y-57577000D01*
X149129700Y-57577000D02*
X149129700Y-57944400D01*
X163934700Y-122174000D02*
X163934700Y-122982100D01*
X163934700Y-122982100D02*
X163567500Y-123349300D01*
X163567500Y-123349300D02*
X161448200Y-123349300D01*
X149860000Y-134937500D02*
X149860000Y-137160000D01*
X165417500Y-122174000D02*
X165544500Y-122301000D01*
X164592000Y-122174000D02*
X165417500Y-122174000D01*
X164592000Y-122174000D02*
X163934700Y-122174000D01*
X165110000Y-122174000D02*
X164592000Y-122174000D01*
X158210250Y-126587250D02*
X154336750Y-126587250D01*
X161448200Y-123349300D02*
X158210250Y-126587250D01*
X153416000Y-127508000D02*
X153416000Y-131381500D01*
X154336750Y-126587250D02*
X153416000Y-127508000D01*
X153416000Y-131381500D02*
X149860000Y-134937500D01*
M02*
