G04 #@! TF.GenerationSoftware,KiCad,Pcbnew,(5.1.2)-2*
G04 #@! TF.CreationDate,2020-07-24T13:05:48-04:00*
G04 #@! TF.ProjectId,shim-PCB,7368696d-2d50-4434-922e-6b696361645f,rev?*
G04 #@! TF.SameCoordinates,Original*
G04 #@! TF.FileFunction,Legend,Top*
G04 #@! TF.FilePolarity,Positive*
%FSLAX46Y46*%
G04 Gerber Fmt 4.6, Leading zero omitted, Abs format (unit mm)*
G04 Created by KiCad (PCBNEW (5.1.2)-2) date 2020-07-24 13:05:48*
%MOMM*%
%LPD*%
G04 APERTURE LIST*
%ADD10C,0.050000*%
%ADD11C,0.010000*%
%ADD12C,0.120000*%
G04 APERTURE END LIST*
D10*
X107878075Y-48006000D02*
X175425701Y-48006000D01*
X107878075Y-135724057D02*
X107878075Y-139534057D01*
X171682092Y-54560466D02*
X171682092Y-58605279D01*
X107878075Y-47997753D02*
X175425701Y-47997753D01*
X171682092Y-68852374D02*
X171682092Y-72897189D01*
X171682092Y-58605279D02*
G75*
G02X167872092Y-58605279I-1905000J0D01*
G01*
X167872092Y-68852374D02*
G75*
G02X171682092Y-68852374I1905000J0D01*
G01*
X175425701Y-47997753D02*
X175425701Y-139534057D01*
X167872092Y-58605279D02*
X167872092Y-54560466D01*
X167872092Y-54560466D02*
G75*
G02X171682092Y-54560466I1905000J0D01*
G01*
X171682092Y-72897189D02*
G75*
G02X167872092Y-72897189I-1905000J0D01*
G01*
X107878075Y-135724057D02*
X107878075Y-47997753D01*
X167872092Y-72897189D02*
X167872092Y-68852374D01*
X175371400Y-139560075D02*
G75*
G02X107878075Y-139534057I-33719511J70447727D01*
G01*
D11*
G36*
X163855979Y-56416803D02*
G01*
X163954408Y-56417057D01*
X164032935Y-56417656D01*
X164094309Y-56418742D01*
X164141279Y-56420459D01*
X164176594Y-56422948D01*
X164203003Y-56426353D01*
X164223255Y-56430817D01*
X164240099Y-56436482D01*
X164256285Y-56443492D01*
X164257154Y-56443894D01*
X164332015Y-56489529D01*
X164400789Y-56551573D01*
X164453963Y-56621403D01*
X164455122Y-56623365D01*
X164464881Y-56639984D01*
X164473640Y-56655697D01*
X164481453Y-56671897D01*
X164488375Y-56689977D01*
X164494459Y-56711328D01*
X164499760Y-56737344D01*
X164504332Y-56769416D01*
X164508230Y-56808938D01*
X164511507Y-56857302D01*
X164514218Y-56915901D01*
X164516416Y-56986126D01*
X164518157Y-57069370D01*
X164519494Y-57167027D01*
X164520482Y-57280488D01*
X164521174Y-57411146D01*
X164521626Y-57560393D01*
X164521890Y-57729623D01*
X164522022Y-57920227D01*
X164522076Y-58133598D01*
X164522101Y-58343975D01*
X164522300Y-59864800D01*
X162947500Y-59864800D01*
X162947698Y-58343975D01*
X162947727Y-58109150D01*
X162947787Y-57898332D01*
X162947930Y-57710130D01*
X162948213Y-57543150D01*
X162948688Y-57396000D01*
X162949410Y-57267288D01*
X162950433Y-57155620D01*
X162951811Y-57059605D01*
X162953600Y-56977850D01*
X162955852Y-56908962D01*
X162958621Y-56851549D01*
X162961964Y-56804218D01*
X162965932Y-56765577D01*
X162970581Y-56734234D01*
X162975965Y-56708795D01*
X162982138Y-56687869D01*
X162989155Y-56670062D01*
X162997068Y-56653983D01*
X163005934Y-56638238D01*
X163014677Y-56623365D01*
X163067283Y-56553442D01*
X163135754Y-56491066D01*
X163210574Y-56444860D01*
X163212645Y-56443894D01*
X163228871Y-56436810D01*
X163245614Y-56431079D01*
X163265623Y-56426556D01*
X163291647Y-56423100D01*
X163326434Y-56420567D01*
X163372735Y-56418814D01*
X163433297Y-56417699D01*
X163510871Y-56417078D01*
X163608204Y-56416810D01*
X163728046Y-56416750D01*
X163734900Y-56416750D01*
X163855979Y-56416803D01*
X163855979Y-56416803D01*
G37*
X163855979Y-56416803D02*
X163954408Y-56417057D01*
X164032935Y-56417656D01*
X164094309Y-56418742D01*
X164141279Y-56420459D01*
X164176594Y-56422948D01*
X164203003Y-56426353D01*
X164223255Y-56430817D01*
X164240099Y-56436482D01*
X164256285Y-56443492D01*
X164257154Y-56443894D01*
X164332015Y-56489529D01*
X164400789Y-56551573D01*
X164453963Y-56621403D01*
X164455122Y-56623365D01*
X164464881Y-56639984D01*
X164473640Y-56655697D01*
X164481453Y-56671897D01*
X164488375Y-56689977D01*
X164494459Y-56711328D01*
X164499760Y-56737344D01*
X164504332Y-56769416D01*
X164508230Y-56808938D01*
X164511507Y-56857302D01*
X164514218Y-56915901D01*
X164516416Y-56986126D01*
X164518157Y-57069370D01*
X164519494Y-57167027D01*
X164520482Y-57280488D01*
X164521174Y-57411146D01*
X164521626Y-57560393D01*
X164521890Y-57729623D01*
X164522022Y-57920227D01*
X164522076Y-58133598D01*
X164522101Y-58343975D01*
X164522300Y-59864800D01*
X162947500Y-59864800D01*
X162947698Y-58343975D01*
X162947727Y-58109150D01*
X162947787Y-57898332D01*
X162947930Y-57710130D01*
X162948213Y-57543150D01*
X162948688Y-57396000D01*
X162949410Y-57267288D01*
X162950433Y-57155620D01*
X162951811Y-57059605D01*
X162953600Y-56977850D01*
X162955852Y-56908962D01*
X162958621Y-56851549D01*
X162961964Y-56804218D01*
X162965932Y-56765577D01*
X162970581Y-56734234D01*
X162975965Y-56708795D01*
X162982138Y-56687869D01*
X162989155Y-56670062D01*
X162997068Y-56653983D01*
X163005934Y-56638238D01*
X163014677Y-56623365D01*
X163067283Y-56553442D01*
X163135754Y-56491066D01*
X163210574Y-56444860D01*
X163212645Y-56443894D01*
X163228871Y-56436810D01*
X163245614Y-56431079D01*
X163265623Y-56426556D01*
X163291647Y-56423100D01*
X163326434Y-56420567D01*
X163372735Y-56418814D01*
X163433297Y-56417699D01*
X163510871Y-56417078D01*
X163608204Y-56416810D01*
X163728046Y-56416750D01*
X163734900Y-56416750D01*
X163855979Y-56416803D01*
G36*
X161315979Y-56416803D02*
G01*
X161414408Y-56417057D01*
X161492935Y-56417656D01*
X161554309Y-56418742D01*
X161601279Y-56420459D01*
X161636594Y-56422948D01*
X161663003Y-56426353D01*
X161683255Y-56430817D01*
X161700099Y-56436482D01*
X161716285Y-56443492D01*
X161717154Y-56443894D01*
X161792015Y-56489529D01*
X161860789Y-56551573D01*
X161913963Y-56621403D01*
X161915122Y-56623365D01*
X161924881Y-56639984D01*
X161933640Y-56655697D01*
X161941453Y-56671897D01*
X161948375Y-56689977D01*
X161954459Y-56711328D01*
X161959760Y-56737344D01*
X161964332Y-56769416D01*
X161968230Y-56808938D01*
X161971507Y-56857302D01*
X161974218Y-56915901D01*
X161976416Y-56986126D01*
X161978157Y-57069370D01*
X161979494Y-57167027D01*
X161980482Y-57280488D01*
X161981174Y-57411146D01*
X161981626Y-57560393D01*
X161981890Y-57729623D01*
X161982022Y-57920227D01*
X161982076Y-58133598D01*
X161982101Y-58343975D01*
X161982300Y-59864800D01*
X160407500Y-59864800D01*
X160407698Y-58343975D01*
X160407727Y-58109150D01*
X160407787Y-57898332D01*
X160407930Y-57710130D01*
X160408213Y-57543150D01*
X160408688Y-57396000D01*
X160409410Y-57267288D01*
X160410433Y-57155620D01*
X160411811Y-57059605D01*
X160413600Y-56977850D01*
X160415852Y-56908962D01*
X160418621Y-56851549D01*
X160421964Y-56804218D01*
X160425932Y-56765577D01*
X160430581Y-56734234D01*
X160435965Y-56708795D01*
X160442138Y-56687869D01*
X160449155Y-56670062D01*
X160457068Y-56653983D01*
X160465934Y-56638238D01*
X160474677Y-56623365D01*
X160527283Y-56553442D01*
X160595754Y-56491066D01*
X160670574Y-56444860D01*
X160672645Y-56443894D01*
X160688871Y-56436810D01*
X160705614Y-56431079D01*
X160725623Y-56426556D01*
X160751647Y-56423100D01*
X160786434Y-56420567D01*
X160832735Y-56418814D01*
X160893297Y-56417699D01*
X160970871Y-56417078D01*
X161068204Y-56416810D01*
X161188046Y-56416750D01*
X161194900Y-56416750D01*
X161315979Y-56416803D01*
X161315979Y-56416803D01*
G37*
X161315979Y-56416803D02*
X161414408Y-56417057D01*
X161492935Y-56417656D01*
X161554309Y-56418742D01*
X161601279Y-56420459D01*
X161636594Y-56422948D01*
X161663003Y-56426353D01*
X161683255Y-56430817D01*
X161700099Y-56436482D01*
X161716285Y-56443492D01*
X161717154Y-56443894D01*
X161792015Y-56489529D01*
X161860789Y-56551573D01*
X161913963Y-56621403D01*
X161915122Y-56623365D01*
X161924881Y-56639984D01*
X161933640Y-56655697D01*
X161941453Y-56671897D01*
X161948375Y-56689977D01*
X161954459Y-56711328D01*
X161959760Y-56737344D01*
X161964332Y-56769416D01*
X161968230Y-56808938D01*
X161971507Y-56857302D01*
X161974218Y-56915901D01*
X161976416Y-56986126D01*
X161978157Y-57069370D01*
X161979494Y-57167027D01*
X161980482Y-57280488D01*
X161981174Y-57411146D01*
X161981626Y-57560393D01*
X161981890Y-57729623D01*
X161982022Y-57920227D01*
X161982076Y-58133598D01*
X161982101Y-58343975D01*
X161982300Y-59864800D01*
X160407500Y-59864800D01*
X160407698Y-58343975D01*
X160407727Y-58109150D01*
X160407787Y-57898332D01*
X160407930Y-57710130D01*
X160408213Y-57543150D01*
X160408688Y-57396000D01*
X160409410Y-57267288D01*
X160410433Y-57155620D01*
X160411811Y-57059605D01*
X160413600Y-56977850D01*
X160415852Y-56908962D01*
X160418621Y-56851549D01*
X160421964Y-56804218D01*
X160425932Y-56765577D01*
X160430581Y-56734234D01*
X160435965Y-56708795D01*
X160442138Y-56687869D01*
X160449155Y-56670062D01*
X160457068Y-56653983D01*
X160465934Y-56638238D01*
X160474677Y-56623365D01*
X160527283Y-56553442D01*
X160595754Y-56491066D01*
X160670574Y-56444860D01*
X160672645Y-56443894D01*
X160688871Y-56436810D01*
X160705614Y-56431079D01*
X160725623Y-56426556D01*
X160751647Y-56423100D01*
X160786434Y-56420567D01*
X160832735Y-56418814D01*
X160893297Y-56417699D01*
X160970871Y-56417078D01*
X161068204Y-56416810D01*
X161188046Y-56416750D01*
X161194900Y-56416750D01*
X161315979Y-56416803D01*
G36*
X121475650Y-56452403D02*
G01*
X121555890Y-56502212D01*
X121626704Y-56569659D01*
X121681653Y-56648016D01*
X121700455Y-56687409D01*
X121729650Y-56759650D01*
X121736490Y-59864800D01*
X120161200Y-59864800D01*
X120161200Y-58355233D01*
X120161311Y-58103653D01*
X120161643Y-57872153D01*
X120162192Y-57661261D01*
X120162952Y-57471502D01*
X120163920Y-57303403D01*
X120165092Y-57157489D01*
X120166462Y-57034287D01*
X120168028Y-56934323D01*
X120169783Y-56858123D01*
X120171725Y-56806213D01*
X120173849Y-56779120D01*
X120174089Y-56777702D01*
X120205737Y-56675195D01*
X120258415Y-56585318D01*
X120330141Y-56510645D01*
X120418937Y-56453753D01*
X120425404Y-56450661D01*
X120497750Y-56416750D01*
X121399450Y-56416750D01*
X121475650Y-56452403D01*
X121475650Y-56452403D01*
G37*
X121475650Y-56452403D02*
X121555890Y-56502212D01*
X121626704Y-56569659D01*
X121681653Y-56648016D01*
X121700455Y-56687409D01*
X121729650Y-56759650D01*
X121736490Y-59864800D01*
X120161200Y-59864800D01*
X120161200Y-58355233D01*
X120161311Y-58103653D01*
X120161643Y-57872153D01*
X120162192Y-57661261D01*
X120162952Y-57471502D01*
X120163920Y-57303403D01*
X120165092Y-57157489D01*
X120166462Y-57034287D01*
X120168028Y-56934323D01*
X120169783Y-56858123D01*
X120171725Y-56806213D01*
X120173849Y-56779120D01*
X120174089Y-56777702D01*
X120205737Y-56675195D01*
X120258415Y-56585318D01*
X120330141Y-56510645D01*
X120418937Y-56453753D01*
X120425404Y-56450661D01*
X120497750Y-56416750D01*
X121399450Y-56416750D01*
X121475650Y-56452403D01*
G36*
X118682007Y-56411515D02*
G01*
X118741850Y-56412199D01*
X118787883Y-56413685D01*
X118823004Y-56416102D01*
X118850112Y-56419580D01*
X118872102Y-56424248D01*
X118891873Y-56430236D01*
X118908136Y-56436099D01*
X118989786Y-56478921D01*
X119064191Y-56541188D01*
X119125062Y-56616962D01*
X119152754Y-56667048D01*
X119189650Y-56746950D01*
X119196488Y-59864800D01*
X117620522Y-59864800D01*
X117627550Y-56759650D01*
X117658078Y-56683843D01*
X117699042Y-56609736D01*
X117758125Y-56539215D01*
X117828330Y-56479665D01*
X117881550Y-56447871D01*
X117898844Y-56439623D01*
X117915466Y-56432954D01*
X117934247Y-56427672D01*
X117958018Y-56423581D01*
X117989610Y-56420489D01*
X118031855Y-56418200D01*
X118087583Y-56416522D01*
X118159626Y-56415259D01*
X118250814Y-56414217D01*
X118363979Y-56413204D01*
X118390653Y-56412978D01*
X118509307Y-56412034D01*
X118605459Y-56411503D01*
X118682007Y-56411515D01*
X118682007Y-56411515D01*
G37*
X118682007Y-56411515D02*
X118741850Y-56412199D01*
X118787883Y-56413685D01*
X118823004Y-56416102D01*
X118850112Y-56419580D01*
X118872102Y-56424248D01*
X118891873Y-56430236D01*
X118908136Y-56436099D01*
X118989786Y-56478921D01*
X119064191Y-56541188D01*
X119125062Y-56616962D01*
X119152754Y-56667048D01*
X119189650Y-56746950D01*
X119196488Y-59864800D01*
X117620522Y-59864800D01*
X117627550Y-56759650D01*
X117658078Y-56683843D01*
X117699042Y-56609736D01*
X117758125Y-56539215D01*
X117828330Y-56479665D01*
X117881550Y-56447871D01*
X117898844Y-56439623D01*
X117915466Y-56432954D01*
X117934247Y-56427672D01*
X117958018Y-56423581D01*
X117989610Y-56420489D01*
X118031855Y-56418200D01*
X118087583Y-56416522D01*
X118159626Y-56415259D01*
X118250814Y-56414217D01*
X118363979Y-56413204D01*
X118390653Y-56412978D01*
X118509307Y-56412034D01*
X118605459Y-56411503D01*
X118682007Y-56411515D01*
G36*
X116142007Y-56411515D02*
G01*
X116201850Y-56412199D01*
X116247883Y-56413685D01*
X116283004Y-56416102D01*
X116310112Y-56419580D01*
X116332102Y-56424248D01*
X116351873Y-56430236D01*
X116368136Y-56436099D01*
X116449786Y-56478921D01*
X116524191Y-56541188D01*
X116585062Y-56616962D01*
X116612754Y-56667048D01*
X116649650Y-56746950D01*
X116656488Y-59864800D01*
X115080522Y-59864800D01*
X115087550Y-56759650D01*
X115118078Y-56683843D01*
X115159042Y-56609736D01*
X115218125Y-56539215D01*
X115288330Y-56479665D01*
X115341550Y-56447871D01*
X115358844Y-56439623D01*
X115375466Y-56432954D01*
X115394247Y-56427672D01*
X115418018Y-56423581D01*
X115449610Y-56420489D01*
X115491855Y-56418200D01*
X115547583Y-56416522D01*
X115619626Y-56415259D01*
X115710814Y-56414217D01*
X115823979Y-56413204D01*
X115850653Y-56412978D01*
X115969307Y-56412034D01*
X116065459Y-56411503D01*
X116142007Y-56411515D01*
X116142007Y-56411515D01*
G37*
X116142007Y-56411515D02*
X116201850Y-56412199D01*
X116247883Y-56413685D01*
X116283004Y-56416102D01*
X116310112Y-56419580D01*
X116332102Y-56424248D01*
X116351873Y-56430236D01*
X116368136Y-56436099D01*
X116449786Y-56478921D01*
X116524191Y-56541188D01*
X116585062Y-56616962D01*
X116612754Y-56667048D01*
X116649650Y-56746950D01*
X116656488Y-59864800D01*
X115080522Y-59864800D01*
X115087550Y-56759650D01*
X115118078Y-56683843D01*
X115159042Y-56609736D01*
X115218125Y-56539215D01*
X115288330Y-56479665D01*
X115341550Y-56447871D01*
X115358844Y-56439623D01*
X115375466Y-56432954D01*
X115394247Y-56427672D01*
X115418018Y-56423581D01*
X115449610Y-56420489D01*
X115491855Y-56418200D01*
X115547583Y-56416522D01*
X115619626Y-56415259D01*
X115710814Y-56414217D01*
X115823979Y-56413204D01*
X115850653Y-56412978D01*
X115969307Y-56412034D01*
X116065459Y-56411503D01*
X116142007Y-56411515D01*
G36*
X164520133Y-60636325D02*
G01*
X164518125Y-60718108D01*
X164515829Y-60779265D01*
X164512613Y-60824563D01*
X164507840Y-60858774D01*
X164500875Y-60886667D01*
X164491083Y-60913013D01*
X164479973Y-60937950D01*
X164423950Y-61031270D01*
X164351337Y-61105696D01*
X164263553Y-61160146D01*
X164162016Y-61193538D01*
X164139546Y-61197697D01*
X164101839Y-61201496D01*
X164043321Y-61204524D01*
X163968508Y-61206786D01*
X163881915Y-61208286D01*
X163788057Y-61209029D01*
X163691451Y-61209019D01*
X163596611Y-61208261D01*
X163508054Y-61206759D01*
X163430295Y-61204518D01*
X163367849Y-61201543D01*
X163325232Y-61197837D01*
X163318673Y-61196876D01*
X163221603Y-61168216D01*
X163134109Y-61117480D01*
X163059373Y-61047174D01*
X163000580Y-60959806D01*
X162989826Y-60937950D01*
X162977110Y-60909139D01*
X162967764Y-60882864D01*
X162961153Y-60854356D01*
X162956643Y-60818845D01*
X162953598Y-60771560D01*
X162951383Y-60707731D01*
X162949666Y-60636325D01*
X162944667Y-60410900D01*
X164525132Y-60410900D01*
X164520133Y-60636325D01*
X164520133Y-60636325D01*
G37*
X164520133Y-60636325D02*
X164518125Y-60718108D01*
X164515829Y-60779265D01*
X164512613Y-60824563D01*
X164507840Y-60858774D01*
X164500875Y-60886667D01*
X164491083Y-60913013D01*
X164479973Y-60937950D01*
X164423950Y-61031270D01*
X164351337Y-61105696D01*
X164263553Y-61160146D01*
X164162016Y-61193538D01*
X164139546Y-61197697D01*
X164101839Y-61201496D01*
X164043321Y-61204524D01*
X163968508Y-61206786D01*
X163881915Y-61208286D01*
X163788057Y-61209029D01*
X163691451Y-61209019D01*
X163596611Y-61208261D01*
X163508054Y-61206759D01*
X163430295Y-61204518D01*
X163367849Y-61201543D01*
X163325232Y-61197837D01*
X163318673Y-61196876D01*
X163221603Y-61168216D01*
X163134109Y-61117480D01*
X163059373Y-61047174D01*
X163000580Y-60959806D01*
X162989826Y-60937950D01*
X162977110Y-60909139D01*
X162967764Y-60882864D01*
X162961153Y-60854356D01*
X162956643Y-60818845D01*
X162953598Y-60771560D01*
X162951383Y-60707731D01*
X162949666Y-60636325D01*
X162944667Y-60410900D01*
X164525132Y-60410900D01*
X164520133Y-60636325D01*
G36*
X161980133Y-60636325D02*
G01*
X161978125Y-60718108D01*
X161975829Y-60779265D01*
X161972613Y-60824563D01*
X161967840Y-60858774D01*
X161960875Y-60886667D01*
X161951083Y-60913013D01*
X161939973Y-60937950D01*
X161883950Y-61031270D01*
X161811337Y-61105696D01*
X161723553Y-61160146D01*
X161622016Y-61193538D01*
X161599546Y-61197697D01*
X161561839Y-61201496D01*
X161503321Y-61204524D01*
X161428508Y-61206786D01*
X161341915Y-61208286D01*
X161248057Y-61209029D01*
X161151451Y-61209019D01*
X161056611Y-61208261D01*
X160968054Y-61206759D01*
X160890295Y-61204518D01*
X160827849Y-61201543D01*
X160785232Y-61197837D01*
X160778673Y-61196876D01*
X160681603Y-61168216D01*
X160594109Y-61117480D01*
X160519373Y-61047174D01*
X160460580Y-60959806D01*
X160449826Y-60937950D01*
X160437110Y-60909139D01*
X160427764Y-60882864D01*
X160421153Y-60854356D01*
X160416643Y-60818845D01*
X160413598Y-60771560D01*
X160411383Y-60707731D01*
X160409666Y-60636325D01*
X160404667Y-60410900D01*
X161985132Y-60410900D01*
X161980133Y-60636325D01*
X161980133Y-60636325D01*
G37*
X161980133Y-60636325D02*
X161978125Y-60718108D01*
X161975829Y-60779265D01*
X161972613Y-60824563D01*
X161967840Y-60858774D01*
X161960875Y-60886667D01*
X161951083Y-60913013D01*
X161939973Y-60937950D01*
X161883950Y-61031270D01*
X161811337Y-61105696D01*
X161723553Y-61160146D01*
X161622016Y-61193538D01*
X161599546Y-61197697D01*
X161561839Y-61201496D01*
X161503321Y-61204524D01*
X161428508Y-61206786D01*
X161341915Y-61208286D01*
X161248057Y-61209029D01*
X161151451Y-61209019D01*
X161056611Y-61208261D01*
X160968054Y-61206759D01*
X160890295Y-61204518D01*
X160827849Y-61201543D01*
X160785232Y-61197837D01*
X160778673Y-61196876D01*
X160681603Y-61168216D01*
X160594109Y-61117480D01*
X160519373Y-61047174D01*
X160460580Y-60959806D01*
X160449826Y-60937950D01*
X160437110Y-60909139D01*
X160427764Y-60882864D01*
X160421153Y-60854356D01*
X160416643Y-60818845D01*
X160413598Y-60771560D01*
X160411383Y-60707731D01*
X160409666Y-60636325D01*
X160404667Y-60410900D01*
X161985132Y-60410900D01*
X161980133Y-60636325D01*
G36*
X121733264Y-60636325D02*
G01*
X121730962Y-60720861D01*
X121728140Y-60784822D01*
X121724251Y-60833031D01*
X121718745Y-60870313D01*
X121711074Y-60901491D01*
X121700689Y-60931390D01*
X121699313Y-60934921D01*
X121657494Y-61011393D01*
X121596762Y-61082543D01*
X121523569Y-61141670D01*
X121472727Y-61170311D01*
X121399450Y-61204650D01*
X120974000Y-61207354D01*
X120845644Y-61207875D01*
X120740455Y-61207607D01*
X120656210Y-61206486D01*
X120590685Y-61204450D01*
X120541659Y-61201434D01*
X120506906Y-61197377D01*
X120488627Y-61193545D01*
X120418991Y-61165570D01*
X120348779Y-61122467D01*
X120287223Y-61070672D01*
X120250544Y-61027496D01*
X120223666Y-60986062D01*
X120203371Y-60947312D01*
X120188613Y-60906504D01*
X120178345Y-60858895D01*
X120171522Y-60799743D01*
X120167096Y-60724305D01*
X120164239Y-60636325D01*
X120158367Y-60410900D01*
X121738467Y-60410900D01*
X121733264Y-60636325D01*
X121733264Y-60636325D01*
G37*
X121733264Y-60636325D02*
X121730962Y-60720861D01*
X121728140Y-60784822D01*
X121724251Y-60833031D01*
X121718745Y-60870313D01*
X121711074Y-60901491D01*
X121700689Y-60931390D01*
X121699313Y-60934921D01*
X121657494Y-61011393D01*
X121596762Y-61082543D01*
X121523569Y-61141670D01*
X121472727Y-61170311D01*
X121399450Y-61204650D01*
X120974000Y-61207354D01*
X120845644Y-61207875D01*
X120740455Y-61207607D01*
X120656210Y-61206486D01*
X120590685Y-61204450D01*
X120541659Y-61201434D01*
X120506906Y-61197377D01*
X120488627Y-61193545D01*
X120418991Y-61165570D01*
X120348779Y-61122467D01*
X120287223Y-61070672D01*
X120250544Y-61027496D01*
X120223666Y-60986062D01*
X120203371Y-60947312D01*
X120188613Y-60906504D01*
X120178345Y-60858895D01*
X120171522Y-60799743D01*
X120167096Y-60724305D01*
X120164239Y-60636325D01*
X120158367Y-60410900D01*
X121738467Y-60410900D01*
X121733264Y-60636325D01*
G36*
X119195689Y-60604575D02*
G01*
X119194751Y-60677089D01*
X119192383Y-60745062D01*
X119188905Y-60802346D01*
X119184634Y-60842795D01*
X119182807Y-60852750D01*
X119147130Y-60954823D01*
X119091656Y-61041953D01*
X119018335Y-61112318D01*
X118929120Y-61164098D01*
X118825959Y-61195473D01*
X118813246Y-61197697D01*
X118776435Y-61201385D01*
X118718861Y-61204355D01*
X118645007Y-61206609D01*
X118559355Y-61208146D01*
X118466387Y-61208966D01*
X118370588Y-61209070D01*
X118276438Y-61208457D01*
X118188421Y-61207128D01*
X118111019Y-61205083D01*
X118048716Y-61202322D01*
X118005992Y-61198844D01*
X117997761Y-61197678D01*
X117902415Y-61169386D01*
X117814899Y-61119785D01*
X117739777Y-61052587D01*
X117681613Y-60971505D01*
X117658166Y-60921460D01*
X117647445Y-60890264D01*
X117639469Y-60857163D01*
X117633663Y-60817232D01*
X117629452Y-60765548D01*
X117626261Y-60697184D01*
X117624134Y-60629975D01*
X117618000Y-60410900D01*
X119196000Y-60410900D01*
X119195689Y-60604575D01*
X119195689Y-60604575D01*
G37*
X119195689Y-60604575D02*
X119194751Y-60677089D01*
X119192383Y-60745062D01*
X119188905Y-60802346D01*
X119184634Y-60842795D01*
X119182807Y-60852750D01*
X119147130Y-60954823D01*
X119091656Y-61041953D01*
X119018335Y-61112318D01*
X118929120Y-61164098D01*
X118825959Y-61195473D01*
X118813246Y-61197697D01*
X118776435Y-61201385D01*
X118718861Y-61204355D01*
X118645007Y-61206609D01*
X118559355Y-61208146D01*
X118466387Y-61208966D01*
X118370588Y-61209070D01*
X118276438Y-61208457D01*
X118188421Y-61207128D01*
X118111019Y-61205083D01*
X118048716Y-61202322D01*
X118005992Y-61198844D01*
X117997761Y-61197678D01*
X117902415Y-61169386D01*
X117814899Y-61119785D01*
X117739777Y-61052587D01*
X117681613Y-60971505D01*
X117658166Y-60921460D01*
X117647445Y-60890264D01*
X117639469Y-60857163D01*
X117633663Y-60817232D01*
X117629452Y-60765548D01*
X117626261Y-60697184D01*
X117624134Y-60629975D01*
X117618000Y-60410900D01*
X119196000Y-60410900D01*
X119195689Y-60604575D01*
G36*
X116655689Y-60604575D02*
G01*
X116654751Y-60677089D01*
X116652383Y-60745062D01*
X116648905Y-60802346D01*
X116644634Y-60842795D01*
X116642807Y-60852750D01*
X116607130Y-60954823D01*
X116551656Y-61041953D01*
X116478335Y-61112318D01*
X116389120Y-61164098D01*
X116285959Y-61195473D01*
X116273246Y-61197697D01*
X116236435Y-61201385D01*
X116178861Y-61204355D01*
X116105007Y-61206609D01*
X116019355Y-61208146D01*
X115926387Y-61208966D01*
X115830588Y-61209070D01*
X115736438Y-61208457D01*
X115648421Y-61207128D01*
X115571019Y-61205083D01*
X115508716Y-61202322D01*
X115465992Y-61198844D01*
X115457761Y-61197678D01*
X115362415Y-61169386D01*
X115274899Y-61119785D01*
X115199777Y-61052587D01*
X115141613Y-60971505D01*
X115118166Y-60921460D01*
X115107445Y-60890264D01*
X115099469Y-60857163D01*
X115093663Y-60817232D01*
X115089452Y-60765548D01*
X115086261Y-60697184D01*
X115084134Y-60629975D01*
X115078000Y-60410900D01*
X116656000Y-60410900D01*
X116655689Y-60604575D01*
X116655689Y-60604575D01*
G37*
X116655689Y-60604575D02*
X116654751Y-60677089D01*
X116652383Y-60745062D01*
X116648905Y-60802346D01*
X116644634Y-60842795D01*
X116642807Y-60852750D01*
X116607130Y-60954823D01*
X116551656Y-61041953D01*
X116478335Y-61112318D01*
X116389120Y-61164098D01*
X116285959Y-61195473D01*
X116273246Y-61197697D01*
X116236435Y-61201385D01*
X116178861Y-61204355D01*
X116105007Y-61206609D01*
X116019355Y-61208146D01*
X115926387Y-61208966D01*
X115830588Y-61209070D01*
X115736438Y-61208457D01*
X115648421Y-61207128D01*
X115571019Y-61205083D01*
X115508716Y-61202322D01*
X115465992Y-61198844D01*
X115457761Y-61197678D01*
X115362415Y-61169386D01*
X115274899Y-61119785D01*
X115199777Y-61052587D01*
X115141613Y-60971505D01*
X115118166Y-60921460D01*
X115107445Y-60890264D01*
X115099469Y-60857163D01*
X115093663Y-60817232D01*
X115089452Y-60765548D01*
X115086261Y-60697184D01*
X115084134Y-60629975D01*
X115078000Y-60410900D01*
X116656000Y-60410900D01*
X116655689Y-60604575D01*
G36*
X132088873Y-56526274D02*
G01*
X132239036Y-56526651D01*
X132411733Y-56527175D01*
X132541750Y-56527594D01*
X133604150Y-56531050D01*
X133674000Y-56567377D01*
X133749960Y-56617978D01*
X133817995Y-56684161D01*
X133871360Y-56758692D01*
X133892455Y-56801709D01*
X133921650Y-56873950D01*
X133921650Y-61179250D01*
X133881988Y-61261800D01*
X133824939Y-61356100D01*
X133754293Y-61429150D01*
X133669220Y-61481654D01*
X133591956Y-61508891D01*
X133575177Y-61512538D01*
X133553772Y-61515705D01*
X133526015Y-61518420D01*
X133490180Y-61520715D01*
X133444540Y-61522617D01*
X133387370Y-61524156D01*
X133316943Y-61525361D01*
X133231533Y-61526263D01*
X133129414Y-61526889D01*
X133008860Y-61527270D01*
X132868144Y-61527435D01*
X132705540Y-61527412D01*
X132519323Y-61527232D01*
X132512456Y-61527224D01*
X132353845Y-61526883D01*
X132201754Y-61526286D01*
X132058219Y-61525458D01*
X131925276Y-61524422D01*
X131804961Y-61523203D01*
X131699308Y-61521825D01*
X131610353Y-61520312D01*
X131540132Y-61518688D01*
X131490680Y-61516979D01*
X131464033Y-61515207D01*
X131460973Y-61514711D01*
X131371328Y-61481580D01*
X131288464Y-61428282D01*
X131217674Y-61359429D01*
X131164246Y-61279631D01*
X131147239Y-61241276D01*
X131143914Y-61232175D01*
X131140884Y-61222686D01*
X131138138Y-61211650D01*
X131135664Y-61197909D01*
X131133449Y-61180302D01*
X131131483Y-61157672D01*
X131129753Y-61128859D01*
X131128247Y-61092705D01*
X131126954Y-61048051D01*
X131125862Y-60993738D01*
X131124958Y-60928606D01*
X131124231Y-60851498D01*
X131123669Y-60761254D01*
X131123260Y-60656716D01*
X131122996Y-60537900D01*
X132146011Y-60537900D01*
X132454800Y-60537900D01*
X132454800Y-60495989D01*
X132459164Y-60462336D01*
X132469699Y-60439190D01*
X132470039Y-60438839D01*
X132498182Y-60425130D01*
X132532479Y-60425461D01*
X132561051Y-60438711D01*
X132568653Y-60448165D01*
X132573160Y-60469382D01*
X132576879Y-60512745D01*
X132579657Y-60575009D01*
X132581341Y-60652928D01*
X132581800Y-60727118D01*
X132581659Y-60813840D01*
X132581027Y-60878603D01*
X132579588Y-60924846D01*
X132577026Y-60956009D01*
X132573025Y-60975531D01*
X132567269Y-60986852D01*
X132559442Y-60993412D01*
X132557234Y-60994653D01*
X132525451Y-61006547D01*
X132500127Y-60999526D01*
X132480200Y-60982400D01*
X132468340Y-60967365D01*
X132460812Y-60947195D01*
X132456681Y-60916275D01*
X132455010Y-60868990D01*
X132454800Y-60830000D01*
X132454800Y-60703000D01*
X132146604Y-60703000D01*
X132152606Y-60826825D01*
X132161699Y-60921075D01*
X132179725Y-60995043D01*
X132208176Y-61052730D01*
X132248546Y-61098140D01*
X132256178Y-61104507D01*
X132322338Y-61143568D01*
X132404444Y-61170271D01*
X132495746Y-61183658D01*
X132589494Y-61182774D01*
X132678936Y-61166661D01*
X132684171Y-61165144D01*
X132749154Y-61135733D01*
X132806792Y-61090989D01*
X132850737Y-61036865D01*
X132872367Y-60988708D01*
X132877398Y-60956791D01*
X132881304Y-60904840D01*
X132884076Y-60838139D01*
X132885705Y-60761973D01*
X132886182Y-60681627D01*
X132885499Y-60602387D01*
X132883647Y-60529536D01*
X132880616Y-60468361D01*
X132876399Y-60424145D01*
X132873341Y-60408119D01*
X132850562Y-60356640D01*
X132814890Y-60307928D01*
X132774148Y-60272323D01*
X132767755Y-60268573D01*
X132704351Y-60247087D01*
X132631966Y-60242774D01*
X132559629Y-60254903D01*
X132496374Y-60282741D01*
X132483629Y-60291616D01*
X132442100Y-60323292D01*
X132442100Y-60093400D01*
X132835800Y-60093400D01*
X132835800Y-59902900D01*
X132162700Y-59902900D01*
X132162700Y-60008821D01*
X132162169Y-60059339D01*
X132160708Y-60127782D01*
X132158513Y-60206700D01*
X132155780Y-60288643D01*
X132154355Y-60326321D01*
X132146011Y-60537900D01*
X131122996Y-60537900D01*
X131122993Y-60536723D01*
X131122855Y-60400119D01*
X131122835Y-60245743D01*
X131122920Y-60072437D01*
X131123100Y-59879042D01*
X131123361Y-59664399D01*
X131123692Y-59427349D01*
X131124082Y-59166734D01*
X131124331Y-59003516D01*
X131127650Y-56835850D01*
X131171710Y-56754568D01*
X131232191Y-56668750D01*
X131310466Y-56600830D01*
X131405335Y-56551842D01*
X131408248Y-56550742D01*
X131421285Y-56546015D01*
X131434598Y-56541890D01*
X131449897Y-56538333D01*
X131468896Y-56535308D01*
X131493307Y-56532781D01*
X131524842Y-56530716D01*
X131565212Y-56529078D01*
X131616131Y-56527834D01*
X131679310Y-56526946D01*
X131756462Y-56526382D01*
X131849298Y-56526105D01*
X131959531Y-56526081D01*
X132088873Y-56526274D01*
X132088873Y-56526274D01*
G37*
X132088873Y-56526274D02*
X132239036Y-56526651D01*
X132411733Y-56527175D01*
X132541750Y-56527594D01*
X133604150Y-56531050D01*
X133674000Y-56567377D01*
X133749960Y-56617978D01*
X133817995Y-56684161D01*
X133871360Y-56758692D01*
X133892455Y-56801709D01*
X133921650Y-56873950D01*
X133921650Y-61179250D01*
X133881988Y-61261800D01*
X133824939Y-61356100D01*
X133754293Y-61429150D01*
X133669220Y-61481654D01*
X133591956Y-61508891D01*
X133575177Y-61512538D01*
X133553772Y-61515705D01*
X133526015Y-61518420D01*
X133490180Y-61520715D01*
X133444540Y-61522617D01*
X133387370Y-61524156D01*
X133316943Y-61525361D01*
X133231533Y-61526263D01*
X133129414Y-61526889D01*
X133008860Y-61527270D01*
X132868144Y-61527435D01*
X132705540Y-61527412D01*
X132519323Y-61527232D01*
X132512456Y-61527224D01*
X132353845Y-61526883D01*
X132201754Y-61526286D01*
X132058219Y-61525458D01*
X131925276Y-61524422D01*
X131804961Y-61523203D01*
X131699308Y-61521825D01*
X131610353Y-61520312D01*
X131540132Y-61518688D01*
X131490680Y-61516979D01*
X131464033Y-61515207D01*
X131460973Y-61514711D01*
X131371328Y-61481580D01*
X131288464Y-61428282D01*
X131217674Y-61359429D01*
X131164246Y-61279631D01*
X131147239Y-61241276D01*
X131143914Y-61232175D01*
X131140884Y-61222686D01*
X131138138Y-61211650D01*
X131135664Y-61197909D01*
X131133449Y-61180302D01*
X131131483Y-61157672D01*
X131129753Y-61128859D01*
X131128247Y-61092705D01*
X131126954Y-61048051D01*
X131125862Y-60993738D01*
X131124958Y-60928606D01*
X131124231Y-60851498D01*
X131123669Y-60761254D01*
X131123260Y-60656716D01*
X131122996Y-60537900D01*
X132146011Y-60537900D01*
X132454800Y-60537900D01*
X132454800Y-60495989D01*
X132459164Y-60462336D01*
X132469699Y-60439190D01*
X132470039Y-60438839D01*
X132498182Y-60425130D01*
X132532479Y-60425461D01*
X132561051Y-60438711D01*
X132568653Y-60448165D01*
X132573160Y-60469382D01*
X132576879Y-60512745D01*
X132579657Y-60575009D01*
X132581341Y-60652928D01*
X132581800Y-60727118D01*
X132581659Y-60813840D01*
X132581027Y-60878603D01*
X132579588Y-60924846D01*
X132577026Y-60956009D01*
X132573025Y-60975531D01*
X132567269Y-60986852D01*
X132559442Y-60993412D01*
X132557234Y-60994653D01*
X132525451Y-61006547D01*
X132500127Y-60999526D01*
X132480200Y-60982400D01*
X132468340Y-60967365D01*
X132460812Y-60947195D01*
X132456681Y-60916275D01*
X132455010Y-60868990D01*
X132454800Y-60830000D01*
X132454800Y-60703000D01*
X132146604Y-60703000D01*
X132152606Y-60826825D01*
X132161699Y-60921075D01*
X132179725Y-60995043D01*
X132208176Y-61052730D01*
X132248546Y-61098140D01*
X132256178Y-61104507D01*
X132322338Y-61143568D01*
X132404444Y-61170271D01*
X132495746Y-61183658D01*
X132589494Y-61182774D01*
X132678936Y-61166661D01*
X132684171Y-61165144D01*
X132749154Y-61135733D01*
X132806792Y-61090989D01*
X132850737Y-61036865D01*
X132872367Y-60988708D01*
X132877398Y-60956791D01*
X132881304Y-60904840D01*
X132884076Y-60838139D01*
X132885705Y-60761973D01*
X132886182Y-60681627D01*
X132885499Y-60602387D01*
X132883647Y-60529536D01*
X132880616Y-60468361D01*
X132876399Y-60424145D01*
X132873341Y-60408119D01*
X132850562Y-60356640D01*
X132814890Y-60307928D01*
X132774148Y-60272323D01*
X132767755Y-60268573D01*
X132704351Y-60247087D01*
X132631966Y-60242774D01*
X132559629Y-60254903D01*
X132496374Y-60282741D01*
X132483629Y-60291616D01*
X132442100Y-60323292D01*
X132442100Y-60093400D01*
X132835800Y-60093400D01*
X132835800Y-59902900D01*
X132162700Y-59902900D01*
X132162700Y-60008821D01*
X132162169Y-60059339D01*
X132160708Y-60127782D01*
X132158513Y-60206700D01*
X132155780Y-60288643D01*
X132154355Y-60326321D01*
X132146011Y-60537900D01*
X131122996Y-60537900D01*
X131122993Y-60536723D01*
X131122855Y-60400119D01*
X131122835Y-60245743D01*
X131122920Y-60072437D01*
X131123100Y-59879042D01*
X131123361Y-59664399D01*
X131123692Y-59427349D01*
X131124082Y-59166734D01*
X131124331Y-59003516D01*
X131127650Y-56835850D01*
X131171710Y-56754568D01*
X131232191Y-56668750D01*
X131310466Y-56600830D01*
X131405335Y-56551842D01*
X131408248Y-56550742D01*
X131421285Y-56546015D01*
X131434598Y-56541890D01*
X131449897Y-56538333D01*
X131468896Y-56535308D01*
X131493307Y-56532781D01*
X131524842Y-56530716D01*
X131565212Y-56529078D01*
X131616131Y-56527834D01*
X131679310Y-56526946D01*
X131756462Y-56526382D01*
X131849298Y-56526105D01*
X131959531Y-56526081D01*
X132088873Y-56526274D01*
G36*
X127008873Y-56526274D02*
G01*
X127159036Y-56526651D01*
X127331733Y-56527175D01*
X127461750Y-56527594D01*
X128524150Y-56531050D01*
X128604425Y-56574574D01*
X128693688Y-56636274D01*
X128764038Y-56713649D01*
X128812651Y-56802231D01*
X128841650Y-56873950D01*
X128841650Y-61179250D01*
X128801988Y-61261800D01*
X128744939Y-61356100D01*
X128674293Y-61429150D01*
X128589220Y-61481654D01*
X128511956Y-61508891D01*
X128495177Y-61512538D01*
X128473772Y-61515705D01*
X128446015Y-61518420D01*
X128410180Y-61520715D01*
X128364540Y-61522617D01*
X128307370Y-61524156D01*
X128236943Y-61525361D01*
X128151533Y-61526263D01*
X128049414Y-61526889D01*
X127928860Y-61527270D01*
X127788144Y-61527435D01*
X127625540Y-61527412D01*
X127439323Y-61527232D01*
X127432456Y-61527224D01*
X127273845Y-61526883D01*
X127121754Y-61526286D01*
X126978219Y-61525458D01*
X126845276Y-61524422D01*
X126724961Y-61523203D01*
X126619308Y-61521825D01*
X126530353Y-61520312D01*
X126460132Y-61518688D01*
X126410680Y-61516979D01*
X126384033Y-61515207D01*
X126380973Y-61514711D01*
X126291328Y-61481580D01*
X126208464Y-61428282D01*
X126137674Y-61359429D01*
X126084246Y-61279631D01*
X126067239Y-61241276D01*
X126063914Y-61232175D01*
X126060884Y-61222686D01*
X126058138Y-61211650D01*
X126055664Y-61197909D01*
X126053449Y-61180302D01*
X126051483Y-61157672D01*
X126049753Y-61128859D01*
X126048247Y-61092705D01*
X126046954Y-61048051D01*
X126045862Y-60993738D01*
X126044958Y-60928606D01*
X126044231Y-60851498D01*
X126043669Y-60761254D01*
X126043260Y-60656716D01*
X126043033Y-60554606D01*
X126790600Y-60554606D01*
X126800601Y-60590827D01*
X126825659Y-60628751D01*
X126858355Y-60658252D01*
X126871729Y-60665351D01*
X126889726Y-60667597D01*
X126930404Y-60669574D01*
X126991045Y-60671244D01*
X127068930Y-60672569D01*
X127161341Y-60673508D01*
X127265561Y-60674023D01*
X127378870Y-60674076D01*
X127461575Y-60673818D01*
X128024601Y-60671250D01*
X128061650Y-60629774D01*
X128092647Y-60580326D01*
X128098821Y-60530666D01*
X128080174Y-60483039D01*
X128061576Y-60460723D01*
X128024453Y-60423600D01*
X127458924Y-60423600D01*
X127310206Y-60423817D01*
X127185424Y-60424495D01*
X127083120Y-60425670D01*
X127001833Y-60427378D01*
X126940105Y-60429658D01*
X126896474Y-60432546D01*
X126869482Y-60436079D01*
X126860095Y-60438772D01*
X126824591Y-60467167D01*
X126799381Y-60510309D01*
X126790600Y-60554606D01*
X126043033Y-60554606D01*
X126042993Y-60536723D01*
X126042855Y-60400119D01*
X126042835Y-60245743D01*
X126042920Y-60072437D01*
X126043100Y-59879042D01*
X126043361Y-59664399D01*
X126043692Y-59427349D01*
X126044082Y-59166734D01*
X126044331Y-59003516D01*
X126047650Y-56835850D01*
X126091710Y-56754568D01*
X126152191Y-56668750D01*
X126230466Y-56600830D01*
X126325335Y-56551842D01*
X126328248Y-56550742D01*
X126341285Y-56546015D01*
X126354598Y-56541890D01*
X126369897Y-56538333D01*
X126388896Y-56535308D01*
X126413307Y-56532781D01*
X126444842Y-56530716D01*
X126485212Y-56529078D01*
X126536131Y-56527834D01*
X126599310Y-56526946D01*
X126676462Y-56526382D01*
X126769298Y-56526105D01*
X126879531Y-56526081D01*
X127008873Y-56526274D01*
X127008873Y-56526274D01*
G37*
X127008873Y-56526274D02*
X127159036Y-56526651D01*
X127331733Y-56527175D01*
X127461750Y-56527594D01*
X128524150Y-56531050D01*
X128604425Y-56574574D01*
X128693688Y-56636274D01*
X128764038Y-56713649D01*
X128812651Y-56802231D01*
X128841650Y-56873950D01*
X128841650Y-61179250D01*
X128801988Y-61261800D01*
X128744939Y-61356100D01*
X128674293Y-61429150D01*
X128589220Y-61481654D01*
X128511956Y-61508891D01*
X128495177Y-61512538D01*
X128473772Y-61515705D01*
X128446015Y-61518420D01*
X128410180Y-61520715D01*
X128364540Y-61522617D01*
X128307370Y-61524156D01*
X128236943Y-61525361D01*
X128151533Y-61526263D01*
X128049414Y-61526889D01*
X127928860Y-61527270D01*
X127788144Y-61527435D01*
X127625540Y-61527412D01*
X127439323Y-61527232D01*
X127432456Y-61527224D01*
X127273845Y-61526883D01*
X127121754Y-61526286D01*
X126978219Y-61525458D01*
X126845276Y-61524422D01*
X126724961Y-61523203D01*
X126619308Y-61521825D01*
X126530353Y-61520312D01*
X126460132Y-61518688D01*
X126410680Y-61516979D01*
X126384033Y-61515207D01*
X126380973Y-61514711D01*
X126291328Y-61481580D01*
X126208464Y-61428282D01*
X126137674Y-61359429D01*
X126084246Y-61279631D01*
X126067239Y-61241276D01*
X126063914Y-61232175D01*
X126060884Y-61222686D01*
X126058138Y-61211650D01*
X126055664Y-61197909D01*
X126053449Y-61180302D01*
X126051483Y-61157672D01*
X126049753Y-61128859D01*
X126048247Y-61092705D01*
X126046954Y-61048051D01*
X126045862Y-60993738D01*
X126044958Y-60928606D01*
X126044231Y-60851498D01*
X126043669Y-60761254D01*
X126043260Y-60656716D01*
X126043033Y-60554606D01*
X126790600Y-60554606D01*
X126800601Y-60590827D01*
X126825659Y-60628751D01*
X126858355Y-60658252D01*
X126871729Y-60665351D01*
X126889726Y-60667597D01*
X126930404Y-60669574D01*
X126991045Y-60671244D01*
X127068930Y-60672569D01*
X127161341Y-60673508D01*
X127265561Y-60674023D01*
X127378870Y-60674076D01*
X127461575Y-60673818D01*
X128024601Y-60671250D01*
X128061650Y-60629774D01*
X128092647Y-60580326D01*
X128098821Y-60530666D01*
X128080174Y-60483039D01*
X128061576Y-60460723D01*
X128024453Y-60423600D01*
X127458924Y-60423600D01*
X127310206Y-60423817D01*
X127185424Y-60424495D01*
X127083120Y-60425670D01*
X127001833Y-60427378D01*
X126940105Y-60429658D01*
X126896474Y-60432546D01*
X126869482Y-60436079D01*
X126860095Y-60438772D01*
X126824591Y-60467167D01*
X126799381Y-60510309D01*
X126790600Y-60554606D01*
X126043033Y-60554606D01*
X126042993Y-60536723D01*
X126042855Y-60400119D01*
X126042835Y-60245743D01*
X126042920Y-60072437D01*
X126043100Y-59879042D01*
X126043361Y-59664399D01*
X126043692Y-59427349D01*
X126044082Y-59166734D01*
X126044331Y-59003516D01*
X126047650Y-56835850D01*
X126091710Y-56754568D01*
X126152191Y-56668750D01*
X126230466Y-56600830D01*
X126325335Y-56551842D01*
X126328248Y-56550742D01*
X126341285Y-56546015D01*
X126354598Y-56541890D01*
X126369897Y-56538333D01*
X126388896Y-56535308D01*
X126413307Y-56532781D01*
X126444842Y-56530716D01*
X126485212Y-56529078D01*
X126536131Y-56527834D01*
X126599310Y-56526946D01*
X126676462Y-56526382D01*
X126769298Y-56526105D01*
X126879531Y-56526081D01*
X127008873Y-56526274D01*
G36*
X148269475Y-61836231D02*
G01*
X149834750Y-61839650D01*
X149895188Y-61867822D01*
X149966332Y-61911527D01*
X150034345Y-61972027D01*
X150090991Y-62041235D01*
X150117145Y-62085694D01*
X150152250Y-62157150D01*
X150152250Y-63071550D01*
X150116927Y-63143478D01*
X150061584Y-63230087D01*
X149989308Y-63302586D01*
X149905293Y-63355774D01*
X149904600Y-63356102D01*
X149834750Y-63389050D01*
X148269475Y-63392372D01*
X146704200Y-63395695D01*
X146704200Y-61832813D01*
X148269475Y-61836231D01*
X148269475Y-61836231D01*
G37*
X148269475Y-61836231D02*
X149834750Y-61839650D01*
X149895188Y-61867822D01*
X149966332Y-61911527D01*
X150034345Y-61972027D01*
X150090991Y-62041235D01*
X150117145Y-62085694D01*
X150152250Y-62157150D01*
X150152250Y-63071550D01*
X150116927Y-63143478D01*
X150061584Y-63230087D01*
X149989308Y-63302586D01*
X149905293Y-63355774D01*
X149904600Y-63356102D01*
X149834750Y-63389050D01*
X148269475Y-63392372D01*
X146704200Y-63395695D01*
X146704200Y-61832813D01*
X148269475Y-61836231D01*
G36*
X146158100Y-63395400D02*
G01*
X145939025Y-63394550D01*
X145836495Y-63392973D01*
X145755127Y-63389178D01*
X145696411Y-63383262D01*
X145666917Y-63377118D01*
X145575842Y-63335595D01*
X145496278Y-63272496D01*
X145430496Y-63189905D01*
X145397816Y-63130224D01*
X145364350Y-63058850D01*
X145364350Y-62169315D01*
X145405747Y-62085224D01*
X145461807Y-61996469D01*
X145534390Y-61926139D01*
X145623175Y-61873116D01*
X145649988Y-61861158D01*
X145674976Y-61852337D01*
X145702734Y-61846084D01*
X145737854Y-61841829D01*
X145784928Y-61839000D01*
X145848550Y-61837027D01*
X145926325Y-61835466D01*
X146158100Y-61831282D01*
X146158100Y-63395400D01*
X146158100Y-63395400D01*
G37*
X146158100Y-63395400D02*
X145939025Y-63394550D01*
X145836495Y-63392973D01*
X145755127Y-63389178D01*
X145696411Y-63383262D01*
X145666917Y-63377118D01*
X145575842Y-63335595D01*
X145496278Y-63272496D01*
X145430496Y-63189905D01*
X145397816Y-63130224D01*
X145364350Y-63058850D01*
X145364350Y-62169315D01*
X145405747Y-62085224D01*
X145461807Y-61996469D01*
X145534390Y-61926139D01*
X145623175Y-61873116D01*
X145649988Y-61861158D01*
X145674976Y-61852337D01*
X145702734Y-61846084D01*
X145737854Y-61841829D01*
X145784928Y-61839000D01*
X145848550Y-61837027D01*
X145926325Y-61835466D01*
X146158100Y-61831282D01*
X146158100Y-63395400D01*
G36*
X149847450Y-65205150D02*
G01*
X149914561Y-65240510D01*
X149999478Y-65298482D01*
X150070811Y-65373776D01*
X150119265Y-65452800D01*
X150152250Y-65522650D01*
X150152250Y-66437050D01*
X150116487Y-66506900D01*
X150056592Y-66597810D01*
X149979941Y-66670750D01*
X149899741Y-66718646D01*
X149822050Y-66754550D01*
X146704200Y-66761292D01*
X146704200Y-65198410D01*
X149847450Y-65205150D01*
X149847450Y-65205150D01*
G37*
X149847450Y-65205150D02*
X149914561Y-65240510D01*
X149999478Y-65298482D01*
X150070811Y-65373776D01*
X150119265Y-65452800D01*
X150152250Y-65522650D01*
X150152250Y-66437050D01*
X150116487Y-66506900D01*
X150056592Y-66597810D01*
X149979941Y-66670750D01*
X149899741Y-66718646D01*
X149822050Y-66754550D01*
X146704200Y-66761292D01*
X146704200Y-65198410D01*
X149847450Y-65205150D01*
G36*
X146158100Y-66760900D02*
G01*
X145951725Y-66760042D01*
X145868730Y-66758675D01*
X145794609Y-66755499D01*
X145734477Y-66750832D01*
X145693451Y-66744996D01*
X145687302Y-66743534D01*
X145589488Y-66704593D01*
X145505725Y-66644764D01*
X145437184Y-66565054D01*
X145397384Y-66494779D01*
X145364350Y-66424350D01*
X145364350Y-65535350D01*
X145401245Y-65455448D01*
X145449951Y-65375621D01*
X145515658Y-65305073D01*
X145591950Y-65249885D01*
X145644268Y-65225096D01*
X145673444Y-65215281D01*
X145703591Y-65208218D01*
X145739534Y-65203473D01*
X145786097Y-65200612D01*
X145848104Y-65199199D01*
X145930378Y-65198801D01*
X145936326Y-65198800D01*
X146158100Y-65198800D01*
X146158100Y-66760900D01*
X146158100Y-66760900D01*
G37*
X146158100Y-66760900D02*
X145951725Y-66760042D01*
X145868730Y-66758675D01*
X145794609Y-66755499D01*
X145734477Y-66750832D01*
X145693451Y-66744996D01*
X145687302Y-66743534D01*
X145589488Y-66704593D01*
X145505725Y-66644764D01*
X145437184Y-66565054D01*
X145397384Y-66494779D01*
X145364350Y-66424350D01*
X145364350Y-65535350D01*
X145401245Y-65455448D01*
X145449951Y-65375621D01*
X145515658Y-65305073D01*
X145591950Y-65249885D01*
X145644268Y-65225096D01*
X145673444Y-65215281D01*
X145703591Y-65208218D01*
X145739534Y-65203473D01*
X145786097Y-65200612D01*
X145848104Y-65199199D01*
X145930378Y-65198801D01*
X145936326Y-65198800D01*
X146158100Y-65198800D01*
X146158100Y-66760900D01*
G36*
X146883996Y-72934787D02*
G01*
X146988321Y-72935126D01*
X147075850Y-72935763D01*
X147148305Y-72936726D01*
X147207406Y-72938038D01*
X147254875Y-72939726D01*
X147292432Y-72941815D01*
X147321798Y-72944331D01*
X147344694Y-72947298D01*
X147362840Y-72950744D01*
X147369229Y-72952280D01*
X147467601Y-72989694D01*
X147551038Y-73046874D01*
X147617816Y-73121888D01*
X147666210Y-73212808D01*
X147694197Y-73315853D01*
X147695793Y-73338420D01*
X147697288Y-73384719D01*
X147698681Y-73453083D01*
X147699972Y-73541844D01*
X147701160Y-73649335D01*
X147702246Y-73773888D01*
X147703228Y-73913836D01*
X147704106Y-74067511D01*
X147704879Y-74233246D01*
X147705547Y-74409373D01*
X147706110Y-74594224D01*
X147706567Y-74786133D01*
X147706918Y-74983431D01*
X147707161Y-75184452D01*
X147707297Y-75387527D01*
X147707325Y-75590989D01*
X147707245Y-75793171D01*
X147707056Y-75992405D01*
X147706757Y-76187024D01*
X147706349Y-76375359D01*
X147705830Y-76555745D01*
X147705200Y-76726512D01*
X147704459Y-76885994D01*
X147703607Y-77032522D01*
X147702641Y-77164431D01*
X147701563Y-77280051D01*
X147700372Y-77377716D01*
X147699067Y-77455757D01*
X147697648Y-77512508D01*
X147696113Y-77546302D01*
X147695439Y-77553216D01*
X147668836Y-77658602D01*
X147621876Y-77748991D01*
X147554942Y-77823848D01*
X147468414Y-77882636D01*
X147456417Y-77888741D01*
X147371501Y-77930550D01*
X146317125Y-77933422D01*
X146128204Y-77933910D01*
X145962974Y-77934259D01*
X145819726Y-77934437D01*
X145696750Y-77934413D01*
X145592338Y-77934158D01*
X145504779Y-77933641D01*
X145432367Y-77932830D01*
X145373390Y-77931696D01*
X145326141Y-77930207D01*
X145288909Y-77928334D01*
X145259987Y-77926045D01*
X145237664Y-77923310D01*
X145220233Y-77920099D01*
X145205983Y-77916380D01*
X145196707Y-77913362D01*
X145099553Y-77867236D01*
X145019543Y-77802741D01*
X144957789Y-77720963D01*
X144923553Y-77647375D01*
X144920778Y-77638479D01*
X144918248Y-77626997D01*
X144915952Y-77611777D01*
X144913877Y-77591669D01*
X144912012Y-77565521D01*
X144910346Y-77532182D01*
X144908868Y-77490502D01*
X144907564Y-77439329D01*
X144906425Y-77377512D01*
X144905437Y-77303900D01*
X144904591Y-77217342D01*
X144903873Y-77116688D01*
X144903273Y-77000785D01*
X144902779Y-76868484D01*
X144902380Y-76718632D01*
X144902063Y-76550080D01*
X144901817Y-76361676D01*
X144901631Y-76152268D01*
X144901493Y-75920707D01*
X144901392Y-75665840D01*
X144901328Y-75438651D01*
X144900800Y-73289652D01*
X144928180Y-73216472D01*
X144970741Y-73135860D01*
X145033104Y-73062585D01*
X145109718Y-73002447D01*
X145158325Y-72975951D01*
X145237350Y-72939450D01*
X146264329Y-72935913D01*
X146453042Y-72935310D01*
X146618078Y-72934905D01*
X146761155Y-72934722D01*
X146883996Y-72934787D01*
X146883996Y-72934787D01*
G37*
X146883996Y-72934787D02*
X146988321Y-72935126D01*
X147075850Y-72935763D01*
X147148305Y-72936726D01*
X147207406Y-72938038D01*
X147254875Y-72939726D01*
X147292432Y-72941815D01*
X147321798Y-72944331D01*
X147344694Y-72947298D01*
X147362840Y-72950744D01*
X147369229Y-72952280D01*
X147467601Y-72989694D01*
X147551038Y-73046874D01*
X147617816Y-73121888D01*
X147666210Y-73212808D01*
X147694197Y-73315853D01*
X147695793Y-73338420D01*
X147697288Y-73384719D01*
X147698681Y-73453083D01*
X147699972Y-73541844D01*
X147701160Y-73649335D01*
X147702246Y-73773888D01*
X147703228Y-73913836D01*
X147704106Y-74067511D01*
X147704879Y-74233246D01*
X147705547Y-74409373D01*
X147706110Y-74594224D01*
X147706567Y-74786133D01*
X147706918Y-74983431D01*
X147707161Y-75184452D01*
X147707297Y-75387527D01*
X147707325Y-75590989D01*
X147707245Y-75793171D01*
X147707056Y-75992405D01*
X147706757Y-76187024D01*
X147706349Y-76375359D01*
X147705830Y-76555745D01*
X147705200Y-76726512D01*
X147704459Y-76885994D01*
X147703607Y-77032522D01*
X147702641Y-77164431D01*
X147701563Y-77280051D01*
X147700372Y-77377716D01*
X147699067Y-77455757D01*
X147697648Y-77512508D01*
X147696113Y-77546302D01*
X147695439Y-77553216D01*
X147668836Y-77658602D01*
X147621876Y-77748991D01*
X147554942Y-77823848D01*
X147468414Y-77882636D01*
X147456417Y-77888741D01*
X147371501Y-77930550D01*
X146317125Y-77933422D01*
X146128204Y-77933910D01*
X145962974Y-77934259D01*
X145819726Y-77934437D01*
X145696750Y-77934413D01*
X145592338Y-77934158D01*
X145504779Y-77933641D01*
X145432367Y-77932830D01*
X145373390Y-77931696D01*
X145326141Y-77930207D01*
X145288909Y-77928334D01*
X145259987Y-77926045D01*
X145237664Y-77923310D01*
X145220233Y-77920099D01*
X145205983Y-77916380D01*
X145196707Y-77913362D01*
X145099553Y-77867236D01*
X145019543Y-77802741D01*
X144957789Y-77720963D01*
X144923553Y-77647375D01*
X144920778Y-77638479D01*
X144918248Y-77626997D01*
X144915952Y-77611777D01*
X144913877Y-77591669D01*
X144912012Y-77565521D01*
X144910346Y-77532182D01*
X144908868Y-77490502D01*
X144907564Y-77439329D01*
X144906425Y-77377512D01*
X144905437Y-77303900D01*
X144904591Y-77217342D01*
X144903873Y-77116688D01*
X144903273Y-77000785D01*
X144902779Y-76868484D01*
X144902380Y-76718632D01*
X144902063Y-76550080D01*
X144901817Y-76361676D01*
X144901631Y-76152268D01*
X144901493Y-75920707D01*
X144901392Y-75665840D01*
X144901328Y-75438651D01*
X144900800Y-73289652D01*
X144928180Y-73216472D01*
X144970741Y-73135860D01*
X145033104Y-73062585D01*
X145109718Y-73002447D01*
X145158325Y-72975951D01*
X145237350Y-72939450D01*
X146264329Y-72935913D01*
X146453042Y-72935310D01*
X146618078Y-72934905D01*
X146761155Y-72934722D01*
X146883996Y-72934787D01*
G36*
X134218747Y-72934687D02*
G01*
X134328657Y-72935350D01*
X134421821Y-72936623D01*
X134499969Y-72938617D01*
X134564833Y-72941445D01*
X134618142Y-72945215D01*
X134661628Y-72950041D01*
X134697021Y-72956033D01*
X134726053Y-72963302D01*
X134750453Y-72971960D01*
X134771953Y-72982117D01*
X134792283Y-72993885D01*
X134813174Y-73007375D01*
X134826447Y-73016176D01*
X134879317Y-73059381D01*
X134926680Y-73112141D01*
X134937123Y-73126852D01*
X134947604Y-73142168D01*
X134957173Y-73155805D01*
X134965871Y-73168923D01*
X134973738Y-73182683D01*
X134980812Y-73198246D01*
X134987133Y-73216774D01*
X134992741Y-73239426D01*
X134997676Y-73267363D01*
X135001977Y-73301747D01*
X135005684Y-73343739D01*
X135008836Y-73394498D01*
X135011473Y-73455187D01*
X135013634Y-73526965D01*
X135015360Y-73610994D01*
X135016689Y-73708434D01*
X135017662Y-73820446D01*
X135018318Y-73948192D01*
X135018696Y-74092831D01*
X135018837Y-74255526D01*
X135018779Y-74437436D01*
X135018563Y-74639722D01*
X135018227Y-74863546D01*
X135017813Y-75110067D01*
X135017358Y-75380448D01*
X135017207Y-75474391D01*
X135013850Y-77600891D01*
X134972108Y-77685677D01*
X134913404Y-77776834D01*
X134835692Y-77851559D01*
X134756247Y-77900777D01*
X134696350Y-77930550D01*
X133643309Y-77934011D01*
X133448516Y-77934660D01*
X133277420Y-77935175D01*
X133128318Y-77935449D01*
X132999506Y-77935375D01*
X132889282Y-77934846D01*
X132795941Y-77933755D01*
X132717781Y-77931995D01*
X132653098Y-77929460D01*
X132600190Y-77926043D01*
X132557352Y-77921636D01*
X132522882Y-77916133D01*
X132495077Y-77909426D01*
X132472233Y-77901410D01*
X132452648Y-77891978D01*
X132434617Y-77881021D01*
X132416438Y-77868434D01*
X132398979Y-77855934D01*
X132337283Y-77812070D01*
X132286756Y-77848672D01*
X132244282Y-77874879D01*
X132192945Y-77900465D01*
X132167237Y-77911087D01*
X132154196Y-77915740D01*
X132140453Y-77919799D01*
X132124271Y-77923302D01*
X132103911Y-77926291D01*
X132077636Y-77928807D01*
X132043706Y-77930891D01*
X132000385Y-77932582D01*
X131945934Y-77933923D01*
X131878615Y-77934953D01*
X131796690Y-77935714D01*
X131698420Y-77936246D01*
X131582068Y-77936589D01*
X131445895Y-77936786D01*
X131288164Y-77936875D01*
X131107136Y-77936899D01*
X131065978Y-77936900D01*
X130873685Y-77936904D01*
X130705061Y-77936844D01*
X130558379Y-77936612D01*
X130431907Y-77936100D01*
X130323917Y-77935201D01*
X130232678Y-77933805D01*
X130156461Y-77931805D01*
X130093536Y-77929093D01*
X130042174Y-77925561D01*
X130000645Y-77921101D01*
X129967219Y-77915604D01*
X129940167Y-77908963D01*
X129917758Y-77901070D01*
X129898264Y-77891816D01*
X129879954Y-77881094D01*
X129861099Y-77868795D01*
X129849229Y-77860895D01*
X129791158Y-77822430D01*
X129716976Y-77867101D01*
X129671168Y-77892487D01*
X129626679Y-77913563D01*
X129597821Y-77924264D01*
X129576525Y-77926597D01*
X129530902Y-77928712D01*
X129462024Y-77930598D01*
X129370963Y-77932241D01*
X129258792Y-77933630D01*
X129126582Y-77934753D01*
X128975405Y-77935599D01*
X128806335Y-77936153D01*
X128620442Y-77936406D01*
X128517800Y-77936414D01*
X128330543Y-77936323D01*
X128166961Y-77936158D01*
X128025329Y-77935884D01*
X127903922Y-77935463D01*
X127801014Y-77934859D01*
X127714880Y-77934037D01*
X127643796Y-77932959D01*
X127586035Y-77931590D01*
X127539874Y-77929894D01*
X127503586Y-77927833D01*
X127475447Y-77925372D01*
X127453731Y-77922475D01*
X127436714Y-77919105D01*
X127422670Y-77915225D01*
X127416707Y-77913251D01*
X127330369Y-77874775D01*
X127259664Y-77822705D01*
X127199872Y-77752844D01*
X127157557Y-77682900D01*
X127127150Y-77625750D01*
X127123831Y-75458083D01*
X127120513Y-73290417D01*
X127146953Y-73219751D01*
X127189089Y-73139555D01*
X127250576Y-73065966D01*
X127325364Y-73005371D01*
X127377448Y-72976345D01*
X127457350Y-72939450D01*
X128484329Y-72935913D01*
X128678841Y-72935249D01*
X128849674Y-72934755D01*
X128998548Y-72934541D01*
X129127184Y-72934717D01*
X129237301Y-72935393D01*
X129330621Y-72936678D01*
X129408864Y-72938683D01*
X129473750Y-72941516D01*
X129526999Y-72945289D01*
X129570333Y-72950111D01*
X129605471Y-72956091D01*
X129634135Y-72963339D01*
X129658043Y-72971966D01*
X129678918Y-72982081D01*
X129698480Y-72993794D01*
X129718448Y-73007214D01*
X129730349Y-73015447D01*
X129765635Y-73039199D01*
X129787026Y-73049902D01*
X129801434Y-73049072D01*
X129815775Y-73038225D01*
X129819287Y-73034946D01*
X129844296Y-73016856D01*
X129883445Y-72994133D01*
X129921187Y-72975108D01*
X129997350Y-72939450D01*
X131024329Y-72935913D01*
X131218747Y-72935246D01*
X131389490Y-72934747D01*
X131538284Y-72934526D01*
X131666852Y-72934696D01*
X131776920Y-72935370D01*
X131870213Y-72936659D01*
X131948456Y-72938676D01*
X132013374Y-72941532D01*
X132066692Y-72945340D01*
X132110134Y-72950212D01*
X132145427Y-72956261D01*
X132174294Y-72963597D01*
X132198460Y-72972335D01*
X132219651Y-72982585D01*
X132239592Y-72994460D01*
X132260008Y-73008072D01*
X132273204Y-73017120D01*
X132339259Y-73062338D01*
X132381853Y-73029850D01*
X132419583Y-73004812D01*
X132466224Y-72978705D01*
X132487249Y-72968406D01*
X132550050Y-72939450D01*
X133577029Y-72935913D01*
X133771231Y-72935247D01*
X133941765Y-72934746D01*
X134090360Y-72934523D01*
X134218747Y-72934687D01*
X134218747Y-72934687D01*
G37*
X134218747Y-72934687D02*
X134328657Y-72935350D01*
X134421821Y-72936623D01*
X134499969Y-72938617D01*
X134564833Y-72941445D01*
X134618142Y-72945215D01*
X134661628Y-72950041D01*
X134697021Y-72956033D01*
X134726053Y-72963302D01*
X134750453Y-72971960D01*
X134771953Y-72982117D01*
X134792283Y-72993885D01*
X134813174Y-73007375D01*
X134826447Y-73016176D01*
X134879317Y-73059381D01*
X134926680Y-73112141D01*
X134937123Y-73126852D01*
X134947604Y-73142168D01*
X134957173Y-73155805D01*
X134965871Y-73168923D01*
X134973738Y-73182683D01*
X134980812Y-73198246D01*
X134987133Y-73216774D01*
X134992741Y-73239426D01*
X134997676Y-73267363D01*
X135001977Y-73301747D01*
X135005684Y-73343739D01*
X135008836Y-73394498D01*
X135011473Y-73455187D01*
X135013634Y-73526965D01*
X135015360Y-73610994D01*
X135016689Y-73708434D01*
X135017662Y-73820446D01*
X135018318Y-73948192D01*
X135018696Y-74092831D01*
X135018837Y-74255526D01*
X135018779Y-74437436D01*
X135018563Y-74639722D01*
X135018227Y-74863546D01*
X135017813Y-75110067D01*
X135017358Y-75380448D01*
X135017207Y-75474391D01*
X135013850Y-77600891D01*
X134972108Y-77685677D01*
X134913404Y-77776834D01*
X134835692Y-77851559D01*
X134756247Y-77900777D01*
X134696350Y-77930550D01*
X133643309Y-77934011D01*
X133448516Y-77934660D01*
X133277420Y-77935175D01*
X133128318Y-77935449D01*
X132999506Y-77935375D01*
X132889282Y-77934846D01*
X132795941Y-77933755D01*
X132717781Y-77931995D01*
X132653098Y-77929460D01*
X132600190Y-77926043D01*
X132557352Y-77921636D01*
X132522882Y-77916133D01*
X132495077Y-77909426D01*
X132472233Y-77901410D01*
X132452648Y-77891978D01*
X132434617Y-77881021D01*
X132416438Y-77868434D01*
X132398979Y-77855934D01*
X132337283Y-77812070D01*
X132286756Y-77848672D01*
X132244282Y-77874879D01*
X132192945Y-77900465D01*
X132167237Y-77911087D01*
X132154196Y-77915740D01*
X132140453Y-77919799D01*
X132124271Y-77923302D01*
X132103911Y-77926291D01*
X132077636Y-77928807D01*
X132043706Y-77930891D01*
X132000385Y-77932582D01*
X131945934Y-77933923D01*
X131878615Y-77934953D01*
X131796690Y-77935714D01*
X131698420Y-77936246D01*
X131582068Y-77936589D01*
X131445895Y-77936786D01*
X131288164Y-77936875D01*
X131107136Y-77936899D01*
X131065978Y-77936900D01*
X130873685Y-77936904D01*
X130705061Y-77936844D01*
X130558379Y-77936612D01*
X130431907Y-77936100D01*
X130323917Y-77935201D01*
X130232678Y-77933805D01*
X130156461Y-77931805D01*
X130093536Y-77929093D01*
X130042174Y-77925561D01*
X130000645Y-77921101D01*
X129967219Y-77915604D01*
X129940167Y-77908963D01*
X129917758Y-77901070D01*
X129898264Y-77891816D01*
X129879954Y-77881094D01*
X129861099Y-77868795D01*
X129849229Y-77860895D01*
X129791158Y-77822430D01*
X129716976Y-77867101D01*
X129671168Y-77892487D01*
X129626679Y-77913563D01*
X129597821Y-77924264D01*
X129576525Y-77926597D01*
X129530902Y-77928712D01*
X129462024Y-77930598D01*
X129370963Y-77932241D01*
X129258792Y-77933630D01*
X129126582Y-77934753D01*
X128975405Y-77935599D01*
X128806335Y-77936153D01*
X128620442Y-77936406D01*
X128517800Y-77936414D01*
X128330543Y-77936323D01*
X128166961Y-77936158D01*
X128025329Y-77935884D01*
X127903922Y-77935463D01*
X127801014Y-77934859D01*
X127714880Y-77934037D01*
X127643796Y-77932959D01*
X127586035Y-77931590D01*
X127539874Y-77929894D01*
X127503586Y-77927833D01*
X127475447Y-77925372D01*
X127453731Y-77922475D01*
X127436714Y-77919105D01*
X127422670Y-77915225D01*
X127416707Y-77913251D01*
X127330369Y-77874775D01*
X127259664Y-77822705D01*
X127199872Y-77752844D01*
X127157557Y-77682900D01*
X127127150Y-77625750D01*
X127123831Y-75458083D01*
X127120513Y-73290417D01*
X127146953Y-73219751D01*
X127189089Y-73139555D01*
X127250576Y-73065966D01*
X127325364Y-73005371D01*
X127377448Y-72976345D01*
X127457350Y-72939450D01*
X128484329Y-72935913D01*
X128678841Y-72935249D01*
X128849674Y-72934755D01*
X128998548Y-72934541D01*
X129127184Y-72934717D01*
X129237301Y-72935393D01*
X129330621Y-72936678D01*
X129408864Y-72938683D01*
X129473750Y-72941516D01*
X129526999Y-72945289D01*
X129570333Y-72950111D01*
X129605471Y-72956091D01*
X129634135Y-72963339D01*
X129658043Y-72971966D01*
X129678918Y-72982081D01*
X129698480Y-72993794D01*
X129718448Y-73007214D01*
X129730349Y-73015447D01*
X129765635Y-73039199D01*
X129787026Y-73049902D01*
X129801434Y-73049072D01*
X129815775Y-73038225D01*
X129819287Y-73034946D01*
X129844296Y-73016856D01*
X129883445Y-72994133D01*
X129921187Y-72975108D01*
X129997350Y-72939450D01*
X131024329Y-72935913D01*
X131218747Y-72935246D01*
X131389490Y-72934747D01*
X131538284Y-72934526D01*
X131666852Y-72934696D01*
X131776920Y-72935370D01*
X131870213Y-72936659D01*
X131948456Y-72938676D01*
X132013374Y-72941532D01*
X132066692Y-72945340D01*
X132110134Y-72950212D01*
X132145427Y-72956261D01*
X132174294Y-72963597D01*
X132198460Y-72972335D01*
X132219651Y-72982585D01*
X132239592Y-72994460D01*
X132260008Y-73008072D01*
X132273204Y-73017120D01*
X132339259Y-73062338D01*
X132381853Y-73029850D01*
X132419583Y-73004812D01*
X132466224Y-72978705D01*
X132487249Y-72968406D01*
X132550050Y-72939450D01*
X133577029Y-72935913D01*
X133771231Y-72935247D01*
X133941765Y-72934746D01*
X134090360Y-72934523D01*
X134218747Y-72934687D01*
G36*
X123044347Y-72934802D02*
G01*
X123200285Y-72935121D01*
X123379205Y-72935647D01*
X123458570Y-72935913D01*
X124485550Y-72939450D01*
X124564574Y-72975951D01*
X124647190Y-73026056D01*
X124718608Y-73092732D01*
X124773321Y-73170220D01*
X124794862Y-73216854D01*
X124822386Y-73290417D01*
X124819068Y-75458083D01*
X124815750Y-77625750D01*
X124786456Y-77684628D01*
X124731089Y-77772614D01*
X124661054Y-77841237D01*
X124583719Y-77888741D01*
X124498805Y-77930550D01*
X123438077Y-77933573D01*
X122377350Y-77936597D01*
X122304073Y-77906314D01*
X122220202Y-77864239D01*
X122154935Y-77813475D01*
X122104133Y-77752508D01*
X122093607Y-77737945D01*
X122084014Y-77725472D01*
X122075310Y-77713912D01*
X122067450Y-77702086D01*
X122060389Y-77688819D01*
X122054082Y-77672933D01*
X122048484Y-77653250D01*
X122043551Y-77628593D01*
X122039238Y-77597786D01*
X122035499Y-77559650D01*
X122032289Y-77513009D01*
X122029565Y-77456685D01*
X122027281Y-77389501D01*
X122025391Y-77310280D01*
X122023852Y-77217844D01*
X122022618Y-77111017D01*
X122021644Y-76988621D01*
X122020886Y-76849478D01*
X122020299Y-76692412D01*
X122019837Y-76516245D01*
X122019457Y-76319800D01*
X122019112Y-76101900D01*
X122018758Y-75861367D01*
X122018350Y-75597025D01*
X122018186Y-75498500D01*
X122017728Y-75183924D01*
X122017469Y-74894561D01*
X122017410Y-74630224D01*
X122017553Y-74390727D01*
X122017899Y-74175883D01*
X122018447Y-73985506D01*
X122019199Y-73819408D01*
X122020156Y-73677404D01*
X122021318Y-73559306D01*
X122022687Y-73464929D01*
X122024263Y-73394085D01*
X122026047Y-73346589D01*
X122027972Y-73322688D01*
X122055762Y-73216343D01*
X122103323Y-73124558D01*
X122169189Y-73049001D01*
X122251892Y-72991340D01*
X122349967Y-72953241D01*
X122353670Y-72952280D01*
X122370383Y-72948634D01*
X122391149Y-72945476D01*
X122417688Y-72942781D01*
X122451722Y-72940522D01*
X122494970Y-72938675D01*
X122549155Y-72937214D01*
X122615996Y-72936113D01*
X122697215Y-72935346D01*
X122794533Y-72934890D01*
X122909670Y-72934717D01*
X123044347Y-72934802D01*
X123044347Y-72934802D01*
G37*
X123044347Y-72934802D02*
X123200285Y-72935121D01*
X123379205Y-72935647D01*
X123458570Y-72935913D01*
X124485550Y-72939450D01*
X124564574Y-72975951D01*
X124647190Y-73026056D01*
X124718608Y-73092732D01*
X124773321Y-73170220D01*
X124794862Y-73216854D01*
X124822386Y-73290417D01*
X124819068Y-75458083D01*
X124815750Y-77625750D01*
X124786456Y-77684628D01*
X124731089Y-77772614D01*
X124661054Y-77841237D01*
X124583719Y-77888741D01*
X124498805Y-77930550D01*
X123438077Y-77933573D01*
X122377350Y-77936597D01*
X122304073Y-77906314D01*
X122220202Y-77864239D01*
X122154935Y-77813475D01*
X122104133Y-77752508D01*
X122093607Y-77737945D01*
X122084014Y-77725472D01*
X122075310Y-77713912D01*
X122067450Y-77702086D01*
X122060389Y-77688819D01*
X122054082Y-77672933D01*
X122048484Y-77653250D01*
X122043551Y-77628593D01*
X122039238Y-77597786D01*
X122035499Y-77559650D01*
X122032289Y-77513009D01*
X122029565Y-77456685D01*
X122027281Y-77389501D01*
X122025391Y-77310280D01*
X122023852Y-77217844D01*
X122022618Y-77111017D01*
X122021644Y-76988621D01*
X122020886Y-76849478D01*
X122020299Y-76692412D01*
X122019837Y-76516245D01*
X122019457Y-76319800D01*
X122019112Y-76101900D01*
X122018758Y-75861367D01*
X122018350Y-75597025D01*
X122018186Y-75498500D01*
X122017728Y-75183924D01*
X122017469Y-74894561D01*
X122017410Y-74630224D01*
X122017553Y-74390727D01*
X122017899Y-74175883D01*
X122018447Y-73985506D01*
X122019199Y-73819408D01*
X122020156Y-73677404D01*
X122021318Y-73559306D01*
X122022687Y-73464929D01*
X122024263Y-73394085D01*
X122026047Y-73346589D01*
X122027972Y-73322688D01*
X122055762Y-73216343D01*
X122103323Y-73124558D01*
X122169189Y-73049001D01*
X122251892Y-72991340D01*
X122349967Y-72953241D01*
X122353670Y-72952280D01*
X122370383Y-72948634D01*
X122391149Y-72945476D01*
X122417688Y-72942781D01*
X122451722Y-72940522D01*
X122494970Y-72938675D01*
X122549155Y-72937214D01*
X122615996Y-72936113D01*
X122697215Y-72935346D01*
X122794533Y-72934890D01*
X122909670Y-72934717D01*
X123044347Y-72934802D01*
G36*
X113887649Y-72934776D02*
G01*
X113997804Y-72935452D01*
X114091110Y-72936715D01*
X114169275Y-72938668D01*
X114234011Y-72941412D01*
X114287027Y-72945049D01*
X114330034Y-72949681D01*
X114364740Y-72955408D01*
X114392856Y-72962334D01*
X114416093Y-72970560D01*
X114436160Y-72980188D01*
X114454767Y-72991319D01*
X114473624Y-73004055D01*
X114481496Y-73009535D01*
X114513143Y-73030899D01*
X114535374Y-73044629D01*
X114541450Y-73047400D01*
X114554154Y-73040752D01*
X114580642Y-73023714D01*
X114601403Y-73009535D01*
X114620828Y-72996139D01*
X114639330Y-72984388D01*
X114658618Y-72974180D01*
X114680401Y-72965414D01*
X114706392Y-72957988D01*
X114738298Y-72951800D01*
X114777830Y-72946749D01*
X114826699Y-72942733D01*
X114886614Y-72939649D01*
X114959285Y-72937397D01*
X115046423Y-72935874D01*
X115149737Y-72934979D01*
X115270937Y-72934609D01*
X115411733Y-72934664D01*
X115573835Y-72935041D01*
X115758954Y-72935639D01*
X115838570Y-72935913D01*
X116865550Y-72939450D01*
X116944574Y-72975951D01*
X117027190Y-73026056D01*
X117098608Y-73092732D01*
X117153321Y-73170220D01*
X117174862Y-73216854D01*
X117202386Y-73290417D01*
X117199068Y-75458083D01*
X117195750Y-77625750D01*
X117166456Y-77684628D01*
X117111089Y-77772614D01*
X117041054Y-77841238D01*
X116963719Y-77888741D01*
X116878805Y-77930550D01*
X115825391Y-77934011D01*
X115632436Y-77934659D01*
X115463157Y-77935189D01*
X115315834Y-77935498D01*
X115188741Y-77935486D01*
X115080158Y-77935054D01*
X114988360Y-77934099D01*
X114911626Y-77932522D01*
X114848232Y-77930221D01*
X114796456Y-77927096D01*
X114754575Y-77923047D01*
X114720865Y-77917972D01*
X114693605Y-77911772D01*
X114671072Y-77904344D01*
X114651542Y-77895590D01*
X114633292Y-77885408D01*
X114614601Y-77873697D01*
X114596693Y-77862221D01*
X114540305Y-77826460D01*
X114496427Y-77856542D01*
X114458134Y-77878844D01*
X114410030Y-77901772D01*
X114385398Y-77911762D01*
X114372605Y-77916284D01*
X114358848Y-77920227D01*
X114342397Y-77923629D01*
X114321523Y-77926527D01*
X114294496Y-77928961D01*
X114259584Y-77930966D01*
X114215059Y-77932583D01*
X114159191Y-77933849D01*
X114090249Y-77934801D01*
X114006503Y-77935479D01*
X113906223Y-77935919D01*
X113787679Y-77936160D01*
X113649141Y-77936240D01*
X113488880Y-77936198D01*
X113305164Y-77936070D01*
X113280498Y-77936050D01*
X113082088Y-77935798D01*
X112907718Y-77935372D01*
X112756029Y-77934752D01*
X112625662Y-77933917D01*
X112515259Y-77932845D01*
X112423458Y-77931516D01*
X112348902Y-77929909D01*
X112290232Y-77928002D01*
X112246087Y-77925775D01*
X112215109Y-77923206D01*
X112195939Y-77920275D01*
X112191950Y-77919217D01*
X112093628Y-77876616D01*
X112012723Y-77815757D01*
X111948028Y-77735658D01*
X111930761Y-77706189D01*
X111887150Y-77625750D01*
X111883831Y-75458083D01*
X111880513Y-73290417D01*
X111906953Y-73219751D01*
X111949089Y-73139555D01*
X112010576Y-73065966D01*
X112085364Y-73005371D01*
X112137448Y-72976345D01*
X112217350Y-72939450D01*
X113244329Y-72935913D01*
X113438983Y-72935256D01*
X113609948Y-72934780D01*
X113758934Y-72934586D01*
X113887649Y-72934776D01*
X113887649Y-72934776D01*
G37*
X113887649Y-72934776D02*
X113997804Y-72935452D01*
X114091110Y-72936715D01*
X114169275Y-72938668D01*
X114234011Y-72941412D01*
X114287027Y-72945049D01*
X114330034Y-72949681D01*
X114364740Y-72955408D01*
X114392856Y-72962334D01*
X114416093Y-72970560D01*
X114436160Y-72980188D01*
X114454767Y-72991319D01*
X114473624Y-73004055D01*
X114481496Y-73009535D01*
X114513143Y-73030899D01*
X114535374Y-73044629D01*
X114541450Y-73047400D01*
X114554154Y-73040752D01*
X114580642Y-73023714D01*
X114601403Y-73009535D01*
X114620828Y-72996139D01*
X114639330Y-72984388D01*
X114658618Y-72974180D01*
X114680401Y-72965414D01*
X114706392Y-72957988D01*
X114738298Y-72951800D01*
X114777830Y-72946749D01*
X114826699Y-72942733D01*
X114886614Y-72939649D01*
X114959285Y-72937397D01*
X115046423Y-72935874D01*
X115149737Y-72934979D01*
X115270937Y-72934609D01*
X115411733Y-72934664D01*
X115573835Y-72935041D01*
X115758954Y-72935639D01*
X115838570Y-72935913D01*
X116865550Y-72939450D01*
X116944574Y-72975951D01*
X117027190Y-73026056D01*
X117098608Y-73092732D01*
X117153321Y-73170220D01*
X117174862Y-73216854D01*
X117202386Y-73290417D01*
X117199068Y-75458083D01*
X117195750Y-77625750D01*
X117166456Y-77684628D01*
X117111089Y-77772614D01*
X117041054Y-77841238D01*
X116963719Y-77888741D01*
X116878805Y-77930550D01*
X115825391Y-77934011D01*
X115632436Y-77934659D01*
X115463157Y-77935189D01*
X115315834Y-77935498D01*
X115188741Y-77935486D01*
X115080158Y-77935054D01*
X114988360Y-77934099D01*
X114911626Y-77932522D01*
X114848232Y-77930221D01*
X114796456Y-77927096D01*
X114754575Y-77923047D01*
X114720865Y-77917972D01*
X114693605Y-77911772D01*
X114671072Y-77904344D01*
X114651542Y-77895590D01*
X114633292Y-77885408D01*
X114614601Y-77873697D01*
X114596693Y-77862221D01*
X114540305Y-77826460D01*
X114496427Y-77856542D01*
X114458134Y-77878844D01*
X114410030Y-77901772D01*
X114385398Y-77911762D01*
X114372605Y-77916284D01*
X114358848Y-77920227D01*
X114342397Y-77923629D01*
X114321523Y-77926527D01*
X114294496Y-77928961D01*
X114259584Y-77930966D01*
X114215059Y-77932583D01*
X114159191Y-77933849D01*
X114090249Y-77934801D01*
X114006503Y-77935479D01*
X113906223Y-77935919D01*
X113787679Y-77936160D01*
X113649141Y-77936240D01*
X113488880Y-77936198D01*
X113305164Y-77936070D01*
X113280498Y-77936050D01*
X113082088Y-77935798D01*
X112907718Y-77935372D01*
X112756029Y-77934752D01*
X112625662Y-77933917D01*
X112515259Y-77932845D01*
X112423458Y-77931516D01*
X112348902Y-77929909D01*
X112290232Y-77928002D01*
X112246087Y-77925775D01*
X112215109Y-77923206D01*
X112195939Y-77920275D01*
X112191950Y-77919217D01*
X112093628Y-77876616D01*
X112012723Y-77815757D01*
X111948028Y-77735658D01*
X111930761Y-77706189D01*
X111887150Y-77625750D01*
X111883831Y-75458083D01*
X111880513Y-73290417D01*
X111906953Y-73219751D01*
X111949089Y-73139555D01*
X112010576Y-73065966D01*
X112085364Y-73005371D01*
X112137448Y-72976345D01*
X112217350Y-72939450D01*
X113244329Y-72935913D01*
X113438983Y-72935256D01*
X113609948Y-72934780D01*
X113758934Y-72934586D01*
X113887649Y-72934776D01*
G36*
X150364210Y-128044828D02*
G01*
X150493583Y-128045296D01*
X150604343Y-128046237D01*
X150698187Y-128047806D01*
X150776812Y-128050153D01*
X150841915Y-128053432D01*
X150895192Y-128057794D01*
X150938341Y-128063392D01*
X150973058Y-128070378D01*
X151001039Y-128078905D01*
X151023982Y-128089124D01*
X151043583Y-128101189D01*
X151061540Y-128115251D01*
X151079548Y-128131463D01*
X151099305Y-128149976D01*
X151107884Y-128157884D01*
X151175609Y-128232795D01*
X151221732Y-128316186D01*
X151249388Y-128413832D01*
X151250621Y-128420814D01*
X151252613Y-128442186D01*
X151254400Y-128482165D01*
X151255985Y-128541276D01*
X151257371Y-128620041D01*
X151258561Y-128718983D01*
X151259556Y-128838625D01*
X151260359Y-128979492D01*
X151260973Y-129142105D01*
X151261399Y-129326989D01*
X151261641Y-129534666D01*
X151261701Y-129765661D01*
X151261582Y-130020495D01*
X151261285Y-130299693D01*
X151260825Y-130597450D01*
X151257150Y-132692950D01*
X151226621Y-132768756D01*
X151185650Y-132842831D01*
X151126501Y-132913330D01*
X151056118Y-132972923D01*
X151003150Y-133004590D01*
X150939650Y-133035850D01*
X149872850Y-133038022D01*
X149707071Y-133038226D01*
X149548695Y-133038162D01*
X149399610Y-133037844D01*
X149261704Y-133037289D01*
X149136864Y-133036511D01*
X149026978Y-133035527D01*
X148933935Y-133034352D01*
X148859620Y-133033002D01*
X148805923Y-133031492D01*
X148774732Y-133029838D01*
X148767950Y-133028902D01*
X148706033Y-133002471D01*
X148640468Y-132961457D01*
X148581137Y-132912777D01*
X148544420Y-132872458D01*
X148533417Y-132858536D01*
X148523371Y-132846484D01*
X148514239Y-132835148D01*
X148505976Y-132823373D01*
X148498541Y-132810007D01*
X148491890Y-132793895D01*
X148485979Y-132773884D01*
X148480765Y-132748819D01*
X148476205Y-132717548D01*
X148472256Y-132678917D01*
X148468873Y-132631771D01*
X148466014Y-132574957D01*
X148463636Y-132507322D01*
X148461694Y-132427711D01*
X148460147Y-132334971D01*
X148458949Y-132227948D01*
X148458059Y-132105488D01*
X148457433Y-131966438D01*
X148457027Y-131809644D01*
X148456798Y-131633952D01*
X148456703Y-131438208D01*
X148456699Y-131221260D01*
X148456741Y-130981952D01*
X148456788Y-130719131D01*
X148456800Y-130539318D01*
X148456802Y-130265974D01*
X148456820Y-130016865D01*
X148456866Y-129790825D01*
X148456955Y-129586688D01*
X148457100Y-129403287D01*
X148457315Y-129239459D01*
X148457615Y-129094035D01*
X148458012Y-128965852D01*
X148458521Y-128853743D01*
X148459156Y-128756543D01*
X148459930Y-128673085D01*
X148460857Y-128602205D01*
X148461951Y-128542736D01*
X148463226Y-128493513D01*
X148464696Y-128453369D01*
X148466375Y-128421140D01*
X148468276Y-128395660D01*
X148470413Y-128375762D01*
X148472800Y-128360282D01*
X148475452Y-128348053D01*
X148478381Y-128337909D01*
X148481602Y-128328686D01*
X148483096Y-128324668D01*
X148525014Y-128244933D01*
X148586252Y-128171605D01*
X148660727Y-128111101D01*
X148713448Y-128081645D01*
X148793350Y-128044750D01*
X149847450Y-128044750D01*
X150042840Y-128044707D01*
X150214528Y-128044683D01*
X150364210Y-128044828D01*
X150364210Y-128044828D01*
G37*
X150364210Y-128044828D02*
X150493583Y-128045296D01*
X150604343Y-128046237D01*
X150698187Y-128047806D01*
X150776812Y-128050153D01*
X150841915Y-128053432D01*
X150895192Y-128057794D01*
X150938341Y-128063392D01*
X150973058Y-128070378D01*
X151001039Y-128078905D01*
X151023982Y-128089124D01*
X151043583Y-128101189D01*
X151061540Y-128115251D01*
X151079548Y-128131463D01*
X151099305Y-128149976D01*
X151107884Y-128157884D01*
X151175609Y-128232795D01*
X151221732Y-128316186D01*
X151249388Y-128413832D01*
X151250621Y-128420814D01*
X151252613Y-128442186D01*
X151254400Y-128482165D01*
X151255985Y-128541276D01*
X151257371Y-128620041D01*
X151258561Y-128718983D01*
X151259556Y-128838625D01*
X151260359Y-128979492D01*
X151260973Y-129142105D01*
X151261399Y-129326989D01*
X151261641Y-129534666D01*
X151261701Y-129765661D01*
X151261582Y-130020495D01*
X151261285Y-130299693D01*
X151260825Y-130597450D01*
X151257150Y-132692950D01*
X151226621Y-132768756D01*
X151185650Y-132842831D01*
X151126501Y-132913330D01*
X151056118Y-132972923D01*
X151003150Y-133004590D01*
X150939650Y-133035850D01*
X149872850Y-133038022D01*
X149707071Y-133038226D01*
X149548695Y-133038162D01*
X149399610Y-133037844D01*
X149261704Y-133037289D01*
X149136864Y-133036511D01*
X149026978Y-133035527D01*
X148933935Y-133034352D01*
X148859620Y-133033002D01*
X148805923Y-133031492D01*
X148774732Y-133029838D01*
X148767950Y-133028902D01*
X148706033Y-133002471D01*
X148640468Y-132961457D01*
X148581137Y-132912777D01*
X148544420Y-132872458D01*
X148533417Y-132858536D01*
X148523371Y-132846484D01*
X148514239Y-132835148D01*
X148505976Y-132823373D01*
X148498541Y-132810007D01*
X148491890Y-132793895D01*
X148485979Y-132773884D01*
X148480765Y-132748819D01*
X148476205Y-132717548D01*
X148472256Y-132678917D01*
X148468873Y-132631771D01*
X148466014Y-132574957D01*
X148463636Y-132507322D01*
X148461694Y-132427711D01*
X148460147Y-132334971D01*
X148458949Y-132227948D01*
X148458059Y-132105488D01*
X148457433Y-131966438D01*
X148457027Y-131809644D01*
X148456798Y-131633952D01*
X148456703Y-131438208D01*
X148456699Y-131221260D01*
X148456741Y-130981952D01*
X148456788Y-130719131D01*
X148456800Y-130539318D01*
X148456802Y-130265974D01*
X148456820Y-130016865D01*
X148456866Y-129790825D01*
X148456955Y-129586688D01*
X148457100Y-129403287D01*
X148457315Y-129239459D01*
X148457615Y-129094035D01*
X148458012Y-128965852D01*
X148458521Y-128853743D01*
X148459156Y-128756543D01*
X148459930Y-128673085D01*
X148460857Y-128602205D01*
X148461951Y-128542736D01*
X148463226Y-128493513D01*
X148464696Y-128453369D01*
X148466375Y-128421140D01*
X148468276Y-128395660D01*
X148470413Y-128375762D01*
X148472800Y-128360282D01*
X148475452Y-128348053D01*
X148478381Y-128337909D01*
X148481602Y-128328686D01*
X148483096Y-128324668D01*
X148525014Y-128244933D01*
X148586252Y-128171605D01*
X148660727Y-128111101D01*
X148713448Y-128081645D01*
X148793350Y-128044750D01*
X149847450Y-128044750D01*
X150042840Y-128044707D01*
X150214528Y-128044683D01*
X150364210Y-128044828D01*
G36*
X145284210Y-128044828D02*
G01*
X145413583Y-128045296D01*
X145524343Y-128046237D01*
X145618187Y-128047806D01*
X145696812Y-128050153D01*
X145761915Y-128053432D01*
X145815192Y-128057794D01*
X145858341Y-128063392D01*
X145893058Y-128070378D01*
X145921039Y-128078905D01*
X145943982Y-128089124D01*
X145963583Y-128101189D01*
X145981540Y-128115251D01*
X145999548Y-128131463D01*
X146019305Y-128149976D01*
X146027884Y-128157884D01*
X146095609Y-128232795D01*
X146141732Y-128316186D01*
X146169388Y-128413832D01*
X146170621Y-128420814D01*
X146172613Y-128442186D01*
X146174400Y-128482165D01*
X146175985Y-128541276D01*
X146177371Y-128620041D01*
X146178561Y-128718983D01*
X146179556Y-128838625D01*
X146180359Y-128979492D01*
X146180973Y-129142105D01*
X146181399Y-129326989D01*
X146181641Y-129534666D01*
X146181701Y-129765661D01*
X146181582Y-130020495D01*
X146181285Y-130299693D01*
X146180825Y-130597450D01*
X146177150Y-132692950D01*
X146146621Y-132768756D01*
X146105650Y-132842831D01*
X146046501Y-132913330D01*
X145976118Y-132972923D01*
X145923150Y-133004590D01*
X145859650Y-133035850D01*
X144792850Y-133038022D01*
X144627071Y-133038226D01*
X144468695Y-133038162D01*
X144319610Y-133037844D01*
X144181704Y-133037289D01*
X144056864Y-133036511D01*
X143946978Y-133035527D01*
X143853935Y-133034352D01*
X143779620Y-133033002D01*
X143725923Y-133031492D01*
X143694732Y-133029838D01*
X143687950Y-133028902D01*
X143626033Y-133002471D01*
X143560468Y-132961457D01*
X143501137Y-132912777D01*
X143464420Y-132872458D01*
X143453417Y-132858536D01*
X143443371Y-132846484D01*
X143434239Y-132835148D01*
X143425976Y-132823373D01*
X143418541Y-132810007D01*
X143411890Y-132793895D01*
X143405979Y-132773884D01*
X143400765Y-132748819D01*
X143396205Y-132717548D01*
X143392256Y-132678917D01*
X143388873Y-132631771D01*
X143386014Y-132574957D01*
X143383636Y-132507322D01*
X143381694Y-132427711D01*
X143380147Y-132334971D01*
X143378949Y-132227948D01*
X143378059Y-132105488D01*
X143377433Y-131966438D01*
X143377027Y-131809644D01*
X143376798Y-131633952D01*
X143376703Y-131438208D01*
X143376699Y-131221260D01*
X143376741Y-130981952D01*
X143376788Y-130719131D01*
X143376800Y-130539318D01*
X143376802Y-130265974D01*
X143376820Y-130016865D01*
X143376866Y-129790825D01*
X143376955Y-129586688D01*
X143377100Y-129403287D01*
X143377315Y-129239459D01*
X143377615Y-129094035D01*
X143378012Y-128965852D01*
X143378521Y-128853743D01*
X143379156Y-128756543D01*
X143379930Y-128673085D01*
X143380857Y-128602205D01*
X143381951Y-128542736D01*
X143383226Y-128493513D01*
X143384696Y-128453369D01*
X143386375Y-128421140D01*
X143388276Y-128395660D01*
X143390413Y-128375762D01*
X143392800Y-128360282D01*
X143395452Y-128348053D01*
X143398381Y-128337909D01*
X143401602Y-128328686D01*
X143403096Y-128324668D01*
X143445014Y-128244933D01*
X143506252Y-128171605D01*
X143580727Y-128111101D01*
X143633448Y-128081645D01*
X143713350Y-128044750D01*
X144767450Y-128044750D01*
X144962840Y-128044707D01*
X145134528Y-128044683D01*
X145284210Y-128044828D01*
X145284210Y-128044828D01*
G37*
X145284210Y-128044828D02*
X145413583Y-128045296D01*
X145524343Y-128046237D01*
X145618187Y-128047806D01*
X145696812Y-128050153D01*
X145761915Y-128053432D01*
X145815192Y-128057794D01*
X145858341Y-128063392D01*
X145893058Y-128070378D01*
X145921039Y-128078905D01*
X145943982Y-128089124D01*
X145963583Y-128101189D01*
X145981540Y-128115251D01*
X145999548Y-128131463D01*
X146019305Y-128149976D01*
X146027884Y-128157884D01*
X146095609Y-128232795D01*
X146141732Y-128316186D01*
X146169388Y-128413832D01*
X146170621Y-128420814D01*
X146172613Y-128442186D01*
X146174400Y-128482165D01*
X146175985Y-128541276D01*
X146177371Y-128620041D01*
X146178561Y-128718983D01*
X146179556Y-128838625D01*
X146180359Y-128979492D01*
X146180973Y-129142105D01*
X146181399Y-129326989D01*
X146181641Y-129534666D01*
X146181701Y-129765661D01*
X146181582Y-130020495D01*
X146181285Y-130299693D01*
X146180825Y-130597450D01*
X146177150Y-132692950D01*
X146146621Y-132768756D01*
X146105650Y-132842831D01*
X146046501Y-132913330D01*
X145976118Y-132972923D01*
X145923150Y-133004590D01*
X145859650Y-133035850D01*
X144792850Y-133038022D01*
X144627071Y-133038226D01*
X144468695Y-133038162D01*
X144319610Y-133037844D01*
X144181704Y-133037289D01*
X144056864Y-133036511D01*
X143946978Y-133035527D01*
X143853935Y-133034352D01*
X143779620Y-133033002D01*
X143725923Y-133031492D01*
X143694732Y-133029838D01*
X143687950Y-133028902D01*
X143626033Y-133002471D01*
X143560468Y-132961457D01*
X143501137Y-132912777D01*
X143464420Y-132872458D01*
X143453417Y-132858536D01*
X143443371Y-132846484D01*
X143434239Y-132835148D01*
X143425976Y-132823373D01*
X143418541Y-132810007D01*
X143411890Y-132793895D01*
X143405979Y-132773884D01*
X143400765Y-132748819D01*
X143396205Y-132717548D01*
X143392256Y-132678917D01*
X143388873Y-132631771D01*
X143386014Y-132574957D01*
X143383636Y-132507322D01*
X143381694Y-132427711D01*
X143380147Y-132334971D01*
X143378949Y-132227948D01*
X143378059Y-132105488D01*
X143377433Y-131966438D01*
X143377027Y-131809644D01*
X143376798Y-131633952D01*
X143376703Y-131438208D01*
X143376699Y-131221260D01*
X143376741Y-130981952D01*
X143376788Y-130719131D01*
X143376800Y-130539318D01*
X143376802Y-130265974D01*
X143376820Y-130016865D01*
X143376866Y-129790825D01*
X143376955Y-129586688D01*
X143377100Y-129403287D01*
X143377315Y-129239459D01*
X143377615Y-129094035D01*
X143378012Y-128965852D01*
X143378521Y-128853743D01*
X143379156Y-128756543D01*
X143379930Y-128673085D01*
X143380857Y-128602205D01*
X143381951Y-128542736D01*
X143383226Y-128493513D01*
X143384696Y-128453369D01*
X143386375Y-128421140D01*
X143388276Y-128395660D01*
X143390413Y-128375762D01*
X143392800Y-128360282D01*
X143395452Y-128348053D01*
X143398381Y-128337909D01*
X143401602Y-128328686D01*
X143403096Y-128324668D01*
X143445014Y-128244933D01*
X143506252Y-128171605D01*
X143580727Y-128111101D01*
X143633448Y-128081645D01*
X143713350Y-128044750D01*
X144767450Y-128044750D01*
X144962840Y-128044707D01*
X145134528Y-128044683D01*
X145284210Y-128044828D01*
G36*
X140712210Y-128044828D02*
G01*
X140841583Y-128045296D01*
X140952343Y-128046237D01*
X141046187Y-128047806D01*
X141124812Y-128050153D01*
X141189915Y-128053432D01*
X141243192Y-128057794D01*
X141286341Y-128063392D01*
X141321058Y-128070378D01*
X141349039Y-128078905D01*
X141371982Y-128089124D01*
X141391583Y-128101189D01*
X141409540Y-128115251D01*
X141427548Y-128131463D01*
X141447305Y-128149976D01*
X141455884Y-128157884D01*
X141523609Y-128232795D01*
X141569732Y-128316186D01*
X141597388Y-128413832D01*
X141598621Y-128420814D01*
X141600613Y-128442186D01*
X141602400Y-128482165D01*
X141603985Y-128541276D01*
X141605371Y-128620041D01*
X141606561Y-128718983D01*
X141607556Y-128838625D01*
X141608359Y-128979492D01*
X141608973Y-129142105D01*
X141609399Y-129326989D01*
X141609641Y-129534666D01*
X141609701Y-129765661D01*
X141609582Y-130020495D01*
X141609285Y-130299693D01*
X141608825Y-130597450D01*
X141605150Y-132692950D01*
X141574621Y-132768756D01*
X141533650Y-132842831D01*
X141474501Y-132913330D01*
X141404118Y-132972923D01*
X141351150Y-133004590D01*
X141287650Y-133035850D01*
X140220850Y-133038872D01*
X139154050Y-133041895D01*
X139079031Y-133010905D01*
X139030045Y-132987710D01*
X138983179Y-132960729D01*
X138958381Y-132943341D01*
X138918491Y-132902730D01*
X138877826Y-132847314D01*
X138842592Y-132786706D01*
X138818999Y-132730524D01*
X138817339Y-132724874D01*
X138815656Y-132706017D01*
X138814084Y-132662307D01*
X138812623Y-132594293D01*
X138811279Y-132502521D01*
X138810053Y-132387540D01*
X138808949Y-132249897D01*
X138807970Y-132090139D01*
X138807119Y-131908814D01*
X138806400Y-131706469D01*
X138805815Y-131483652D01*
X138805367Y-131240911D01*
X138805061Y-130978792D01*
X138804898Y-130697844D01*
X138804870Y-130537601D01*
X138804864Y-130264372D01*
X138804873Y-130015377D01*
X138804912Y-129789450D01*
X138804994Y-129585424D01*
X138805134Y-129402133D01*
X138805344Y-129238412D01*
X138805639Y-129093093D01*
X138806032Y-128965010D01*
X138806538Y-128852998D01*
X138807170Y-128755890D01*
X138807942Y-128672519D01*
X138808868Y-128601721D01*
X138809962Y-128542328D01*
X138811237Y-128493174D01*
X138812707Y-128453093D01*
X138814387Y-128420919D01*
X138816289Y-128395486D01*
X138818428Y-128375627D01*
X138820818Y-128360176D01*
X138823472Y-128347967D01*
X138826405Y-128337834D01*
X138829629Y-128328611D01*
X138831096Y-128324668D01*
X138873014Y-128244933D01*
X138934252Y-128171605D01*
X139008727Y-128111101D01*
X139061448Y-128081645D01*
X139141350Y-128044750D01*
X140195450Y-128044750D01*
X140390840Y-128044707D01*
X140562528Y-128044683D01*
X140712210Y-128044828D01*
X140712210Y-128044828D01*
G37*
X140712210Y-128044828D02*
X140841583Y-128045296D01*
X140952343Y-128046237D01*
X141046187Y-128047806D01*
X141124812Y-128050153D01*
X141189915Y-128053432D01*
X141243192Y-128057794D01*
X141286341Y-128063392D01*
X141321058Y-128070378D01*
X141349039Y-128078905D01*
X141371982Y-128089124D01*
X141391583Y-128101189D01*
X141409540Y-128115251D01*
X141427548Y-128131463D01*
X141447305Y-128149976D01*
X141455884Y-128157884D01*
X141523609Y-128232795D01*
X141569732Y-128316186D01*
X141597388Y-128413832D01*
X141598621Y-128420814D01*
X141600613Y-128442186D01*
X141602400Y-128482165D01*
X141603985Y-128541276D01*
X141605371Y-128620041D01*
X141606561Y-128718983D01*
X141607556Y-128838625D01*
X141608359Y-128979492D01*
X141608973Y-129142105D01*
X141609399Y-129326989D01*
X141609641Y-129534666D01*
X141609701Y-129765661D01*
X141609582Y-130020495D01*
X141609285Y-130299693D01*
X141608825Y-130597450D01*
X141605150Y-132692950D01*
X141574621Y-132768756D01*
X141533650Y-132842831D01*
X141474501Y-132913330D01*
X141404118Y-132972923D01*
X141351150Y-133004590D01*
X141287650Y-133035850D01*
X140220850Y-133038872D01*
X139154050Y-133041895D01*
X139079031Y-133010905D01*
X139030045Y-132987710D01*
X138983179Y-132960729D01*
X138958381Y-132943341D01*
X138918491Y-132902730D01*
X138877826Y-132847314D01*
X138842592Y-132786706D01*
X138818999Y-132730524D01*
X138817339Y-132724874D01*
X138815656Y-132706017D01*
X138814084Y-132662307D01*
X138812623Y-132594293D01*
X138811279Y-132502521D01*
X138810053Y-132387540D01*
X138808949Y-132249897D01*
X138807970Y-132090139D01*
X138807119Y-131908814D01*
X138806400Y-131706469D01*
X138805815Y-131483652D01*
X138805367Y-131240911D01*
X138805061Y-130978792D01*
X138804898Y-130697844D01*
X138804870Y-130537601D01*
X138804864Y-130264372D01*
X138804873Y-130015377D01*
X138804912Y-129789450D01*
X138804994Y-129585424D01*
X138805134Y-129402133D01*
X138805344Y-129238412D01*
X138805639Y-129093093D01*
X138806032Y-128965010D01*
X138806538Y-128852998D01*
X138807170Y-128755890D01*
X138807942Y-128672519D01*
X138808868Y-128601721D01*
X138809962Y-128542328D01*
X138811237Y-128493174D01*
X138812707Y-128453093D01*
X138814387Y-128420919D01*
X138816289Y-128395486D01*
X138818428Y-128375627D01*
X138820818Y-128360176D01*
X138823472Y-128347967D01*
X138826405Y-128337834D01*
X138829629Y-128328611D01*
X138831096Y-128324668D01*
X138873014Y-128244933D01*
X138934252Y-128171605D01*
X139008727Y-128111101D01*
X139061448Y-128081645D01*
X139141350Y-128044750D01*
X140195450Y-128044750D01*
X140390840Y-128044707D01*
X140562528Y-128044683D01*
X140712210Y-128044828D01*
G36*
X135647761Y-128040663D02*
G01*
X135792467Y-128041313D01*
X135914546Y-128042360D01*
X136013447Y-128043799D01*
X136088617Y-128045625D01*
X136139505Y-128047834D01*
X136165558Y-128050420D01*
X136165811Y-128050473D01*
X136268975Y-128084555D01*
X136357259Y-128139180D01*
X136430196Y-128213976D01*
X136485672Y-128305100D01*
X136525150Y-128387650D01*
X136525150Y-132692950D01*
X136494621Y-132768756D01*
X136453650Y-132842831D01*
X136394501Y-132913330D01*
X136324118Y-132972923D01*
X136271150Y-133004590D01*
X136207650Y-133035850D01*
X135140850Y-133038872D01*
X134074050Y-133041895D01*
X133999031Y-133010905D01*
X133950045Y-132987710D01*
X133903179Y-132960729D01*
X133878381Y-132943341D01*
X133838491Y-132902730D01*
X133797826Y-132847314D01*
X133762592Y-132786706D01*
X133738999Y-132730524D01*
X133737339Y-132724874D01*
X133735656Y-132706017D01*
X133734084Y-132662307D01*
X133732623Y-132594293D01*
X133731279Y-132502521D01*
X133730053Y-132387540D01*
X133728949Y-132249897D01*
X133727970Y-132090139D01*
X133727119Y-131908814D01*
X133726400Y-131706469D01*
X133725815Y-131483652D01*
X133725367Y-131240911D01*
X133725061Y-130978792D01*
X133724898Y-130697844D01*
X133724870Y-130537601D01*
X133724864Y-130264372D01*
X133724873Y-130015377D01*
X133724912Y-129789450D01*
X133724994Y-129585424D01*
X133725134Y-129402133D01*
X133725344Y-129238412D01*
X133725639Y-129093093D01*
X133726032Y-128965010D01*
X133726538Y-128852998D01*
X133727170Y-128755890D01*
X133727942Y-128672519D01*
X133728868Y-128601721D01*
X133729962Y-128542328D01*
X133731237Y-128493174D01*
X133732707Y-128453093D01*
X133734387Y-128420919D01*
X133736289Y-128395486D01*
X133738428Y-128375627D01*
X133740818Y-128360176D01*
X133743472Y-128347967D01*
X133746405Y-128337834D01*
X133749629Y-128328611D01*
X133751096Y-128324668D01*
X133793014Y-128244933D01*
X133854252Y-128171605D01*
X133928727Y-128111101D01*
X133981448Y-128081645D01*
X134061350Y-128044750D01*
X135083406Y-128041140D01*
X135292678Y-128040572D01*
X135480981Y-128040414D01*
X135647761Y-128040663D01*
X135647761Y-128040663D01*
G37*
X135647761Y-128040663D02*
X135792467Y-128041313D01*
X135914546Y-128042360D01*
X136013447Y-128043799D01*
X136088617Y-128045625D01*
X136139505Y-128047834D01*
X136165558Y-128050420D01*
X136165811Y-128050473D01*
X136268975Y-128084555D01*
X136357259Y-128139180D01*
X136430196Y-128213976D01*
X136485672Y-128305100D01*
X136525150Y-128387650D01*
X136525150Y-132692950D01*
X136494621Y-132768756D01*
X136453650Y-132842831D01*
X136394501Y-132913330D01*
X136324118Y-132972923D01*
X136271150Y-133004590D01*
X136207650Y-133035850D01*
X135140850Y-133038872D01*
X134074050Y-133041895D01*
X133999031Y-133010905D01*
X133950045Y-132987710D01*
X133903179Y-132960729D01*
X133878381Y-132943341D01*
X133838491Y-132902730D01*
X133797826Y-132847314D01*
X133762592Y-132786706D01*
X133738999Y-132730524D01*
X133737339Y-132724874D01*
X133735656Y-132706017D01*
X133734084Y-132662307D01*
X133732623Y-132594293D01*
X133731279Y-132502521D01*
X133730053Y-132387540D01*
X133728949Y-132249897D01*
X133727970Y-132090139D01*
X133727119Y-131908814D01*
X133726400Y-131706469D01*
X133725815Y-131483652D01*
X133725367Y-131240911D01*
X133725061Y-130978792D01*
X133724898Y-130697844D01*
X133724870Y-130537601D01*
X133724864Y-130264372D01*
X133724873Y-130015377D01*
X133724912Y-129789450D01*
X133724994Y-129585424D01*
X133725134Y-129402133D01*
X133725344Y-129238412D01*
X133725639Y-129093093D01*
X133726032Y-128965010D01*
X133726538Y-128852998D01*
X133727170Y-128755890D01*
X133727942Y-128672519D01*
X133728868Y-128601721D01*
X133729962Y-128542328D01*
X133731237Y-128493174D01*
X133732707Y-128453093D01*
X133734387Y-128420919D01*
X133736289Y-128395486D01*
X133738428Y-128375627D01*
X133740818Y-128360176D01*
X133743472Y-128347967D01*
X133746405Y-128337834D01*
X133749629Y-128328611D01*
X133751096Y-128324668D01*
X133793014Y-128244933D01*
X133854252Y-128171605D01*
X133928727Y-128111101D01*
X133981448Y-128081645D01*
X134061350Y-128044750D01*
X135083406Y-128041140D01*
X135292678Y-128040572D01*
X135480981Y-128040414D01*
X135647761Y-128040663D01*
G36*
X126503761Y-128040663D02*
G01*
X126648467Y-128041313D01*
X126770546Y-128042360D01*
X126869447Y-128043799D01*
X126944617Y-128045625D01*
X126995505Y-128047834D01*
X127021558Y-128050420D01*
X127021811Y-128050473D01*
X127124975Y-128084555D01*
X127213259Y-128139180D01*
X127286196Y-128213976D01*
X127341672Y-128305100D01*
X127381150Y-128387650D01*
X127381150Y-132692950D01*
X127350621Y-132768756D01*
X127309650Y-132842831D01*
X127250501Y-132913330D01*
X127180118Y-132972923D01*
X127127150Y-133004590D01*
X127063650Y-133035850D01*
X126004158Y-133039309D01*
X125810657Y-133039958D01*
X125640836Y-133040493D01*
X125492975Y-133040811D01*
X125365353Y-133040810D01*
X125256251Y-133040386D01*
X125163948Y-133039437D01*
X125086725Y-133037861D01*
X125022861Y-133035554D01*
X124970636Y-133032415D01*
X124928330Y-133028341D01*
X124894222Y-133023228D01*
X124866594Y-133016975D01*
X124843724Y-133009478D01*
X124823892Y-133000636D01*
X124805379Y-132990345D01*
X124786465Y-132978502D01*
X124766118Y-132965443D01*
X124706454Y-132927605D01*
X124653152Y-132964274D01*
X124633607Y-132977852D01*
X124615842Y-132989757D01*
X124598138Y-133000096D01*
X124578774Y-133008981D01*
X124556030Y-133016520D01*
X124528187Y-133022822D01*
X124493525Y-133027998D01*
X124450324Y-133032157D01*
X124396864Y-133035408D01*
X124331426Y-133037862D01*
X124252289Y-133039626D01*
X124157734Y-133040812D01*
X124046040Y-133041528D01*
X123915489Y-133041884D01*
X123764361Y-133041990D01*
X123590934Y-133041954D01*
X123434181Y-133041898D01*
X122390050Y-133041597D01*
X122316753Y-133011455D01*
X122223193Y-132961308D01*
X122148329Y-132894794D01*
X122090761Y-132811489D01*
X122047150Y-132731050D01*
X122043831Y-130563383D01*
X122040513Y-128395717D01*
X122066953Y-128325051D01*
X122109089Y-128244855D01*
X122170576Y-128171266D01*
X122245364Y-128110671D01*
X122297448Y-128081645D01*
X122377350Y-128044750D01*
X123431450Y-128044750D01*
X123620109Y-128044773D01*
X123785076Y-128044866D01*
X123928056Y-128045066D01*
X124050758Y-128045408D01*
X124154889Y-128045929D01*
X124242155Y-128046666D01*
X124314264Y-128047654D01*
X124372923Y-128048930D01*
X124419839Y-128050530D01*
X124456718Y-128052490D01*
X124485269Y-128054847D01*
X124507198Y-128057636D01*
X124524212Y-128060895D01*
X124538019Y-128064658D01*
X124549050Y-128068483D01*
X124597612Y-128090721D01*
X124645416Y-128118884D01*
X124661101Y-128130152D01*
X124709653Y-128168086D01*
X124737339Y-128142077D01*
X124763499Y-128122942D01*
X124803547Y-128099464D01*
X124841187Y-128080408D01*
X124917350Y-128044750D01*
X125939406Y-128041140D01*
X126148678Y-128040572D01*
X126336981Y-128040414D01*
X126503761Y-128040663D01*
X126503761Y-128040663D01*
G37*
X126503761Y-128040663D02*
X126648467Y-128041313D01*
X126770546Y-128042360D01*
X126869447Y-128043799D01*
X126944617Y-128045625D01*
X126995505Y-128047834D01*
X127021558Y-128050420D01*
X127021811Y-128050473D01*
X127124975Y-128084555D01*
X127213259Y-128139180D01*
X127286196Y-128213976D01*
X127341672Y-128305100D01*
X127381150Y-128387650D01*
X127381150Y-132692950D01*
X127350621Y-132768756D01*
X127309650Y-132842831D01*
X127250501Y-132913330D01*
X127180118Y-132972923D01*
X127127150Y-133004590D01*
X127063650Y-133035850D01*
X126004158Y-133039309D01*
X125810657Y-133039958D01*
X125640836Y-133040493D01*
X125492975Y-133040811D01*
X125365353Y-133040810D01*
X125256251Y-133040386D01*
X125163948Y-133039437D01*
X125086725Y-133037861D01*
X125022861Y-133035554D01*
X124970636Y-133032415D01*
X124928330Y-133028341D01*
X124894222Y-133023228D01*
X124866594Y-133016975D01*
X124843724Y-133009478D01*
X124823892Y-133000636D01*
X124805379Y-132990345D01*
X124786465Y-132978502D01*
X124766118Y-132965443D01*
X124706454Y-132927605D01*
X124653152Y-132964274D01*
X124633607Y-132977852D01*
X124615842Y-132989757D01*
X124598138Y-133000096D01*
X124578774Y-133008981D01*
X124556030Y-133016520D01*
X124528187Y-133022822D01*
X124493525Y-133027998D01*
X124450324Y-133032157D01*
X124396864Y-133035408D01*
X124331426Y-133037862D01*
X124252289Y-133039626D01*
X124157734Y-133040812D01*
X124046040Y-133041528D01*
X123915489Y-133041884D01*
X123764361Y-133041990D01*
X123590934Y-133041954D01*
X123434181Y-133041898D01*
X122390050Y-133041597D01*
X122316753Y-133011455D01*
X122223193Y-132961308D01*
X122148329Y-132894794D01*
X122090761Y-132811489D01*
X122047150Y-132731050D01*
X122043831Y-130563383D01*
X122040513Y-128395717D01*
X122066953Y-128325051D01*
X122109089Y-128244855D01*
X122170576Y-128171266D01*
X122245364Y-128110671D01*
X122297448Y-128081645D01*
X122377350Y-128044750D01*
X123431450Y-128044750D01*
X123620109Y-128044773D01*
X123785076Y-128044866D01*
X123928056Y-128045066D01*
X124050758Y-128045408D01*
X124154889Y-128045929D01*
X124242155Y-128046666D01*
X124314264Y-128047654D01*
X124372923Y-128048930D01*
X124419839Y-128050530D01*
X124456718Y-128052490D01*
X124485269Y-128054847D01*
X124507198Y-128057636D01*
X124524212Y-128060895D01*
X124538019Y-128064658D01*
X124549050Y-128068483D01*
X124597612Y-128090721D01*
X124645416Y-128118884D01*
X124661101Y-128130152D01*
X124709653Y-128168086D01*
X124737339Y-128142077D01*
X124763499Y-128122942D01*
X124803547Y-128099464D01*
X124841187Y-128080408D01*
X124917350Y-128044750D01*
X125939406Y-128041140D01*
X126148678Y-128040572D01*
X126336981Y-128040414D01*
X126503761Y-128040663D01*
G36*
X160524210Y-135664828D02*
G01*
X160653583Y-135665296D01*
X160764343Y-135666237D01*
X160858187Y-135667806D01*
X160936812Y-135670153D01*
X161001915Y-135673432D01*
X161055192Y-135677794D01*
X161098341Y-135683392D01*
X161133058Y-135690378D01*
X161161039Y-135698905D01*
X161183982Y-135709124D01*
X161203583Y-135721189D01*
X161221540Y-135735251D01*
X161239548Y-135751463D01*
X161259305Y-135769976D01*
X161267884Y-135777884D01*
X161335609Y-135852795D01*
X161381732Y-135936186D01*
X161409388Y-136033832D01*
X161410621Y-136040814D01*
X161412613Y-136062186D01*
X161414400Y-136102165D01*
X161415985Y-136161276D01*
X161417371Y-136240041D01*
X161418561Y-136338983D01*
X161419556Y-136458625D01*
X161420359Y-136599492D01*
X161420973Y-136762105D01*
X161421399Y-136946989D01*
X161421641Y-137154666D01*
X161421701Y-137385661D01*
X161421582Y-137640495D01*
X161421285Y-137919693D01*
X161420825Y-138217450D01*
X161417150Y-140312950D01*
X161386621Y-140388756D01*
X161345650Y-140462831D01*
X161286501Y-140533330D01*
X161216118Y-140592923D01*
X161163150Y-140624590D01*
X161099650Y-140655850D01*
X160032850Y-140658872D01*
X158966050Y-140661895D01*
X158892773Y-140631613D01*
X158807476Y-140588632D01*
X158741408Y-140536792D01*
X158694926Y-140480844D01*
X158685096Y-140467171D01*
X158676123Y-140455244D01*
X158667968Y-140443907D01*
X158660593Y-140432002D01*
X158653958Y-140418373D01*
X158648025Y-140401863D01*
X158642755Y-140381315D01*
X158638108Y-140355574D01*
X158634046Y-140323481D01*
X158630529Y-140283880D01*
X158627519Y-140235616D01*
X158624978Y-140177530D01*
X158622865Y-140108466D01*
X158621142Y-140027267D01*
X158619770Y-139932777D01*
X158618710Y-139823840D01*
X158617924Y-139699297D01*
X158617371Y-139557993D01*
X158617014Y-139398771D01*
X158616813Y-139220474D01*
X158616730Y-139021946D01*
X158616725Y-138802029D01*
X158616759Y-138559567D01*
X158616794Y-138293403D01*
X158616800Y-138160332D01*
X158616802Y-137886921D01*
X158616820Y-137637745D01*
X158616866Y-137411638D01*
X158616955Y-137207435D01*
X158617100Y-137023970D01*
X158617315Y-136860078D01*
X158617614Y-136714594D01*
X158618011Y-136586351D01*
X158618520Y-136474185D01*
X158619154Y-136376931D01*
X158619927Y-136293422D01*
X158620854Y-136222493D01*
X158621947Y-136162980D01*
X158623221Y-136113716D01*
X158624690Y-136073536D01*
X158626368Y-136041274D01*
X158628267Y-136015766D01*
X158630403Y-135995846D01*
X158632789Y-135980348D01*
X158635438Y-135968107D01*
X158638365Y-135957958D01*
X158641584Y-135948735D01*
X158643096Y-135944668D01*
X158685014Y-135864933D01*
X158746252Y-135791605D01*
X158820727Y-135731101D01*
X158873448Y-135701645D01*
X158953350Y-135664750D01*
X160007450Y-135664750D01*
X160202840Y-135664707D01*
X160374528Y-135664683D01*
X160524210Y-135664828D01*
X160524210Y-135664828D01*
G37*
X160524210Y-135664828D02*
X160653583Y-135665296D01*
X160764343Y-135666237D01*
X160858187Y-135667806D01*
X160936812Y-135670153D01*
X161001915Y-135673432D01*
X161055192Y-135677794D01*
X161098341Y-135683392D01*
X161133058Y-135690378D01*
X161161039Y-135698905D01*
X161183982Y-135709124D01*
X161203583Y-135721189D01*
X161221540Y-135735251D01*
X161239548Y-135751463D01*
X161259305Y-135769976D01*
X161267884Y-135777884D01*
X161335609Y-135852795D01*
X161381732Y-135936186D01*
X161409388Y-136033832D01*
X161410621Y-136040814D01*
X161412613Y-136062186D01*
X161414400Y-136102165D01*
X161415985Y-136161276D01*
X161417371Y-136240041D01*
X161418561Y-136338983D01*
X161419556Y-136458625D01*
X161420359Y-136599492D01*
X161420973Y-136762105D01*
X161421399Y-136946989D01*
X161421641Y-137154666D01*
X161421701Y-137385661D01*
X161421582Y-137640495D01*
X161421285Y-137919693D01*
X161420825Y-138217450D01*
X161417150Y-140312950D01*
X161386621Y-140388756D01*
X161345650Y-140462831D01*
X161286501Y-140533330D01*
X161216118Y-140592923D01*
X161163150Y-140624590D01*
X161099650Y-140655850D01*
X160032850Y-140658872D01*
X158966050Y-140661895D01*
X158892773Y-140631613D01*
X158807476Y-140588632D01*
X158741408Y-140536792D01*
X158694926Y-140480844D01*
X158685096Y-140467171D01*
X158676123Y-140455244D01*
X158667968Y-140443907D01*
X158660593Y-140432002D01*
X158653958Y-140418373D01*
X158648025Y-140401863D01*
X158642755Y-140381315D01*
X158638108Y-140355574D01*
X158634046Y-140323481D01*
X158630529Y-140283880D01*
X158627519Y-140235616D01*
X158624978Y-140177530D01*
X158622865Y-140108466D01*
X158621142Y-140027267D01*
X158619770Y-139932777D01*
X158618710Y-139823840D01*
X158617924Y-139699297D01*
X158617371Y-139557993D01*
X158617014Y-139398771D01*
X158616813Y-139220474D01*
X158616730Y-139021946D01*
X158616725Y-138802029D01*
X158616759Y-138559567D01*
X158616794Y-138293403D01*
X158616800Y-138160332D01*
X158616802Y-137886921D01*
X158616820Y-137637745D01*
X158616866Y-137411638D01*
X158616955Y-137207435D01*
X158617100Y-137023970D01*
X158617315Y-136860078D01*
X158617614Y-136714594D01*
X158618011Y-136586351D01*
X158618520Y-136474185D01*
X158619154Y-136376931D01*
X158619927Y-136293422D01*
X158620854Y-136222493D01*
X158621947Y-136162980D01*
X158623221Y-136113716D01*
X158624690Y-136073536D01*
X158626368Y-136041274D01*
X158628267Y-136015766D01*
X158630403Y-135995846D01*
X158632789Y-135980348D01*
X158635438Y-135968107D01*
X158638365Y-135957958D01*
X158641584Y-135948735D01*
X158643096Y-135944668D01*
X158685014Y-135864933D01*
X158746252Y-135791605D01*
X158820727Y-135731101D01*
X158873448Y-135701645D01*
X158953350Y-135664750D01*
X160007450Y-135664750D01*
X160202840Y-135664707D01*
X160374528Y-135664683D01*
X160524210Y-135664828D01*
G36*
X147839761Y-135660663D02*
G01*
X147984467Y-135661313D01*
X148106546Y-135662360D01*
X148205447Y-135663799D01*
X148280617Y-135665625D01*
X148331505Y-135667834D01*
X148357558Y-135670420D01*
X148357811Y-135670473D01*
X148461135Y-135704608D01*
X148549328Y-135758562D01*
X148620797Y-135830663D01*
X148673948Y-135919238D01*
X148707189Y-136022616D01*
X148710621Y-136040814D01*
X148712613Y-136062186D01*
X148714400Y-136102165D01*
X148715985Y-136161276D01*
X148717371Y-136240041D01*
X148718561Y-136338983D01*
X148719556Y-136458625D01*
X148720359Y-136599492D01*
X148720973Y-136762105D01*
X148721399Y-136946989D01*
X148721641Y-137154666D01*
X148721701Y-137385661D01*
X148721582Y-137640495D01*
X148721285Y-137919693D01*
X148720825Y-138217450D01*
X148717150Y-140312950D01*
X148686621Y-140388756D01*
X148645650Y-140462831D01*
X148586501Y-140533330D01*
X148516118Y-140592923D01*
X148463150Y-140624590D01*
X148399650Y-140655850D01*
X147332850Y-140658872D01*
X146266050Y-140661895D01*
X146192773Y-140631613D01*
X146107476Y-140588632D01*
X146041408Y-140536792D01*
X145994926Y-140480844D01*
X145985096Y-140467171D01*
X145976123Y-140455244D01*
X145967968Y-140443907D01*
X145960593Y-140432002D01*
X145953958Y-140418373D01*
X145948025Y-140401863D01*
X145942755Y-140381315D01*
X145938108Y-140355574D01*
X145934046Y-140323481D01*
X145930529Y-140283880D01*
X145927519Y-140235616D01*
X145924978Y-140177530D01*
X145922865Y-140108466D01*
X145921142Y-140027267D01*
X145919770Y-139932777D01*
X145918710Y-139823840D01*
X145917924Y-139699297D01*
X145917371Y-139557993D01*
X145917014Y-139398771D01*
X145916813Y-139220474D01*
X145916730Y-139021946D01*
X145916725Y-138802029D01*
X145916759Y-138559567D01*
X145916794Y-138293403D01*
X145916800Y-138160332D01*
X145916802Y-137886921D01*
X145916820Y-137637745D01*
X145916866Y-137411638D01*
X145916955Y-137207435D01*
X145917100Y-137023970D01*
X145917315Y-136860078D01*
X145917614Y-136714594D01*
X145918011Y-136586351D01*
X145918520Y-136474185D01*
X145919154Y-136376931D01*
X145919927Y-136293422D01*
X145920854Y-136222493D01*
X145921947Y-136162980D01*
X145923221Y-136113716D01*
X145924690Y-136073536D01*
X145926368Y-136041274D01*
X145928267Y-136015766D01*
X145930403Y-135995846D01*
X145932789Y-135980348D01*
X145935438Y-135968107D01*
X145938365Y-135957958D01*
X145941584Y-135948735D01*
X145943096Y-135944668D01*
X145985014Y-135864933D01*
X146046252Y-135791605D01*
X146120727Y-135731101D01*
X146173448Y-135701645D01*
X146253350Y-135664750D01*
X147275406Y-135661140D01*
X147484678Y-135660572D01*
X147672981Y-135660414D01*
X147839761Y-135660663D01*
X147839761Y-135660663D01*
G37*
X147839761Y-135660663D02*
X147984467Y-135661313D01*
X148106546Y-135662360D01*
X148205447Y-135663799D01*
X148280617Y-135665625D01*
X148331505Y-135667834D01*
X148357558Y-135670420D01*
X148357811Y-135670473D01*
X148461135Y-135704608D01*
X148549328Y-135758562D01*
X148620797Y-135830663D01*
X148673948Y-135919238D01*
X148707189Y-136022616D01*
X148710621Y-136040814D01*
X148712613Y-136062186D01*
X148714400Y-136102165D01*
X148715985Y-136161276D01*
X148717371Y-136240041D01*
X148718561Y-136338983D01*
X148719556Y-136458625D01*
X148720359Y-136599492D01*
X148720973Y-136762105D01*
X148721399Y-136946989D01*
X148721641Y-137154666D01*
X148721701Y-137385661D01*
X148721582Y-137640495D01*
X148721285Y-137919693D01*
X148720825Y-138217450D01*
X148717150Y-140312950D01*
X148686621Y-140388756D01*
X148645650Y-140462831D01*
X148586501Y-140533330D01*
X148516118Y-140592923D01*
X148463150Y-140624590D01*
X148399650Y-140655850D01*
X147332850Y-140658872D01*
X146266050Y-140661895D01*
X146192773Y-140631613D01*
X146107476Y-140588632D01*
X146041408Y-140536792D01*
X145994926Y-140480844D01*
X145985096Y-140467171D01*
X145976123Y-140455244D01*
X145967968Y-140443907D01*
X145960593Y-140432002D01*
X145953958Y-140418373D01*
X145948025Y-140401863D01*
X145942755Y-140381315D01*
X145938108Y-140355574D01*
X145934046Y-140323481D01*
X145930529Y-140283880D01*
X145927519Y-140235616D01*
X145924978Y-140177530D01*
X145922865Y-140108466D01*
X145921142Y-140027267D01*
X145919770Y-139932777D01*
X145918710Y-139823840D01*
X145917924Y-139699297D01*
X145917371Y-139557993D01*
X145917014Y-139398771D01*
X145916813Y-139220474D01*
X145916730Y-139021946D01*
X145916725Y-138802029D01*
X145916759Y-138559567D01*
X145916794Y-138293403D01*
X145916800Y-138160332D01*
X145916802Y-137886921D01*
X145916820Y-137637745D01*
X145916866Y-137411638D01*
X145916955Y-137207435D01*
X145917100Y-137023970D01*
X145917315Y-136860078D01*
X145917614Y-136714594D01*
X145918011Y-136586351D01*
X145918520Y-136474185D01*
X145919154Y-136376931D01*
X145919927Y-136293422D01*
X145920854Y-136222493D01*
X145921947Y-136162980D01*
X145923221Y-136113716D01*
X145924690Y-136073536D01*
X145926368Y-136041274D01*
X145928267Y-136015766D01*
X145930403Y-135995846D01*
X145932789Y-135980348D01*
X145935438Y-135968107D01*
X145938365Y-135957958D01*
X145941584Y-135948735D01*
X145943096Y-135944668D01*
X145985014Y-135864933D01*
X146046252Y-135791605D01*
X146120727Y-135731101D01*
X146173448Y-135701645D01*
X146253350Y-135664750D01*
X147275406Y-135661140D01*
X147484678Y-135660572D01*
X147672981Y-135660414D01*
X147839761Y-135660663D01*
G36*
X143267761Y-135660663D02*
G01*
X143412467Y-135661313D01*
X143534546Y-135662360D01*
X143633447Y-135663799D01*
X143708617Y-135665625D01*
X143759505Y-135667834D01*
X143785558Y-135670420D01*
X143785811Y-135670473D01*
X143889135Y-135704608D01*
X143977328Y-135758562D01*
X144048797Y-135830663D01*
X144101948Y-135919238D01*
X144135189Y-136022616D01*
X144138621Y-136040814D01*
X144140613Y-136062186D01*
X144142400Y-136102165D01*
X144143985Y-136161276D01*
X144145371Y-136240041D01*
X144146561Y-136338983D01*
X144147556Y-136458625D01*
X144148359Y-136599492D01*
X144148973Y-136762105D01*
X144149399Y-136946989D01*
X144149641Y-137154666D01*
X144149701Y-137385661D01*
X144149582Y-137640495D01*
X144149285Y-137919693D01*
X144148825Y-138217450D01*
X144145150Y-140312950D01*
X144114621Y-140388756D01*
X144073650Y-140462831D01*
X144014501Y-140533330D01*
X143944118Y-140592923D01*
X143891150Y-140624590D01*
X143827650Y-140655850D01*
X142760850Y-140658872D01*
X141694050Y-140661895D01*
X141620773Y-140631613D01*
X141535476Y-140588632D01*
X141469408Y-140536792D01*
X141422926Y-140480844D01*
X141413096Y-140467171D01*
X141404123Y-140455244D01*
X141395968Y-140443907D01*
X141388593Y-140432002D01*
X141381958Y-140418373D01*
X141376025Y-140401863D01*
X141370755Y-140381315D01*
X141366108Y-140355574D01*
X141362046Y-140323481D01*
X141358529Y-140283880D01*
X141355519Y-140235616D01*
X141352978Y-140177530D01*
X141350865Y-140108466D01*
X141349142Y-140027267D01*
X141347770Y-139932777D01*
X141346710Y-139823840D01*
X141345924Y-139699297D01*
X141345371Y-139557993D01*
X141345014Y-139398771D01*
X141344813Y-139220474D01*
X141344730Y-139021946D01*
X141344725Y-138802029D01*
X141344759Y-138559567D01*
X141344794Y-138293403D01*
X141344800Y-138160332D01*
X141344802Y-137886921D01*
X141344820Y-137637745D01*
X141344866Y-137411638D01*
X141344955Y-137207435D01*
X141345100Y-137023970D01*
X141345315Y-136860078D01*
X141345614Y-136714594D01*
X141346011Y-136586351D01*
X141346520Y-136474185D01*
X141347154Y-136376931D01*
X141347927Y-136293422D01*
X141348854Y-136222493D01*
X141349947Y-136162980D01*
X141351221Y-136113716D01*
X141352690Y-136073536D01*
X141354368Y-136041274D01*
X141356267Y-136015766D01*
X141358403Y-135995846D01*
X141360789Y-135980348D01*
X141363438Y-135968107D01*
X141366365Y-135957958D01*
X141369584Y-135948735D01*
X141371096Y-135944668D01*
X141413014Y-135864933D01*
X141474252Y-135791605D01*
X141548727Y-135731101D01*
X141601448Y-135701645D01*
X141681350Y-135664750D01*
X142703406Y-135661140D01*
X142912678Y-135660572D01*
X143100981Y-135660414D01*
X143267761Y-135660663D01*
X143267761Y-135660663D01*
G37*
X143267761Y-135660663D02*
X143412467Y-135661313D01*
X143534546Y-135662360D01*
X143633447Y-135663799D01*
X143708617Y-135665625D01*
X143759505Y-135667834D01*
X143785558Y-135670420D01*
X143785811Y-135670473D01*
X143889135Y-135704608D01*
X143977328Y-135758562D01*
X144048797Y-135830663D01*
X144101948Y-135919238D01*
X144135189Y-136022616D01*
X144138621Y-136040814D01*
X144140613Y-136062186D01*
X144142400Y-136102165D01*
X144143985Y-136161276D01*
X144145371Y-136240041D01*
X144146561Y-136338983D01*
X144147556Y-136458625D01*
X144148359Y-136599492D01*
X144148973Y-136762105D01*
X144149399Y-136946989D01*
X144149641Y-137154666D01*
X144149701Y-137385661D01*
X144149582Y-137640495D01*
X144149285Y-137919693D01*
X144148825Y-138217450D01*
X144145150Y-140312950D01*
X144114621Y-140388756D01*
X144073650Y-140462831D01*
X144014501Y-140533330D01*
X143944118Y-140592923D01*
X143891150Y-140624590D01*
X143827650Y-140655850D01*
X142760850Y-140658872D01*
X141694050Y-140661895D01*
X141620773Y-140631613D01*
X141535476Y-140588632D01*
X141469408Y-140536792D01*
X141422926Y-140480844D01*
X141413096Y-140467171D01*
X141404123Y-140455244D01*
X141395968Y-140443907D01*
X141388593Y-140432002D01*
X141381958Y-140418373D01*
X141376025Y-140401863D01*
X141370755Y-140381315D01*
X141366108Y-140355574D01*
X141362046Y-140323481D01*
X141358529Y-140283880D01*
X141355519Y-140235616D01*
X141352978Y-140177530D01*
X141350865Y-140108466D01*
X141349142Y-140027267D01*
X141347770Y-139932777D01*
X141346710Y-139823840D01*
X141345924Y-139699297D01*
X141345371Y-139557993D01*
X141345014Y-139398771D01*
X141344813Y-139220474D01*
X141344730Y-139021946D01*
X141344725Y-138802029D01*
X141344759Y-138559567D01*
X141344794Y-138293403D01*
X141344800Y-138160332D01*
X141344802Y-137886921D01*
X141344820Y-137637745D01*
X141344866Y-137411638D01*
X141344955Y-137207435D01*
X141345100Y-137023970D01*
X141345315Y-136860078D01*
X141345614Y-136714594D01*
X141346011Y-136586351D01*
X141346520Y-136474185D01*
X141347154Y-136376931D01*
X141347927Y-136293422D01*
X141348854Y-136222493D01*
X141349947Y-136162980D01*
X141351221Y-136113716D01*
X141352690Y-136073536D01*
X141354368Y-136041274D01*
X141356267Y-136015766D01*
X141358403Y-135995846D01*
X141360789Y-135980348D01*
X141363438Y-135968107D01*
X141366365Y-135957958D01*
X141369584Y-135948735D01*
X141371096Y-135944668D01*
X141413014Y-135864933D01*
X141474252Y-135791605D01*
X141548727Y-135731101D01*
X141601448Y-135701645D01*
X141681350Y-135664750D01*
X142703406Y-135661140D01*
X142912678Y-135660572D01*
X143100981Y-135660414D01*
X143267761Y-135660663D01*
G36*
X135647761Y-135660663D02*
G01*
X135792467Y-135661313D01*
X135914546Y-135662360D01*
X136013447Y-135663799D01*
X136088617Y-135665625D01*
X136139505Y-135667834D01*
X136165558Y-135670420D01*
X136165811Y-135670473D01*
X136268975Y-135704555D01*
X136357259Y-135759180D01*
X136430196Y-135833976D01*
X136485672Y-135925100D01*
X136525150Y-136007650D01*
X136525150Y-140312950D01*
X136494621Y-140388756D01*
X136453650Y-140462831D01*
X136394501Y-140533330D01*
X136324118Y-140592923D01*
X136271150Y-140624590D01*
X136207650Y-140655850D01*
X135140850Y-140658872D01*
X134074050Y-140661895D01*
X134000753Y-140631605D01*
X133907139Y-140581291D01*
X133832301Y-140514760D01*
X133774761Y-140431489D01*
X133731150Y-140351050D01*
X133727831Y-138183383D01*
X133724513Y-136015717D01*
X133750953Y-135945051D01*
X133793089Y-135864855D01*
X133854576Y-135791266D01*
X133929364Y-135730671D01*
X133981448Y-135701645D01*
X134061350Y-135664750D01*
X135083406Y-135661140D01*
X135292678Y-135660572D01*
X135480981Y-135660414D01*
X135647761Y-135660663D01*
X135647761Y-135660663D01*
G37*
X135647761Y-135660663D02*
X135792467Y-135661313D01*
X135914546Y-135662360D01*
X136013447Y-135663799D01*
X136088617Y-135665625D01*
X136139505Y-135667834D01*
X136165558Y-135670420D01*
X136165811Y-135670473D01*
X136268975Y-135704555D01*
X136357259Y-135759180D01*
X136430196Y-135833976D01*
X136485672Y-135925100D01*
X136525150Y-136007650D01*
X136525150Y-140312950D01*
X136494621Y-140388756D01*
X136453650Y-140462831D01*
X136394501Y-140533330D01*
X136324118Y-140592923D01*
X136271150Y-140624590D01*
X136207650Y-140655850D01*
X135140850Y-140658872D01*
X134074050Y-140661895D01*
X134000753Y-140631605D01*
X133907139Y-140581291D01*
X133832301Y-140514760D01*
X133774761Y-140431489D01*
X133731150Y-140351050D01*
X133727831Y-138183383D01*
X133724513Y-136015717D01*
X133750953Y-135945051D01*
X133793089Y-135864855D01*
X133854576Y-135791266D01*
X133929364Y-135730671D01*
X133981448Y-135701645D01*
X134061350Y-135664750D01*
X135083406Y-135661140D01*
X135292678Y-135660572D01*
X135480981Y-135660414D01*
X135647761Y-135660663D01*
G36*
X131583761Y-135660663D02*
G01*
X131728467Y-135661313D01*
X131850546Y-135662360D01*
X131949447Y-135663799D01*
X132024617Y-135665625D01*
X132075505Y-135667834D01*
X132101558Y-135670420D01*
X132101811Y-135670473D01*
X132204975Y-135704555D01*
X132293259Y-135759180D01*
X132366196Y-135833976D01*
X132421672Y-135925100D01*
X132461150Y-136007650D01*
X132461150Y-140312950D01*
X132430621Y-140388756D01*
X132389650Y-140462831D01*
X132330501Y-140533330D01*
X132260118Y-140592923D01*
X132207150Y-140624590D01*
X132143650Y-140655850D01*
X131076850Y-140658872D01*
X130010050Y-140661895D01*
X129936753Y-140631605D01*
X129843139Y-140581291D01*
X129768301Y-140514760D01*
X129710761Y-140431489D01*
X129667150Y-140351050D01*
X129663831Y-138183383D01*
X129660513Y-136015717D01*
X129686953Y-135945051D01*
X129729089Y-135864855D01*
X129790576Y-135791266D01*
X129865364Y-135730671D01*
X129917448Y-135701645D01*
X129997350Y-135664750D01*
X131019406Y-135661140D01*
X131228678Y-135660572D01*
X131416981Y-135660414D01*
X131583761Y-135660663D01*
X131583761Y-135660663D01*
G37*
X131583761Y-135660663D02*
X131728467Y-135661313D01*
X131850546Y-135662360D01*
X131949447Y-135663799D01*
X132024617Y-135665625D01*
X132075505Y-135667834D01*
X132101558Y-135670420D01*
X132101811Y-135670473D01*
X132204975Y-135704555D01*
X132293259Y-135759180D01*
X132366196Y-135833976D01*
X132421672Y-135925100D01*
X132461150Y-136007650D01*
X132461150Y-140312950D01*
X132430621Y-140388756D01*
X132389650Y-140462831D01*
X132330501Y-140533330D01*
X132260118Y-140592923D01*
X132207150Y-140624590D01*
X132143650Y-140655850D01*
X131076850Y-140658872D01*
X130010050Y-140661895D01*
X129936753Y-140631605D01*
X129843139Y-140581291D01*
X129768301Y-140514760D01*
X129710761Y-140431489D01*
X129667150Y-140351050D01*
X129663831Y-138183383D01*
X129660513Y-136015717D01*
X129686953Y-135945051D01*
X129729089Y-135864855D01*
X129790576Y-135791266D01*
X129865364Y-135730671D01*
X129917448Y-135701645D01*
X129997350Y-135664750D01*
X131019406Y-135661140D01*
X131228678Y-135660572D01*
X131416981Y-135660414D01*
X131583761Y-135660663D01*
G36*
X124523650Y-135700319D02*
G01*
X124617327Y-135756868D01*
X124691590Y-135829514D01*
X124745605Y-135917138D01*
X124778536Y-136018622D01*
X124783737Y-136048480D01*
X124785277Y-136071894D01*
X124786717Y-136119031D01*
X124788058Y-136188217D01*
X124789298Y-136277779D01*
X124790437Y-136386041D01*
X124791476Y-136511329D01*
X124792413Y-136651970D01*
X124793249Y-136806289D01*
X124793982Y-136972612D01*
X124794613Y-137149265D01*
X124795142Y-137334573D01*
X124795567Y-137526863D01*
X124795888Y-137724460D01*
X124796106Y-137925690D01*
X124796220Y-138128879D01*
X124796229Y-138332352D01*
X124796133Y-138534436D01*
X124795931Y-138733455D01*
X124795624Y-138927737D01*
X124795212Y-139115607D01*
X124794692Y-139295390D01*
X124794066Y-139465413D01*
X124793333Y-139624000D01*
X124792493Y-139769479D01*
X124791544Y-139900174D01*
X124790488Y-140014413D01*
X124789323Y-140110519D01*
X124788049Y-140186820D01*
X124786666Y-140241641D01*
X124785174Y-140273307D01*
X124784639Y-140278516D01*
X124757909Y-140383939D01*
X124710374Y-140474807D01*
X124642155Y-140550949D01*
X124553369Y-140612193D01*
X124553190Y-140612291D01*
X124472850Y-140655850D01*
X123406050Y-140658022D01*
X123240271Y-140658226D01*
X123081895Y-140658162D01*
X122932810Y-140657844D01*
X122794904Y-140657289D01*
X122670064Y-140656511D01*
X122560178Y-140655527D01*
X122467135Y-140654352D01*
X122392820Y-140653002D01*
X122339123Y-140651492D01*
X122307932Y-140649838D01*
X122301150Y-140648902D01*
X122238461Y-140622092D01*
X122172326Y-140580446D01*
X122112500Y-140530829D01*
X122076299Y-140490750D01*
X122065448Y-140477057D01*
X122055541Y-140465250D01*
X122046537Y-140454175D01*
X122038392Y-140442677D01*
X122031064Y-140429603D01*
X122024509Y-140413800D01*
X122018684Y-140394111D01*
X122013548Y-140369385D01*
X122009057Y-140338467D01*
X122005168Y-140300202D01*
X122001839Y-140253437D01*
X121999026Y-140197018D01*
X121996687Y-140129791D01*
X121994779Y-140050602D01*
X121993259Y-139958296D01*
X121992085Y-139851721D01*
X121991214Y-139729721D01*
X121990602Y-139591143D01*
X121990207Y-139434833D01*
X121989986Y-139259637D01*
X121989896Y-139064401D01*
X121989895Y-138847970D01*
X121989940Y-138609191D01*
X121989987Y-138346911D01*
X121990000Y-138164864D01*
X121990000Y-136014952D01*
X122017380Y-135941772D01*
X122059941Y-135861160D01*
X122122304Y-135787885D01*
X122198918Y-135727747D01*
X122247525Y-135701251D01*
X122326550Y-135664750D01*
X124447450Y-135664750D01*
X124523650Y-135700319D01*
X124523650Y-135700319D01*
G37*
X124523650Y-135700319D02*
X124617327Y-135756868D01*
X124691590Y-135829514D01*
X124745605Y-135917138D01*
X124778536Y-136018622D01*
X124783737Y-136048480D01*
X124785277Y-136071894D01*
X124786717Y-136119031D01*
X124788058Y-136188217D01*
X124789298Y-136277779D01*
X124790437Y-136386041D01*
X124791476Y-136511329D01*
X124792413Y-136651970D01*
X124793249Y-136806289D01*
X124793982Y-136972612D01*
X124794613Y-137149265D01*
X124795142Y-137334573D01*
X124795567Y-137526863D01*
X124795888Y-137724460D01*
X124796106Y-137925690D01*
X124796220Y-138128879D01*
X124796229Y-138332352D01*
X124796133Y-138534436D01*
X124795931Y-138733455D01*
X124795624Y-138927737D01*
X124795212Y-139115607D01*
X124794692Y-139295390D01*
X124794066Y-139465413D01*
X124793333Y-139624000D01*
X124792493Y-139769479D01*
X124791544Y-139900174D01*
X124790488Y-140014413D01*
X124789323Y-140110519D01*
X124788049Y-140186820D01*
X124786666Y-140241641D01*
X124785174Y-140273307D01*
X124784639Y-140278516D01*
X124757909Y-140383939D01*
X124710374Y-140474807D01*
X124642155Y-140550949D01*
X124553369Y-140612193D01*
X124553190Y-140612291D01*
X124472850Y-140655850D01*
X123406050Y-140658022D01*
X123240271Y-140658226D01*
X123081895Y-140658162D01*
X122932810Y-140657844D01*
X122794904Y-140657289D01*
X122670064Y-140656511D01*
X122560178Y-140655527D01*
X122467135Y-140654352D01*
X122392820Y-140653002D01*
X122339123Y-140651492D01*
X122307932Y-140649838D01*
X122301150Y-140648902D01*
X122238461Y-140622092D01*
X122172326Y-140580446D01*
X122112500Y-140530829D01*
X122076299Y-140490750D01*
X122065448Y-140477057D01*
X122055541Y-140465250D01*
X122046537Y-140454175D01*
X122038392Y-140442677D01*
X122031064Y-140429603D01*
X122024509Y-140413800D01*
X122018684Y-140394111D01*
X122013548Y-140369385D01*
X122009057Y-140338467D01*
X122005168Y-140300202D01*
X122001839Y-140253437D01*
X121999026Y-140197018D01*
X121996687Y-140129791D01*
X121994779Y-140050602D01*
X121993259Y-139958296D01*
X121992085Y-139851721D01*
X121991214Y-139729721D01*
X121990602Y-139591143D01*
X121990207Y-139434833D01*
X121989986Y-139259637D01*
X121989896Y-139064401D01*
X121989895Y-138847970D01*
X121989940Y-138609191D01*
X121989987Y-138346911D01*
X121990000Y-138164864D01*
X121990000Y-136014952D01*
X122017380Y-135941772D01*
X122059941Y-135861160D01*
X122122304Y-135787885D01*
X122198918Y-135727747D01*
X122247525Y-135701251D01*
X122326550Y-135664750D01*
X124447450Y-135664750D01*
X124523650Y-135700319D01*
D12*
X164281000Y-121405500D02*
X164581000Y-121705500D01*
X163981000Y-121705500D02*
X164581000Y-121705500D01*
X164281000Y-121405500D02*
X163981000Y-121705500D01*
X163431000Y-120505500D02*
X163431000Y-119905500D01*
X166881000Y-121205500D02*
X164081000Y-121205500D01*
X167531000Y-119905500D02*
X167531000Y-120505500D01*
X164081000Y-119205500D02*
X166881000Y-119205500D01*
X166831000Y-119205500D02*
G75*
G02X167531000Y-119905500I0J-700000D01*
G01*
X167531000Y-120505500D02*
G75*
G02X166831000Y-121205500I-700000J0D01*
G01*
X164131000Y-121205500D02*
G75*
G02X163431000Y-120505500I0J700000D01*
G01*
X163431000Y-119905500D02*
G75*
G02X164131000Y-119205500I700000J0D01*
G01*
M02*
