G04 #@! TF.GenerationSoftware,KiCad,Pcbnew,(5.1.2)-2*
G04 #@! TF.CreationDate,2020-07-24T13:05:48-04:00*
G04 #@! TF.ProjectId,shim-PCB,7368696d-2d50-4434-922e-6b696361645f,rev?*
G04 #@! TF.SameCoordinates,Original*
G04 #@! TF.FileFunction,Soldermask,Bot*
G04 #@! TF.FilePolarity,Negative*
%FSLAX46Y46*%
G04 Gerber Fmt 4.6, Leading zero omitted, Abs format (unit mm)*
G04 Created by KiCad (PCBNEW (5.1.2)-2) date 2020-07-24 13:05:48*
%MOMM*%
%LPD*%
G04 APERTURE LIST*
%ADD10C,0.050000*%
%ADD11C,0.100000*%
G04 APERTURE END LIST*
D10*
X107878075Y-48006000D02*
X175425701Y-48006000D01*
X107878075Y-135724057D02*
X107878075Y-139534057D01*
X171682092Y-54560466D02*
X171682092Y-58605279D01*
X107878075Y-47997753D02*
X175425701Y-47997753D01*
X171682092Y-68852374D02*
X171682092Y-72897189D01*
X171682092Y-58605279D02*
G75*
G02X167872092Y-58605279I-1905000J0D01*
G01*
X167872092Y-68852374D02*
G75*
G02X171682092Y-68852374I1905000J0D01*
G01*
X175425701Y-47997753D02*
X175425701Y-139534057D01*
X167872092Y-58605279D02*
X167872092Y-54560466D01*
X167872092Y-54560466D02*
G75*
G02X171682092Y-54560466I1905000J0D01*
G01*
X171682092Y-72897189D02*
G75*
G02X167872092Y-72897189I-1905000J0D01*
G01*
X107878075Y-135724057D02*
X107878075Y-47997753D01*
X167872092Y-72897189D02*
X167872092Y-68852374D01*
X175371400Y-139560075D02*
G75*
G02X107878075Y-139534057I-33719511J70447727D01*
G01*
D11*
G36*
X131965000Y-138061000D02*
G01*
X130163000Y-138061000D01*
X130163000Y-136259000D01*
X131965000Y-136259000D01*
X131965000Y-138061000D01*
X131965000Y-138061000D01*
G37*
G36*
X157590443Y-136265519D02*
G01*
X157656627Y-136272037D01*
X157826466Y-136323557D01*
X157982991Y-136407222D01*
X158018729Y-136436552D01*
X158120186Y-136519814D01*
X158203448Y-136621271D01*
X158232778Y-136657009D01*
X158316443Y-136813534D01*
X158367963Y-136983373D01*
X158385359Y-137160000D01*
X158367963Y-137336627D01*
X158316443Y-137506466D01*
X158232778Y-137662991D01*
X158203448Y-137698729D01*
X158120186Y-137800186D01*
X158018729Y-137883448D01*
X157982991Y-137912778D01*
X157826466Y-137996443D01*
X157656627Y-138047963D01*
X157590442Y-138054482D01*
X157524260Y-138061000D01*
X157435740Y-138061000D01*
X157369558Y-138054482D01*
X157303373Y-138047963D01*
X157133534Y-137996443D01*
X156977009Y-137912778D01*
X156941271Y-137883448D01*
X156839814Y-137800186D01*
X156756552Y-137698729D01*
X156727222Y-137662991D01*
X156643557Y-137506466D01*
X156592037Y-137336627D01*
X156574641Y-137160000D01*
X156592037Y-136983373D01*
X156643557Y-136813534D01*
X156727222Y-136657009D01*
X156756552Y-136621271D01*
X156839814Y-136519814D01*
X156941271Y-136436552D01*
X156977009Y-136407222D01*
X157133534Y-136323557D01*
X157303373Y-136272037D01*
X157369557Y-136265519D01*
X157435740Y-136259000D01*
X157524260Y-136259000D01*
X157590443Y-136265519D01*
X157590443Y-136265519D01*
G37*
G36*
X160130443Y-136265519D02*
G01*
X160196627Y-136272037D01*
X160366466Y-136323557D01*
X160522991Y-136407222D01*
X160558729Y-136436552D01*
X160660186Y-136519814D01*
X160743448Y-136621271D01*
X160772778Y-136657009D01*
X160856443Y-136813534D01*
X160907963Y-136983373D01*
X160925359Y-137160000D01*
X160907963Y-137336627D01*
X160856443Y-137506466D01*
X160772778Y-137662991D01*
X160743448Y-137698729D01*
X160660186Y-137800186D01*
X160558729Y-137883448D01*
X160522991Y-137912778D01*
X160366466Y-137996443D01*
X160196627Y-138047963D01*
X160130442Y-138054482D01*
X160064260Y-138061000D01*
X159975740Y-138061000D01*
X159909558Y-138054482D01*
X159843373Y-138047963D01*
X159673534Y-137996443D01*
X159517009Y-137912778D01*
X159481271Y-137883448D01*
X159379814Y-137800186D01*
X159296552Y-137698729D01*
X159267222Y-137662991D01*
X159183557Y-137506466D01*
X159132037Y-137336627D01*
X159114641Y-137160000D01*
X159132037Y-136983373D01*
X159183557Y-136813534D01*
X159267222Y-136657009D01*
X159296552Y-136621271D01*
X159379814Y-136519814D01*
X159481271Y-136436552D01*
X159517009Y-136407222D01*
X159673534Y-136323557D01*
X159843373Y-136272037D01*
X159909557Y-136265519D01*
X159975740Y-136259000D01*
X160064260Y-136259000D01*
X160130443Y-136265519D01*
X160130443Y-136265519D01*
G37*
G36*
X155050443Y-136265519D02*
G01*
X155116627Y-136272037D01*
X155286466Y-136323557D01*
X155442991Y-136407222D01*
X155478729Y-136436552D01*
X155580186Y-136519814D01*
X155663448Y-136621271D01*
X155692778Y-136657009D01*
X155776443Y-136813534D01*
X155827963Y-136983373D01*
X155845359Y-137160000D01*
X155827963Y-137336627D01*
X155776443Y-137506466D01*
X155692778Y-137662991D01*
X155663448Y-137698729D01*
X155580186Y-137800186D01*
X155478729Y-137883448D01*
X155442991Y-137912778D01*
X155286466Y-137996443D01*
X155116627Y-138047963D01*
X155050442Y-138054482D01*
X154984260Y-138061000D01*
X154895740Y-138061000D01*
X154829558Y-138054482D01*
X154763373Y-138047963D01*
X154593534Y-137996443D01*
X154437009Y-137912778D01*
X154401271Y-137883448D01*
X154299814Y-137800186D01*
X154216552Y-137698729D01*
X154187222Y-137662991D01*
X154103557Y-137506466D01*
X154052037Y-137336627D01*
X154034641Y-137160000D01*
X154052037Y-136983373D01*
X154103557Y-136813534D01*
X154187222Y-136657009D01*
X154216552Y-136621271D01*
X154299814Y-136519814D01*
X154401271Y-136436552D01*
X154437009Y-136407222D01*
X154593534Y-136323557D01*
X154763373Y-136272037D01*
X154829557Y-136265519D01*
X154895740Y-136259000D01*
X154984260Y-136259000D01*
X155050443Y-136265519D01*
X155050443Y-136265519D01*
G37*
G36*
X152510443Y-136265519D02*
G01*
X152576627Y-136272037D01*
X152746466Y-136323557D01*
X152902991Y-136407222D01*
X152938729Y-136436552D01*
X153040186Y-136519814D01*
X153123448Y-136621271D01*
X153152778Y-136657009D01*
X153236443Y-136813534D01*
X153287963Y-136983373D01*
X153305359Y-137160000D01*
X153287963Y-137336627D01*
X153236443Y-137506466D01*
X153152778Y-137662991D01*
X153123448Y-137698729D01*
X153040186Y-137800186D01*
X152938729Y-137883448D01*
X152902991Y-137912778D01*
X152746466Y-137996443D01*
X152576627Y-138047963D01*
X152510442Y-138054482D01*
X152444260Y-138061000D01*
X152355740Y-138061000D01*
X152289558Y-138054482D01*
X152223373Y-138047963D01*
X152053534Y-137996443D01*
X151897009Y-137912778D01*
X151861271Y-137883448D01*
X151759814Y-137800186D01*
X151676552Y-137698729D01*
X151647222Y-137662991D01*
X151563557Y-137506466D01*
X151512037Y-137336627D01*
X151494641Y-137160000D01*
X151512037Y-136983373D01*
X151563557Y-136813534D01*
X151647222Y-136657009D01*
X151676552Y-136621271D01*
X151759814Y-136519814D01*
X151861271Y-136436552D01*
X151897009Y-136407222D01*
X152053534Y-136323557D01*
X152223373Y-136272037D01*
X152289557Y-136265519D01*
X152355740Y-136259000D01*
X152444260Y-136259000D01*
X152510443Y-136265519D01*
X152510443Y-136265519D01*
G37*
G36*
X149970443Y-136265519D02*
G01*
X150036627Y-136272037D01*
X150206466Y-136323557D01*
X150362991Y-136407222D01*
X150398729Y-136436552D01*
X150500186Y-136519814D01*
X150583448Y-136621271D01*
X150612778Y-136657009D01*
X150696443Y-136813534D01*
X150747963Y-136983373D01*
X150765359Y-137160000D01*
X150747963Y-137336627D01*
X150696443Y-137506466D01*
X150612778Y-137662991D01*
X150583448Y-137698729D01*
X150500186Y-137800186D01*
X150398729Y-137883448D01*
X150362991Y-137912778D01*
X150206466Y-137996443D01*
X150036627Y-138047963D01*
X149970442Y-138054482D01*
X149904260Y-138061000D01*
X149815740Y-138061000D01*
X149749558Y-138054482D01*
X149683373Y-138047963D01*
X149513534Y-137996443D01*
X149357009Y-137912778D01*
X149321271Y-137883448D01*
X149219814Y-137800186D01*
X149136552Y-137698729D01*
X149107222Y-137662991D01*
X149023557Y-137506466D01*
X148972037Y-137336627D01*
X148954641Y-137160000D01*
X148972037Y-136983373D01*
X149023557Y-136813534D01*
X149107222Y-136657009D01*
X149136552Y-136621271D01*
X149219814Y-136519814D01*
X149321271Y-136436552D01*
X149357009Y-136407222D01*
X149513534Y-136323557D01*
X149683373Y-136272037D01*
X149749557Y-136265519D01*
X149815740Y-136259000D01*
X149904260Y-136259000D01*
X149970443Y-136265519D01*
X149970443Y-136265519D01*
G37*
G36*
X148221000Y-138061000D02*
G01*
X146419000Y-138061000D01*
X146419000Y-136259000D01*
X148221000Y-136259000D01*
X148221000Y-138061000D01*
X148221000Y-138061000D01*
G37*
G36*
X142858443Y-136265519D02*
G01*
X142924627Y-136272037D01*
X143094466Y-136323557D01*
X143250991Y-136407222D01*
X143286729Y-136436552D01*
X143388186Y-136519814D01*
X143471448Y-136621271D01*
X143500778Y-136657009D01*
X143584443Y-136813534D01*
X143635963Y-136983373D01*
X143653359Y-137160000D01*
X143635963Y-137336627D01*
X143584443Y-137506466D01*
X143500778Y-137662991D01*
X143471448Y-137698729D01*
X143388186Y-137800186D01*
X143286729Y-137883448D01*
X143250991Y-137912778D01*
X143094466Y-137996443D01*
X142924627Y-138047963D01*
X142858442Y-138054482D01*
X142792260Y-138061000D01*
X142703740Y-138061000D01*
X142637558Y-138054482D01*
X142571373Y-138047963D01*
X142401534Y-137996443D01*
X142245009Y-137912778D01*
X142209271Y-137883448D01*
X142107814Y-137800186D01*
X142024552Y-137698729D01*
X141995222Y-137662991D01*
X141911557Y-137506466D01*
X141860037Y-137336627D01*
X141842641Y-137160000D01*
X141860037Y-136983373D01*
X141911557Y-136813534D01*
X141995222Y-136657009D01*
X142024552Y-136621271D01*
X142107814Y-136519814D01*
X142209271Y-136436552D01*
X142245009Y-136407222D01*
X142401534Y-136323557D01*
X142571373Y-136272037D01*
X142637557Y-136265519D01*
X142703740Y-136259000D01*
X142792260Y-136259000D01*
X142858443Y-136265519D01*
X142858443Y-136265519D01*
G37*
G36*
X140318443Y-136265519D02*
G01*
X140384627Y-136272037D01*
X140554466Y-136323557D01*
X140710991Y-136407222D01*
X140746729Y-136436552D01*
X140848186Y-136519814D01*
X140931448Y-136621271D01*
X140960778Y-136657009D01*
X141044443Y-136813534D01*
X141095963Y-136983373D01*
X141113359Y-137160000D01*
X141095963Y-137336627D01*
X141044443Y-137506466D01*
X140960778Y-137662991D01*
X140931448Y-137698729D01*
X140848186Y-137800186D01*
X140746729Y-137883448D01*
X140710991Y-137912778D01*
X140554466Y-137996443D01*
X140384627Y-138047963D01*
X140318442Y-138054482D01*
X140252260Y-138061000D01*
X140163740Y-138061000D01*
X140097558Y-138054482D01*
X140031373Y-138047963D01*
X139861534Y-137996443D01*
X139705009Y-137912778D01*
X139669271Y-137883448D01*
X139567814Y-137800186D01*
X139484552Y-137698729D01*
X139455222Y-137662991D01*
X139371557Y-137506466D01*
X139320037Y-137336627D01*
X139302641Y-137160000D01*
X139320037Y-136983373D01*
X139371557Y-136813534D01*
X139455222Y-136657009D01*
X139484552Y-136621271D01*
X139567814Y-136519814D01*
X139669271Y-136436552D01*
X139705009Y-136407222D01*
X139861534Y-136323557D01*
X140031373Y-136272037D01*
X140097557Y-136265519D01*
X140163740Y-136259000D01*
X140252260Y-136259000D01*
X140318443Y-136265519D01*
X140318443Y-136265519D01*
G37*
G36*
X137778443Y-136265519D02*
G01*
X137844627Y-136272037D01*
X138014466Y-136323557D01*
X138170991Y-136407222D01*
X138206729Y-136436552D01*
X138308186Y-136519814D01*
X138391448Y-136621271D01*
X138420778Y-136657009D01*
X138504443Y-136813534D01*
X138555963Y-136983373D01*
X138573359Y-137160000D01*
X138555963Y-137336627D01*
X138504443Y-137506466D01*
X138420778Y-137662991D01*
X138391448Y-137698729D01*
X138308186Y-137800186D01*
X138206729Y-137883448D01*
X138170991Y-137912778D01*
X138014466Y-137996443D01*
X137844627Y-138047963D01*
X137778442Y-138054482D01*
X137712260Y-138061000D01*
X137623740Y-138061000D01*
X137557558Y-138054482D01*
X137491373Y-138047963D01*
X137321534Y-137996443D01*
X137165009Y-137912778D01*
X137129271Y-137883448D01*
X137027814Y-137800186D01*
X136944552Y-137698729D01*
X136915222Y-137662991D01*
X136831557Y-137506466D01*
X136780037Y-137336627D01*
X136762641Y-137160000D01*
X136780037Y-136983373D01*
X136831557Y-136813534D01*
X136915222Y-136657009D01*
X136944552Y-136621271D01*
X137027814Y-136519814D01*
X137129271Y-136436552D01*
X137165009Y-136407222D01*
X137321534Y-136323557D01*
X137491373Y-136272037D01*
X137557557Y-136265519D01*
X137623740Y-136259000D01*
X137712260Y-136259000D01*
X137778443Y-136265519D01*
X137778443Y-136265519D01*
G37*
G36*
X136029000Y-138061000D02*
G01*
X134227000Y-138061000D01*
X134227000Y-136259000D01*
X136029000Y-136259000D01*
X136029000Y-138061000D01*
X136029000Y-138061000D01*
G37*
G36*
X123554443Y-136265519D02*
G01*
X123620627Y-136272037D01*
X123790466Y-136323557D01*
X123946991Y-136407222D01*
X123982729Y-136436552D01*
X124084186Y-136519814D01*
X124167448Y-136621271D01*
X124196778Y-136657009D01*
X124280443Y-136813534D01*
X124331963Y-136983373D01*
X124349359Y-137160000D01*
X124331963Y-137336627D01*
X124280443Y-137506466D01*
X124196778Y-137662991D01*
X124167448Y-137698729D01*
X124084186Y-137800186D01*
X123982729Y-137883448D01*
X123946991Y-137912778D01*
X123790466Y-137996443D01*
X123620627Y-138047963D01*
X123554442Y-138054482D01*
X123488260Y-138061000D01*
X123399740Y-138061000D01*
X123333558Y-138054482D01*
X123267373Y-138047963D01*
X123097534Y-137996443D01*
X122941009Y-137912778D01*
X122905271Y-137883448D01*
X122803814Y-137800186D01*
X122720552Y-137698729D01*
X122691222Y-137662991D01*
X122607557Y-137506466D01*
X122556037Y-137336627D01*
X122538641Y-137160000D01*
X122556037Y-136983373D01*
X122607557Y-136813534D01*
X122691222Y-136657009D01*
X122720552Y-136621271D01*
X122803814Y-136519814D01*
X122905271Y-136436552D01*
X122941009Y-136407222D01*
X123097534Y-136323557D01*
X123267373Y-136272037D01*
X123333557Y-136265519D01*
X123399740Y-136259000D01*
X123488260Y-136259000D01*
X123554443Y-136265519D01*
X123554443Y-136265519D01*
G37*
G36*
X126094443Y-136265519D02*
G01*
X126160627Y-136272037D01*
X126330466Y-136323557D01*
X126486991Y-136407222D01*
X126522729Y-136436552D01*
X126624186Y-136519814D01*
X126707448Y-136621271D01*
X126736778Y-136657009D01*
X126820443Y-136813534D01*
X126871963Y-136983373D01*
X126889359Y-137160000D01*
X126871963Y-137336627D01*
X126820443Y-137506466D01*
X126736778Y-137662991D01*
X126707448Y-137698729D01*
X126624186Y-137800186D01*
X126522729Y-137883448D01*
X126486991Y-137912778D01*
X126330466Y-137996443D01*
X126160627Y-138047963D01*
X126094442Y-138054482D01*
X126028260Y-138061000D01*
X125939740Y-138061000D01*
X125873558Y-138054482D01*
X125807373Y-138047963D01*
X125637534Y-137996443D01*
X125481009Y-137912778D01*
X125445271Y-137883448D01*
X125343814Y-137800186D01*
X125260552Y-137698729D01*
X125231222Y-137662991D01*
X125147557Y-137506466D01*
X125096037Y-137336627D01*
X125078641Y-137160000D01*
X125096037Y-136983373D01*
X125147557Y-136813534D01*
X125231222Y-136657009D01*
X125260552Y-136621271D01*
X125343814Y-136519814D01*
X125445271Y-136436552D01*
X125481009Y-136407222D01*
X125637534Y-136323557D01*
X125807373Y-136272037D01*
X125873557Y-136265519D01*
X125939740Y-136259000D01*
X126028260Y-136259000D01*
X126094443Y-136265519D01*
X126094443Y-136265519D01*
G37*
G36*
X128634443Y-136265519D02*
G01*
X128700627Y-136272037D01*
X128870466Y-136323557D01*
X129026991Y-136407222D01*
X129062729Y-136436552D01*
X129164186Y-136519814D01*
X129247448Y-136621271D01*
X129276778Y-136657009D01*
X129360443Y-136813534D01*
X129411963Y-136983373D01*
X129429359Y-137160000D01*
X129411963Y-137336627D01*
X129360443Y-137506466D01*
X129276778Y-137662991D01*
X129247448Y-137698729D01*
X129164186Y-137800186D01*
X129062729Y-137883448D01*
X129026991Y-137912778D01*
X128870466Y-137996443D01*
X128700627Y-138047963D01*
X128634442Y-138054482D01*
X128568260Y-138061000D01*
X128479740Y-138061000D01*
X128413558Y-138054482D01*
X128347373Y-138047963D01*
X128177534Y-137996443D01*
X128021009Y-137912778D01*
X127985271Y-137883448D01*
X127883814Y-137800186D01*
X127800552Y-137698729D01*
X127771222Y-137662991D01*
X127687557Y-137506466D01*
X127636037Y-137336627D01*
X127618641Y-137160000D01*
X127636037Y-136983373D01*
X127687557Y-136813534D01*
X127771222Y-136657009D01*
X127800552Y-136621271D01*
X127883814Y-136519814D01*
X127985271Y-136436552D01*
X128021009Y-136407222D01*
X128177534Y-136323557D01*
X128347373Y-136272037D01*
X128413557Y-136265519D01*
X128479740Y-136259000D01*
X128568260Y-136259000D01*
X128634443Y-136265519D01*
X128634443Y-136265519D01*
G37*
G36*
X166079549Y-131444116D02*
G01*
X166190734Y-131466232D01*
X166400203Y-131552997D01*
X166588720Y-131678960D01*
X166749040Y-131839280D01*
X166875003Y-132027797D01*
X166961768Y-132237266D01*
X167006000Y-132459636D01*
X167006000Y-132686364D01*
X166961768Y-132908734D01*
X166875003Y-133118203D01*
X166749040Y-133306720D01*
X166588720Y-133467040D01*
X166400203Y-133593003D01*
X166190734Y-133679768D01*
X166079549Y-133701884D01*
X165968365Y-133724000D01*
X165741635Y-133724000D01*
X165630451Y-133701884D01*
X165519266Y-133679768D01*
X165309797Y-133593003D01*
X165121280Y-133467040D01*
X164960960Y-133306720D01*
X164834997Y-133118203D01*
X164748232Y-132908734D01*
X164704000Y-132686364D01*
X164704000Y-132459636D01*
X164748232Y-132237266D01*
X164834997Y-132027797D01*
X164960960Y-131839280D01*
X165121280Y-131678960D01*
X165309797Y-131552997D01*
X165519266Y-131466232D01*
X165630451Y-131444116D01*
X165741635Y-131422000D01*
X165968365Y-131422000D01*
X166079549Y-131444116D01*
X166079549Y-131444116D01*
G37*
G36*
X117916549Y-131444116D02*
G01*
X118027734Y-131466232D01*
X118237203Y-131552997D01*
X118425720Y-131678960D01*
X118586040Y-131839280D01*
X118712003Y-132027797D01*
X118798768Y-132237266D01*
X118843000Y-132459636D01*
X118843000Y-132686364D01*
X118798768Y-132908734D01*
X118712003Y-133118203D01*
X118586040Y-133306720D01*
X118425720Y-133467040D01*
X118237203Y-133593003D01*
X118027734Y-133679768D01*
X117916549Y-133701884D01*
X117805365Y-133724000D01*
X117578635Y-133724000D01*
X117467451Y-133701884D01*
X117356266Y-133679768D01*
X117146797Y-133593003D01*
X116958280Y-133467040D01*
X116797960Y-133306720D01*
X116671997Y-133118203D01*
X116585232Y-132908734D01*
X116541000Y-132686364D01*
X116541000Y-132459636D01*
X116585232Y-132237266D01*
X116671997Y-132027797D01*
X116797960Y-131839280D01*
X116958280Y-131678960D01*
X117146797Y-131552997D01*
X117356266Y-131466232D01*
X117467451Y-131444116D01*
X117578635Y-131422000D01*
X117805365Y-131422000D01*
X117916549Y-131444116D01*
X117916549Y-131444116D01*
G37*
G36*
X147430443Y-128645519D02*
G01*
X147496627Y-128652037D01*
X147666466Y-128703557D01*
X147822991Y-128787222D01*
X147842956Y-128803607D01*
X147960186Y-128899814D01*
X148015478Y-128967189D01*
X148072778Y-129037009D01*
X148156443Y-129193534D01*
X148207963Y-129363373D01*
X148225359Y-129540000D01*
X148207963Y-129716627D01*
X148156443Y-129886466D01*
X148072778Y-130042991D01*
X148043448Y-130078729D01*
X147960186Y-130180186D01*
X147858729Y-130263448D01*
X147822991Y-130292778D01*
X147666466Y-130376443D01*
X147496627Y-130427963D01*
X147430443Y-130434481D01*
X147364260Y-130441000D01*
X147275740Y-130441000D01*
X147209557Y-130434481D01*
X147143373Y-130427963D01*
X146973534Y-130376443D01*
X146817009Y-130292778D01*
X146781271Y-130263448D01*
X146679814Y-130180186D01*
X146596552Y-130078729D01*
X146567222Y-130042991D01*
X146483557Y-129886466D01*
X146432037Y-129716627D01*
X146414641Y-129540000D01*
X146432037Y-129363373D01*
X146483557Y-129193534D01*
X146567222Y-129037009D01*
X146624522Y-128967189D01*
X146679814Y-128899814D01*
X146797044Y-128803607D01*
X146817009Y-128787222D01*
X146973534Y-128703557D01*
X147143373Y-128652037D01*
X147209557Y-128645519D01*
X147275740Y-128639000D01*
X147364260Y-128639000D01*
X147430443Y-128645519D01*
X147430443Y-128645519D01*
G37*
G36*
X126094443Y-128645519D02*
G01*
X126160627Y-128652037D01*
X126330466Y-128703557D01*
X126486991Y-128787222D01*
X126506956Y-128803607D01*
X126624186Y-128899814D01*
X126679478Y-128967189D01*
X126736778Y-129037009D01*
X126820443Y-129193534D01*
X126871963Y-129363373D01*
X126889359Y-129540000D01*
X126871963Y-129716627D01*
X126820443Y-129886466D01*
X126736778Y-130042991D01*
X126707448Y-130078729D01*
X126624186Y-130180186D01*
X126522729Y-130263448D01*
X126486991Y-130292778D01*
X126330466Y-130376443D01*
X126160627Y-130427963D01*
X126094443Y-130434481D01*
X126028260Y-130441000D01*
X125939740Y-130441000D01*
X125873557Y-130434481D01*
X125807373Y-130427963D01*
X125637534Y-130376443D01*
X125481009Y-130292778D01*
X125445271Y-130263448D01*
X125343814Y-130180186D01*
X125260552Y-130078729D01*
X125231222Y-130042991D01*
X125147557Y-129886466D01*
X125096037Y-129716627D01*
X125078641Y-129540000D01*
X125096037Y-129363373D01*
X125147557Y-129193534D01*
X125231222Y-129037009D01*
X125288522Y-128967189D01*
X125343814Y-128899814D01*
X125461044Y-128803607D01*
X125481009Y-128787222D01*
X125637534Y-128703557D01*
X125807373Y-128652037D01*
X125873557Y-128645519D01*
X125939740Y-128639000D01*
X126028260Y-128639000D01*
X126094443Y-128645519D01*
X126094443Y-128645519D01*
G37*
G36*
X128634443Y-128645519D02*
G01*
X128700627Y-128652037D01*
X128870466Y-128703557D01*
X129026991Y-128787222D01*
X129046956Y-128803607D01*
X129164186Y-128899814D01*
X129219478Y-128967189D01*
X129276778Y-129037009D01*
X129360443Y-129193534D01*
X129411963Y-129363373D01*
X129429359Y-129540000D01*
X129411963Y-129716627D01*
X129360443Y-129886466D01*
X129276778Y-130042991D01*
X129247448Y-130078729D01*
X129164186Y-130180186D01*
X129062729Y-130263448D01*
X129026991Y-130292778D01*
X128870466Y-130376443D01*
X128700627Y-130427963D01*
X128634443Y-130434481D01*
X128568260Y-130441000D01*
X128479740Y-130441000D01*
X128413557Y-130434481D01*
X128347373Y-130427963D01*
X128177534Y-130376443D01*
X128021009Y-130292778D01*
X127985271Y-130263448D01*
X127883814Y-130180186D01*
X127800552Y-130078729D01*
X127771222Y-130042991D01*
X127687557Y-129886466D01*
X127636037Y-129716627D01*
X127618641Y-129540000D01*
X127636037Y-129363373D01*
X127687557Y-129193534D01*
X127771222Y-129037009D01*
X127828522Y-128967189D01*
X127883814Y-128899814D01*
X128001044Y-128803607D01*
X128021009Y-128787222D01*
X128177534Y-128703557D01*
X128347373Y-128652037D01*
X128413557Y-128645519D01*
X128479740Y-128639000D01*
X128568260Y-128639000D01*
X128634443Y-128645519D01*
X128634443Y-128645519D01*
G37*
G36*
X131174443Y-128645519D02*
G01*
X131240627Y-128652037D01*
X131410466Y-128703557D01*
X131566991Y-128787222D01*
X131586956Y-128803607D01*
X131704186Y-128899814D01*
X131759478Y-128967189D01*
X131816778Y-129037009D01*
X131900443Y-129193534D01*
X131951963Y-129363373D01*
X131969359Y-129540000D01*
X131951963Y-129716627D01*
X131900443Y-129886466D01*
X131816778Y-130042991D01*
X131787448Y-130078729D01*
X131704186Y-130180186D01*
X131602729Y-130263448D01*
X131566991Y-130292778D01*
X131410466Y-130376443D01*
X131240627Y-130427963D01*
X131174443Y-130434481D01*
X131108260Y-130441000D01*
X131019740Y-130441000D01*
X130953557Y-130434481D01*
X130887373Y-130427963D01*
X130717534Y-130376443D01*
X130561009Y-130292778D01*
X130525271Y-130263448D01*
X130423814Y-130180186D01*
X130340552Y-130078729D01*
X130311222Y-130042991D01*
X130227557Y-129886466D01*
X130176037Y-129716627D01*
X130158641Y-129540000D01*
X130176037Y-129363373D01*
X130227557Y-129193534D01*
X130311222Y-129037009D01*
X130368522Y-128967189D01*
X130423814Y-128899814D01*
X130541044Y-128803607D01*
X130561009Y-128787222D01*
X130717534Y-128703557D01*
X130887373Y-128652037D01*
X130953557Y-128645519D01*
X131019740Y-128639000D01*
X131108260Y-128639000D01*
X131174443Y-128645519D01*
X131174443Y-128645519D01*
G37*
G36*
X124345000Y-130441000D02*
G01*
X122543000Y-130441000D01*
X122543000Y-128639000D01*
X124345000Y-128639000D01*
X124345000Y-130441000D01*
X124345000Y-130441000D01*
G37*
G36*
X155841000Y-130441000D02*
G01*
X154039000Y-130441000D01*
X154039000Y-128639000D01*
X155841000Y-128639000D01*
X155841000Y-130441000D01*
X155841000Y-130441000D01*
G37*
G36*
X157590443Y-128645519D02*
G01*
X157656627Y-128652037D01*
X157826466Y-128703557D01*
X157982991Y-128787222D01*
X158002956Y-128803607D01*
X158120186Y-128899814D01*
X158175478Y-128967189D01*
X158232778Y-129037009D01*
X158316443Y-129193534D01*
X158367963Y-129363373D01*
X158385359Y-129540000D01*
X158367963Y-129716627D01*
X158316443Y-129886466D01*
X158232778Y-130042991D01*
X158203448Y-130078729D01*
X158120186Y-130180186D01*
X158018729Y-130263448D01*
X157982991Y-130292778D01*
X157826466Y-130376443D01*
X157656627Y-130427963D01*
X157590443Y-130434481D01*
X157524260Y-130441000D01*
X157435740Y-130441000D01*
X157369557Y-130434481D01*
X157303373Y-130427963D01*
X157133534Y-130376443D01*
X156977009Y-130292778D01*
X156941271Y-130263448D01*
X156839814Y-130180186D01*
X156756552Y-130078729D01*
X156727222Y-130042991D01*
X156643557Y-129886466D01*
X156592037Y-129716627D01*
X156574641Y-129540000D01*
X156592037Y-129363373D01*
X156643557Y-129193534D01*
X156727222Y-129037009D01*
X156784522Y-128967189D01*
X156839814Y-128899814D01*
X156957044Y-128803607D01*
X156977009Y-128787222D01*
X157133534Y-128703557D01*
X157303373Y-128652037D01*
X157369557Y-128645519D01*
X157435740Y-128639000D01*
X157524260Y-128639000D01*
X157590443Y-128645519D01*
X157590443Y-128645519D01*
G37*
G36*
X150761000Y-130441000D02*
G01*
X148959000Y-130441000D01*
X148959000Y-128639000D01*
X150761000Y-128639000D01*
X150761000Y-130441000D01*
X150761000Y-130441000D01*
G37*
G36*
X141109000Y-130441000D02*
G01*
X139307000Y-130441000D01*
X139307000Y-128639000D01*
X141109000Y-128639000D01*
X141109000Y-130441000D01*
X141109000Y-130441000D01*
G37*
G36*
X137778443Y-128645519D02*
G01*
X137844627Y-128652037D01*
X138014466Y-128703557D01*
X138170991Y-128787222D01*
X138190956Y-128803607D01*
X138308186Y-128899814D01*
X138363478Y-128967189D01*
X138420778Y-129037009D01*
X138504443Y-129193534D01*
X138555963Y-129363373D01*
X138573359Y-129540000D01*
X138555963Y-129716627D01*
X138504443Y-129886466D01*
X138420778Y-130042991D01*
X138391448Y-130078729D01*
X138308186Y-130180186D01*
X138206729Y-130263448D01*
X138170991Y-130292778D01*
X138014466Y-130376443D01*
X137844627Y-130427963D01*
X137778443Y-130434481D01*
X137712260Y-130441000D01*
X137623740Y-130441000D01*
X137557557Y-130434481D01*
X137491373Y-130427963D01*
X137321534Y-130376443D01*
X137165009Y-130292778D01*
X137129271Y-130263448D01*
X137027814Y-130180186D01*
X136944552Y-130078729D01*
X136915222Y-130042991D01*
X136831557Y-129886466D01*
X136780037Y-129716627D01*
X136762641Y-129540000D01*
X136780037Y-129363373D01*
X136831557Y-129193534D01*
X136915222Y-129037009D01*
X136972522Y-128967189D01*
X137027814Y-128899814D01*
X137145044Y-128803607D01*
X137165009Y-128787222D01*
X137321534Y-128703557D01*
X137491373Y-128652037D01*
X137557557Y-128645519D01*
X137623740Y-128639000D01*
X137712260Y-128639000D01*
X137778443Y-128645519D01*
X137778443Y-128645519D01*
G37*
G36*
X135238443Y-128645519D02*
G01*
X135304627Y-128652037D01*
X135474466Y-128703557D01*
X135630991Y-128787222D01*
X135650956Y-128803607D01*
X135768186Y-128899814D01*
X135823478Y-128967189D01*
X135880778Y-129037009D01*
X135964443Y-129193534D01*
X136015963Y-129363373D01*
X136033359Y-129540000D01*
X136015963Y-129716627D01*
X135964443Y-129886466D01*
X135880778Y-130042991D01*
X135851448Y-130078729D01*
X135768186Y-130180186D01*
X135666729Y-130263448D01*
X135630991Y-130292778D01*
X135474466Y-130376443D01*
X135304627Y-130427963D01*
X135238443Y-130434481D01*
X135172260Y-130441000D01*
X135083740Y-130441000D01*
X135017557Y-130434481D01*
X134951373Y-130427963D01*
X134781534Y-130376443D01*
X134625009Y-130292778D01*
X134589271Y-130263448D01*
X134487814Y-130180186D01*
X134404552Y-130078729D01*
X134375222Y-130042991D01*
X134291557Y-129886466D01*
X134240037Y-129716627D01*
X134222641Y-129540000D01*
X134240037Y-129363373D01*
X134291557Y-129193534D01*
X134375222Y-129037009D01*
X134432522Y-128967189D01*
X134487814Y-128899814D01*
X134605044Y-128803607D01*
X134625009Y-128787222D01*
X134781534Y-128703557D01*
X134951373Y-128652037D01*
X135017557Y-128645519D01*
X135083740Y-128639000D01*
X135172260Y-128639000D01*
X135238443Y-128645519D01*
X135238443Y-128645519D01*
G37*
G36*
X144890443Y-128645519D02*
G01*
X144956627Y-128652037D01*
X145126466Y-128703557D01*
X145282991Y-128787222D01*
X145302956Y-128803607D01*
X145420186Y-128899814D01*
X145475478Y-128967189D01*
X145532778Y-129037009D01*
X145616443Y-129193534D01*
X145667963Y-129363373D01*
X145685359Y-129540000D01*
X145667963Y-129716627D01*
X145616443Y-129886466D01*
X145532778Y-130042991D01*
X145503448Y-130078729D01*
X145420186Y-130180186D01*
X145318729Y-130263448D01*
X145282991Y-130292778D01*
X145126466Y-130376443D01*
X144956627Y-130427963D01*
X144890443Y-130434481D01*
X144824260Y-130441000D01*
X144735740Y-130441000D01*
X144669557Y-130434481D01*
X144603373Y-130427963D01*
X144433534Y-130376443D01*
X144277009Y-130292778D01*
X144241271Y-130263448D01*
X144139814Y-130180186D01*
X144056552Y-130078729D01*
X144027222Y-130042991D01*
X143943557Y-129886466D01*
X143892037Y-129716627D01*
X143874641Y-129540000D01*
X143892037Y-129363373D01*
X143943557Y-129193534D01*
X144027222Y-129037009D01*
X144084522Y-128967189D01*
X144139814Y-128899814D01*
X144257044Y-128803607D01*
X144277009Y-128787222D01*
X144433534Y-128703557D01*
X144603373Y-128652037D01*
X144669557Y-128645519D01*
X144735740Y-128639000D01*
X144824260Y-128639000D01*
X144890443Y-128645519D01*
X144890443Y-128645519D01*
G37*
G36*
X160130443Y-128645519D02*
G01*
X160196627Y-128652037D01*
X160366466Y-128703557D01*
X160522991Y-128787222D01*
X160542956Y-128803607D01*
X160660186Y-128899814D01*
X160715478Y-128967189D01*
X160772778Y-129037009D01*
X160856443Y-129193534D01*
X160907963Y-129363373D01*
X160925359Y-129540000D01*
X160907963Y-129716627D01*
X160856443Y-129886466D01*
X160772778Y-130042991D01*
X160743448Y-130078729D01*
X160660186Y-130180186D01*
X160558729Y-130263448D01*
X160522991Y-130292778D01*
X160366466Y-130376443D01*
X160196627Y-130427963D01*
X160130443Y-130434481D01*
X160064260Y-130441000D01*
X159975740Y-130441000D01*
X159909557Y-130434481D01*
X159843373Y-130427963D01*
X159673534Y-130376443D01*
X159517009Y-130292778D01*
X159481271Y-130263448D01*
X159379814Y-130180186D01*
X159296552Y-130078729D01*
X159267222Y-130042991D01*
X159183557Y-129886466D01*
X159132037Y-129716627D01*
X159114641Y-129540000D01*
X159132037Y-129363373D01*
X159183557Y-129193534D01*
X159267222Y-129037009D01*
X159324522Y-128967189D01*
X159379814Y-128899814D01*
X159497044Y-128803607D01*
X159517009Y-128787222D01*
X159673534Y-128703557D01*
X159843373Y-128652037D01*
X159909557Y-128645519D01*
X159975740Y-128639000D01*
X160064260Y-128639000D01*
X160130443Y-128645519D01*
X160130443Y-128645519D01*
G37*
G36*
X111725059Y-127547860D02*
G01*
X111785294Y-127572810D01*
X111861732Y-127604472D01*
X111984735Y-127686660D01*
X112089340Y-127791265D01*
X112171528Y-127914268D01*
X112228140Y-128050941D01*
X112257000Y-128196033D01*
X112257000Y-128343967D01*
X112228140Y-128489059D01*
X112171528Y-128625732D01*
X112089340Y-128748735D01*
X111984735Y-128853340D01*
X111861732Y-128935528D01*
X111861731Y-128935529D01*
X111861730Y-128935529D01*
X111725059Y-128992140D01*
X111579968Y-129021000D01*
X111432032Y-129021000D01*
X111286941Y-128992140D01*
X111150270Y-128935529D01*
X111150269Y-128935529D01*
X111150268Y-128935528D01*
X111027265Y-128853340D01*
X110922660Y-128748735D01*
X110840472Y-128625732D01*
X110783860Y-128489059D01*
X110755000Y-128343967D01*
X110755000Y-128196033D01*
X110783860Y-128050941D01*
X110840472Y-127914268D01*
X110922660Y-127791265D01*
X111027265Y-127686660D01*
X111150268Y-127604472D01*
X111226707Y-127572810D01*
X111286941Y-127547860D01*
X111432032Y-127519000D01*
X111579968Y-127519000D01*
X111725059Y-127547860D01*
X111725059Y-127547860D01*
G37*
G36*
X119199665Y-127522622D02*
G01*
X119273222Y-127529867D01*
X119414786Y-127572810D01*
X119545252Y-127642546D01*
X119575040Y-127666992D01*
X119659607Y-127736393D01*
X119729008Y-127820960D01*
X119753454Y-127850748D01*
X119823190Y-127981214D01*
X119866133Y-128122778D01*
X119880633Y-128270000D01*
X119866133Y-128417222D01*
X119823190Y-128558786D01*
X119753454Y-128689252D01*
X119741714Y-128703557D01*
X119659607Y-128803607D01*
X119599004Y-128853341D01*
X119545252Y-128897454D01*
X119414786Y-128967190D01*
X119273222Y-129010133D01*
X119199665Y-129017378D01*
X119162888Y-129021000D01*
X119089112Y-129021000D01*
X119052335Y-129017378D01*
X118978778Y-129010133D01*
X118837214Y-128967190D01*
X118706748Y-128897454D01*
X118652996Y-128853341D01*
X118592393Y-128803607D01*
X118510286Y-128703557D01*
X118498546Y-128689252D01*
X118428810Y-128558786D01*
X118385867Y-128417222D01*
X118371367Y-128270000D01*
X118385867Y-128122778D01*
X118428810Y-127981214D01*
X118498546Y-127850748D01*
X118522992Y-127820960D01*
X118592393Y-127736393D01*
X118676960Y-127666992D01*
X118706748Y-127642546D01*
X118837214Y-127572810D01*
X118978778Y-127529867D01*
X119052335Y-127522622D01*
X119089112Y-127519000D01*
X119162888Y-127519000D01*
X119199665Y-127522622D01*
X119199665Y-127522622D01*
G37*
G36*
X146414442Y-121279518D02*
G01*
X146480627Y-121286037D01*
X146650466Y-121337557D01*
X146806991Y-121421222D01*
X146842729Y-121450552D01*
X146944186Y-121533814D01*
X147027448Y-121635271D01*
X147056778Y-121671009D01*
X147140443Y-121827534D01*
X147191963Y-121997373D01*
X147209359Y-122174000D01*
X147191963Y-122350627D01*
X147140443Y-122520466D01*
X147056778Y-122676991D01*
X147027448Y-122712729D01*
X146944186Y-122814186D01*
X146842729Y-122897448D01*
X146806991Y-122926778D01*
X146650466Y-123010443D01*
X146480627Y-123061963D01*
X146414442Y-123068482D01*
X146348260Y-123075000D01*
X146259740Y-123075000D01*
X146193558Y-123068482D01*
X146127373Y-123061963D01*
X145957534Y-123010443D01*
X145801009Y-122926778D01*
X145765271Y-122897448D01*
X145663814Y-122814186D01*
X145580552Y-122712729D01*
X145551222Y-122676991D01*
X145467557Y-122520466D01*
X145416037Y-122350627D01*
X145398641Y-122174000D01*
X145416037Y-121997373D01*
X145467557Y-121827534D01*
X145551222Y-121671009D01*
X145580552Y-121635271D01*
X145663814Y-121533814D01*
X145765271Y-121450552D01*
X145801009Y-121421222D01*
X145957534Y-121337557D01*
X146127373Y-121286037D01*
X146193558Y-121279518D01*
X146259740Y-121273000D01*
X146348260Y-121273000D01*
X146414442Y-121279518D01*
X146414442Y-121279518D01*
G37*
G36*
X156574442Y-121279518D02*
G01*
X156640627Y-121286037D01*
X156810466Y-121337557D01*
X156966991Y-121421222D01*
X157002729Y-121450552D01*
X157104186Y-121533814D01*
X157187448Y-121635271D01*
X157216778Y-121671009D01*
X157300443Y-121827534D01*
X157351963Y-121997373D01*
X157369359Y-122174000D01*
X157351963Y-122350627D01*
X157300443Y-122520466D01*
X157216778Y-122676991D01*
X157187448Y-122712729D01*
X157104186Y-122814186D01*
X157002729Y-122897448D01*
X156966991Y-122926778D01*
X156810466Y-123010443D01*
X156640627Y-123061963D01*
X156574442Y-123068482D01*
X156508260Y-123075000D01*
X156419740Y-123075000D01*
X156353558Y-123068482D01*
X156287373Y-123061963D01*
X156117534Y-123010443D01*
X155961009Y-122926778D01*
X155925271Y-122897448D01*
X155823814Y-122814186D01*
X155740552Y-122712729D01*
X155711222Y-122676991D01*
X155627557Y-122520466D01*
X155576037Y-122350627D01*
X155558641Y-122174000D01*
X155576037Y-121997373D01*
X155627557Y-121827534D01*
X155711222Y-121671009D01*
X155740552Y-121635271D01*
X155823814Y-121533814D01*
X155925271Y-121450552D01*
X155961009Y-121421222D01*
X156117534Y-121337557D01*
X156287373Y-121286037D01*
X156353558Y-121279518D01*
X156419740Y-121273000D01*
X156508260Y-121273000D01*
X156574442Y-121279518D01*
X156574442Y-121279518D01*
G37*
G36*
X154034442Y-121279518D02*
G01*
X154100627Y-121286037D01*
X154270466Y-121337557D01*
X154426991Y-121421222D01*
X154462729Y-121450552D01*
X154564186Y-121533814D01*
X154647448Y-121635271D01*
X154676778Y-121671009D01*
X154760443Y-121827534D01*
X154811963Y-121997373D01*
X154829359Y-122174000D01*
X154811963Y-122350627D01*
X154760443Y-122520466D01*
X154676778Y-122676991D01*
X154647448Y-122712729D01*
X154564186Y-122814186D01*
X154462729Y-122897448D01*
X154426991Y-122926778D01*
X154270466Y-123010443D01*
X154100627Y-123061963D01*
X154034442Y-123068482D01*
X153968260Y-123075000D01*
X153879740Y-123075000D01*
X153813558Y-123068482D01*
X153747373Y-123061963D01*
X153577534Y-123010443D01*
X153421009Y-122926778D01*
X153385271Y-122897448D01*
X153283814Y-122814186D01*
X153200552Y-122712729D01*
X153171222Y-122676991D01*
X153087557Y-122520466D01*
X153036037Y-122350627D01*
X153018641Y-122174000D01*
X153036037Y-121997373D01*
X153087557Y-121827534D01*
X153171222Y-121671009D01*
X153200552Y-121635271D01*
X153283814Y-121533814D01*
X153385271Y-121450552D01*
X153421009Y-121421222D01*
X153577534Y-121337557D01*
X153747373Y-121286037D01*
X153813558Y-121279518D01*
X153879740Y-121273000D01*
X153968260Y-121273000D01*
X154034442Y-121279518D01*
X154034442Y-121279518D01*
G37*
G36*
X151494442Y-121279518D02*
G01*
X151560627Y-121286037D01*
X151730466Y-121337557D01*
X151886991Y-121421222D01*
X151922729Y-121450552D01*
X152024186Y-121533814D01*
X152107448Y-121635271D01*
X152136778Y-121671009D01*
X152220443Y-121827534D01*
X152271963Y-121997373D01*
X152289359Y-122174000D01*
X152271963Y-122350627D01*
X152220443Y-122520466D01*
X152136778Y-122676991D01*
X152107448Y-122712729D01*
X152024186Y-122814186D01*
X151922729Y-122897448D01*
X151886991Y-122926778D01*
X151730466Y-123010443D01*
X151560627Y-123061963D01*
X151494442Y-123068482D01*
X151428260Y-123075000D01*
X151339740Y-123075000D01*
X151273558Y-123068482D01*
X151207373Y-123061963D01*
X151037534Y-123010443D01*
X150881009Y-122926778D01*
X150845271Y-122897448D01*
X150743814Y-122814186D01*
X150660552Y-122712729D01*
X150631222Y-122676991D01*
X150547557Y-122520466D01*
X150496037Y-122350627D01*
X150478641Y-122174000D01*
X150496037Y-121997373D01*
X150547557Y-121827534D01*
X150631222Y-121671009D01*
X150660552Y-121635271D01*
X150743814Y-121533814D01*
X150845271Y-121450552D01*
X150881009Y-121421222D01*
X151037534Y-121337557D01*
X151207373Y-121286037D01*
X151273558Y-121279518D01*
X151339740Y-121273000D01*
X151428260Y-121273000D01*
X151494442Y-121279518D01*
X151494442Y-121279518D01*
G37*
G36*
X148954442Y-121279518D02*
G01*
X149020627Y-121286037D01*
X149190466Y-121337557D01*
X149346991Y-121421222D01*
X149382729Y-121450552D01*
X149484186Y-121533814D01*
X149567448Y-121635271D01*
X149596778Y-121671009D01*
X149680443Y-121827534D01*
X149731963Y-121997373D01*
X149749359Y-122174000D01*
X149731963Y-122350627D01*
X149680443Y-122520466D01*
X149596778Y-122676991D01*
X149567448Y-122712729D01*
X149484186Y-122814186D01*
X149382729Y-122897448D01*
X149346991Y-122926778D01*
X149190466Y-123010443D01*
X149020627Y-123061963D01*
X148954442Y-123068482D01*
X148888260Y-123075000D01*
X148799740Y-123075000D01*
X148733558Y-123068482D01*
X148667373Y-123061963D01*
X148497534Y-123010443D01*
X148341009Y-122926778D01*
X148305271Y-122897448D01*
X148203814Y-122814186D01*
X148120552Y-122712729D01*
X148091222Y-122676991D01*
X148007557Y-122520466D01*
X147956037Y-122350627D01*
X147938641Y-122174000D01*
X147956037Y-121997373D01*
X148007557Y-121827534D01*
X148091222Y-121671009D01*
X148120552Y-121635271D01*
X148203814Y-121533814D01*
X148305271Y-121450552D01*
X148341009Y-121421222D01*
X148497534Y-121337557D01*
X148667373Y-121286037D01*
X148733558Y-121279518D01*
X148799740Y-121273000D01*
X148888260Y-121273000D01*
X148954442Y-121279518D01*
X148954442Y-121279518D01*
G37*
G36*
X143874442Y-121279518D02*
G01*
X143940627Y-121286037D01*
X144110466Y-121337557D01*
X144266991Y-121421222D01*
X144302729Y-121450552D01*
X144404186Y-121533814D01*
X144487448Y-121635271D01*
X144516778Y-121671009D01*
X144600443Y-121827534D01*
X144651963Y-121997373D01*
X144669359Y-122174000D01*
X144651963Y-122350627D01*
X144600443Y-122520466D01*
X144516778Y-122676991D01*
X144487448Y-122712729D01*
X144404186Y-122814186D01*
X144302729Y-122897448D01*
X144266991Y-122926778D01*
X144110466Y-123010443D01*
X143940627Y-123061963D01*
X143874442Y-123068482D01*
X143808260Y-123075000D01*
X143719740Y-123075000D01*
X143653558Y-123068482D01*
X143587373Y-123061963D01*
X143417534Y-123010443D01*
X143261009Y-122926778D01*
X143225271Y-122897448D01*
X143123814Y-122814186D01*
X143040552Y-122712729D01*
X143011222Y-122676991D01*
X142927557Y-122520466D01*
X142876037Y-122350627D01*
X142858641Y-122174000D01*
X142876037Y-121997373D01*
X142927557Y-121827534D01*
X143011222Y-121671009D01*
X143040552Y-121635271D01*
X143123814Y-121533814D01*
X143225271Y-121450552D01*
X143261009Y-121421222D01*
X143417534Y-121337557D01*
X143587373Y-121286037D01*
X143653558Y-121279518D01*
X143719740Y-121273000D01*
X143808260Y-121273000D01*
X143874442Y-121279518D01*
X143874442Y-121279518D01*
G37*
G36*
X141334442Y-121279518D02*
G01*
X141400627Y-121286037D01*
X141570466Y-121337557D01*
X141726991Y-121421222D01*
X141762729Y-121450552D01*
X141864186Y-121533814D01*
X141947448Y-121635271D01*
X141976778Y-121671009D01*
X142060443Y-121827534D01*
X142111963Y-121997373D01*
X142129359Y-122174000D01*
X142111963Y-122350627D01*
X142060443Y-122520466D01*
X141976778Y-122676991D01*
X141947448Y-122712729D01*
X141864186Y-122814186D01*
X141762729Y-122897448D01*
X141726991Y-122926778D01*
X141570466Y-123010443D01*
X141400627Y-123061963D01*
X141334442Y-123068482D01*
X141268260Y-123075000D01*
X141179740Y-123075000D01*
X141113558Y-123068482D01*
X141047373Y-123061963D01*
X140877534Y-123010443D01*
X140721009Y-122926778D01*
X140685271Y-122897448D01*
X140583814Y-122814186D01*
X140500552Y-122712729D01*
X140471222Y-122676991D01*
X140387557Y-122520466D01*
X140336037Y-122350627D01*
X140318641Y-122174000D01*
X140336037Y-121997373D01*
X140387557Y-121827534D01*
X140471222Y-121671009D01*
X140500552Y-121635271D01*
X140583814Y-121533814D01*
X140685271Y-121450552D01*
X140721009Y-121421222D01*
X140877534Y-121337557D01*
X141047373Y-121286037D01*
X141113558Y-121279518D01*
X141179740Y-121273000D01*
X141268260Y-121273000D01*
X141334442Y-121279518D01*
X141334442Y-121279518D01*
G37*
G36*
X138794442Y-121279518D02*
G01*
X138860627Y-121286037D01*
X139030466Y-121337557D01*
X139186991Y-121421222D01*
X139222729Y-121450552D01*
X139324186Y-121533814D01*
X139407448Y-121635271D01*
X139436778Y-121671009D01*
X139520443Y-121827534D01*
X139571963Y-121997373D01*
X139589359Y-122174000D01*
X139571963Y-122350627D01*
X139520443Y-122520466D01*
X139436778Y-122676991D01*
X139407448Y-122712729D01*
X139324186Y-122814186D01*
X139222729Y-122897448D01*
X139186991Y-122926778D01*
X139030466Y-123010443D01*
X138860627Y-123061963D01*
X138794442Y-123068482D01*
X138728260Y-123075000D01*
X138639740Y-123075000D01*
X138573558Y-123068482D01*
X138507373Y-123061963D01*
X138337534Y-123010443D01*
X138181009Y-122926778D01*
X138145271Y-122897448D01*
X138043814Y-122814186D01*
X137960552Y-122712729D01*
X137931222Y-122676991D01*
X137847557Y-122520466D01*
X137796037Y-122350627D01*
X137778641Y-122174000D01*
X137796037Y-121997373D01*
X137847557Y-121827534D01*
X137931222Y-121671009D01*
X137960552Y-121635271D01*
X138043814Y-121533814D01*
X138145271Y-121450552D01*
X138181009Y-121421222D01*
X138337534Y-121337557D01*
X138507373Y-121286037D01*
X138573558Y-121279518D01*
X138639740Y-121273000D01*
X138728260Y-121273000D01*
X138794442Y-121279518D01*
X138794442Y-121279518D01*
G37*
G36*
X136254442Y-121279518D02*
G01*
X136320627Y-121286037D01*
X136490466Y-121337557D01*
X136646991Y-121421222D01*
X136682729Y-121450552D01*
X136784186Y-121533814D01*
X136867448Y-121635271D01*
X136896778Y-121671009D01*
X136980443Y-121827534D01*
X137031963Y-121997373D01*
X137049359Y-122174000D01*
X137031963Y-122350627D01*
X136980443Y-122520466D01*
X136896778Y-122676991D01*
X136867448Y-122712729D01*
X136784186Y-122814186D01*
X136682729Y-122897448D01*
X136646991Y-122926778D01*
X136490466Y-123010443D01*
X136320627Y-123061963D01*
X136254442Y-123068482D01*
X136188260Y-123075000D01*
X136099740Y-123075000D01*
X136033558Y-123068482D01*
X135967373Y-123061963D01*
X135797534Y-123010443D01*
X135641009Y-122926778D01*
X135605271Y-122897448D01*
X135503814Y-122814186D01*
X135420552Y-122712729D01*
X135391222Y-122676991D01*
X135307557Y-122520466D01*
X135256037Y-122350627D01*
X135238641Y-122174000D01*
X135256037Y-121997373D01*
X135307557Y-121827534D01*
X135391222Y-121671009D01*
X135420552Y-121635271D01*
X135503814Y-121533814D01*
X135605271Y-121450552D01*
X135641009Y-121421222D01*
X135797534Y-121337557D01*
X135967373Y-121286037D01*
X136033558Y-121279518D01*
X136099740Y-121273000D01*
X136188260Y-121273000D01*
X136254442Y-121279518D01*
X136254442Y-121279518D01*
G37*
G36*
X128634442Y-121279518D02*
G01*
X128700627Y-121286037D01*
X128870466Y-121337557D01*
X129026991Y-121421222D01*
X129062729Y-121450552D01*
X129164186Y-121533814D01*
X129247448Y-121635271D01*
X129276778Y-121671009D01*
X129360443Y-121827534D01*
X129411963Y-121997373D01*
X129429359Y-122174000D01*
X129411963Y-122350627D01*
X129360443Y-122520466D01*
X129276778Y-122676991D01*
X129247448Y-122712729D01*
X129164186Y-122814186D01*
X129062729Y-122897448D01*
X129026991Y-122926778D01*
X128870466Y-123010443D01*
X128700627Y-123061963D01*
X128634442Y-123068482D01*
X128568260Y-123075000D01*
X128479740Y-123075000D01*
X128413558Y-123068482D01*
X128347373Y-123061963D01*
X128177534Y-123010443D01*
X128021009Y-122926778D01*
X127985271Y-122897448D01*
X127883814Y-122814186D01*
X127800552Y-122712729D01*
X127771222Y-122676991D01*
X127687557Y-122520466D01*
X127636037Y-122350627D01*
X127618641Y-122174000D01*
X127636037Y-121997373D01*
X127687557Y-121827534D01*
X127771222Y-121671009D01*
X127800552Y-121635271D01*
X127883814Y-121533814D01*
X127985271Y-121450552D01*
X128021009Y-121421222D01*
X128177534Y-121337557D01*
X128347373Y-121286037D01*
X128413558Y-121279518D01*
X128479740Y-121273000D01*
X128568260Y-121273000D01*
X128634442Y-121279518D01*
X128634442Y-121279518D01*
G37*
G36*
X131174442Y-121279518D02*
G01*
X131240627Y-121286037D01*
X131410466Y-121337557D01*
X131566991Y-121421222D01*
X131602729Y-121450552D01*
X131704186Y-121533814D01*
X131787448Y-121635271D01*
X131816778Y-121671009D01*
X131900443Y-121827534D01*
X131951963Y-121997373D01*
X131969359Y-122174000D01*
X131951963Y-122350627D01*
X131900443Y-122520466D01*
X131816778Y-122676991D01*
X131787448Y-122712729D01*
X131704186Y-122814186D01*
X131602729Y-122897448D01*
X131566991Y-122926778D01*
X131410466Y-123010443D01*
X131240627Y-123061963D01*
X131174442Y-123068482D01*
X131108260Y-123075000D01*
X131019740Y-123075000D01*
X130953558Y-123068482D01*
X130887373Y-123061963D01*
X130717534Y-123010443D01*
X130561009Y-122926778D01*
X130525271Y-122897448D01*
X130423814Y-122814186D01*
X130340552Y-122712729D01*
X130311222Y-122676991D01*
X130227557Y-122520466D01*
X130176037Y-122350627D01*
X130158641Y-122174000D01*
X130176037Y-121997373D01*
X130227557Y-121827534D01*
X130311222Y-121671009D01*
X130340552Y-121635271D01*
X130423814Y-121533814D01*
X130525271Y-121450552D01*
X130561009Y-121421222D01*
X130717534Y-121337557D01*
X130887373Y-121286037D01*
X130953558Y-121279518D01*
X131019740Y-121273000D01*
X131108260Y-121273000D01*
X131174442Y-121279518D01*
X131174442Y-121279518D01*
G37*
G36*
X111645000Y-123075000D02*
G01*
X109843000Y-123075000D01*
X109843000Y-121273000D01*
X111645000Y-121273000D01*
X111645000Y-123075000D01*
X111645000Y-123075000D01*
G37*
G36*
X113394442Y-121279518D02*
G01*
X113460627Y-121286037D01*
X113630466Y-121337557D01*
X113786991Y-121421222D01*
X113822729Y-121450552D01*
X113924186Y-121533814D01*
X114007448Y-121635271D01*
X114036778Y-121671009D01*
X114120443Y-121827534D01*
X114171963Y-121997373D01*
X114189359Y-122174000D01*
X114171963Y-122350627D01*
X114120443Y-122520466D01*
X114036778Y-122676991D01*
X114007448Y-122712729D01*
X113924186Y-122814186D01*
X113822729Y-122897448D01*
X113786991Y-122926778D01*
X113630466Y-123010443D01*
X113460627Y-123061963D01*
X113394442Y-123068482D01*
X113328260Y-123075000D01*
X113239740Y-123075000D01*
X113173558Y-123068482D01*
X113107373Y-123061963D01*
X112937534Y-123010443D01*
X112781009Y-122926778D01*
X112745271Y-122897448D01*
X112643814Y-122814186D01*
X112560552Y-122712729D01*
X112531222Y-122676991D01*
X112447557Y-122520466D01*
X112396037Y-122350627D01*
X112378641Y-122174000D01*
X112396037Y-121997373D01*
X112447557Y-121827534D01*
X112531222Y-121671009D01*
X112560552Y-121635271D01*
X112643814Y-121533814D01*
X112745271Y-121450552D01*
X112781009Y-121421222D01*
X112937534Y-121337557D01*
X113107373Y-121286037D01*
X113173558Y-121279518D01*
X113239740Y-121273000D01*
X113328260Y-121273000D01*
X113394442Y-121279518D01*
X113394442Y-121279518D01*
G37*
G36*
X115934442Y-121279518D02*
G01*
X116000627Y-121286037D01*
X116170466Y-121337557D01*
X116326991Y-121421222D01*
X116362729Y-121450552D01*
X116464186Y-121533814D01*
X116547448Y-121635271D01*
X116576778Y-121671009D01*
X116660443Y-121827534D01*
X116711963Y-121997373D01*
X116729359Y-122174000D01*
X116711963Y-122350627D01*
X116660443Y-122520466D01*
X116576778Y-122676991D01*
X116547448Y-122712729D01*
X116464186Y-122814186D01*
X116362729Y-122897448D01*
X116326991Y-122926778D01*
X116170466Y-123010443D01*
X116000627Y-123061963D01*
X115934442Y-123068482D01*
X115868260Y-123075000D01*
X115779740Y-123075000D01*
X115713558Y-123068482D01*
X115647373Y-123061963D01*
X115477534Y-123010443D01*
X115321009Y-122926778D01*
X115285271Y-122897448D01*
X115183814Y-122814186D01*
X115100552Y-122712729D01*
X115071222Y-122676991D01*
X114987557Y-122520466D01*
X114936037Y-122350627D01*
X114918641Y-122174000D01*
X114936037Y-121997373D01*
X114987557Y-121827534D01*
X115071222Y-121671009D01*
X115100552Y-121635271D01*
X115183814Y-121533814D01*
X115285271Y-121450552D01*
X115321009Y-121421222D01*
X115477534Y-121337557D01*
X115647373Y-121286037D01*
X115713558Y-121279518D01*
X115779740Y-121273000D01*
X115868260Y-121273000D01*
X115934442Y-121279518D01*
X115934442Y-121279518D01*
G37*
G36*
X118474442Y-121279518D02*
G01*
X118540627Y-121286037D01*
X118710466Y-121337557D01*
X118866991Y-121421222D01*
X118902729Y-121450552D01*
X119004186Y-121533814D01*
X119087448Y-121635271D01*
X119116778Y-121671009D01*
X119200443Y-121827534D01*
X119251963Y-121997373D01*
X119269359Y-122174000D01*
X119251963Y-122350627D01*
X119200443Y-122520466D01*
X119116778Y-122676991D01*
X119087448Y-122712729D01*
X119004186Y-122814186D01*
X118902729Y-122897448D01*
X118866991Y-122926778D01*
X118710466Y-123010443D01*
X118540627Y-123061963D01*
X118474442Y-123068482D01*
X118408260Y-123075000D01*
X118319740Y-123075000D01*
X118253558Y-123068482D01*
X118187373Y-123061963D01*
X118017534Y-123010443D01*
X117861009Y-122926778D01*
X117825271Y-122897448D01*
X117723814Y-122814186D01*
X117640552Y-122712729D01*
X117611222Y-122676991D01*
X117527557Y-122520466D01*
X117476037Y-122350627D01*
X117458641Y-122174000D01*
X117476037Y-121997373D01*
X117527557Y-121827534D01*
X117611222Y-121671009D01*
X117640552Y-121635271D01*
X117723814Y-121533814D01*
X117825271Y-121450552D01*
X117861009Y-121421222D01*
X118017534Y-121337557D01*
X118187373Y-121286037D01*
X118253558Y-121279518D01*
X118319740Y-121273000D01*
X118408260Y-121273000D01*
X118474442Y-121279518D01*
X118474442Y-121279518D01*
G37*
G36*
X133714442Y-121279518D02*
G01*
X133780627Y-121286037D01*
X133950466Y-121337557D01*
X134106991Y-121421222D01*
X134142729Y-121450552D01*
X134244186Y-121533814D01*
X134327448Y-121635271D01*
X134356778Y-121671009D01*
X134440443Y-121827534D01*
X134491963Y-121997373D01*
X134509359Y-122174000D01*
X134491963Y-122350627D01*
X134440443Y-122520466D01*
X134356778Y-122676991D01*
X134327448Y-122712729D01*
X134244186Y-122814186D01*
X134142729Y-122897448D01*
X134106991Y-122926778D01*
X133950466Y-123010443D01*
X133780627Y-123061963D01*
X133714442Y-123068482D01*
X133648260Y-123075000D01*
X133559740Y-123075000D01*
X133493558Y-123068482D01*
X133427373Y-123061963D01*
X133257534Y-123010443D01*
X133101009Y-122926778D01*
X133065271Y-122897448D01*
X132963814Y-122814186D01*
X132880552Y-122712729D01*
X132851222Y-122676991D01*
X132767557Y-122520466D01*
X132716037Y-122350627D01*
X132698641Y-122174000D01*
X132716037Y-121997373D01*
X132767557Y-121827534D01*
X132851222Y-121671009D01*
X132880552Y-121635271D01*
X132963814Y-121533814D01*
X133065271Y-121450552D01*
X133101009Y-121421222D01*
X133257534Y-121337557D01*
X133427373Y-121286037D01*
X133493558Y-121279518D01*
X133559740Y-121273000D01*
X133648260Y-121273000D01*
X133714442Y-121279518D01*
X133714442Y-121279518D01*
G37*
G36*
X121014442Y-121279518D02*
G01*
X121080627Y-121286037D01*
X121250466Y-121337557D01*
X121406991Y-121421222D01*
X121442729Y-121450552D01*
X121544186Y-121533814D01*
X121627448Y-121635271D01*
X121656778Y-121671009D01*
X121740443Y-121827534D01*
X121791963Y-121997373D01*
X121809359Y-122174000D01*
X121791963Y-122350627D01*
X121740443Y-122520466D01*
X121656778Y-122676991D01*
X121627448Y-122712729D01*
X121544186Y-122814186D01*
X121442729Y-122897448D01*
X121406991Y-122926778D01*
X121250466Y-123010443D01*
X121080627Y-123061963D01*
X121014442Y-123068482D01*
X120948260Y-123075000D01*
X120859740Y-123075000D01*
X120793558Y-123068482D01*
X120727373Y-123061963D01*
X120557534Y-123010443D01*
X120401009Y-122926778D01*
X120365271Y-122897448D01*
X120263814Y-122814186D01*
X120180552Y-122712729D01*
X120151222Y-122676991D01*
X120067557Y-122520466D01*
X120016037Y-122350627D01*
X119998641Y-122174000D01*
X120016037Y-121997373D01*
X120067557Y-121827534D01*
X120151222Y-121671009D01*
X120180552Y-121635271D01*
X120263814Y-121533814D01*
X120365271Y-121450552D01*
X120401009Y-121421222D01*
X120557534Y-121337557D01*
X120727373Y-121286037D01*
X120793558Y-121279518D01*
X120859740Y-121273000D01*
X120948260Y-121273000D01*
X121014442Y-121279518D01*
X121014442Y-121279518D01*
G37*
G36*
X123554442Y-121279518D02*
G01*
X123620627Y-121286037D01*
X123790466Y-121337557D01*
X123946991Y-121421222D01*
X123982729Y-121450552D01*
X124084186Y-121533814D01*
X124167448Y-121635271D01*
X124196778Y-121671009D01*
X124280443Y-121827534D01*
X124331963Y-121997373D01*
X124349359Y-122174000D01*
X124331963Y-122350627D01*
X124280443Y-122520466D01*
X124196778Y-122676991D01*
X124167448Y-122712729D01*
X124084186Y-122814186D01*
X123982729Y-122897448D01*
X123946991Y-122926778D01*
X123790466Y-123010443D01*
X123620627Y-123061963D01*
X123554442Y-123068482D01*
X123488260Y-123075000D01*
X123399740Y-123075000D01*
X123333558Y-123068482D01*
X123267373Y-123061963D01*
X123097534Y-123010443D01*
X122941009Y-122926778D01*
X122905271Y-122897448D01*
X122803814Y-122814186D01*
X122720552Y-122712729D01*
X122691222Y-122676991D01*
X122607557Y-122520466D01*
X122556037Y-122350627D01*
X122538641Y-122174000D01*
X122556037Y-121997373D01*
X122607557Y-121827534D01*
X122691222Y-121671009D01*
X122720552Y-121635271D01*
X122803814Y-121533814D01*
X122905271Y-121450552D01*
X122941009Y-121421222D01*
X123097534Y-121337557D01*
X123267373Y-121286037D01*
X123333558Y-121279518D01*
X123399740Y-121273000D01*
X123488260Y-121273000D01*
X123554442Y-121279518D01*
X123554442Y-121279518D01*
G37*
G36*
X126094442Y-121279518D02*
G01*
X126160627Y-121286037D01*
X126330466Y-121337557D01*
X126486991Y-121421222D01*
X126522729Y-121450552D01*
X126624186Y-121533814D01*
X126707448Y-121635271D01*
X126736778Y-121671009D01*
X126820443Y-121827534D01*
X126871963Y-121997373D01*
X126889359Y-122174000D01*
X126871963Y-122350627D01*
X126820443Y-122520466D01*
X126736778Y-122676991D01*
X126707448Y-122712729D01*
X126624186Y-122814186D01*
X126522729Y-122897448D01*
X126486991Y-122926778D01*
X126330466Y-123010443D01*
X126160627Y-123061963D01*
X126094442Y-123068482D01*
X126028260Y-123075000D01*
X125939740Y-123075000D01*
X125873558Y-123068482D01*
X125807373Y-123061963D01*
X125637534Y-123010443D01*
X125481009Y-122926778D01*
X125445271Y-122897448D01*
X125343814Y-122814186D01*
X125260552Y-122712729D01*
X125231222Y-122676991D01*
X125147557Y-122520466D01*
X125096037Y-122350627D01*
X125078641Y-122174000D01*
X125096037Y-121997373D01*
X125147557Y-121827534D01*
X125231222Y-121671009D01*
X125260552Y-121635271D01*
X125343814Y-121533814D01*
X125445271Y-121450552D01*
X125481009Y-121421222D01*
X125637534Y-121337557D01*
X125807373Y-121286037D01*
X125873558Y-121279518D01*
X125939740Y-121273000D01*
X126028260Y-121273000D01*
X126094442Y-121279518D01*
X126094442Y-121279518D01*
G37*
G36*
X131174442Y-113659518D02*
G01*
X131240627Y-113666037D01*
X131410466Y-113717557D01*
X131566991Y-113801222D01*
X131602729Y-113830552D01*
X131704186Y-113913814D01*
X131787448Y-114015271D01*
X131816778Y-114051009D01*
X131900443Y-114207534D01*
X131951963Y-114377373D01*
X131969359Y-114554000D01*
X131951963Y-114730627D01*
X131900443Y-114900466D01*
X131816778Y-115056991D01*
X131787448Y-115092729D01*
X131704186Y-115194186D01*
X131602729Y-115277448D01*
X131566991Y-115306778D01*
X131410466Y-115390443D01*
X131240627Y-115441963D01*
X131174442Y-115448482D01*
X131108260Y-115455000D01*
X131019740Y-115455000D01*
X130953558Y-115448482D01*
X130887373Y-115441963D01*
X130717534Y-115390443D01*
X130561009Y-115306778D01*
X130525271Y-115277448D01*
X130423814Y-115194186D01*
X130340552Y-115092729D01*
X130311222Y-115056991D01*
X130227557Y-114900466D01*
X130176037Y-114730627D01*
X130158641Y-114554000D01*
X130176037Y-114377373D01*
X130227557Y-114207534D01*
X130311222Y-114051009D01*
X130340552Y-114015271D01*
X130423814Y-113913814D01*
X130525271Y-113830552D01*
X130561009Y-113801222D01*
X130717534Y-113717557D01*
X130887373Y-113666037D01*
X130953558Y-113659518D01*
X131019740Y-113653000D01*
X131108260Y-113653000D01*
X131174442Y-113659518D01*
X131174442Y-113659518D01*
G37*
G36*
X113394442Y-113659518D02*
G01*
X113460627Y-113666037D01*
X113630466Y-113717557D01*
X113786991Y-113801222D01*
X113822729Y-113830552D01*
X113924186Y-113913814D01*
X114007448Y-114015271D01*
X114036778Y-114051009D01*
X114120443Y-114207534D01*
X114171963Y-114377373D01*
X114189359Y-114554000D01*
X114171963Y-114730627D01*
X114120443Y-114900466D01*
X114036778Y-115056991D01*
X114007448Y-115092729D01*
X113924186Y-115194186D01*
X113822729Y-115277448D01*
X113786991Y-115306778D01*
X113630466Y-115390443D01*
X113460627Y-115441963D01*
X113394442Y-115448482D01*
X113328260Y-115455000D01*
X113239740Y-115455000D01*
X113173558Y-115448482D01*
X113107373Y-115441963D01*
X112937534Y-115390443D01*
X112781009Y-115306778D01*
X112745271Y-115277448D01*
X112643814Y-115194186D01*
X112560552Y-115092729D01*
X112531222Y-115056991D01*
X112447557Y-114900466D01*
X112396037Y-114730627D01*
X112378641Y-114554000D01*
X112396037Y-114377373D01*
X112447557Y-114207534D01*
X112531222Y-114051009D01*
X112560552Y-114015271D01*
X112643814Y-113913814D01*
X112745271Y-113830552D01*
X112781009Y-113801222D01*
X112937534Y-113717557D01*
X113107373Y-113666037D01*
X113173558Y-113659518D01*
X113239740Y-113653000D01*
X113328260Y-113653000D01*
X113394442Y-113659518D01*
X113394442Y-113659518D01*
G37*
G36*
X115934442Y-113659518D02*
G01*
X116000627Y-113666037D01*
X116170466Y-113717557D01*
X116326991Y-113801222D01*
X116362729Y-113830552D01*
X116464186Y-113913814D01*
X116547448Y-114015271D01*
X116576778Y-114051009D01*
X116660443Y-114207534D01*
X116711963Y-114377373D01*
X116729359Y-114554000D01*
X116711963Y-114730627D01*
X116660443Y-114900466D01*
X116576778Y-115056991D01*
X116547448Y-115092729D01*
X116464186Y-115194186D01*
X116362729Y-115277448D01*
X116326991Y-115306778D01*
X116170466Y-115390443D01*
X116000627Y-115441963D01*
X115934442Y-115448482D01*
X115868260Y-115455000D01*
X115779740Y-115455000D01*
X115713558Y-115448482D01*
X115647373Y-115441963D01*
X115477534Y-115390443D01*
X115321009Y-115306778D01*
X115285271Y-115277448D01*
X115183814Y-115194186D01*
X115100552Y-115092729D01*
X115071222Y-115056991D01*
X114987557Y-114900466D01*
X114936037Y-114730627D01*
X114918641Y-114554000D01*
X114936037Y-114377373D01*
X114987557Y-114207534D01*
X115071222Y-114051009D01*
X115100552Y-114015271D01*
X115183814Y-113913814D01*
X115285271Y-113830552D01*
X115321009Y-113801222D01*
X115477534Y-113717557D01*
X115647373Y-113666037D01*
X115713558Y-113659518D01*
X115779740Y-113653000D01*
X115868260Y-113653000D01*
X115934442Y-113659518D01*
X115934442Y-113659518D01*
G37*
G36*
X118474442Y-113659518D02*
G01*
X118540627Y-113666037D01*
X118710466Y-113717557D01*
X118866991Y-113801222D01*
X118902729Y-113830552D01*
X119004186Y-113913814D01*
X119087448Y-114015271D01*
X119116778Y-114051009D01*
X119200443Y-114207534D01*
X119251963Y-114377373D01*
X119269359Y-114554000D01*
X119251963Y-114730627D01*
X119200443Y-114900466D01*
X119116778Y-115056991D01*
X119087448Y-115092729D01*
X119004186Y-115194186D01*
X118902729Y-115277448D01*
X118866991Y-115306778D01*
X118710466Y-115390443D01*
X118540627Y-115441963D01*
X118474442Y-115448482D01*
X118408260Y-115455000D01*
X118319740Y-115455000D01*
X118253558Y-115448482D01*
X118187373Y-115441963D01*
X118017534Y-115390443D01*
X117861009Y-115306778D01*
X117825271Y-115277448D01*
X117723814Y-115194186D01*
X117640552Y-115092729D01*
X117611222Y-115056991D01*
X117527557Y-114900466D01*
X117476037Y-114730627D01*
X117458641Y-114554000D01*
X117476037Y-114377373D01*
X117527557Y-114207534D01*
X117611222Y-114051009D01*
X117640552Y-114015271D01*
X117723814Y-113913814D01*
X117825271Y-113830552D01*
X117861009Y-113801222D01*
X118017534Y-113717557D01*
X118187373Y-113666037D01*
X118253558Y-113659518D01*
X118319740Y-113653000D01*
X118408260Y-113653000D01*
X118474442Y-113659518D01*
X118474442Y-113659518D01*
G37*
G36*
X121014442Y-113659518D02*
G01*
X121080627Y-113666037D01*
X121250466Y-113717557D01*
X121406991Y-113801222D01*
X121442729Y-113830552D01*
X121544186Y-113913814D01*
X121627448Y-114015271D01*
X121656778Y-114051009D01*
X121740443Y-114207534D01*
X121791963Y-114377373D01*
X121809359Y-114554000D01*
X121791963Y-114730627D01*
X121740443Y-114900466D01*
X121656778Y-115056991D01*
X121627448Y-115092729D01*
X121544186Y-115194186D01*
X121442729Y-115277448D01*
X121406991Y-115306778D01*
X121250466Y-115390443D01*
X121080627Y-115441963D01*
X121014442Y-115448482D01*
X120948260Y-115455000D01*
X120859740Y-115455000D01*
X120793558Y-115448482D01*
X120727373Y-115441963D01*
X120557534Y-115390443D01*
X120401009Y-115306778D01*
X120365271Y-115277448D01*
X120263814Y-115194186D01*
X120180552Y-115092729D01*
X120151222Y-115056991D01*
X120067557Y-114900466D01*
X120016037Y-114730627D01*
X119998641Y-114554000D01*
X120016037Y-114377373D01*
X120067557Y-114207534D01*
X120151222Y-114051009D01*
X120180552Y-114015271D01*
X120263814Y-113913814D01*
X120365271Y-113830552D01*
X120401009Y-113801222D01*
X120557534Y-113717557D01*
X120727373Y-113666037D01*
X120793558Y-113659518D01*
X120859740Y-113653000D01*
X120948260Y-113653000D01*
X121014442Y-113659518D01*
X121014442Y-113659518D01*
G37*
G36*
X123554442Y-113659518D02*
G01*
X123620627Y-113666037D01*
X123790466Y-113717557D01*
X123946991Y-113801222D01*
X123982729Y-113830552D01*
X124084186Y-113913814D01*
X124167448Y-114015271D01*
X124196778Y-114051009D01*
X124280443Y-114207534D01*
X124331963Y-114377373D01*
X124349359Y-114554000D01*
X124331963Y-114730627D01*
X124280443Y-114900466D01*
X124196778Y-115056991D01*
X124167448Y-115092729D01*
X124084186Y-115194186D01*
X123982729Y-115277448D01*
X123946991Y-115306778D01*
X123790466Y-115390443D01*
X123620627Y-115441963D01*
X123554442Y-115448482D01*
X123488260Y-115455000D01*
X123399740Y-115455000D01*
X123333558Y-115448482D01*
X123267373Y-115441963D01*
X123097534Y-115390443D01*
X122941009Y-115306778D01*
X122905271Y-115277448D01*
X122803814Y-115194186D01*
X122720552Y-115092729D01*
X122691222Y-115056991D01*
X122607557Y-114900466D01*
X122556037Y-114730627D01*
X122538641Y-114554000D01*
X122556037Y-114377373D01*
X122607557Y-114207534D01*
X122691222Y-114051009D01*
X122720552Y-114015271D01*
X122803814Y-113913814D01*
X122905271Y-113830552D01*
X122941009Y-113801222D01*
X123097534Y-113717557D01*
X123267373Y-113666037D01*
X123333558Y-113659518D01*
X123399740Y-113653000D01*
X123488260Y-113653000D01*
X123554442Y-113659518D01*
X123554442Y-113659518D01*
G37*
G36*
X126094442Y-113659518D02*
G01*
X126160627Y-113666037D01*
X126330466Y-113717557D01*
X126486991Y-113801222D01*
X126522729Y-113830552D01*
X126624186Y-113913814D01*
X126707448Y-114015271D01*
X126736778Y-114051009D01*
X126820443Y-114207534D01*
X126871963Y-114377373D01*
X126889359Y-114554000D01*
X126871963Y-114730627D01*
X126820443Y-114900466D01*
X126736778Y-115056991D01*
X126707448Y-115092729D01*
X126624186Y-115194186D01*
X126522729Y-115277448D01*
X126486991Y-115306778D01*
X126330466Y-115390443D01*
X126160627Y-115441963D01*
X126094442Y-115448482D01*
X126028260Y-115455000D01*
X125939740Y-115455000D01*
X125873558Y-115448482D01*
X125807373Y-115441963D01*
X125637534Y-115390443D01*
X125481009Y-115306778D01*
X125445271Y-115277448D01*
X125343814Y-115194186D01*
X125260552Y-115092729D01*
X125231222Y-115056991D01*
X125147557Y-114900466D01*
X125096037Y-114730627D01*
X125078641Y-114554000D01*
X125096037Y-114377373D01*
X125147557Y-114207534D01*
X125231222Y-114051009D01*
X125260552Y-114015271D01*
X125343814Y-113913814D01*
X125445271Y-113830552D01*
X125481009Y-113801222D01*
X125637534Y-113717557D01*
X125807373Y-113666037D01*
X125873558Y-113659518D01*
X125939740Y-113653000D01*
X126028260Y-113653000D01*
X126094442Y-113659518D01*
X126094442Y-113659518D01*
G37*
G36*
X128634442Y-113659518D02*
G01*
X128700627Y-113666037D01*
X128870466Y-113717557D01*
X129026991Y-113801222D01*
X129062729Y-113830552D01*
X129164186Y-113913814D01*
X129247448Y-114015271D01*
X129276778Y-114051009D01*
X129360443Y-114207534D01*
X129411963Y-114377373D01*
X129429359Y-114554000D01*
X129411963Y-114730627D01*
X129360443Y-114900466D01*
X129276778Y-115056991D01*
X129247448Y-115092729D01*
X129164186Y-115194186D01*
X129062729Y-115277448D01*
X129026991Y-115306778D01*
X128870466Y-115390443D01*
X128700627Y-115441963D01*
X128634442Y-115448482D01*
X128568260Y-115455000D01*
X128479740Y-115455000D01*
X128413558Y-115448482D01*
X128347373Y-115441963D01*
X128177534Y-115390443D01*
X128021009Y-115306778D01*
X127985271Y-115277448D01*
X127883814Y-115194186D01*
X127800552Y-115092729D01*
X127771222Y-115056991D01*
X127687557Y-114900466D01*
X127636037Y-114730627D01*
X127618641Y-114554000D01*
X127636037Y-114377373D01*
X127687557Y-114207534D01*
X127771222Y-114051009D01*
X127800552Y-114015271D01*
X127883814Y-113913814D01*
X127985271Y-113830552D01*
X128021009Y-113801222D01*
X128177534Y-113717557D01*
X128347373Y-113666037D01*
X128413558Y-113659518D01*
X128479740Y-113653000D01*
X128568260Y-113653000D01*
X128634442Y-113659518D01*
X128634442Y-113659518D01*
G37*
G36*
X133714442Y-113659518D02*
G01*
X133780627Y-113666037D01*
X133950466Y-113717557D01*
X134106991Y-113801222D01*
X134142729Y-113830552D01*
X134244186Y-113913814D01*
X134327448Y-114015271D01*
X134356778Y-114051009D01*
X134440443Y-114207534D01*
X134491963Y-114377373D01*
X134509359Y-114554000D01*
X134491963Y-114730627D01*
X134440443Y-114900466D01*
X134356778Y-115056991D01*
X134327448Y-115092729D01*
X134244186Y-115194186D01*
X134142729Y-115277448D01*
X134106991Y-115306778D01*
X133950466Y-115390443D01*
X133780627Y-115441963D01*
X133714442Y-115448482D01*
X133648260Y-115455000D01*
X133559740Y-115455000D01*
X133493558Y-115448482D01*
X133427373Y-115441963D01*
X133257534Y-115390443D01*
X133101009Y-115306778D01*
X133065271Y-115277448D01*
X132963814Y-115194186D01*
X132880552Y-115092729D01*
X132851222Y-115056991D01*
X132767557Y-114900466D01*
X132716037Y-114730627D01*
X132698641Y-114554000D01*
X132716037Y-114377373D01*
X132767557Y-114207534D01*
X132851222Y-114051009D01*
X132880552Y-114015271D01*
X132963814Y-113913814D01*
X133065271Y-113830552D01*
X133101009Y-113801222D01*
X133257534Y-113717557D01*
X133427373Y-113666037D01*
X133493558Y-113659518D01*
X133559740Y-113653000D01*
X133648260Y-113653000D01*
X133714442Y-113659518D01*
X133714442Y-113659518D01*
G37*
G36*
X138794442Y-113659518D02*
G01*
X138860627Y-113666037D01*
X139030466Y-113717557D01*
X139186991Y-113801222D01*
X139222729Y-113830552D01*
X139324186Y-113913814D01*
X139407448Y-114015271D01*
X139436778Y-114051009D01*
X139520443Y-114207534D01*
X139571963Y-114377373D01*
X139589359Y-114554000D01*
X139571963Y-114730627D01*
X139520443Y-114900466D01*
X139436778Y-115056991D01*
X139407448Y-115092729D01*
X139324186Y-115194186D01*
X139222729Y-115277448D01*
X139186991Y-115306778D01*
X139030466Y-115390443D01*
X138860627Y-115441963D01*
X138794442Y-115448482D01*
X138728260Y-115455000D01*
X138639740Y-115455000D01*
X138573558Y-115448482D01*
X138507373Y-115441963D01*
X138337534Y-115390443D01*
X138181009Y-115306778D01*
X138145271Y-115277448D01*
X138043814Y-115194186D01*
X137960552Y-115092729D01*
X137931222Y-115056991D01*
X137847557Y-114900466D01*
X137796037Y-114730627D01*
X137778641Y-114554000D01*
X137796037Y-114377373D01*
X137847557Y-114207534D01*
X137931222Y-114051009D01*
X137960552Y-114015271D01*
X138043814Y-113913814D01*
X138145271Y-113830552D01*
X138181009Y-113801222D01*
X138337534Y-113717557D01*
X138507373Y-113666037D01*
X138573558Y-113659518D01*
X138639740Y-113653000D01*
X138728260Y-113653000D01*
X138794442Y-113659518D01*
X138794442Y-113659518D01*
G37*
G36*
X141334442Y-113659518D02*
G01*
X141400627Y-113666037D01*
X141570466Y-113717557D01*
X141726991Y-113801222D01*
X141762729Y-113830552D01*
X141864186Y-113913814D01*
X141947448Y-114015271D01*
X141976778Y-114051009D01*
X142060443Y-114207534D01*
X142111963Y-114377373D01*
X142129359Y-114554000D01*
X142111963Y-114730627D01*
X142060443Y-114900466D01*
X141976778Y-115056991D01*
X141947448Y-115092729D01*
X141864186Y-115194186D01*
X141762729Y-115277448D01*
X141726991Y-115306778D01*
X141570466Y-115390443D01*
X141400627Y-115441963D01*
X141334442Y-115448482D01*
X141268260Y-115455000D01*
X141179740Y-115455000D01*
X141113558Y-115448482D01*
X141047373Y-115441963D01*
X140877534Y-115390443D01*
X140721009Y-115306778D01*
X140685271Y-115277448D01*
X140583814Y-115194186D01*
X140500552Y-115092729D01*
X140471222Y-115056991D01*
X140387557Y-114900466D01*
X140336037Y-114730627D01*
X140318641Y-114554000D01*
X140336037Y-114377373D01*
X140387557Y-114207534D01*
X140471222Y-114051009D01*
X140500552Y-114015271D01*
X140583814Y-113913814D01*
X140685271Y-113830552D01*
X140721009Y-113801222D01*
X140877534Y-113717557D01*
X141047373Y-113666037D01*
X141113558Y-113659518D01*
X141179740Y-113653000D01*
X141268260Y-113653000D01*
X141334442Y-113659518D01*
X141334442Y-113659518D01*
G37*
G36*
X143874442Y-113659518D02*
G01*
X143940627Y-113666037D01*
X144110466Y-113717557D01*
X144266991Y-113801222D01*
X144302729Y-113830552D01*
X144404186Y-113913814D01*
X144487448Y-114015271D01*
X144516778Y-114051009D01*
X144600443Y-114207534D01*
X144651963Y-114377373D01*
X144669359Y-114554000D01*
X144651963Y-114730627D01*
X144600443Y-114900466D01*
X144516778Y-115056991D01*
X144487448Y-115092729D01*
X144404186Y-115194186D01*
X144302729Y-115277448D01*
X144266991Y-115306778D01*
X144110466Y-115390443D01*
X143940627Y-115441963D01*
X143874442Y-115448482D01*
X143808260Y-115455000D01*
X143719740Y-115455000D01*
X143653558Y-115448482D01*
X143587373Y-115441963D01*
X143417534Y-115390443D01*
X143261009Y-115306778D01*
X143225271Y-115277448D01*
X143123814Y-115194186D01*
X143040552Y-115092729D01*
X143011222Y-115056991D01*
X142927557Y-114900466D01*
X142876037Y-114730627D01*
X142858641Y-114554000D01*
X142876037Y-114377373D01*
X142927557Y-114207534D01*
X143011222Y-114051009D01*
X143040552Y-114015271D01*
X143123814Y-113913814D01*
X143225271Y-113830552D01*
X143261009Y-113801222D01*
X143417534Y-113717557D01*
X143587373Y-113666037D01*
X143653558Y-113659518D01*
X143719740Y-113653000D01*
X143808260Y-113653000D01*
X143874442Y-113659518D01*
X143874442Y-113659518D01*
G37*
G36*
X146414442Y-113659518D02*
G01*
X146480627Y-113666037D01*
X146650466Y-113717557D01*
X146806991Y-113801222D01*
X146842729Y-113830552D01*
X146944186Y-113913814D01*
X147027448Y-114015271D01*
X147056778Y-114051009D01*
X147140443Y-114207534D01*
X147191963Y-114377373D01*
X147209359Y-114554000D01*
X147191963Y-114730627D01*
X147140443Y-114900466D01*
X147056778Y-115056991D01*
X147027448Y-115092729D01*
X146944186Y-115194186D01*
X146842729Y-115277448D01*
X146806991Y-115306778D01*
X146650466Y-115390443D01*
X146480627Y-115441963D01*
X146414442Y-115448482D01*
X146348260Y-115455000D01*
X146259740Y-115455000D01*
X146193558Y-115448482D01*
X146127373Y-115441963D01*
X145957534Y-115390443D01*
X145801009Y-115306778D01*
X145765271Y-115277448D01*
X145663814Y-115194186D01*
X145580552Y-115092729D01*
X145551222Y-115056991D01*
X145467557Y-114900466D01*
X145416037Y-114730627D01*
X145398641Y-114554000D01*
X145416037Y-114377373D01*
X145467557Y-114207534D01*
X145551222Y-114051009D01*
X145580552Y-114015271D01*
X145663814Y-113913814D01*
X145765271Y-113830552D01*
X145801009Y-113801222D01*
X145957534Y-113717557D01*
X146127373Y-113666037D01*
X146193558Y-113659518D01*
X146259740Y-113653000D01*
X146348260Y-113653000D01*
X146414442Y-113659518D01*
X146414442Y-113659518D01*
G37*
G36*
X148954442Y-113659518D02*
G01*
X149020627Y-113666037D01*
X149190466Y-113717557D01*
X149346991Y-113801222D01*
X149382729Y-113830552D01*
X149484186Y-113913814D01*
X149567448Y-114015271D01*
X149596778Y-114051009D01*
X149680443Y-114207534D01*
X149731963Y-114377373D01*
X149749359Y-114554000D01*
X149731963Y-114730627D01*
X149680443Y-114900466D01*
X149596778Y-115056991D01*
X149567448Y-115092729D01*
X149484186Y-115194186D01*
X149382729Y-115277448D01*
X149346991Y-115306778D01*
X149190466Y-115390443D01*
X149020627Y-115441963D01*
X148954442Y-115448482D01*
X148888260Y-115455000D01*
X148799740Y-115455000D01*
X148733558Y-115448482D01*
X148667373Y-115441963D01*
X148497534Y-115390443D01*
X148341009Y-115306778D01*
X148305271Y-115277448D01*
X148203814Y-115194186D01*
X148120552Y-115092729D01*
X148091222Y-115056991D01*
X148007557Y-114900466D01*
X147956037Y-114730627D01*
X147938641Y-114554000D01*
X147956037Y-114377373D01*
X148007557Y-114207534D01*
X148091222Y-114051009D01*
X148120552Y-114015271D01*
X148203814Y-113913814D01*
X148305271Y-113830552D01*
X148341009Y-113801222D01*
X148497534Y-113717557D01*
X148667373Y-113666037D01*
X148733558Y-113659518D01*
X148799740Y-113653000D01*
X148888260Y-113653000D01*
X148954442Y-113659518D01*
X148954442Y-113659518D01*
G37*
G36*
X151494442Y-113659518D02*
G01*
X151560627Y-113666037D01*
X151730466Y-113717557D01*
X151886991Y-113801222D01*
X151922729Y-113830552D01*
X152024186Y-113913814D01*
X152107448Y-114015271D01*
X152136778Y-114051009D01*
X152220443Y-114207534D01*
X152271963Y-114377373D01*
X152289359Y-114554000D01*
X152271963Y-114730627D01*
X152220443Y-114900466D01*
X152136778Y-115056991D01*
X152107448Y-115092729D01*
X152024186Y-115194186D01*
X151922729Y-115277448D01*
X151886991Y-115306778D01*
X151730466Y-115390443D01*
X151560627Y-115441963D01*
X151494442Y-115448482D01*
X151428260Y-115455000D01*
X151339740Y-115455000D01*
X151273558Y-115448482D01*
X151207373Y-115441963D01*
X151037534Y-115390443D01*
X150881009Y-115306778D01*
X150845271Y-115277448D01*
X150743814Y-115194186D01*
X150660552Y-115092729D01*
X150631222Y-115056991D01*
X150547557Y-114900466D01*
X150496037Y-114730627D01*
X150478641Y-114554000D01*
X150496037Y-114377373D01*
X150547557Y-114207534D01*
X150631222Y-114051009D01*
X150660552Y-114015271D01*
X150743814Y-113913814D01*
X150845271Y-113830552D01*
X150881009Y-113801222D01*
X151037534Y-113717557D01*
X151207373Y-113666037D01*
X151273558Y-113659518D01*
X151339740Y-113653000D01*
X151428260Y-113653000D01*
X151494442Y-113659518D01*
X151494442Y-113659518D01*
G37*
G36*
X154034442Y-113659518D02*
G01*
X154100627Y-113666037D01*
X154270466Y-113717557D01*
X154426991Y-113801222D01*
X154462729Y-113830552D01*
X154564186Y-113913814D01*
X154647448Y-114015271D01*
X154676778Y-114051009D01*
X154760443Y-114207534D01*
X154811963Y-114377373D01*
X154829359Y-114554000D01*
X154811963Y-114730627D01*
X154760443Y-114900466D01*
X154676778Y-115056991D01*
X154647448Y-115092729D01*
X154564186Y-115194186D01*
X154462729Y-115277448D01*
X154426991Y-115306778D01*
X154270466Y-115390443D01*
X154100627Y-115441963D01*
X154034442Y-115448482D01*
X153968260Y-115455000D01*
X153879740Y-115455000D01*
X153813558Y-115448482D01*
X153747373Y-115441963D01*
X153577534Y-115390443D01*
X153421009Y-115306778D01*
X153385271Y-115277448D01*
X153283814Y-115194186D01*
X153200552Y-115092729D01*
X153171222Y-115056991D01*
X153087557Y-114900466D01*
X153036037Y-114730627D01*
X153018641Y-114554000D01*
X153036037Y-114377373D01*
X153087557Y-114207534D01*
X153171222Y-114051009D01*
X153200552Y-114015271D01*
X153283814Y-113913814D01*
X153385271Y-113830552D01*
X153421009Y-113801222D01*
X153577534Y-113717557D01*
X153747373Y-113666037D01*
X153813558Y-113659518D01*
X153879740Y-113653000D01*
X153968260Y-113653000D01*
X154034442Y-113659518D01*
X154034442Y-113659518D01*
G37*
G36*
X156574442Y-113659518D02*
G01*
X156640627Y-113666037D01*
X156810466Y-113717557D01*
X156966991Y-113801222D01*
X157002729Y-113830552D01*
X157104186Y-113913814D01*
X157187448Y-114015271D01*
X157216778Y-114051009D01*
X157300443Y-114207534D01*
X157351963Y-114377373D01*
X157369359Y-114554000D01*
X157351963Y-114730627D01*
X157300443Y-114900466D01*
X157216778Y-115056991D01*
X157187448Y-115092729D01*
X157104186Y-115194186D01*
X157002729Y-115277448D01*
X156966991Y-115306778D01*
X156810466Y-115390443D01*
X156640627Y-115441963D01*
X156574442Y-115448482D01*
X156508260Y-115455000D01*
X156419740Y-115455000D01*
X156353558Y-115448482D01*
X156287373Y-115441963D01*
X156117534Y-115390443D01*
X155961009Y-115306778D01*
X155925271Y-115277448D01*
X155823814Y-115194186D01*
X155740552Y-115092729D01*
X155711222Y-115056991D01*
X155627557Y-114900466D01*
X155576037Y-114730627D01*
X155558641Y-114554000D01*
X155576037Y-114377373D01*
X155627557Y-114207534D01*
X155711222Y-114051009D01*
X155740552Y-114015271D01*
X155823814Y-113913814D01*
X155925271Y-113830552D01*
X155961009Y-113801222D01*
X156117534Y-113717557D01*
X156287373Y-113666037D01*
X156353558Y-113659518D01*
X156419740Y-113653000D01*
X156508260Y-113653000D01*
X156574442Y-113659518D01*
X156574442Y-113659518D01*
G37*
G36*
X136254442Y-113659518D02*
G01*
X136320627Y-113666037D01*
X136490466Y-113717557D01*
X136646991Y-113801222D01*
X136682729Y-113830552D01*
X136784186Y-113913814D01*
X136867448Y-114015271D01*
X136896778Y-114051009D01*
X136980443Y-114207534D01*
X137031963Y-114377373D01*
X137049359Y-114554000D01*
X137031963Y-114730627D01*
X136980443Y-114900466D01*
X136896778Y-115056991D01*
X136867448Y-115092729D01*
X136784186Y-115194186D01*
X136682729Y-115277448D01*
X136646991Y-115306778D01*
X136490466Y-115390443D01*
X136320627Y-115441963D01*
X136254442Y-115448482D01*
X136188260Y-115455000D01*
X136099740Y-115455000D01*
X136033558Y-115448482D01*
X135967373Y-115441963D01*
X135797534Y-115390443D01*
X135641009Y-115306778D01*
X135605271Y-115277448D01*
X135503814Y-115194186D01*
X135420552Y-115092729D01*
X135391222Y-115056991D01*
X135307557Y-114900466D01*
X135256037Y-114730627D01*
X135238641Y-114554000D01*
X135256037Y-114377373D01*
X135307557Y-114207534D01*
X135391222Y-114051009D01*
X135420552Y-114015271D01*
X135503814Y-113913814D01*
X135605271Y-113830552D01*
X135641009Y-113801222D01*
X135797534Y-113717557D01*
X135967373Y-113666037D01*
X136033558Y-113659518D01*
X136099740Y-113653000D01*
X136188260Y-113653000D01*
X136254442Y-113659518D01*
X136254442Y-113659518D01*
G37*
G36*
X111645000Y-115455000D02*
G01*
X109843000Y-115455000D01*
X109843000Y-113653000D01*
X111645000Y-113653000D01*
X111645000Y-115455000D01*
X111645000Y-115455000D01*
G37*
G36*
X126094442Y-105125518D02*
G01*
X126160627Y-105132037D01*
X126330466Y-105183557D01*
X126486991Y-105267222D01*
X126522729Y-105296552D01*
X126624186Y-105379814D01*
X126707448Y-105481271D01*
X126736778Y-105517009D01*
X126820443Y-105673534D01*
X126871963Y-105843373D01*
X126889359Y-106020000D01*
X126871963Y-106196627D01*
X126820443Y-106366466D01*
X126736778Y-106522991D01*
X126707448Y-106558729D01*
X126624186Y-106660186D01*
X126522729Y-106743448D01*
X126486991Y-106772778D01*
X126330466Y-106856443D01*
X126160627Y-106907963D01*
X126094443Y-106914481D01*
X126028260Y-106921000D01*
X125939740Y-106921000D01*
X125873557Y-106914481D01*
X125807373Y-106907963D01*
X125637534Y-106856443D01*
X125481009Y-106772778D01*
X125445271Y-106743448D01*
X125343814Y-106660186D01*
X125260552Y-106558729D01*
X125231222Y-106522991D01*
X125147557Y-106366466D01*
X125096037Y-106196627D01*
X125078641Y-106020000D01*
X125096037Y-105843373D01*
X125147557Y-105673534D01*
X125231222Y-105517009D01*
X125260552Y-105481271D01*
X125343814Y-105379814D01*
X125445271Y-105296552D01*
X125481009Y-105267222D01*
X125637534Y-105183557D01*
X125807373Y-105132037D01*
X125873557Y-105125519D01*
X125939740Y-105119000D01*
X126028260Y-105119000D01*
X126094442Y-105125518D01*
X126094442Y-105125518D01*
G37*
G36*
X113394442Y-105125518D02*
G01*
X113460627Y-105132037D01*
X113630466Y-105183557D01*
X113786991Y-105267222D01*
X113822729Y-105296552D01*
X113924186Y-105379814D01*
X114007448Y-105481271D01*
X114036778Y-105517009D01*
X114120443Y-105673534D01*
X114171963Y-105843373D01*
X114189359Y-106020000D01*
X114171963Y-106196627D01*
X114120443Y-106366466D01*
X114036778Y-106522991D01*
X114007448Y-106558729D01*
X113924186Y-106660186D01*
X113822729Y-106743448D01*
X113786991Y-106772778D01*
X113630466Y-106856443D01*
X113460627Y-106907963D01*
X113394443Y-106914481D01*
X113328260Y-106921000D01*
X113239740Y-106921000D01*
X113173557Y-106914481D01*
X113107373Y-106907963D01*
X112937534Y-106856443D01*
X112781009Y-106772778D01*
X112745271Y-106743448D01*
X112643814Y-106660186D01*
X112560552Y-106558729D01*
X112531222Y-106522991D01*
X112447557Y-106366466D01*
X112396037Y-106196627D01*
X112378641Y-106020000D01*
X112396037Y-105843373D01*
X112447557Y-105673534D01*
X112531222Y-105517009D01*
X112560552Y-105481271D01*
X112643814Y-105379814D01*
X112745271Y-105296552D01*
X112781009Y-105267222D01*
X112937534Y-105183557D01*
X113107373Y-105132037D01*
X113173557Y-105125519D01*
X113239740Y-105119000D01*
X113328260Y-105119000D01*
X113394442Y-105125518D01*
X113394442Y-105125518D01*
G37*
G36*
X111645000Y-106921000D02*
G01*
X109843000Y-106921000D01*
X109843000Y-105119000D01*
X111645000Y-105119000D01*
X111645000Y-106921000D01*
X111645000Y-106921000D01*
G37*
G36*
X118474442Y-105125518D02*
G01*
X118540627Y-105132037D01*
X118710466Y-105183557D01*
X118866991Y-105267222D01*
X118902729Y-105296552D01*
X119004186Y-105379814D01*
X119087448Y-105481271D01*
X119116778Y-105517009D01*
X119200443Y-105673534D01*
X119251963Y-105843373D01*
X119269359Y-106020000D01*
X119251963Y-106196627D01*
X119200443Y-106366466D01*
X119116778Y-106522991D01*
X119087448Y-106558729D01*
X119004186Y-106660186D01*
X118902729Y-106743448D01*
X118866991Y-106772778D01*
X118710466Y-106856443D01*
X118540627Y-106907963D01*
X118474443Y-106914481D01*
X118408260Y-106921000D01*
X118319740Y-106921000D01*
X118253557Y-106914481D01*
X118187373Y-106907963D01*
X118017534Y-106856443D01*
X117861009Y-106772778D01*
X117825271Y-106743448D01*
X117723814Y-106660186D01*
X117640552Y-106558729D01*
X117611222Y-106522991D01*
X117527557Y-106366466D01*
X117476037Y-106196627D01*
X117458641Y-106020000D01*
X117476037Y-105843373D01*
X117527557Y-105673534D01*
X117611222Y-105517009D01*
X117640552Y-105481271D01*
X117723814Y-105379814D01*
X117825271Y-105296552D01*
X117861009Y-105267222D01*
X118017534Y-105183557D01*
X118187373Y-105132037D01*
X118253557Y-105125519D01*
X118319740Y-105119000D01*
X118408260Y-105119000D01*
X118474442Y-105125518D01*
X118474442Y-105125518D01*
G37*
G36*
X121014442Y-105125518D02*
G01*
X121080627Y-105132037D01*
X121250466Y-105183557D01*
X121406991Y-105267222D01*
X121442729Y-105296552D01*
X121544186Y-105379814D01*
X121627448Y-105481271D01*
X121656778Y-105517009D01*
X121740443Y-105673534D01*
X121791963Y-105843373D01*
X121809359Y-106020000D01*
X121791963Y-106196627D01*
X121740443Y-106366466D01*
X121656778Y-106522991D01*
X121627448Y-106558729D01*
X121544186Y-106660186D01*
X121442729Y-106743448D01*
X121406991Y-106772778D01*
X121250466Y-106856443D01*
X121080627Y-106907963D01*
X121014443Y-106914481D01*
X120948260Y-106921000D01*
X120859740Y-106921000D01*
X120793557Y-106914481D01*
X120727373Y-106907963D01*
X120557534Y-106856443D01*
X120401009Y-106772778D01*
X120365271Y-106743448D01*
X120263814Y-106660186D01*
X120180552Y-106558729D01*
X120151222Y-106522991D01*
X120067557Y-106366466D01*
X120016037Y-106196627D01*
X119998641Y-106020000D01*
X120016037Y-105843373D01*
X120067557Y-105673534D01*
X120151222Y-105517009D01*
X120180552Y-105481271D01*
X120263814Y-105379814D01*
X120365271Y-105296552D01*
X120401009Y-105267222D01*
X120557534Y-105183557D01*
X120727373Y-105132037D01*
X120793557Y-105125519D01*
X120859740Y-105119000D01*
X120948260Y-105119000D01*
X121014442Y-105125518D01*
X121014442Y-105125518D01*
G37*
G36*
X123554442Y-105125518D02*
G01*
X123620627Y-105132037D01*
X123790466Y-105183557D01*
X123946991Y-105267222D01*
X123982729Y-105296552D01*
X124084186Y-105379814D01*
X124167448Y-105481271D01*
X124196778Y-105517009D01*
X124280443Y-105673534D01*
X124331963Y-105843373D01*
X124349359Y-106020000D01*
X124331963Y-106196627D01*
X124280443Y-106366466D01*
X124196778Y-106522991D01*
X124167448Y-106558729D01*
X124084186Y-106660186D01*
X123982729Y-106743448D01*
X123946991Y-106772778D01*
X123790466Y-106856443D01*
X123620627Y-106907963D01*
X123554443Y-106914481D01*
X123488260Y-106921000D01*
X123399740Y-106921000D01*
X123333557Y-106914481D01*
X123267373Y-106907963D01*
X123097534Y-106856443D01*
X122941009Y-106772778D01*
X122905271Y-106743448D01*
X122803814Y-106660186D01*
X122720552Y-106558729D01*
X122691222Y-106522991D01*
X122607557Y-106366466D01*
X122556037Y-106196627D01*
X122538641Y-106020000D01*
X122556037Y-105843373D01*
X122607557Y-105673534D01*
X122691222Y-105517009D01*
X122720552Y-105481271D01*
X122803814Y-105379814D01*
X122905271Y-105296552D01*
X122941009Y-105267222D01*
X123097534Y-105183557D01*
X123267373Y-105132037D01*
X123333557Y-105125519D01*
X123399740Y-105119000D01*
X123488260Y-105119000D01*
X123554442Y-105125518D01*
X123554442Y-105125518D01*
G37*
G36*
X138794442Y-105125518D02*
G01*
X138860627Y-105132037D01*
X139030466Y-105183557D01*
X139186991Y-105267222D01*
X139222729Y-105296552D01*
X139324186Y-105379814D01*
X139407448Y-105481271D01*
X139436778Y-105517009D01*
X139520443Y-105673534D01*
X139571963Y-105843373D01*
X139589359Y-106020000D01*
X139571963Y-106196627D01*
X139520443Y-106366466D01*
X139436778Y-106522991D01*
X139407448Y-106558729D01*
X139324186Y-106660186D01*
X139222729Y-106743448D01*
X139186991Y-106772778D01*
X139030466Y-106856443D01*
X138860627Y-106907963D01*
X138794443Y-106914481D01*
X138728260Y-106921000D01*
X138639740Y-106921000D01*
X138573557Y-106914481D01*
X138507373Y-106907963D01*
X138337534Y-106856443D01*
X138181009Y-106772778D01*
X138145271Y-106743448D01*
X138043814Y-106660186D01*
X137960552Y-106558729D01*
X137931222Y-106522991D01*
X137847557Y-106366466D01*
X137796037Y-106196627D01*
X137778641Y-106020000D01*
X137796037Y-105843373D01*
X137847557Y-105673534D01*
X137931222Y-105517009D01*
X137960552Y-105481271D01*
X138043814Y-105379814D01*
X138145271Y-105296552D01*
X138181009Y-105267222D01*
X138337534Y-105183557D01*
X138507373Y-105132037D01*
X138573557Y-105125519D01*
X138639740Y-105119000D01*
X138728260Y-105119000D01*
X138794442Y-105125518D01*
X138794442Y-105125518D01*
G37*
G36*
X136254442Y-105125518D02*
G01*
X136320627Y-105132037D01*
X136490466Y-105183557D01*
X136646991Y-105267222D01*
X136682729Y-105296552D01*
X136784186Y-105379814D01*
X136867448Y-105481271D01*
X136896778Y-105517009D01*
X136980443Y-105673534D01*
X137031963Y-105843373D01*
X137049359Y-106020000D01*
X137031963Y-106196627D01*
X136980443Y-106366466D01*
X136896778Y-106522991D01*
X136867448Y-106558729D01*
X136784186Y-106660186D01*
X136682729Y-106743448D01*
X136646991Y-106772778D01*
X136490466Y-106856443D01*
X136320627Y-106907963D01*
X136254443Y-106914481D01*
X136188260Y-106921000D01*
X136099740Y-106921000D01*
X136033557Y-106914481D01*
X135967373Y-106907963D01*
X135797534Y-106856443D01*
X135641009Y-106772778D01*
X135605271Y-106743448D01*
X135503814Y-106660186D01*
X135420552Y-106558729D01*
X135391222Y-106522991D01*
X135307557Y-106366466D01*
X135256037Y-106196627D01*
X135238641Y-106020000D01*
X135256037Y-105843373D01*
X135307557Y-105673534D01*
X135391222Y-105517009D01*
X135420552Y-105481271D01*
X135503814Y-105379814D01*
X135605271Y-105296552D01*
X135641009Y-105267222D01*
X135797534Y-105183557D01*
X135967373Y-105132037D01*
X136033557Y-105125519D01*
X136099740Y-105119000D01*
X136188260Y-105119000D01*
X136254442Y-105125518D01*
X136254442Y-105125518D01*
G37*
G36*
X133714442Y-105125518D02*
G01*
X133780627Y-105132037D01*
X133950466Y-105183557D01*
X134106991Y-105267222D01*
X134142729Y-105296552D01*
X134244186Y-105379814D01*
X134327448Y-105481271D01*
X134356778Y-105517009D01*
X134440443Y-105673534D01*
X134491963Y-105843373D01*
X134509359Y-106020000D01*
X134491963Y-106196627D01*
X134440443Y-106366466D01*
X134356778Y-106522991D01*
X134327448Y-106558729D01*
X134244186Y-106660186D01*
X134142729Y-106743448D01*
X134106991Y-106772778D01*
X133950466Y-106856443D01*
X133780627Y-106907963D01*
X133714443Y-106914481D01*
X133648260Y-106921000D01*
X133559740Y-106921000D01*
X133493557Y-106914481D01*
X133427373Y-106907963D01*
X133257534Y-106856443D01*
X133101009Y-106772778D01*
X133065271Y-106743448D01*
X132963814Y-106660186D01*
X132880552Y-106558729D01*
X132851222Y-106522991D01*
X132767557Y-106366466D01*
X132716037Y-106196627D01*
X132698641Y-106020000D01*
X132716037Y-105843373D01*
X132767557Y-105673534D01*
X132851222Y-105517009D01*
X132880552Y-105481271D01*
X132963814Y-105379814D01*
X133065271Y-105296552D01*
X133101009Y-105267222D01*
X133257534Y-105183557D01*
X133427373Y-105132037D01*
X133493557Y-105125519D01*
X133559740Y-105119000D01*
X133648260Y-105119000D01*
X133714442Y-105125518D01*
X133714442Y-105125518D01*
G37*
G36*
X131174442Y-105125518D02*
G01*
X131240627Y-105132037D01*
X131410466Y-105183557D01*
X131566991Y-105267222D01*
X131602729Y-105296552D01*
X131704186Y-105379814D01*
X131787448Y-105481271D01*
X131816778Y-105517009D01*
X131900443Y-105673534D01*
X131951963Y-105843373D01*
X131969359Y-106020000D01*
X131951963Y-106196627D01*
X131900443Y-106366466D01*
X131816778Y-106522991D01*
X131787448Y-106558729D01*
X131704186Y-106660186D01*
X131602729Y-106743448D01*
X131566991Y-106772778D01*
X131410466Y-106856443D01*
X131240627Y-106907963D01*
X131174443Y-106914481D01*
X131108260Y-106921000D01*
X131019740Y-106921000D01*
X130953557Y-106914481D01*
X130887373Y-106907963D01*
X130717534Y-106856443D01*
X130561009Y-106772778D01*
X130525271Y-106743448D01*
X130423814Y-106660186D01*
X130340552Y-106558729D01*
X130311222Y-106522991D01*
X130227557Y-106366466D01*
X130176037Y-106196627D01*
X130158641Y-106020000D01*
X130176037Y-105843373D01*
X130227557Y-105673534D01*
X130311222Y-105517009D01*
X130340552Y-105481271D01*
X130423814Y-105379814D01*
X130525271Y-105296552D01*
X130561009Y-105267222D01*
X130717534Y-105183557D01*
X130887373Y-105132037D01*
X130953557Y-105125519D01*
X131019740Y-105119000D01*
X131108260Y-105119000D01*
X131174442Y-105125518D01*
X131174442Y-105125518D01*
G37*
G36*
X128634442Y-105125518D02*
G01*
X128700627Y-105132037D01*
X128870466Y-105183557D01*
X129026991Y-105267222D01*
X129062729Y-105296552D01*
X129164186Y-105379814D01*
X129247448Y-105481271D01*
X129276778Y-105517009D01*
X129360443Y-105673534D01*
X129411963Y-105843373D01*
X129429359Y-106020000D01*
X129411963Y-106196627D01*
X129360443Y-106366466D01*
X129276778Y-106522991D01*
X129247448Y-106558729D01*
X129164186Y-106660186D01*
X129062729Y-106743448D01*
X129026991Y-106772778D01*
X128870466Y-106856443D01*
X128700627Y-106907963D01*
X128634443Y-106914481D01*
X128568260Y-106921000D01*
X128479740Y-106921000D01*
X128413557Y-106914481D01*
X128347373Y-106907963D01*
X128177534Y-106856443D01*
X128021009Y-106772778D01*
X127985271Y-106743448D01*
X127883814Y-106660186D01*
X127800552Y-106558729D01*
X127771222Y-106522991D01*
X127687557Y-106366466D01*
X127636037Y-106196627D01*
X127618641Y-106020000D01*
X127636037Y-105843373D01*
X127687557Y-105673534D01*
X127771222Y-105517009D01*
X127800552Y-105481271D01*
X127883814Y-105379814D01*
X127985271Y-105296552D01*
X128021009Y-105267222D01*
X128177534Y-105183557D01*
X128347373Y-105132037D01*
X128413557Y-105125519D01*
X128479740Y-105119000D01*
X128568260Y-105119000D01*
X128634442Y-105125518D01*
X128634442Y-105125518D01*
G37*
G36*
X115934442Y-105125518D02*
G01*
X116000627Y-105132037D01*
X116170466Y-105183557D01*
X116326991Y-105267222D01*
X116362729Y-105296552D01*
X116464186Y-105379814D01*
X116547448Y-105481271D01*
X116576778Y-105517009D01*
X116660443Y-105673534D01*
X116711963Y-105843373D01*
X116729359Y-106020000D01*
X116711963Y-106196627D01*
X116660443Y-106366466D01*
X116576778Y-106522991D01*
X116547448Y-106558729D01*
X116464186Y-106660186D01*
X116362729Y-106743448D01*
X116326991Y-106772778D01*
X116170466Y-106856443D01*
X116000627Y-106907963D01*
X115934443Y-106914481D01*
X115868260Y-106921000D01*
X115779740Y-106921000D01*
X115713557Y-106914481D01*
X115647373Y-106907963D01*
X115477534Y-106856443D01*
X115321009Y-106772778D01*
X115285271Y-106743448D01*
X115183814Y-106660186D01*
X115100552Y-106558729D01*
X115071222Y-106522991D01*
X114987557Y-106366466D01*
X114936037Y-106196627D01*
X114918641Y-106020000D01*
X114936037Y-105843373D01*
X114987557Y-105673534D01*
X115071222Y-105517009D01*
X115100552Y-105481271D01*
X115183814Y-105379814D01*
X115285271Y-105296552D01*
X115321009Y-105267222D01*
X115477534Y-105183557D01*
X115647373Y-105132037D01*
X115713557Y-105125519D01*
X115779740Y-105119000D01*
X115868260Y-105119000D01*
X115934442Y-105125518D01*
X115934442Y-105125518D01*
G37*
G36*
X146414442Y-88157918D02*
G01*
X146480627Y-88164437D01*
X146650466Y-88215957D01*
X146806991Y-88299622D01*
X146842729Y-88328952D01*
X146944186Y-88412214D01*
X147027448Y-88513671D01*
X147056778Y-88549409D01*
X147140443Y-88705934D01*
X147191963Y-88875773D01*
X147209359Y-89052400D01*
X147191963Y-89229027D01*
X147140443Y-89398866D01*
X147056778Y-89555391D01*
X147027448Y-89591129D01*
X146944186Y-89692586D01*
X146842729Y-89775848D01*
X146806991Y-89805178D01*
X146650466Y-89888843D01*
X146480627Y-89940363D01*
X146414442Y-89946882D01*
X146348260Y-89953400D01*
X146259740Y-89953400D01*
X146193558Y-89946882D01*
X146127373Y-89940363D01*
X145957534Y-89888843D01*
X145801009Y-89805178D01*
X145765271Y-89775848D01*
X145663814Y-89692586D01*
X145580552Y-89591129D01*
X145551222Y-89555391D01*
X145467557Y-89398866D01*
X145416037Y-89229027D01*
X145398641Y-89052400D01*
X145416037Y-88875773D01*
X145467557Y-88705934D01*
X145551222Y-88549409D01*
X145580552Y-88513671D01*
X145663814Y-88412214D01*
X145765271Y-88328952D01*
X145801009Y-88299622D01*
X145957534Y-88215957D01*
X146127373Y-88164437D01*
X146193558Y-88157918D01*
X146259740Y-88151400D01*
X146348260Y-88151400D01*
X146414442Y-88157918D01*
X146414442Y-88157918D01*
G37*
G36*
X148954442Y-88157918D02*
G01*
X149020627Y-88164437D01*
X149190466Y-88215957D01*
X149346991Y-88299622D01*
X149382729Y-88328952D01*
X149484186Y-88412214D01*
X149567448Y-88513671D01*
X149596778Y-88549409D01*
X149680443Y-88705934D01*
X149731963Y-88875773D01*
X149749359Y-89052400D01*
X149731963Y-89229027D01*
X149680443Y-89398866D01*
X149596778Y-89555391D01*
X149567448Y-89591129D01*
X149484186Y-89692586D01*
X149382729Y-89775848D01*
X149346991Y-89805178D01*
X149190466Y-89888843D01*
X149020627Y-89940363D01*
X148954442Y-89946882D01*
X148888260Y-89953400D01*
X148799740Y-89953400D01*
X148733558Y-89946882D01*
X148667373Y-89940363D01*
X148497534Y-89888843D01*
X148341009Y-89805178D01*
X148305271Y-89775848D01*
X148203814Y-89692586D01*
X148120552Y-89591129D01*
X148091222Y-89555391D01*
X148007557Y-89398866D01*
X147956037Y-89229027D01*
X147938641Y-89052400D01*
X147956037Y-88875773D01*
X148007557Y-88705934D01*
X148091222Y-88549409D01*
X148120552Y-88513671D01*
X148203814Y-88412214D01*
X148305271Y-88328952D01*
X148341009Y-88299622D01*
X148497534Y-88215957D01*
X148667373Y-88164437D01*
X148733558Y-88157918D01*
X148799740Y-88151400D01*
X148888260Y-88151400D01*
X148954442Y-88157918D01*
X148954442Y-88157918D01*
G37*
G36*
X156574442Y-88157918D02*
G01*
X156640627Y-88164437D01*
X156810466Y-88215957D01*
X156966991Y-88299622D01*
X157002729Y-88328952D01*
X157104186Y-88412214D01*
X157187448Y-88513671D01*
X157216778Y-88549409D01*
X157300443Y-88705934D01*
X157351963Y-88875773D01*
X157369359Y-89052400D01*
X157351963Y-89229027D01*
X157300443Y-89398866D01*
X157216778Y-89555391D01*
X157187448Y-89591129D01*
X157104186Y-89692586D01*
X157002729Y-89775848D01*
X156966991Y-89805178D01*
X156810466Y-89888843D01*
X156640627Y-89940363D01*
X156574442Y-89946882D01*
X156508260Y-89953400D01*
X156419740Y-89953400D01*
X156353558Y-89946882D01*
X156287373Y-89940363D01*
X156117534Y-89888843D01*
X155961009Y-89805178D01*
X155925271Y-89775848D01*
X155823814Y-89692586D01*
X155740552Y-89591129D01*
X155711222Y-89555391D01*
X155627557Y-89398866D01*
X155576037Y-89229027D01*
X155558641Y-89052400D01*
X155576037Y-88875773D01*
X155627557Y-88705934D01*
X155711222Y-88549409D01*
X155740552Y-88513671D01*
X155823814Y-88412214D01*
X155925271Y-88328952D01*
X155961009Y-88299622D01*
X156117534Y-88215957D01*
X156287373Y-88164437D01*
X156353558Y-88157918D01*
X156419740Y-88151400D01*
X156508260Y-88151400D01*
X156574442Y-88157918D01*
X156574442Y-88157918D01*
G37*
G36*
X154034442Y-88157918D02*
G01*
X154100627Y-88164437D01*
X154270466Y-88215957D01*
X154426991Y-88299622D01*
X154462729Y-88328952D01*
X154564186Y-88412214D01*
X154647448Y-88513671D01*
X154676778Y-88549409D01*
X154760443Y-88705934D01*
X154811963Y-88875773D01*
X154829359Y-89052400D01*
X154811963Y-89229027D01*
X154760443Y-89398866D01*
X154676778Y-89555391D01*
X154647448Y-89591129D01*
X154564186Y-89692586D01*
X154462729Y-89775848D01*
X154426991Y-89805178D01*
X154270466Y-89888843D01*
X154100627Y-89940363D01*
X154034442Y-89946882D01*
X153968260Y-89953400D01*
X153879740Y-89953400D01*
X153813558Y-89946882D01*
X153747373Y-89940363D01*
X153577534Y-89888843D01*
X153421009Y-89805178D01*
X153385271Y-89775848D01*
X153283814Y-89692586D01*
X153200552Y-89591129D01*
X153171222Y-89555391D01*
X153087557Y-89398866D01*
X153036037Y-89229027D01*
X153018641Y-89052400D01*
X153036037Y-88875773D01*
X153087557Y-88705934D01*
X153171222Y-88549409D01*
X153200552Y-88513671D01*
X153283814Y-88412214D01*
X153385271Y-88328952D01*
X153421009Y-88299622D01*
X153577534Y-88215957D01*
X153747373Y-88164437D01*
X153813558Y-88157918D01*
X153879740Y-88151400D01*
X153968260Y-88151400D01*
X154034442Y-88157918D01*
X154034442Y-88157918D01*
G37*
G36*
X151494442Y-88157918D02*
G01*
X151560627Y-88164437D01*
X151730466Y-88215957D01*
X151886991Y-88299622D01*
X151922729Y-88328952D01*
X152024186Y-88412214D01*
X152107448Y-88513671D01*
X152136778Y-88549409D01*
X152220443Y-88705934D01*
X152271963Y-88875773D01*
X152289359Y-89052400D01*
X152271963Y-89229027D01*
X152220443Y-89398866D01*
X152136778Y-89555391D01*
X152107448Y-89591129D01*
X152024186Y-89692586D01*
X151922729Y-89775848D01*
X151886991Y-89805178D01*
X151730466Y-89888843D01*
X151560627Y-89940363D01*
X151494442Y-89946882D01*
X151428260Y-89953400D01*
X151339740Y-89953400D01*
X151273558Y-89946882D01*
X151207373Y-89940363D01*
X151037534Y-89888843D01*
X150881009Y-89805178D01*
X150845271Y-89775848D01*
X150743814Y-89692586D01*
X150660552Y-89591129D01*
X150631222Y-89555391D01*
X150547557Y-89398866D01*
X150496037Y-89229027D01*
X150478641Y-89052400D01*
X150496037Y-88875773D01*
X150547557Y-88705934D01*
X150631222Y-88549409D01*
X150660552Y-88513671D01*
X150743814Y-88412214D01*
X150845271Y-88328952D01*
X150881009Y-88299622D01*
X151037534Y-88215957D01*
X151207373Y-88164437D01*
X151273558Y-88157918D01*
X151339740Y-88151400D01*
X151428260Y-88151400D01*
X151494442Y-88157918D01*
X151494442Y-88157918D01*
G37*
G36*
X111645000Y-89953400D02*
G01*
X109843000Y-89953400D01*
X109843000Y-88151400D01*
X111645000Y-88151400D01*
X111645000Y-89953400D01*
X111645000Y-89953400D01*
G37*
G36*
X113394442Y-88157918D02*
G01*
X113460627Y-88164437D01*
X113630466Y-88215957D01*
X113786991Y-88299622D01*
X113822729Y-88328952D01*
X113924186Y-88412214D01*
X114007448Y-88513671D01*
X114036778Y-88549409D01*
X114120443Y-88705934D01*
X114171963Y-88875773D01*
X114189359Y-89052400D01*
X114171963Y-89229027D01*
X114120443Y-89398866D01*
X114036778Y-89555391D01*
X114007448Y-89591129D01*
X113924186Y-89692586D01*
X113822729Y-89775848D01*
X113786991Y-89805178D01*
X113630466Y-89888843D01*
X113460627Y-89940363D01*
X113394442Y-89946882D01*
X113328260Y-89953400D01*
X113239740Y-89953400D01*
X113173558Y-89946882D01*
X113107373Y-89940363D01*
X112937534Y-89888843D01*
X112781009Y-89805178D01*
X112745271Y-89775848D01*
X112643814Y-89692586D01*
X112560552Y-89591129D01*
X112531222Y-89555391D01*
X112447557Y-89398866D01*
X112396037Y-89229027D01*
X112378641Y-89052400D01*
X112396037Y-88875773D01*
X112447557Y-88705934D01*
X112531222Y-88549409D01*
X112560552Y-88513671D01*
X112643814Y-88412214D01*
X112745271Y-88328952D01*
X112781009Y-88299622D01*
X112937534Y-88215957D01*
X113107373Y-88164437D01*
X113173558Y-88157918D01*
X113239740Y-88151400D01*
X113328260Y-88151400D01*
X113394442Y-88157918D01*
X113394442Y-88157918D01*
G37*
G36*
X115934442Y-88157918D02*
G01*
X116000627Y-88164437D01*
X116170466Y-88215957D01*
X116326991Y-88299622D01*
X116362729Y-88328952D01*
X116464186Y-88412214D01*
X116547448Y-88513671D01*
X116576778Y-88549409D01*
X116660443Y-88705934D01*
X116711963Y-88875773D01*
X116729359Y-89052400D01*
X116711963Y-89229027D01*
X116660443Y-89398866D01*
X116576778Y-89555391D01*
X116547448Y-89591129D01*
X116464186Y-89692586D01*
X116362729Y-89775848D01*
X116326991Y-89805178D01*
X116170466Y-89888843D01*
X116000627Y-89940363D01*
X115934442Y-89946882D01*
X115868260Y-89953400D01*
X115779740Y-89953400D01*
X115713558Y-89946882D01*
X115647373Y-89940363D01*
X115477534Y-89888843D01*
X115321009Y-89805178D01*
X115285271Y-89775848D01*
X115183814Y-89692586D01*
X115100552Y-89591129D01*
X115071222Y-89555391D01*
X114987557Y-89398866D01*
X114936037Y-89229027D01*
X114918641Y-89052400D01*
X114936037Y-88875773D01*
X114987557Y-88705934D01*
X115071222Y-88549409D01*
X115100552Y-88513671D01*
X115183814Y-88412214D01*
X115285271Y-88328952D01*
X115321009Y-88299622D01*
X115477534Y-88215957D01*
X115647373Y-88164437D01*
X115713558Y-88157918D01*
X115779740Y-88151400D01*
X115868260Y-88151400D01*
X115934442Y-88157918D01*
X115934442Y-88157918D01*
G37*
G36*
X118474442Y-88157918D02*
G01*
X118540627Y-88164437D01*
X118710466Y-88215957D01*
X118866991Y-88299622D01*
X118902729Y-88328952D01*
X119004186Y-88412214D01*
X119087448Y-88513671D01*
X119116778Y-88549409D01*
X119200443Y-88705934D01*
X119251963Y-88875773D01*
X119269359Y-89052400D01*
X119251963Y-89229027D01*
X119200443Y-89398866D01*
X119116778Y-89555391D01*
X119087448Y-89591129D01*
X119004186Y-89692586D01*
X118902729Y-89775848D01*
X118866991Y-89805178D01*
X118710466Y-89888843D01*
X118540627Y-89940363D01*
X118474442Y-89946882D01*
X118408260Y-89953400D01*
X118319740Y-89953400D01*
X118253558Y-89946882D01*
X118187373Y-89940363D01*
X118017534Y-89888843D01*
X117861009Y-89805178D01*
X117825271Y-89775848D01*
X117723814Y-89692586D01*
X117640552Y-89591129D01*
X117611222Y-89555391D01*
X117527557Y-89398866D01*
X117476037Y-89229027D01*
X117458641Y-89052400D01*
X117476037Y-88875773D01*
X117527557Y-88705934D01*
X117611222Y-88549409D01*
X117640552Y-88513671D01*
X117723814Y-88412214D01*
X117825271Y-88328952D01*
X117861009Y-88299622D01*
X118017534Y-88215957D01*
X118187373Y-88164437D01*
X118253558Y-88157918D01*
X118319740Y-88151400D01*
X118408260Y-88151400D01*
X118474442Y-88157918D01*
X118474442Y-88157918D01*
G37*
G36*
X121014442Y-88157918D02*
G01*
X121080627Y-88164437D01*
X121250466Y-88215957D01*
X121406991Y-88299622D01*
X121442729Y-88328952D01*
X121544186Y-88412214D01*
X121627448Y-88513671D01*
X121656778Y-88549409D01*
X121740443Y-88705934D01*
X121791963Y-88875773D01*
X121809359Y-89052400D01*
X121791963Y-89229027D01*
X121740443Y-89398866D01*
X121656778Y-89555391D01*
X121627448Y-89591129D01*
X121544186Y-89692586D01*
X121442729Y-89775848D01*
X121406991Y-89805178D01*
X121250466Y-89888843D01*
X121080627Y-89940363D01*
X121014442Y-89946882D01*
X120948260Y-89953400D01*
X120859740Y-89953400D01*
X120793558Y-89946882D01*
X120727373Y-89940363D01*
X120557534Y-89888843D01*
X120401009Y-89805178D01*
X120365271Y-89775848D01*
X120263814Y-89692586D01*
X120180552Y-89591129D01*
X120151222Y-89555391D01*
X120067557Y-89398866D01*
X120016037Y-89229027D01*
X119998641Y-89052400D01*
X120016037Y-88875773D01*
X120067557Y-88705934D01*
X120151222Y-88549409D01*
X120180552Y-88513671D01*
X120263814Y-88412214D01*
X120365271Y-88328952D01*
X120401009Y-88299622D01*
X120557534Y-88215957D01*
X120727373Y-88164437D01*
X120793558Y-88157918D01*
X120859740Y-88151400D01*
X120948260Y-88151400D01*
X121014442Y-88157918D01*
X121014442Y-88157918D01*
G37*
G36*
X126094442Y-88157918D02*
G01*
X126160627Y-88164437D01*
X126330466Y-88215957D01*
X126486991Y-88299622D01*
X126522729Y-88328952D01*
X126624186Y-88412214D01*
X126707448Y-88513671D01*
X126736778Y-88549409D01*
X126820443Y-88705934D01*
X126871963Y-88875773D01*
X126889359Y-89052400D01*
X126871963Y-89229027D01*
X126820443Y-89398866D01*
X126736778Y-89555391D01*
X126707448Y-89591129D01*
X126624186Y-89692586D01*
X126522729Y-89775848D01*
X126486991Y-89805178D01*
X126330466Y-89888843D01*
X126160627Y-89940363D01*
X126094442Y-89946882D01*
X126028260Y-89953400D01*
X125939740Y-89953400D01*
X125873558Y-89946882D01*
X125807373Y-89940363D01*
X125637534Y-89888843D01*
X125481009Y-89805178D01*
X125445271Y-89775848D01*
X125343814Y-89692586D01*
X125260552Y-89591129D01*
X125231222Y-89555391D01*
X125147557Y-89398866D01*
X125096037Y-89229027D01*
X125078641Y-89052400D01*
X125096037Y-88875773D01*
X125147557Y-88705934D01*
X125231222Y-88549409D01*
X125260552Y-88513671D01*
X125343814Y-88412214D01*
X125445271Y-88328952D01*
X125481009Y-88299622D01*
X125637534Y-88215957D01*
X125807373Y-88164437D01*
X125873558Y-88157918D01*
X125939740Y-88151400D01*
X126028260Y-88151400D01*
X126094442Y-88157918D01*
X126094442Y-88157918D01*
G37*
G36*
X123554442Y-88157918D02*
G01*
X123620627Y-88164437D01*
X123790466Y-88215957D01*
X123946991Y-88299622D01*
X123982729Y-88328952D01*
X124084186Y-88412214D01*
X124167448Y-88513671D01*
X124196778Y-88549409D01*
X124280443Y-88705934D01*
X124331963Y-88875773D01*
X124349359Y-89052400D01*
X124331963Y-89229027D01*
X124280443Y-89398866D01*
X124196778Y-89555391D01*
X124167448Y-89591129D01*
X124084186Y-89692586D01*
X123982729Y-89775848D01*
X123946991Y-89805178D01*
X123790466Y-89888843D01*
X123620627Y-89940363D01*
X123554442Y-89946882D01*
X123488260Y-89953400D01*
X123399740Y-89953400D01*
X123333558Y-89946882D01*
X123267373Y-89940363D01*
X123097534Y-89888843D01*
X122941009Y-89805178D01*
X122905271Y-89775848D01*
X122803814Y-89692586D01*
X122720552Y-89591129D01*
X122691222Y-89555391D01*
X122607557Y-89398866D01*
X122556037Y-89229027D01*
X122538641Y-89052400D01*
X122556037Y-88875773D01*
X122607557Y-88705934D01*
X122691222Y-88549409D01*
X122720552Y-88513671D01*
X122803814Y-88412214D01*
X122905271Y-88328952D01*
X122941009Y-88299622D01*
X123097534Y-88215957D01*
X123267373Y-88164437D01*
X123333558Y-88157918D01*
X123399740Y-88151400D01*
X123488260Y-88151400D01*
X123554442Y-88157918D01*
X123554442Y-88157918D01*
G37*
G36*
X136254442Y-88157918D02*
G01*
X136320627Y-88164437D01*
X136490466Y-88215957D01*
X136646991Y-88299622D01*
X136682729Y-88328952D01*
X136784186Y-88412214D01*
X136867448Y-88513671D01*
X136896778Y-88549409D01*
X136980443Y-88705934D01*
X137031963Y-88875773D01*
X137049359Y-89052400D01*
X137031963Y-89229027D01*
X136980443Y-89398866D01*
X136896778Y-89555391D01*
X136867448Y-89591129D01*
X136784186Y-89692586D01*
X136682729Y-89775848D01*
X136646991Y-89805178D01*
X136490466Y-89888843D01*
X136320627Y-89940363D01*
X136254442Y-89946882D01*
X136188260Y-89953400D01*
X136099740Y-89953400D01*
X136033558Y-89946882D01*
X135967373Y-89940363D01*
X135797534Y-89888843D01*
X135641009Y-89805178D01*
X135605271Y-89775848D01*
X135503814Y-89692586D01*
X135420552Y-89591129D01*
X135391222Y-89555391D01*
X135307557Y-89398866D01*
X135256037Y-89229027D01*
X135238641Y-89052400D01*
X135256037Y-88875773D01*
X135307557Y-88705934D01*
X135391222Y-88549409D01*
X135420552Y-88513671D01*
X135503814Y-88412214D01*
X135605271Y-88328952D01*
X135641009Y-88299622D01*
X135797534Y-88215957D01*
X135967373Y-88164437D01*
X136033558Y-88157918D01*
X136099740Y-88151400D01*
X136188260Y-88151400D01*
X136254442Y-88157918D01*
X136254442Y-88157918D01*
G37*
G36*
X141334442Y-88157918D02*
G01*
X141400627Y-88164437D01*
X141570466Y-88215957D01*
X141726991Y-88299622D01*
X141762729Y-88328952D01*
X141864186Y-88412214D01*
X141947448Y-88513671D01*
X141976778Y-88549409D01*
X142060443Y-88705934D01*
X142111963Y-88875773D01*
X142129359Y-89052400D01*
X142111963Y-89229027D01*
X142060443Y-89398866D01*
X141976778Y-89555391D01*
X141947448Y-89591129D01*
X141864186Y-89692586D01*
X141762729Y-89775848D01*
X141726991Y-89805178D01*
X141570466Y-89888843D01*
X141400627Y-89940363D01*
X141334442Y-89946882D01*
X141268260Y-89953400D01*
X141179740Y-89953400D01*
X141113558Y-89946882D01*
X141047373Y-89940363D01*
X140877534Y-89888843D01*
X140721009Y-89805178D01*
X140685271Y-89775848D01*
X140583814Y-89692586D01*
X140500552Y-89591129D01*
X140471222Y-89555391D01*
X140387557Y-89398866D01*
X140336037Y-89229027D01*
X140318641Y-89052400D01*
X140336037Y-88875773D01*
X140387557Y-88705934D01*
X140471222Y-88549409D01*
X140500552Y-88513671D01*
X140583814Y-88412214D01*
X140685271Y-88328952D01*
X140721009Y-88299622D01*
X140877534Y-88215957D01*
X141047373Y-88164437D01*
X141113558Y-88157918D01*
X141179740Y-88151400D01*
X141268260Y-88151400D01*
X141334442Y-88157918D01*
X141334442Y-88157918D01*
G37*
G36*
X143874442Y-88157918D02*
G01*
X143940627Y-88164437D01*
X144110466Y-88215957D01*
X144266991Y-88299622D01*
X144302729Y-88328952D01*
X144404186Y-88412214D01*
X144487448Y-88513671D01*
X144516778Y-88549409D01*
X144600443Y-88705934D01*
X144651963Y-88875773D01*
X144669359Y-89052400D01*
X144651963Y-89229027D01*
X144600443Y-89398866D01*
X144516778Y-89555391D01*
X144487448Y-89591129D01*
X144404186Y-89692586D01*
X144302729Y-89775848D01*
X144266991Y-89805178D01*
X144110466Y-89888843D01*
X143940627Y-89940363D01*
X143874442Y-89946882D01*
X143808260Y-89953400D01*
X143719740Y-89953400D01*
X143653558Y-89946882D01*
X143587373Y-89940363D01*
X143417534Y-89888843D01*
X143261009Y-89805178D01*
X143225271Y-89775848D01*
X143123814Y-89692586D01*
X143040552Y-89591129D01*
X143011222Y-89555391D01*
X142927557Y-89398866D01*
X142876037Y-89229027D01*
X142858641Y-89052400D01*
X142876037Y-88875773D01*
X142927557Y-88705934D01*
X143011222Y-88549409D01*
X143040552Y-88513671D01*
X143123814Y-88412214D01*
X143225271Y-88328952D01*
X143261009Y-88299622D01*
X143417534Y-88215957D01*
X143587373Y-88164437D01*
X143653558Y-88157918D01*
X143719740Y-88151400D01*
X143808260Y-88151400D01*
X143874442Y-88157918D01*
X143874442Y-88157918D01*
G37*
G36*
X138794442Y-88157918D02*
G01*
X138860627Y-88164437D01*
X139030466Y-88215957D01*
X139186991Y-88299622D01*
X139222729Y-88328952D01*
X139324186Y-88412214D01*
X139407448Y-88513671D01*
X139436778Y-88549409D01*
X139520443Y-88705934D01*
X139571963Y-88875773D01*
X139589359Y-89052400D01*
X139571963Y-89229027D01*
X139520443Y-89398866D01*
X139436778Y-89555391D01*
X139407448Y-89591129D01*
X139324186Y-89692586D01*
X139222729Y-89775848D01*
X139186991Y-89805178D01*
X139030466Y-89888843D01*
X138860627Y-89940363D01*
X138794442Y-89946882D01*
X138728260Y-89953400D01*
X138639740Y-89953400D01*
X138573558Y-89946882D01*
X138507373Y-89940363D01*
X138337534Y-89888843D01*
X138181009Y-89805178D01*
X138145271Y-89775848D01*
X138043814Y-89692586D01*
X137960552Y-89591129D01*
X137931222Y-89555391D01*
X137847557Y-89398866D01*
X137796037Y-89229027D01*
X137778641Y-89052400D01*
X137796037Y-88875773D01*
X137847557Y-88705934D01*
X137931222Y-88549409D01*
X137960552Y-88513671D01*
X138043814Y-88412214D01*
X138145271Y-88328952D01*
X138181009Y-88299622D01*
X138337534Y-88215957D01*
X138507373Y-88164437D01*
X138573558Y-88157918D01*
X138639740Y-88151400D01*
X138728260Y-88151400D01*
X138794442Y-88157918D01*
X138794442Y-88157918D01*
G37*
G36*
X133714442Y-88157918D02*
G01*
X133780627Y-88164437D01*
X133950466Y-88215957D01*
X134106991Y-88299622D01*
X134142729Y-88328952D01*
X134244186Y-88412214D01*
X134327448Y-88513671D01*
X134356778Y-88549409D01*
X134440443Y-88705934D01*
X134491963Y-88875773D01*
X134509359Y-89052400D01*
X134491963Y-89229027D01*
X134440443Y-89398866D01*
X134356778Y-89555391D01*
X134327448Y-89591129D01*
X134244186Y-89692586D01*
X134142729Y-89775848D01*
X134106991Y-89805178D01*
X133950466Y-89888843D01*
X133780627Y-89940363D01*
X133714442Y-89946882D01*
X133648260Y-89953400D01*
X133559740Y-89953400D01*
X133493558Y-89946882D01*
X133427373Y-89940363D01*
X133257534Y-89888843D01*
X133101009Y-89805178D01*
X133065271Y-89775848D01*
X132963814Y-89692586D01*
X132880552Y-89591129D01*
X132851222Y-89555391D01*
X132767557Y-89398866D01*
X132716037Y-89229027D01*
X132698641Y-89052400D01*
X132716037Y-88875773D01*
X132767557Y-88705934D01*
X132851222Y-88549409D01*
X132880552Y-88513671D01*
X132963814Y-88412214D01*
X133065271Y-88328952D01*
X133101009Y-88299622D01*
X133257534Y-88215957D01*
X133427373Y-88164437D01*
X133493558Y-88157918D01*
X133559740Y-88151400D01*
X133648260Y-88151400D01*
X133714442Y-88157918D01*
X133714442Y-88157918D01*
G37*
G36*
X131174442Y-88157918D02*
G01*
X131240627Y-88164437D01*
X131410466Y-88215957D01*
X131566991Y-88299622D01*
X131602729Y-88328952D01*
X131704186Y-88412214D01*
X131787448Y-88513671D01*
X131816778Y-88549409D01*
X131900443Y-88705934D01*
X131951963Y-88875773D01*
X131969359Y-89052400D01*
X131951963Y-89229027D01*
X131900443Y-89398866D01*
X131816778Y-89555391D01*
X131787448Y-89591129D01*
X131704186Y-89692586D01*
X131602729Y-89775848D01*
X131566991Y-89805178D01*
X131410466Y-89888843D01*
X131240627Y-89940363D01*
X131174442Y-89946882D01*
X131108260Y-89953400D01*
X131019740Y-89953400D01*
X130953558Y-89946882D01*
X130887373Y-89940363D01*
X130717534Y-89888843D01*
X130561009Y-89805178D01*
X130525271Y-89775848D01*
X130423814Y-89692586D01*
X130340552Y-89591129D01*
X130311222Y-89555391D01*
X130227557Y-89398866D01*
X130176037Y-89229027D01*
X130158641Y-89052400D01*
X130176037Y-88875773D01*
X130227557Y-88705934D01*
X130311222Y-88549409D01*
X130340552Y-88513671D01*
X130423814Y-88412214D01*
X130525271Y-88328952D01*
X130561009Y-88299622D01*
X130717534Y-88215957D01*
X130887373Y-88164437D01*
X130953558Y-88157918D01*
X131019740Y-88151400D01*
X131108260Y-88151400D01*
X131174442Y-88157918D01*
X131174442Y-88157918D01*
G37*
G36*
X128634442Y-88157918D02*
G01*
X128700627Y-88164437D01*
X128870466Y-88215957D01*
X129026991Y-88299622D01*
X129062729Y-88328952D01*
X129164186Y-88412214D01*
X129247448Y-88513671D01*
X129276778Y-88549409D01*
X129360443Y-88705934D01*
X129411963Y-88875773D01*
X129429359Y-89052400D01*
X129411963Y-89229027D01*
X129360443Y-89398866D01*
X129276778Y-89555391D01*
X129247448Y-89591129D01*
X129164186Y-89692586D01*
X129062729Y-89775848D01*
X129026991Y-89805178D01*
X128870466Y-89888843D01*
X128700627Y-89940363D01*
X128634442Y-89946882D01*
X128568260Y-89953400D01*
X128479740Y-89953400D01*
X128413558Y-89946882D01*
X128347373Y-89940363D01*
X128177534Y-89888843D01*
X128021009Y-89805178D01*
X127985271Y-89775848D01*
X127883814Y-89692586D01*
X127800552Y-89591129D01*
X127771222Y-89555391D01*
X127687557Y-89398866D01*
X127636037Y-89229027D01*
X127618641Y-89052400D01*
X127636037Y-88875773D01*
X127687557Y-88705934D01*
X127771222Y-88549409D01*
X127800552Y-88513671D01*
X127883814Y-88412214D01*
X127985271Y-88328952D01*
X128021009Y-88299622D01*
X128177534Y-88215957D01*
X128347373Y-88164437D01*
X128413558Y-88157918D01*
X128479740Y-88151400D01*
X128568260Y-88151400D01*
X128634442Y-88157918D01*
X128634442Y-88157918D01*
G37*
G36*
X128634442Y-84806018D02*
G01*
X128700627Y-84812537D01*
X128870466Y-84864057D01*
X129026991Y-84947722D01*
X129062729Y-84977052D01*
X129164186Y-85060314D01*
X129247448Y-85161771D01*
X129276778Y-85197509D01*
X129360443Y-85354034D01*
X129411963Y-85523873D01*
X129429359Y-85700500D01*
X129411963Y-85877127D01*
X129360443Y-86046966D01*
X129276778Y-86203491D01*
X129247448Y-86239229D01*
X129164186Y-86340686D01*
X129062729Y-86423948D01*
X129026991Y-86453278D01*
X128870466Y-86536943D01*
X128700627Y-86588463D01*
X128634443Y-86594981D01*
X128568260Y-86601500D01*
X128479740Y-86601500D01*
X128413557Y-86594981D01*
X128347373Y-86588463D01*
X128177534Y-86536943D01*
X128021009Y-86453278D01*
X127985271Y-86423948D01*
X127883814Y-86340686D01*
X127800552Y-86239229D01*
X127771222Y-86203491D01*
X127687557Y-86046966D01*
X127636037Y-85877127D01*
X127618641Y-85700500D01*
X127636037Y-85523873D01*
X127687557Y-85354034D01*
X127771222Y-85197509D01*
X127800552Y-85161771D01*
X127883814Y-85060314D01*
X127985271Y-84977052D01*
X128021009Y-84947722D01*
X128177534Y-84864057D01*
X128347373Y-84812537D01*
X128413558Y-84806018D01*
X128479740Y-84799500D01*
X128568260Y-84799500D01*
X128634442Y-84806018D01*
X128634442Y-84806018D01*
G37*
G36*
X141334442Y-84806018D02*
G01*
X141400627Y-84812537D01*
X141570466Y-84864057D01*
X141726991Y-84947722D01*
X141762729Y-84977052D01*
X141864186Y-85060314D01*
X141947448Y-85161771D01*
X141976778Y-85197509D01*
X142060443Y-85354034D01*
X142111963Y-85523873D01*
X142129359Y-85700500D01*
X142111963Y-85877127D01*
X142060443Y-86046966D01*
X141976778Y-86203491D01*
X141947448Y-86239229D01*
X141864186Y-86340686D01*
X141762729Y-86423948D01*
X141726991Y-86453278D01*
X141570466Y-86536943D01*
X141400627Y-86588463D01*
X141334443Y-86594981D01*
X141268260Y-86601500D01*
X141179740Y-86601500D01*
X141113557Y-86594981D01*
X141047373Y-86588463D01*
X140877534Y-86536943D01*
X140721009Y-86453278D01*
X140685271Y-86423948D01*
X140583814Y-86340686D01*
X140500552Y-86239229D01*
X140471222Y-86203491D01*
X140387557Y-86046966D01*
X140336037Y-85877127D01*
X140318641Y-85700500D01*
X140336037Y-85523873D01*
X140387557Y-85354034D01*
X140471222Y-85197509D01*
X140500552Y-85161771D01*
X140583814Y-85060314D01*
X140685271Y-84977052D01*
X140721009Y-84947722D01*
X140877534Y-84864057D01*
X141047373Y-84812537D01*
X141113558Y-84806018D01*
X141179740Y-84799500D01*
X141268260Y-84799500D01*
X141334442Y-84806018D01*
X141334442Y-84806018D01*
G37*
G36*
X146414442Y-84806018D02*
G01*
X146480627Y-84812537D01*
X146650466Y-84864057D01*
X146806991Y-84947722D01*
X146842729Y-84977052D01*
X146944186Y-85060314D01*
X147027448Y-85161771D01*
X147056778Y-85197509D01*
X147140443Y-85354034D01*
X147191963Y-85523873D01*
X147209359Y-85700500D01*
X147191963Y-85877127D01*
X147140443Y-86046966D01*
X147056778Y-86203491D01*
X147027448Y-86239229D01*
X146944186Y-86340686D01*
X146842729Y-86423948D01*
X146806991Y-86453278D01*
X146650466Y-86536943D01*
X146480627Y-86588463D01*
X146414443Y-86594981D01*
X146348260Y-86601500D01*
X146259740Y-86601500D01*
X146193557Y-86594981D01*
X146127373Y-86588463D01*
X145957534Y-86536943D01*
X145801009Y-86453278D01*
X145765271Y-86423948D01*
X145663814Y-86340686D01*
X145580552Y-86239229D01*
X145551222Y-86203491D01*
X145467557Y-86046966D01*
X145416037Y-85877127D01*
X145398641Y-85700500D01*
X145416037Y-85523873D01*
X145467557Y-85354034D01*
X145551222Y-85197509D01*
X145580552Y-85161771D01*
X145663814Y-85060314D01*
X145765271Y-84977052D01*
X145801009Y-84947722D01*
X145957534Y-84864057D01*
X146127373Y-84812537D01*
X146193558Y-84806018D01*
X146259740Y-84799500D01*
X146348260Y-84799500D01*
X146414442Y-84806018D01*
X146414442Y-84806018D01*
G37*
G36*
X148954442Y-84806018D02*
G01*
X149020627Y-84812537D01*
X149190466Y-84864057D01*
X149346991Y-84947722D01*
X149382729Y-84977052D01*
X149484186Y-85060314D01*
X149567448Y-85161771D01*
X149596778Y-85197509D01*
X149680443Y-85354034D01*
X149731963Y-85523873D01*
X149749359Y-85700500D01*
X149731963Y-85877127D01*
X149680443Y-86046966D01*
X149596778Y-86203491D01*
X149567448Y-86239229D01*
X149484186Y-86340686D01*
X149382729Y-86423948D01*
X149346991Y-86453278D01*
X149190466Y-86536943D01*
X149020627Y-86588463D01*
X148954443Y-86594981D01*
X148888260Y-86601500D01*
X148799740Y-86601500D01*
X148733557Y-86594981D01*
X148667373Y-86588463D01*
X148497534Y-86536943D01*
X148341009Y-86453278D01*
X148305271Y-86423948D01*
X148203814Y-86340686D01*
X148120552Y-86239229D01*
X148091222Y-86203491D01*
X148007557Y-86046966D01*
X147956037Y-85877127D01*
X147938641Y-85700500D01*
X147956037Y-85523873D01*
X148007557Y-85354034D01*
X148091222Y-85197509D01*
X148120552Y-85161771D01*
X148203814Y-85060314D01*
X148305271Y-84977052D01*
X148341009Y-84947722D01*
X148497534Y-84864057D01*
X148667373Y-84812537D01*
X148733558Y-84806018D01*
X148799740Y-84799500D01*
X148888260Y-84799500D01*
X148954442Y-84806018D01*
X148954442Y-84806018D01*
G37*
G36*
X138794442Y-84806018D02*
G01*
X138860627Y-84812537D01*
X139030466Y-84864057D01*
X139186991Y-84947722D01*
X139222729Y-84977052D01*
X139324186Y-85060314D01*
X139407448Y-85161771D01*
X139436778Y-85197509D01*
X139520443Y-85354034D01*
X139571963Y-85523873D01*
X139589359Y-85700500D01*
X139571963Y-85877127D01*
X139520443Y-86046966D01*
X139436778Y-86203491D01*
X139407448Y-86239229D01*
X139324186Y-86340686D01*
X139222729Y-86423948D01*
X139186991Y-86453278D01*
X139030466Y-86536943D01*
X138860627Y-86588463D01*
X138794443Y-86594981D01*
X138728260Y-86601500D01*
X138639740Y-86601500D01*
X138573557Y-86594981D01*
X138507373Y-86588463D01*
X138337534Y-86536943D01*
X138181009Y-86453278D01*
X138145271Y-86423948D01*
X138043814Y-86340686D01*
X137960552Y-86239229D01*
X137931222Y-86203491D01*
X137847557Y-86046966D01*
X137796037Y-85877127D01*
X137778641Y-85700500D01*
X137796037Y-85523873D01*
X137847557Y-85354034D01*
X137931222Y-85197509D01*
X137960552Y-85161771D01*
X138043814Y-85060314D01*
X138145271Y-84977052D01*
X138181009Y-84947722D01*
X138337534Y-84864057D01*
X138507373Y-84812537D01*
X138573558Y-84806018D01*
X138639740Y-84799500D01*
X138728260Y-84799500D01*
X138794442Y-84806018D01*
X138794442Y-84806018D01*
G37*
G36*
X136254442Y-84806018D02*
G01*
X136320627Y-84812537D01*
X136490466Y-84864057D01*
X136646991Y-84947722D01*
X136682729Y-84977052D01*
X136784186Y-85060314D01*
X136867448Y-85161771D01*
X136896778Y-85197509D01*
X136980443Y-85354034D01*
X137031963Y-85523873D01*
X137049359Y-85700500D01*
X137031963Y-85877127D01*
X136980443Y-86046966D01*
X136896778Y-86203491D01*
X136867448Y-86239229D01*
X136784186Y-86340686D01*
X136682729Y-86423948D01*
X136646991Y-86453278D01*
X136490466Y-86536943D01*
X136320627Y-86588463D01*
X136254443Y-86594981D01*
X136188260Y-86601500D01*
X136099740Y-86601500D01*
X136033557Y-86594981D01*
X135967373Y-86588463D01*
X135797534Y-86536943D01*
X135641009Y-86453278D01*
X135605271Y-86423948D01*
X135503814Y-86340686D01*
X135420552Y-86239229D01*
X135391222Y-86203491D01*
X135307557Y-86046966D01*
X135256037Y-85877127D01*
X135238641Y-85700500D01*
X135256037Y-85523873D01*
X135307557Y-85354034D01*
X135391222Y-85197509D01*
X135420552Y-85161771D01*
X135503814Y-85060314D01*
X135605271Y-84977052D01*
X135641009Y-84947722D01*
X135797534Y-84864057D01*
X135967373Y-84812537D01*
X136033558Y-84806018D01*
X136099740Y-84799500D01*
X136188260Y-84799500D01*
X136254442Y-84806018D01*
X136254442Y-84806018D01*
G37*
G36*
X133714442Y-84806018D02*
G01*
X133780627Y-84812537D01*
X133950466Y-84864057D01*
X134106991Y-84947722D01*
X134142729Y-84977052D01*
X134244186Y-85060314D01*
X134327448Y-85161771D01*
X134356778Y-85197509D01*
X134440443Y-85354034D01*
X134491963Y-85523873D01*
X134509359Y-85700500D01*
X134491963Y-85877127D01*
X134440443Y-86046966D01*
X134356778Y-86203491D01*
X134327448Y-86239229D01*
X134244186Y-86340686D01*
X134142729Y-86423948D01*
X134106991Y-86453278D01*
X133950466Y-86536943D01*
X133780627Y-86588463D01*
X133714443Y-86594981D01*
X133648260Y-86601500D01*
X133559740Y-86601500D01*
X133493557Y-86594981D01*
X133427373Y-86588463D01*
X133257534Y-86536943D01*
X133101009Y-86453278D01*
X133065271Y-86423948D01*
X132963814Y-86340686D01*
X132880552Y-86239229D01*
X132851222Y-86203491D01*
X132767557Y-86046966D01*
X132716037Y-85877127D01*
X132698641Y-85700500D01*
X132716037Y-85523873D01*
X132767557Y-85354034D01*
X132851222Y-85197509D01*
X132880552Y-85161771D01*
X132963814Y-85060314D01*
X133065271Y-84977052D01*
X133101009Y-84947722D01*
X133257534Y-84864057D01*
X133427373Y-84812537D01*
X133493558Y-84806018D01*
X133559740Y-84799500D01*
X133648260Y-84799500D01*
X133714442Y-84806018D01*
X133714442Y-84806018D01*
G37*
G36*
X131174442Y-84806018D02*
G01*
X131240627Y-84812537D01*
X131410466Y-84864057D01*
X131566991Y-84947722D01*
X131602729Y-84977052D01*
X131704186Y-85060314D01*
X131787448Y-85161771D01*
X131816778Y-85197509D01*
X131900443Y-85354034D01*
X131951963Y-85523873D01*
X131969359Y-85700500D01*
X131951963Y-85877127D01*
X131900443Y-86046966D01*
X131816778Y-86203491D01*
X131787448Y-86239229D01*
X131704186Y-86340686D01*
X131602729Y-86423948D01*
X131566991Y-86453278D01*
X131410466Y-86536943D01*
X131240627Y-86588463D01*
X131174443Y-86594981D01*
X131108260Y-86601500D01*
X131019740Y-86601500D01*
X130953557Y-86594981D01*
X130887373Y-86588463D01*
X130717534Y-86536943D01*
X130561009Y-86453278D01*
X130525271Y-86423948D01*
X130423814Y-86340686D01*
X130340552Y-86239229D01*
X130311222Y-86203491D01*
X130227557Y-86046966D01*
X130176037Y-85877127D01*
X130158641Y-85700500D01*
X130176037Y-85523873D01*
X130227557Y-85354034D01*
X130311222Y-85197509D01*
X130340552Y-85161771D01*
X130423814Y-85060314D01*
X130525271Y-84977052D01*
X130561009Y-84947722D01*
X130717534Y-84864057D01*
X130887373Y-84812537D01*
X130953558Y-84806018D01*
X131019740Y-84799500D01*
X131108260Y-84799500D01*
X131174442Y-84806018D01*
X131174442Y-84806018D01*
G37*
G36*
X126094442Y-84806018D02*
G01*
X126160627Y-84812537D01*
X126330466Y-84864057D01*
X126486991Y-84947722D01*
X126522729Y-84977052D01*
X126624186Y-85060314D01*
X126707448Y-85161771D01*
X126736778Y-85197509D01*
X126820443Y-85354034D01*
X126871963Y-85523873D01*
X126889359Y-85700500D01*
X126871963Y-85877127D01*
X126820443Y-86046966D01*
X126736778Y-86203491D01*
X126707448Y-86239229D01*
X126624186Y-86340686D01*
X126522729Y-86423948D01*
X126486991Y-86453278D01*
X126330466Y-86536943D01*
X126160627Y-86588463D01*
X126094443Y-86594981D01*
X126028260Y-86601500D01*
X125939740Y-86601500D01*
X125873557Y-86594981D01*
X125807373Y-86588463D01*
X125637534Y-86536943D01*
X125481009Y-86453278D01*
X125445271Y-86423948D01*
X125343814Y-86340686D01*
X125260552Y-86239229D01*
X125231222Y-86203491D01*
X125147557Y-86046966D01*
X125096037Y-85877127D01*
X125078641Y-85700500D01*
X125096037Y-85523873D01*
X125147557Y-85354034D01*
X125231222Y-85197509D01*
X125260552Y-85161771D01*
X125343814Y-85060314D01*
X125445271Y-84977052D01*
X125481009Y-84947722D01*
X125637534Y-84864057D01*
X125807373Y-84812537D01*
X125873558Y-84806018D01*
X125939740Y-84799500D01*
X126028260Y-84799500D01*
X126094442Y-84806018D01*
X126094442Y-84806018D01*
G37*
G36*
X123554442Y-84806018D02*
G01*
X123620627Y-84812537D01*
X123790466Y-84864057D01*
X123946991Y-84947722D01*
X123982729Y-84977052D01*
X124084186Y-85060314D01*
X124167448Y-85161771D01*
X124196778Y-85197509D01*
X124280443Y-85354034D01*
X124331963Y-85523873D01*
X124349359Y-85700500D01*
X124331963Y-85877127D01*
X124280443Y-86046966D01*
X124196778Y-86203491D01*
X124167448Y-86239229D01*
X124084186Y-86340686D01*
X123982729Y-86423948D01*
X123946991Y-86453278D01*
X123790466Y-86536943D01*
X123620627Y-86588463D01*
X123554443Y-86594981D01*
X123488260Y-86601500D01*
X123399740Y-86601500D01*
X123333557Y-86594981D01*
X123267373Y-86588463D01*
X123097534Y-86536943D01*
X122941009Y-86453278D01*
X122905271Y-86423948D01*
X122803814Y-86340686D01*
X122720552Y-86239229D01*
X122691222Y-86203491D01*
X122607557Y-86046966D01*
X122556037Y-85877127D01*
X122538641Y-85700500D01*
X122556037Y-85523873D01*
X122607557Y-85354034D01*
X122691222Y-85197509D01*
X122720552Y-85161771D01*
X122803814Y-85060314D01*
X122905271Y-84977052D01*
X122941009Y-84947722D01*
X123097534Y-84864057D01*
X123267373Y-84812537D01*
X123333558Y-84806018D01*
X123399740Y-84799500D01*
X123488260Y-84799500D01*
X123554442Y-84806018D01*
X123554442Y-84806018D01*
G37*
G36*
X121014442Y-84806018D02*
G01*
X121080627Y-84812537D01*
X121250466Y-84864057D01*
X121406991Y-84947722D01*
X121442729Y-84977052D01*
X121544186Y-85060314D01*
X121627448Y-85161771D01*
X121656778Y-85197509D01*
X121740443Y-85354034D01*
X121791963Y-85523873D01*
X121809359Y-85700500D01*
X121791963Y-85877127D01*
X121740443Y-86046966D01*
X121656778Y-86203491D01*
X121627448Y-86239229D01*
X121544186Y-86340686D01*
X121442729Y-86423948D01*
X121406991Y-86453278D01*
X121250466Y-86536943D01*
X121080627Y-86588463D01*
X121014443Y-86594981D01*
X120948260Y-86601500D01*
X120859740Y-86601500D01*
X120793557Y-86594981D01*
X120727373Y-86588463D01*
X120557534Y-86536943D01*
X120401009Y-86453278D01*
X120365271Y-86423948D01*
X120263814Y-86340686D01*
X120180552Y-86239229D01*
X120151222Y-86203491D01*
X120067557Y-86046966D01*
X120016037Y-85877127D01*
X119998641Y-85700500D01*
X120016037Y-85523873D01*
X120067557Y-85354034D01*
X120151222Y-85197509D01*
X120180552Y-85161771D01*
X120263814Y-85060314D01*
X120365271Y-84977052D01*
X120401009Y-84947722D01*
X120557534Y-84864057D01*
X120727373Y-84812537D01*
X120793558Y-84806018D01*
X120859740Y-84799500D01*
X120948260Y-84799500D01*
X121014442Y-84806018D01*
X121014442Y-84806018D01*
G37*
G36*
X143874442Y-84806018D02*
G01*
X143940627Y-84812537D01*
X144110466Y-84864057D01*
X144266991Y-84947722D01*
X144302729Y-84977052D01*
X144404186Y-85060314D01*
X144487448Y-85161771D01*
X144516778Y-85197509D01*
X144600443Y-85354034D01*
X144651963Y-85523873D01*
X144669359Y-85700500D01*
X144651963Y-85877127D01*
X144600443Y-86046966D01*
X144516778Y-86203491D01*
X144487448Y-86239229D01*
X144404186Y-86340686D01*
X144302729Y-86423948D01*
X144266991Y-86453278D01*
X144110466Y-86536943D01*
X143940627Y-86588463D01*
X143874443Y-86594981D01*
X143808260Y-86601500D01*
X143719740Y-86601500D01*
X143653557Y-86594981D01*
X143587373Y-86588463D01*
X143417534Y-86536943D01*
X143261009Y-86453278D01*
X143225271Y-86423948D01*
X143123814Y-86340686D01*
X143040552Y-86239229D01*
X143011222Y-86203491D01*
X142927557Y-86046966D01*
X142876037Y-85877127D01*
X142858641Y-85700500D01*
X142876037Y-85523873D01*
X142927557Y-85354034D01*
X143011222Y-85197509D01*
X143040552Y-85161771D01*
X143123814Y-85060314D01*
X143225271Y-84977052D01*
X143261009Y-84947722D01*
X143417534Y-84864057D01*
X143587373Y-84812537D01*
X143653558Y-84806018D01*
X143719740Y-84799500D01*
X143808260Y-84799500D01*
X143874442Y-84806018D01*
X143874442Y-84806018D01*
G37*
G36*
X118474442Y-84806018D02*
G01*
X118540627Y-84812537D01*
X118710466Y-84864057D01*
X118866991Y-84947722D01*
X118902729Y-84977052D01*
X119004186Y-85060314D01*
X119087448Y-85161771D01*
X119116778Y-85197509D01*
X119200443Y-85354034D01*
X119251963Y-85523873D01*
X119269359Y-85700500D01*
X119251963Y-85877127D01*
X119200443Y-86046966D01*
X119116778Y-86203491D01*
X119087448Y-86239229D01*
X119004186Y-86340686D01*
X118902729Y-86423948D01*
X118866991Y-86453278D01*
X118710466Y-86536943D01*
X118540627Y-86588463D01*
X118474443Y-86594981D01*
X118408260Y-86601500D01*
X118319740Y-86601500D01*
X118253557Y-86594981D01*
X118187373Y-86588463D01*
X118017534Y-86536943D01*
X117861009Y-86453278D01*
X117825271Y-86423948D01*
X117723814Y-86340686D01*
X117640552Y-86239229D01*
X117611222Y-86203491D01*
X117527557Y-86046966D01*
X117476037Y-85877127D01*
X117458641Y-85700500D01*
X117476037Y-85523873D01*
X117527557Y-85354034D01*
X117611222Y-85197509D01*
X117640552Y-85161771D01*
X117723814Y-85060314D01*
X117825271Y-84977052D01*
X117861009Y-84947722D01*
X118017534Y-84864057D01*
X118187373Y-84812537D01*
X118253558Y-84806018D01*
X118319740Y-84799500D01*
X118408260Y-84799500D01*
X118474442Y-84806018D01*
X118474442Y-84806018D01*
G37*
G36*
X115934442Y-84806018D02*
G01*
X116000627Y-84812537D01*
X116170466Y-84864057D01*
X116326991Y-84947722D01*
X116362729Y-84977052D01*
X116464186Y-85060314D01*
X116547448Y-85161771D01*
X116576778Y-85197509D01*
X116660443Y-85354034D01*
X116711963Y-85523873D01*
X116729359Y-85700500D01*
X116711963Y-85877127D01*
X116660443Y-86046966D01*
X116576778Y-86203491D01*
X116547448Y-86239229D01*
X116464186Y-86340686D01*
X116362729Y-86423948D01*
X116326991Y-86453278D01*
X116170466Y-86536943D01*
X116000627Y-86588463D01*
X115934443Y-86594981D01*
X115868260Y-86601500D01*
X115779740Y-86601500D01*
X115713557Y-86594981D01*
X115647373Y-86588463D01*
X115477534Y-86536943D01*
X115321009Y-86453278D01*
X115285271Y-86423948D01*
X115183814Y-86340686D01*
X115100552Y-86239229D01*
X115071222Y-86203491D01*
X114987557Y-86046966D01*
X114936037Y-85877127D01*
X114918641Y-85700500D01*
X114936037Y-85523873D01*
X114987557Y-85354034D01*
X115071222Y-85197509D01*
X115100552Y-85161771D01*
X115183814Y-85060314D01*
X115285271Y-84977052D01*
X115321009Y-84947722D01*
X115477534Y-84864057D01*
X115647373Y-84812537D01*
X115713558Y-84806018D01*
X115779740Y-84799500D01*
X115868260Y-84799500D01*
X115934442Y-84806018D01*
X115934442Y-84806018D01*
G37*
G36*
X113394442Y-84806018D02*
G01*
X113460627Y-84812537D01*
X113630466Y-84864057D01*
X113786991Y-84947722D01*
X113822729Y-84977052D01*
X113924186Y-85060314D01*
X114007448Y-85161771D01*
X114036778Y-85197509D01*
X114120443Y-85354034D01*
X114171963Y-85523873D01*
X114189359Y-85700500D01*
X114171963Y-85877127D01*
X114120443Y-86046966D01*
X114036778Y-86203491D01*
X114007448Y-86239229D01*
X113924186Y-86340686D01*
X113822729Y-86423948D01*
X113786991Y-86453278D01*
X113630466Y-86536943D01*
X113460627Y-86588463D01*
X113394443Y-86594981D01*
X113328260Y-86601500D01*
X113239740Y-86601500D01*
X113173557Y-86594981D01*
X113107373Y-86588463D01*
X112937534Y-86536943D01*
X112781009Y-86453278D01*
X112745271Y-86423948D01*
X112643814Y-86340686D01*
X112560552Y-86239229D01*
X112531222Y-86203491D01*
X112447557Y-86046966D01*
X112396037Y-85877127D01*
X112378641Y-85700500D01*
X112396037Y-85523873D01*
X112447557Y-85354034D01*
X112531222Y-85197509D01*
X112560552Y-85161771D01*
X112643814Y-85060314D01*
X112745271Y-84977052D01*
X112781009Y-84947722D01*
X112937534Y-84864057D01*
X113107373Y-84812537D01*
X113173558Y-84806018D01*
X113239740Y-84799500D01*
X113328260Y-84799500D01*
X113394442Y-84806018D01*
X113394442Y-84806018D01*
G37*
G36*
X111645000Y-86601500D02*
G01*
X109843000Y-86601500D01*
X109843000Y-84799500D01*
X111645000Y-84799500D01*
X111645000Y-86601500D01*
X111645000Y-86601500D01*
G37*
G36*
X111645000Y-78625000D02*
G01*
X109843000Y-78625000D01*
X109843000Y-76823000D01*
X111645000Y-76823000D01*
X111645000Y-78625000D01*
X111645000Y-78625000D01*
G37*
G36*
X143874443Y-76829519D02*
G01*
X143940627Y-76836037D01*
X144110466Y-76887557D01*
X144266991Y-76971222D01*
X144302729Y-77000552D01*
X144404186Y-77083814D01*
X144487448Y-77185271D01*
X144516778Y-77221009D01*
X144600443Y-77377534D01*
X144651963Y-77547373D01*
X144669359Y-77724000D01*
X144651963Y-77900627D01*
X144600443Y-78070466D01*
X144516778Y-78226991D01*
X144487448Y-78262729D01*
X144404186Y-78364186D01*
X144302729Y-78447448D01*
X144266991Y-78476778D01*
X144110466Y-78560443D01*
X143940627Y-78611963D01*
X143874442Y-78618482D01*
X143808260Y-78625000D01*
X143719740Y-78625000D01*
X143653558Y-78618482D01*
X143587373Y-78611963D01*
X143417534Y-78560443D01*
X143261009Y-78476778D01*
X143225271Y-78447448D01*
X143123814Y-78364186D01*
X143040552Y-78262729D01*
X143011222Y-78226991D01*
X142927557Y-78070466D01*
X142876037Y-77900627D01*
X142858641Y-77724000D01*
X142876037Y-77547373D01*
X142927557Y-77377534D01*
X143011222Y-77221009D01*
X143040552Y-77185271D01*
X143123814Y-77083814D01*
X143225271Y-77000552D01*
X143261009Y-76971222D01*
X143417534Y-76887557D01*
X143587373Y-76836037D01*
X143653557Y-76829519D01*
X143719740Y-76823000D01*
X143808260Y-76823000D01*
X143874443Y-76829519D01*
X143874443Y-76829519D01*
G37*
G36*
X136254443Y-76829519D02*
G01*
X136320627Y-76836037D01*
X136490466Y-76887557D01*
X136646991Y-76971222D01*
X136682729Y-77000552D01*
X136784186Y-77083814D01*
X136867448Y-77185271D01*
X136896778Y-77221009D01*
X136980443Y-77377534D01*
X137031963Y-77547373D01*
X137049359Y-77724000D01*
X137031963Y-77900627D01*
X136980443Y-78070466D01*
X136896778Y-78226991D01*
X136867448Y-78262729D01*
X136784186Y-78364186D01*
X136682729Y-78447448D01*
X136646991Y-78476778D01*
X136490466Y-78560443D01*
X136320627Y-78611963D01*
X136254442Y-78618482D01*
X136188260Y-78625000D01*
X136099740Y-78625000D01*
X136033558Y-78618482D01*
X135967373Y-78611963D01*
X135797534Y-78560443D01*
X135641009Y-78476778D01*
X135605271Y-78447448D01*
X135503814Y-78364186D01*
X135420552Y-78262729D01*
X135391222Y-78226991D01*
X135307557Y-78070466D01*
X135256037Y-77900627D01*
X135238641Y-77724000D01*
X135256037Y-77547373D01*
X135307557Y-77377534D01*
X135391222Y-77221009D01*
X135420552Y-77185271D01*
X135503814Y-77083814D01*
X135605271Y-77000552D01*
X135641009Y-76971222D01*
X135797534Y-76887557D01*
X135967373Y-76836037D01*
X136033557Y-76829519D01*
X136099740Y-76823000D01*
X136188260Y-76823000D01*
X136254443Y-76829519D01*
X136254443Y-76829519D01*
G37*
G36*
X138794443Y-76829519D02*
G01*
X138860627Y-76836037D01*
X139030466Y-76887557D01*
X139186991Y-76971222D01*
X139222729Y-77000552D01*
X139324186Y-77083814D01*
X139407448Y-77185271D01*
X139436778Y-77221009D01*
X139520443Y-77377534D01*
X139571963Y-77547373D01*
X139589359Y-77724000D01*
X139571963Y-77900627D01*
X139520443Y-78070466D01*
X139436778Y-78226991D01*
X139407448Y-78262729D01*
X139324186Y-78364186D01*
X139222729Y-78447448D01*
X139186991Y-78476778D01*
X139030466Y-78560443D01*
X138860627Y-78611963D01*
X138794442Y-78618482D01*
X138728260Y-78625000D01*
X138639740Y-78625000D01*
X138573558Y-78618482D01*
X138507373Y-78611963D01*
X138337534Y-78560443D01*
X138181009Y-78476778D01*
X138145271Y-78447448D01*
X138043814Y-78364186D01*
X137960552Y-78262729D01*
X137931222Y-78226991D01*
X137847557Y-78070466D01*
X137796037Y-77900627D01*
X137778641Y-77724000D01*
X137796037Y-77547373D01*
X137847557Y-77377534D01*
X137931222Y-77221009D01*
X137960552Y-77185271D01*
X138043814Y-77083814D01*
X138145271Y-77000552D01*
X138181009Y-76971222D01*
X138337534Y-76887557D01*
X138507373Y-76836037D01*
X138573557Y-76829519D01*
X138639740Y-76823000D01*
X138728260Y-76823000D01*
X138794443Y-76829519D01*
X138794443Y-76829519D01*
G37*
G36*
X141334443Y-76829519D02*
G01*
X141400627Y-76836037D01*
X141570466Y-76887557D01*
X141726991Y-76971222D01*
X141762729Y-77000552D01*
X141864186Y-77083814D01*
X141947448Y-77185271D01*
X141976778Y-77221009D01*
X142060443Y-77377534D01*
X142111963Y-77547373D01*
X142129359Y-77724000D01*
X142111963Y-77900627D01*
X142060443Y-78070466D01*
X141976778Y-78226991D01*
X141947448Y-78262729D01*
X141864186Y-78364186D01*
X141762729Y-78447448D01*
X141726991Y-78476778D01*
X141570466Y-78560443D01*
X141400627Y-78611963D01*
X141334442Y-78618482D01*
X141268260Y-78625000D01*
X141179740Y-78625000D01*
X141113558Y-78618482D01*
X141047373Y-78611963D01*
X140877534Y-78560443D01*
X140721009Y-78476778D01*
X140685271Y-78447448D01*
X140583814Y-78364186D01*
X140500552Y-78262729D01*
X140471222Y-78226991D01*
X140387557Y-78070466D01*
X140336037Y-77900627D01*
X140318641Y-77724000D01*
X140336037Y-77547373D01*
X140387557Y-77377534D01*
X140471222Y-77221009D01*
X140500552Y-77185271D01*
X140583814Y-77083814D01*
X140685271Y-77000552D01*
X140721009Y-76971222D01*
X140877534Y-76887557D01*
X141047373Y-76836037D01*
X141113557Y-76829519D01*
X141179740Y-76823000D01*
X141268260Y-76823000D01*
X141334443Y-76829519D01*
X141334443Y-76829519D01*
G37*
G36*
X146414443Y-76829519D02*
G01*
X146480627Y-76836037D01*
X146650466Y-76887557D01*
X146806991Y-76971222D01*
X146842729Y-77000552D01*
X146944186Y-77083814D01*
X147027448Y-77185271D01*
X147056778Y-77221009D01*
X147140443Y-77377534D01*
X147191963Y-77547373D01*
X147209359Y-77724000D01*
X147191963Y-77900627D01*
X147140443Y-78070466D01*
X147056778Y-78226991D01*
X147027448Y-78262729D01*
X146944186Y-78364186D01*
X146842729Y-78447448D01*
X146806991Y-78476778D01*
X146650466Y-78560443D01*
X146480627Y-78611963D01*
X146414442Y-78618482D01*
X146348260Y-78625000D01*
X146259740Y-78625000D01*
X146193558Y-78618482D01*
X146127373Y-78611963D01*
X145957534Y-78560443D01*
X145801009Y-78476778D01*
X145765271Y-78447448D01*
X145663814Y-78364186D01*
X145580552Y-78262729D01*
X145551222Y-78226991D01*
X145467557Y-78070466D01*
X145416037Y-77900627D01*
X145398641Y-77724000D01*
X145416037Y-77547373D01*
X145467557Y-77377534D01*
X145551222Y-77221009D01*
X145580552Y-77185271D01*
X145663814Y-77083814D01*
X145765271Y-77000552D01*
X145801009Y-76971222D01*
X145957534Y-76887557D01*
X146127373Y-76836037D01*
X146193557Y-76829519D01*
X146259740Y-76823000D01*
X146348260Y-76823000D01*
X146414443Y-76829519D01*
X146414443Y-76829519D01*
G37*
G36*
X148954443Y-76829519D02*
G01*
X149020627Y-76836037D01*
X149190466Y-76887557D01*
X149346991Y-76971222D01*
X149382729Y-77000552D01*
X149484186Y-77083814D01*
X149567448Y-77185271D01*
X149596778Y-77221009D01*
X149680443Y-77377534D01*
X149731963Y-77547373D01*
X149749359Y-77724000D01*
X149731963Y-77900627D01*
X149680443Y-78070466D01*
X149596778Y-78226991D01*
X149567448Y-78262729D01*
X149484186Y-78364186D01*
X149382729Y-78447448D01*
X149346991Y-78476778D01*
X149190466Y-78560443D01*
X149020627Y-78611963D01*
X148954442Y-78618482D01*
X148888260Y-78625000D01*
X148799740Y-78625000D01*
X148733558Y-78618482D01*
X148667373Y-78611963D01*
X148497534Y-78560443D01*
X148341009Y-78476778D01*
X148305271Y-78447448D01*
X148203814Y-78364186D01*
X148120552Y-78262729D01*
X148091222Y-78226991D01*
X148007557Y-78070466D01*
X147956037Y-77900627D01*
X147938641Y-77724000D01*
X147956037Y-77547373D01*
X148007557Y-77377534D01*
X148091222Y-77221009D01*
X148120552Y-77185271D01*
X148203814Y-77083814D01*
X148305271Y-77000552D01*
X148341009Y-76971222D01*
X148497534Y-76887557D01*
X148667373Y-76836037D01*
X148733557Y-76829519D01*
X148799740Y-76823000D01*
X148888260Y-76823000D01*
X148954443Y-76829519D01*
X148954443Y-76829519D01*
G37*
G36*
X151494443Y-76829519D02*
G01*
X151560627Y-76836037D01*
X151730466Y-76887557D01*
X151886991Y-76971222D01*
X151922729Y-77000552D01*
X152024186Y-77083814D01*
X152107448Y-77185271D01*
X152136778Y-77221009D01*
X152220443Y-77377534D01*
X152271963Y-77547373D01*
X152289359Y-77724000D01*
X152271963Y-77900627D01*
X152220443Y-78070466D01*
X152136778Y-78226991D01*
X152107448Y-78262729D01*
X152024186Y-78364186D01*
X151922729Y-78447448D01*
X151886991Y-78476778D01*
X151730466Y-78560443D01*
X151560627Y-78611963D01*
X151494442Y-78618482D01*
X151428260Y-78625000D01*
X151339740Y-78625000D01*
X151273558Y-78618482D01*
X151207373Y-78611963D01*
X151037534Y-78560443D01*
X150881009Y-78476778D01*
X150845271Y-78447448D01*
X150743814Y-78364186D01*
X150660552Y-78262729D01*
X150631222Y-78226991D01*
X150547557Y-78070466D01*
X150496037Y-77900627D01*
X150478641Y-77724000D01*
X150496037Y-77547373D01*
X150547557Y-77377534D01*
X150631222Y-77221009D01*
X150660552Y-77185271D01*
X150743814Y-77083814D01*
X150845271Y-77000552D01*
X150881009Y-76971222D01*
X151037534Y-76887557D01*
X151207373Y-76836037D01*
X151273557Y-76829519D01*
X151339740Y-76823000D01*
X151428260Y-76823000D01*
X151494443Y-76829519D01*
X151494443Y-76829519D01*
G37*
G36*
X154034443Y-76829519D02*
G01*
X154100627Y-76836037D01*
X154270466Y-76887557D01*
X154426991Y-76971222D01*
X154462729Y-77000552D01*
X154564186Y-77083814D01*
X154647448Y-77185271D01*
X154676778Y-77221009D01*
X154760443Y-77377534D01*
X154811963Y-77547373D01*
X154829359Y-77724000D01*
X154811963Y-77900627D01*
X154760443Y-78070466D01*
X154676778Y-78226991D01*
X154647448Y-78262729D01*
X154564186Y-78364186D01*
X154462729Y-78447448D01*
X154426991Y-78476778D01*
X154270466Y-78560443D01*
X154100627Y-78611963D01*
X154034442Y-78618482D01*
X153968260Y-78625000D01*
X153879740Y-78625000D01*
X153813558Y-78618482D01*
X153747373Y-78611963D01*
X153577534Y-78560443D01*
X153421009Y-78476778D01*
X153385271Y-78447448D01*
X153283814Y-78364186D01*
X153200552Y-78262729D01*
X153171222Y-78226991D01*
X153087557Y-78070466D01*
X153036037Y-77900627D01*
X153018641Y-77724000D01*
X153036037Y-77547373D01*
X153087557Y-77377534D01*
X153171222Y-77221009D01*
X153200552Y-77185271D01*
X153283814Y-77083814D01*
X153385271Y-77000552D01*
X153421009Y-76971222D01*
X153577534Y-76887557D01*
X153747373Y-76836037D01*
X153813557Y-76829519D01*
X153879740Y-76823000D01*
X153968260Y-76823000D01*
X154034443Y-76829519D01*
X154034443Y-76829519D01*
G37*
G36*
X128634443Y-76829519D02*
G01*
X128700627Y-76836037D01*
X128870466Y-76887557D01*
X129026991Y-76971222D01*
X129062729Y-77000552D01*
X129164186Y-77083814D01*
X129247448Y-77185271D01*
X129276778Y-77221009D01*
X129360443Y-77377534D01*
X129411963Y-77547373D01*
X129429359Y-77724000D01*
X129411963Y-77900627D01*
X129360443Y-78070466D01*
X129276778Y-78226991D01*
X129247448Y-78262729D01*
X129164186Y-78364186D01*
X129062729Y-78447448D01*
X129026991Y-78476778D01*
X128870466Y-78560443D01*
X128700627Y-78611963D01*
X128634442Y-78618482D01*
X128568260Y-78625000D01*
X128479740Y-78625000D01*
X128413558Y-78618482D01*
X128347373Y-78611963D01*
X128177534Y-78560443D01*
X128021009Y-78476778D01*
X127985271Y-78447448D01*
X127883814Y-78364186D01*
X127800552Y-78262729D01*
X127771222Y-78226991D01*
X127687557Y-78070466D01*
X127636037Y-77900627D01*
X127618641Y-77724000D01*
X127636037Y-77547373D01*
X127687557Y-77377534D01*
X127771222Y-77221009D01*
X127800552Y-77185271D01*
X127883814Y-77083814D01*
X127985271Y-77000552D01*
X128021009Y-76971222D01*
X128177534Y-76887557D01*
X128347373Y-76836037D01*
X128413557Y-76829519D01*
X128479740Y-76823000D01*
X128568260Y-76823000D01*
X128634443Y-76829519D01*
X128634443Y-76829519D01*
G37*
G36*
X131174443Y-76829519D02*
G01*
X131240627Y-76836037D01*
X131410466Y-76887557D01*
X131566991Y-76971222D01*
X131602729Y-77000552D01*
X131704186Y-77083814D01*
X131787448Y-77185271D01*
X131816778Y-77221009D01*
X131900443Y-77377534D01*
X131951963Y-77547373D01*
X131969359Y-77724000D01*
X131951963Y-77900627D01*
X131900443Y-78070466D01*
X131816778Y-78226991D01*
X131787448Y-78262729D01*
X131704186Y-78364186D01*
X131602729Y-78447448D01*
X131566991Y-78476778D01*
X131410466Y-78560443D01*
X131240627Y-78611963D01*
X131174442Y-78618482D01*
X131108260Y-78625000D01*
X131019740Y-78625000D01*
X130953558Y-78618482D01*
X130887373Y-78611963D01*
X130717534Y-78560443D01*
X130561009Y-78476778D01*
X130525271Y-78447448D01*
X130423814Y-78364186D01*
X130340552Y-78262729D01*
X130311222Y-78226991D01*
X130227557Y-78070466D01*
X130176037Y-77900627D01*
X130158641Y-77724000D01*
X130176037Y-77547373D01*
X130227557Y-77377534D01*
X130311222Y-77221009D01*
X130340552Y-77185271D01*
X130423814Y-77083814D01*
X130525271Y-77000552D01*
X130561009Y-76971222D01*
X130717534Y-76887557D01*
X130887373Y-76836037D01*
X130953557Y-76829519D01*
X131019740Y-76823000D01*
X131108260Y-76823000D01*
X131174443Y-76829519D01*
X131174443Y-76829519D01*
G37*
G36*
X156574443Y-76829519D02*
G01*
X156640627Y-76836037D01*
X156810466Y-76887557D01*
X156966991Y-76971222D01*
X157002729Y-77000552D01*
X157104186Y-77083814D01*
X157187448Y-77185271D01*
X157216778Y-77221009D01*
X157300443Y-77377534D01*
X157351963Y-77547373D01*
X157369359Y-77724000D01*
X157351963Y-77900627D01*
X157300443Y-78070466D01*
X157216778Y-78226991D01*
X157187448Y-78262729D01*
X157104186Y-78364186D01*
X157002729Y-78447448D01*
X156966991Y-78476778D01*
X156810466Y-78560443D01*
X156640627Y-78611963D01*
X156574442Y-78618482D01*
X156508260Y-78625000D01*
X156419740Y-78625000D01*
X156353558Y-78618482D01*
X156287373Y-78611963D01*
X156117534Y-78560443D01*
X155961009Y-78476778D01*
X155925271Y-78447448D01*
X155823814Y-78364186D01*
X155740552Y-78262729D01*
X155711222Y-78226991D01*
X155627557Y-78070466D01*
X155576037Y-77900627D01*
X155558641Y-77724000D01*
X155576037Y-77547373D01*
X155627557Y-77377534D01*
X155711222Y-77221009D01*
X155740552Y-77185271D01*
X155823814Y-77083814D01*
X155925271Y-77000552D01*
X155961009Y-76971222D01*
X156117534Y-76887557D01*
X156287373Y-76836037D01*
X156353557Y-76829519D01*
X156419740Y-76823000D01*
X156508260Y-76823000D01*
X156574443Y-76829519D01*
X156574443Y-76829519D01*
G37*
G36*
X133714443Y-76829519D02*
G01*
X133780627Y-76836037D01*
X133950466Y-76887557D01*
X134106991Y-76971222D01*
X134142729Y-77000552D01*
X134244186Y-77083814D01*
X134327448Y-77185271D01*
X134356778Y-77221009D01*
X134440443Y-77377534D01*
X134491963Y-77547373D01*
X134509359Y-77724000D01*
X134491963Y-77900627D01*
X134440443Y-78070466D01*
X134356778Y-78226991D01*
X134327448Y-78262729D01*
X134244186Y-78364186D01*
X134142729Y-78447448D01*
X134106991Y-78476778D01*
X133950466Y-78560443D01*
X133780627Y-78611963D01*
X133714442Y-78618482D01*
X133648260Y-78625000D01*
X133559740Y-78625000D01*
X133493558Y-78618482D01*
X133427373Y-78611963D01*
X133257534Y-78560443D01*
X133101009Y-78476778D01*
X133065271Y-78447448D01*
X132963814Y-78364186D01*
X132880552Y-78262729D01*
X132851222Y-78226991D01*
X132767557Y-78070466D01*
X132716037Y-77900627D01*
X132698641Y-77724000D01*
X132716037Y-77547373D01*
X132767557Y-77377534D01*
X132851222Y-77221009D01*
X132880552Y-77185271D01*
X132963814Y-77083814D01*
X133065271Y-77000552D01*
X133101009Y-76971222D01*
X133257534Y-76887557D01*
X133427373Y-76836037D01*
X133493557Y-76829519D01*
X133559740Y-76823000D01*
X133648260Y-76823000D01*
X133714443Y-76829519D01*
X133714443Y-76829519D01*
G37*
G36*
X113394443Y-76829519D02*
G01*
X113460627Y-76836037D01*
X113630466Y-76887557D01*
X113786991Y-76971222D01*
X113822729Y-77000552D01*
X113924186Y-77083814D01*
X114007448Y-77185271D01*
X114036778Y-77221009D01*
X114120443Y-77377534D01*
X114171963Y-77547373D01*
X114189359Y-77724000D01*
X114171963Y-77900627D01*
X114120443Y-78070466D01*
X114036778Y-78226991D01*
X114007448Y-78262729D01*
X113924186Y-78364186D01*
X113822729Y-78447448D01*
X113786991Y-78476778D01*
X113630466Y-78560443D01*
X113460627Y-78611963D01*
X113394442Y-78618482D01*
X113328260Y-78625000D01*
X113239740Y-78625000D01*
X113173558Y-78618482D01*
X113107373Y-78611963D01*
X112937534Y-78560443D01*
X112781009Y-78476778D01*
X112745271Y-78447448D01*
X112643814Y-78364186D01*
X112560552Y-78262729D01*
X112531222Y-78226991D01*
X112447557Y-78070466D01*
X112396037Y-77900627D01*
X112378641Y-77724000D01*
X112396037Y-77547373D01*
X112447557Y-77377534D01*
X112531222Y-77221009D01*
X112560552Y-77185271D01*
X112643814Y-77083814D01*
X112745271Y-77000552D01*
X112781009Y-76971222D01*
X112937534Y-76887557D01*
X113107373Y-76836037D01*
X113173557Y-76829519D01*
X113239740Y-76823000D01*
X113328260Y-76823000D01*
X113394443Y-76829519D01*
X113394443Y-76829519D01*
G37*
G36*
X115934443Y-76829519D02*
G01*
X116000627Y-76836037D01*
X116170466Y-76887557D01*
X116326991Y-76971222D01*
X116362729Y-77000552D01*
X116464186Y-77083814D01*
X116547448Y-77185271D01*
X116576778Y-77221009D01*
X116660443Y-77377534D01*
X116711963Y-77547373D01*
X116729359Y-77724000D01*
X116711963Y-77900627D01*
X116660443Y-78070466D01*
X116576778Y-78226991D01*
X116547448Y-78262729D01*
X116464186Y-78364186D01*
X116362729Y-78447448D01*
X116326991Y-78476778D01*
X116170466Y-78560443D01*
X116000627Y-78611963D01*
X115934442Y-78618482D01*
X115868260Y-78625000D01*
X115779740Y-78625000D01*
X115713558Y-78618482D01*
X115647373Y-78611963D01*
X115477534Y-78560443D01*
X115321009Y-78476778D01*
X115285271Y-78447448D01*
X115183814Y-78364186D01*
X115100552Y-78262729D01*
X115071222Y-78226991D01*
X114987557Y-78070466D01*
X114936037Y-77900627D01*
X114918641Y-77724000D01*
X114936037Y-77547373D01*
X114987557Y-77377534D01*
X115071222Y-77221009D01*
X115100552Y-77185271D01*
X115183814Y-77083814D01*
X115285271Y-77000552D01*
X115321009Y-76971222D01*
X115477534Y-76887557D01*
X115647373Y-76836037D01*
X115713557Y-76829519D01*
X115779740Y-76823000D01*
X115868260Y-76823000D01*
X115934443Y-76829519D01*
X115934443Y-76829519D01*
G37*
G36*
X118474443Y-76829519D02*
G01*
X118540627Y-76836037D01*
X118710466Y-76887557D01*
X118866991Y-76971222D01*
X118902729Y-77000552D01*
X119004186Y-77083814D01*
X119087448Y-77185271D01*
X119116778Y-77221009D01*
X119200443Y-77377534D01*
X119251963Y-77547373D01*
X119269359Y-77724000D01*
X119251963Y-77900627D01*
X119200443Y-78070466D01*
X119116778Y-78226991D01*
X119087448Y-78262729D01*
X119004186Y-78364186D01*
X118902729Y-78447448D01*
X118866991Y-78476778D01*
X118710466Y-78560443D01*
X118540627Y-78611963D01*
X118474442Y-78618482D01*
X118408260Y-78625000D01*
X118319740Y-78625000D01*
X118253558Y-78618482D01*
X118187373Y-78611963D01*
X118017534Y-78560443D01*
X117861009Y-78476778D01*
X117825271Y-78447448D01*
X117723814Y-78364186D01*
X117640552Y-78262729D01*
X117611222Y-78226991D01*
X117527557Y-78070466D01*
X117476037Y-77900627D01*
X117458641Y-77724000D01*
X117476037Y-77547373D01*
X117527557Y-77377534D01*
X117611222Y-77221009D01*
X117640552Y-77185271D01*
X117723814Y-77083814D01*
X117825271Y-77000552D01*
X117861009Y-76971222D01*
X118017534Y-76887557D01*
X118187373Y-76836037D01*
X118253557Y-76829519D01*
X118319740Y-76823000D01*
X118408260Y-76823000D01*
X118474443Y-76829519D01*
X118474443Y-76829519D01*
G37*
G36*
X121014443Y-76829519D02*
G01*
X121080627Y-76836037D01*
X121250466Y-76887557D01*
X121406991Y-76971222D01*
X121442729Y-77000552D01*
X121544186Y-77083814D01*
X121627448Y-77185271D01*
X121656778Y-77221009D01*
X121740443Y-77377534D01*
X121791963Y-77547373D01*
X121809359Y-77724000D01*
X121791963Y-77900627D01*
X121740443Y-78070466D01*
X121656778Y-78226991D01*
X121627448Y-78262729D01*
X121544186Y-78364186D01*
X121442729Y-78447448D01*
X121406991Y-78476778D01*
X121250466Y-78560443D01*
X121080627Y-78611963D01*
X121014442Y-78618482D01*
X120948260Y-78625000D01*
X120859740Y-78625000D01*
X120793558Y-78618482D01*
X120727373Y-78611963D01*
X120557534Y-78560443D01*
X120401009Y-78476778D01*
X120365271Y-78447448D01*
X120263814Y-78364186D01*
X120180552Y-78262729D01*
X120151222Y-78226991D01*
X120067557Y-78070466D01*
X120016037Y-77900627D01*
X119998641Y-77724000D01*
X120016037Y-77547373D01*
X120067557Y-77377534D01*
X120151222Y-77221009D01*
X120180552Y-77185271D01*
X120263814Y-77083814D01*
X120365271Y-77000552D01*
X120401009Y-76971222D01*
X120557534Y-76887557D01*
X120727373Y-76836037D01*
X120793557Y-76829519D01*
X120859740Y-76823000D01*
X120948260Y-76823000D01*
X121014443Y-76829519D01*
X121014443Y-76829519D01*
G37*
G36*
X123554443Y-76829519D02*
G01*
X123620627Y-76836037D01*
X123790466Y-76887557D01*
X123946991Y-76971222D01*
X123982729Y-77000552D01*
X124084186Y-77083814D01*
X124167448Y-77185271D01*
X124196778Y-77221009D01*
X124280443Y-77377534D01*
X124331963Y-77547373D01*
X124349359Y-77724000D01*
X124331963Y-77900627D01*
X124280443Y-78070466D01*
X124196778Y-78226991D01*
X124167448Y-78262729D01*
X124084186Y-78364186D01*
X123982729Y-78447448D01*
X123946991Y-78476778D01*
X123790466Y-78560443D01*
X123620627Y-78611963D01*
X123554442Y-78618482D01*
X123488260Y-78625000D01*
X123399740Y-78625000D01*
X123333558Y-78618482D01*
X123267373Y-78611963D01*
X123097534Y-78560443D01*
X122941009Y-78476778D01*
X122905271Y-78447448D01*
X122803814Y-78364186D01*
X122720552Y-78262729D01*
X122691222Y-78226991D01*
X122607557Y-78070466D01*
X122556037Y-77900627D01*
X122538641Y-77724000D01*
X122556037Y-77547373D01*
X122607557Y-77377534D01*
X122691222Y-77221009D01*
X122720552Y-77185271D01*
X122803814Y-77083814D01*
X122905271Y-77000552D01*
X122941009Y-76971222D01*
X123097534Y-76887557D01*
X123267373Y-76836037D01*
X123333557Y-76829519D01*
X123399740Y-76823000D01*
X123488260Y-76823000D01*
X123554443Y-76829519D01*
X123554443Y-76829519D01*
G37*
G36*
X126094443Y-76829519D02*
G01*
X126160627Y-76836037D01*
X126330466Y-76887557D01*
X126486991Y-76971222D01*
X126522729Y-77000552D01*
X126624186Y-77083814D01*
X126707448Y-77185271D01*
X126736778Y-77221009D01*
X126820443Y-77377534D01*
X126871963Y-77547373D01*
X126889359Y-77724000D01*
X126871963Y-77900627D01*
X126820443Y-78070466D01*
X126736778Y-78226991D01*
X126707448Y-78262729D01*
X126624186Y-78364186D01*
X126522729Y-78447448D01*
X126486991Y-78476778D01*
X126330466Y-78560443D01*
X126160627Y-78611963D01*
X126094442Y-78618482D01*
X126028260Y-78625000D01*
X125939740Y-78625000D01*
X125873558Y-78618482D01*
X125807373Y-78611963D01*
X125637534Y-78560443D01*
X125481009Y-78476778D01*
X125445271Y-78447448D01*
X125343814Y-78364186D01*
X125260552Y-78262729D01*
X125231222Y-78226991D01*
X125147557Y-78070466D01*
X125096037Y-77900627D01*
X125078641Y-77724000D01*
X125096037Y-77547373D01*
X125147557Y-77377534D01*
X125231222Y-77221009D01*
X125260552Y-77185271D01*
X125343814Y-77083814D01*
X125445271Y-77000552D01*
X125481009Y-76971222D01*
X125637534Y-76887557D01*
X125807373Y-76836037D01*
X125873557Y-76829519D01*
X125939740Y-76823000D01*
X126028260Y-76823000D01*
X126094443Y-76829519D01*
X126094443Y-76829519D01*
G37*
G36*
X109735442Y-66829918D02*
G01*
X109801627Y-66836437D01*
X109971466Y-66887957D01*
X110127991Y-66971622D01*
X110163729Y-67000952D01*
X110265186Y-67084214D01*
X110348448Y-67185671D01*
X110377778Y-67221409D01*
X110461443Y-67377934D01*
X110512963Y-67547773D01*
X110530359Y-67724400D01*
X110512963Y-67901027D01*
X110461443Y-68070866D01*
X110377778Y-68227391D01*
X110348448Y-68263129D01*
X110265186Y-68364586D01*
X110163729Y-68447848D01*
X110127991Y-68477178D01*
X109971466Y-68560843D01*
X109801627Y-68612363D01*
X109735442Y-68618882D01*
X109669260Y-68625400D01*
X109580740Y-68625400D01*
X109514558Y-68618882D01*
X109448373Y-68612363D01*
X109278534Y-68560843D01*
X109122009Y-68477178D01*
X109086271Y-68447848D01*
X108984814Y-68364586D01*
X108901552Y-68263129D01*
X108872222Y-68227391D01*
X108788557Y-68070866D01*
X108737037Y-67901027D01*
X108719641Y-67724400D01*
X108737037Y-67547773D01*
X108788557Y-67377934D01*
X108872222Y-67221409D01*
X108901552Y-67185671D01*
X108984814Y-67084214D01*
X109086271Y-67000952D01*
X109122009Y-66971622D01*
X109278534Y-66887957D01*
X109448373Y-66836437D01*
X109514558Y-66829918D01*
X109580740Y-66823400D01*
X109669260Y-66823400D01*
X109735442Y-66829918D01*
X109735442Y-66829918D01*
G37*
G36*
X174815000Y-68617400D02*
G01*
X173013000Y-68617400D01*
X173013000Y-66815400D01*
X174815000Y-66815400D01*
X174815000Y-68617400D01*
X174815000Y-68617400D01*
G37*
G36*
X151741823Y-65201313D02*
G01*
X151902242Y-65249976D01*
X152034906Y-65320886D01*
X152050078Y-65328996D01*
X152179659Y-65435341D01*
X152286004Y-65564922D01*
X152286005Y-65564924D01*
X152365024Y-65712758D01*
X152413687Y-65873177D01*
X152430117Y-66040000D01*
X152413687Y-66206823D01*
X152365024Y-66367242D01*
X152294114Y-66499906D01*
X152286004Y-66515078D01*
X152179659Y-66644659D01*
X152050078Y-66751004D01*
X152050076Y-66751005D01*
X151902242Y-66830024D01*
X151741823Y-66878687D01*
X151616804Y-66891000D01*
X151533196Y-66891000D01*
X151408177Y-66878687D01*
X151247758Y-66830024D01*
X151099924Y-66751005D01*
X151099922Y-66751004D01*
X150970341Y-66644659D01*
X150863996Y-66515078D01*
X150855886Y-66499906D01*
X150784976Y-66367242D01*
X150736313Y-66206823D01*
X150719883Y-66040000D01*
X150736313Y-65873177D01*
X150784976Y-65712758D01*
X150863995Y-65564924D01*
X150863996Y-65564922D01*
X150970341Y-65435341D01*
X151099922Y-65328996D01*
X151115094Y-65320886D01*
X151247758Y-65249976D01*
X151408177Y-65201313D01*
X151533196Y-65189000D01*
X151616804Y-65189000D01*
X151741823Y-65201313D01*
X151741823Y-65201313D01*
G37*
G36*
X144806000Y-66891000D02*
G01*
X143104000Y-66891000D01*
X143104000Y-65189000D01*
X144806000Y-65189000D01*
X144806000Y-66891000D01*
X144806000Y-66891000D01*
G37*
G36*
X109735443Y-64289919D02*
G01*
X109801627Y-64296437D01*
X109971466Y-64347957D01*
X110127991Y-64431622D01*
X110163729Y-64460952D01*
X110265186Y-64544214D01*
X110348448Y-64645671D01*
X110377778Y-64681409D01*
X110461443Y-64837934D01*
X110512963Y-65007773D01*
X110530359Y-65184400D01*
X110512963Y-65361027D01*
X110463869Y-65522868D01*
X110461442Y-65530868D01*
X110419611Y-65609128D01*
X110377778Y-65687391D01*
X110356960Y-65712758D01*
X110265186Y-65824586D01*
X110163729Y-65907848D01*
X110127991Y-65937178D01*
X109971466Y-66020843D01*
X109801627Y-66072363D01*
X109735442Y-66078882D01*
X109669260Y-66085400D01*
X109580740Y-66085400D01*
X109514558Y-66078882D01*
X109448373Y-66072363D01*
X109278534Y-66020843D01*
X109122009Y-65937178D01*
X109086271Y-65907848D01*
X108984814Y-65824586D01*
X108893040Y-65712758D01*
X108872222Y-65687391D01*
X108830390Y-65609129D01*
X108788558Y-65530868D01*
X108786131Y-65522868D01*
X108737037Y-65361027D01*
X108719641Y-65184400D01*
X108737037Y-65007773D01*
X108788557Y-64837934D01*
X108872222Y-64681409D01*
X108901552Y-64645671D01*
X108984814Y-64544214D01*
X109086271Y-64460952D01*
X109122009Y-64431622D01*
X109278534Y-64347957D01*
X109448373Y-64296437D01*
X109514557Y-64289919D01*
X109580740Y-64283400D01*
X109669260Y-64283400D01*
X109735443Y-64289919D01*
X109735443Y-64289919D01*
G37*
G36*
X174024442Y-64281918D02*
G01*
X174090627Y-64288437D01*
X174260466Y-64339957D01*
X174416991Y-64423622D01*
X174452729Y-64452952D01*
X174554186Y-64536214D01*
X174637448Y-64637671D01*
X174666778Y-64673409D01*
X174750443Y-64829934D01*
X174801963Y-64999773D01*
X174819359Y-65176400D01*
X174801963Y-65353027D01*
X174750443Y-65522866D01*
X174666778Y-65679391D01*
X174639394Y-65712758D01*
X174554186Y-65816586D01*
X174452729Y-65899848D01*
X174416991Y-65929178D01*
X174260466Y-66012843D01*
X174090627Y-66064363D01*
X174024442Y-66070882D01*
X173958260Y-66077400D01*
X173869740Y-66077400D01*
X173803558Y-66070882D01*
X173737373Y-66064363D01*
X173567534Y-66012843D01*
X173411009Y-65929178D01*
X173375271Y-65899848D01*
X173273814Y-65816586D01*
X173188606Y-65712758D01*
X173161222Y-65679391D01*
X173077557Y-65522866D01*
X173026037Y-65353027D01*
X173008641Y-65176400D01*
X173026037Y-64999773D01*
X173077557Y-64829934D01*
X173161222Y-64673409D01*
X173190552Y-64637671D01*
X173273814Y-64536214D01*
X173375271Y-64452952D01*
X173411009Y-64423622D01*
X173567534Y-64339957D01*
X173737373Y-64288437D01*
X173803558Y-64281918D01*
X173869740Y-64275400D01*
X173958260Y-64275400D01*
X174024442Y-64281918D01*
X174024442Y-64281918D01*
G37*
G36*
X109735442Y-61749918D02*
G01*
X109801627Y-61756437D01*
X109971466Y-61807957D01*
X110127991Y-61891622D01*
X110163729Y-61920952D01*
X110265186Y-62004214D01*
X110348448Y-62105671D01*
X110377778Y-62141409D01*
X110461443Y-62297934D01*
X110512963Y-62467773D01*
X110530359Y-62644400D01*
X110512963Y-62821027D01*
X110461443Y-62990866D01*
X110377778Y-63147391D01*
X110348448Y-63183129D01*
X110265186Y-63284586D01*
X110166706Y-63365405D01*
X110127991Y-63397178D01*
X109971466Y-63480843D01*
X109801627Y-63532363D01*
X109735443Y-63538881D01*
X109669260Y-63545400D01*
X109580740Y-63545400D01*
X109514557Y-63538881D01*
X109448373Y-63532363D01*
X109278534Y-63480843D01*
X109122009Y-63397178D01*
X109083294Y-63365405D01*
X108984814Y-63284586D01*
X108901552Y-63183129D01*
X108872222Y-63147391D01*
X108788557Y-62990866D01*
X108737037Y-62821027D01*
X108719641Y-62644400D01*
X108737037Y-62467773D01*
X108788557Y-62297934D01*
X108872222Y-62141409D01*
X108901552Y-62105671D01*
X108984814Y-62004214D01*
X109086271Y-61920952D01*
X109122009Y-61891622D01*
X109278534Y-61807957D01*
X109448373Y-61756437D01*
X109514558Y-61749918D01*
X109580740Y-61743400D01*
X109669260Y-61743400D01*
X109735442Y-61749918D01*
X109735442Y-61749918D01*
G37*
G36*
X174024443Y-61741919D02*
G01*
X174090627Y-61748437D01*
X174260466Y-61799957D01*
X174416991Y-61883622D01*
X174452729Y-61912952D01*
X174554186Y-61996214D01*
X174637448Y-62097671D01*
X174666778Y-62133409D01*
X174750443Y-62289934D01*
X174801963Y-62459773D01*
X174819359Y-62636400D01*
X174801963Y-62813027D01*
X174750443Y-62982866D01*
X174666778Y-63139391D01*
X174637448Y-63175129D01*
X174554186Y-63276586D01*
X174452729Y-63359848D01*
X174416991Y-63389178D01*
X174260466Y-63472843D01*
X174090627Y-63524363D01*
X174024442Y-63530882D01*
X173958260Y-63537400D01*
X173869740Y-63537400D01*
X173803558Y-63530882D01*
X173737373Y-63524363D01*
X173567534Y-63472843D01*
X173411009Y-63389178D01*
X173375271Y-63359848D01*
X173273814Y-63276586D01*
X173190552Y-63175129D01*
X173161222Y-63139391D01*
X173077557Y-62982866D01*
X173026037Y-62813027D01*
X173008641Y-62636400D01*
X173026037Y-62459773D01*
X173077557Y-62289934D01*
X173161222Y-62133409D01*
X173190552Y-62097671D01*
X173273814Y-61996214D01*
X173375271Y-61912952D01*
X173411009Y-61883622D01*
X173567534Y-61799957D01*
X173737373Y-61748437D01*
X173803557Y-61741919D01*
X173869740Y-61735400D01*
X173958260Y-61735400D01*
X174024443Y-61741919D01*
X174024443Y-61741919D01*
G37*
G36*
X116725000Y-63505400D02*
G01*
X115023000Y-63505400D01*
X115023000Y-61803400D01*
X116725000Y-61803400D01*
X116725000Y-63505400D01*
X116725000Y-63505400D01*
G37*
G36*
X162051000Y-63505400D02*
G01*
X160349000Y-63505400D01*
X160349000Y-61803400D01*
X162051000Y-61803400D01*
X162051000Y-63505400D01*
X162051000Y-63505400D01*
G37*
G36*
X164591000Y-63505400D02*
G01*
X162889000Y-63505400D01*
X162889000Y-61803400D01*
X164591000Y-61803400D01*
X164591000Y-63505400D01*
X164591000Y-63505400D01*
G37*
G36*
X121805000Y-63505400D02*
G01*
X120103000Y-63505400D01*
X120103000Y-61803400D01*
X121805000Y-61803400D01*
X121805000Y-63505400D01*
X121805000Y-63505400D01*
G37*
G36*
X119265000Y-63505400D02*
G01*
X117563000Y-63505400D01*
X117563000Y-61803400D01*
X119265000Y-61803400D01*
X119265000Y-63505400D01*
X119265000Y-63505400D01*
G37*
G36*
X151741823Y-61815713D02*
G01*
X151902242Y-61864376D01*
X152034906Y-61935286D01*
X152050078Y-61943396D01*
X152179659Y-62049741D01*
X152286004Y-62179322D01*
X152286005Y-62179324D01*
X152365024Y-62327158D01*
X152413687Y-62487577D01*
X152430117Y-62654400D01*
X152413687Y-62821223D01*
X152365024Y-62981642D01*
X152294114Y-63114306D01*
X152286004Y-63129478D01*
X152179659Y-63259059D01*
X152050078Y-63365404D01*
X152050076Y-63365405D01*
X151902242Y-63444424D01*
X151741823Y-63493087D01*
X151616804Y-63505400D01*
X151533196Y-63505400D01*
X151408177Y-63493087D01*
X151247758Y-63444424D01*
X151099924Y-63365405D01*
X151099922Y-63365404D01*
X150970341Y-63259059D01*
X150863996Y-63129478D01*
X150855886Y-63114306D01*
X150784976Y-62981642D01*
X150736313Y-62821223D01*
X150719883Y-62654400D01*
X150736313Y-62487577D01*
X150784976Y-62327158D01*
X150863995Y-62179324D01*
X150863996Y-62179322D01*
X150970341Y-62049741D01*
X151099922Y-61943396D01*
X151115094Y-61935286D01*
X151247758Y-61864376D01*
X151408177Y-61815713D01*
X151533196Y-61803400D01*
X151616804Y-61803400D01*
X151741823Y-61815713D01*
X151741823Y-61815713D01*
G37*
G36*
X144806000Y-63505400D02*
G01*
X143104000Y-63505400D01*
X143104000Y-61803400D01*
X144806000Y-61803400D01*
X144806000Y-63505400D01*
X144806000Y-63505400D01*
G37*
G36*
X109735443Y-59209919D02*
G01*
X109801627Y-59216437D01*
X109971466Y-59267957D01*
X110127991Y-59351622D01*
X110163729Y-59380952D01*
X110265186Y-59464214D01*
X110348448Y-59565671D01*
X110377778Y-59601409D01*
X110461443Y-59757934D01*
X110512963Y-59927773D01*
X110530359Y-60104400D01*
X110512963Y-60281027D01*
X110461443Y-60450866D01*
X110377778Y-60607391D01*
X110348448Y-60643129D01*
X110265186Y-60744586D01*
X110163729Y-60827848D01*
X110127991Y-60857178D01*
X109971466Y-60940843D01*
X109801627Y-60992363D01*
X109735443Y-60998881D01*
X109669260Y-61005400D01*
X109580740Y-61005400D01*
X109514557Y-60998881D01*
X109448373Y-60992363D01*
X109278534Y-60940843D01*
X109122009Y-60857178D01*
X109086271Y-60827848D01*
X108984814Y-60744586D01*
X108901552Y-60643129D01*
X108872222Y-60607391D01*
X108788557Y-60450866D01*
X108737037Y-60281027D01*
X108719641Y-60104400D01*
X108737037Y-59927773D01*
X108788557Y-59757934D01*
X108872222Y-59601409D01*
X108901552Y-59565671D01*
X108984814Y-59464214D01*
X109086271Y-59380952D01*
X109122009Y-59351622D01*
X109278534Y-59267957D01*
X109448373Y-59216437D01*
X109514557Y-59209919D01*
X109580740Y-59203400D01*
X109669260Y-59203400D01*
X109735443Y-59209919D01*
X109735443Y-59209919D01*
G37*
G36*
X174024442Y-59201918D02*
G01*
X174090627Y-59208437D01*
X174260466Y-59259957D01*
X174416991Y-59343622D01*
X174452729Y-59372952D01*
X174554186Y-59456214D01*
X174637448Y-59557671D01*
X174666778Y-59593409D01*
X174750443Y-59749934D01*
X174801963Y-59919773D01*
X174819359Y-60096400D01*
X174801963Y-60273027D01*
X174750443Y-60442866D01*
X174666778Y-60599391D01*
X174637448Y-60635129D01*
X174554186Y-60736586D01*
X174452729Y-60819848D01*
X174416991Y-60849178D01*
X174260466Y-60932843D01*
X174090627Y-60984363D01*
X174024443Y-60990881D01*
X173958260Y-60997400D01*
X173869740Y-60997400D01*
X173803557Y-60990881D01*
X173737373Y-60984363D01*
X173567534Y-60932843D01*
X173411009Y-60849178D01*
X173375271Y-60819848D01*
X173273814Y-60736586D01*
X173190552Y-60635129D01*
X173161222Y-60599391D01*
X173077557Y-60442866D01*
X173026037Y-60273027D01*
X173008641Y-60096400D01*
X173026037Y-59919773D01*
X173077557Y-59749934D01*
X173161222Y-59593409D01*
X173190552Y-59557671D01*
X173273814Y-59456214D01*
X173375271Y-59372952D01*
X173411009Y-59343622D01*
X173567534Y-59259957D01*
X173737373Y-59208437D01*
X173803558Y-59201918D01*
X173869740Y-59195400D01*
X173958260Y-59195400D01*
X174024442Y-59201918D01*
X174024442Y-59201918D01*
G37*
G36*
X130095443Y-57049919D02*
G01*
X130161627Y-57056437D01*
X130331466Y-57107957D01*
X130487991Y-57191622D01*
X130510304Y-57209934D01*
X130625186Y-57304214D01*
X130708448Y-57405671D01*
X130737778Y-57441409D01*
X130821443Y-57597934D01*
X130872963Y-57767773D01*
X130890359Y-57944400D01*
X130872963Y-58121027D01*
X130821443Y-58290866D01*
X130737778Y-58447391D01*
X130722998Y-58465400D01*
X130625186Y-58584586D01*
X130523729Y-58667848D01*
X130487991Y-58697178D01*
X130331466Y-58780843D01*
X130161627Y-58832363D01*
X130095443Y-58838881D01*
X130029260Y-58845400D01*
X129940740Y-58845400D01*
X129874557Y-58838881D01*
X129808373Y-58832363D01*
X129638534Y-58780843D01*
X129482009Y-58697178D01*
X129446271Y-58667848D01*
X129344814Y-58584586D01*
X129247002Y-58465400D01*
X129232222Y-58447391D01*
X129148557Y-58290866D01*
X129097037Y-58121027D01*
X129079641Y-57944400D01*
X129097037Y-57767773D01*
X129148557Y-57597934D01*
X129232222Y-57441409D01*
X129261552Y-57405671D01*
X129344814Y-57304214D01*
X129459696Y-57209934D01*
X129482009Y-57191622D01*
X129638534Y-57107957D01*
X129808373Y-57056437D01*
X129874557Y-57049919D01*
X129940740Y-57043400D01*
X130029260Y-57043400D01*
X130095443Y-57049919D01*
X130095443Y-57049919D01*
G37*
G36*
X127555443Y-57049919D02*
G01*
X127621627Y-57056437D01*
X127791466Y-57107957D01*
X127947991Y-57191622D01*
X127970304Y-57209934D01*
X128085186Y-57304214D01*
X128168448Y-57405671D01*
X128197778Y-57441409D01*
X128281443Y-57597934D01*
X128332963Y-57767773D01*
X128350359Y-57944400D01*
X128332963Y-58121027D01*
X128281443Y-58290866D01*
X128197778Y-58447391D01*
X128182998Y-58465400D01*
X128085186Y-58584586D01*
X127983729Y-58667848D01*
X127947991Y-58697178D01*
X127791466Y-58780843D01*
X127621627Y-58832363D01*
X127555443Y-58838881D01*
X127489260Y-58845400D01*
X127400740Y-58845400D01*
X127334557Y-58838881D01*
X127268373Y-58832363D01*
X127098534Y-58780843D01*
X126942009Y-58697178D01*
X126906271Y-58667848D01*
X126804814Y-58584586D01*
X126707002Y-58465400D01*
X126692222Y-58447391D01*
X126608557Y-58290866D01*
X126557037Y-58121027D01*
X126539641Y-57944400D01*
X126557037Y-57767773D01*
X126608557Y-57597934D01*
X126692222Y-57441409D01*
X126721552Y-57405671D01*
X126804814Y-57304214D01*
X126919696Y-57209934D01*
X126942009Y-57191622D01*
X127098534Y-57107957D01*
X127268373Y-57056437D01*
X127334557Y-57049919D01*
X127400740Y-57043400D01*
X127489260Y-57043400D01*
X127555443Y-57049919D01*
X127555443Y-57049919D01*
G37*
G36*
X133426000Y-58845400D02*
G01*
X131624000Y-58845400D01*
X131624000Y-57043400D01*
X133426000Y-57043400D01*
X133426000Y-58845400D01*
X133426000Y-58845400D01*
G37*
G36*
X147875443Y-57049919D02*
G01*
X147941627Y-57056437D01*
X148111466Y-57107957D01*
X148267991Y-57191622D01*
X148290304Y-57209934D01*
X148405186Y-57304214D01*
X148488448Y-57405671D01*
X148517778Y-57441409D01*
X148601443Y-57597934D01*
X148652963Y-57767773D01*
X148670359Y-57944400D01*
X148652963Y-58121027D01*
X148601443Y-58290866D01*
X148517778Y-58447391D01*
X148502998Y-58465400D01*
X148405186Y-58584586D01*
X148303729Y-58667848D01*
X148267991Y-58697178D01*
X148111466Y-58780843D01*
X147941627Y-58832363D01*
X147875443Y-58838881D01*
X147809260Y-58845400D01*
X147720740Y-58845400D01*
X147654557Y-58838881D01*
X147588373Y-58832363D01*
X147418534Y-58780843D01*
X147262009Y-58697178D01*
X147226271Y-58667848D01*
X147124814Y-58584586D01*
X147027002Y-58465400D01*
X147012222Y-58447391D01*
X146928557Y-58290866D01*
X146877037Y-58121027D01*
X146859641Y-57944400D01*
X146877037Y-57767773D01*
X146928557Y-57597934D01*
X147012222Y-57441409D01*
X147041552Y-57405671D01*
X147124814Y-57304214D01*
X147239696Y-57209934D01*
X147262009Y-57191622D01*
X147418534Y-57107957D01*
X147588373Y-57056437D01*
X147654557Y-57049919D01*
X147720740Y-57043400D01*
X147809260Y-57043400D01*
X147875443Y-57049919D01*
X147875443Y-57049919D01*
G37*
G36*
X145335443Y-57049919D02*
G01*
X145401627Y-57056437D01*
X145571466Y-57107957D01*
X145727991Y-57191622D01*
X145750304Y-57209934D01*
X145865186Y-57304214D01*
X145948448Y-57405671D01*
X145977778Y-57441409D01*
X146061443Y-57597934D01*
X146112963Y-57767773D01*
X146130359Y-57944400D01*
X146112963Y-58121027D01*
X146061443Y-58290866D01*
X145977778Y-58447391D01*
X145962998Y-58465400D01*
X145865186Y-58584586D01*
X145763729Y-58667848D01*
X145727991Y-58697178D01*
X145571466Y-58780843D01*
X145401627Y-58832363D01*
X145335443Y-58838881D01*
X145269260Y-58845400D01*
X145180740Y-58845400D01*
X145114557Y-58838881D01*
X145048373Y-58832363D01*
X144878534Y-58780843D01*
X144722009Y-58697178D01*
X144686271Y-58667848D01*
X144584814Y-58584586D01*
X144487002Y-58465400D01*
X144472222Y-58447391D01*
X144388557Y-58290866D01*
X144337037Y-58121027D01*
X144319641Y-57944400D01*
X144337037Y-57767773D01*
X144388557Y-57597934D01*
X144472222Y-57441409D01*
X144501552Y-57405671D01*
X144584814Y-57304214D01*
X144699696Y-57209934D01*
X144722009Y-57191622D01*
X144878534Y-57107957D01*
X145048373Y-57056437D01*
X145114557Y-57049919D01*
X145180740Y-57043400D01*
X145269260Y-57043400D01*
X145335443Y-57049919D01*
X145335443Y-57049919D01*
G37*
G36*
X142795443Y-57049919D02*
G01*
X142861627Y-57056437D01*
X143031466Y-57107957D01*
X143187991Y-57191622D01*
X143210304Y-57209934D01*
X143325186Y-57304214D01*
X143408448Y-57405671D01*
X143437778Y-57441409D01*
X143521443Y-57597934D01*
X143572963Y-57767773D01*
X143590359Y-57944400D01*
X143572963Y-58121027D01*
X143521443Y-58290866D01*
X143437778Y-58447391D01*
X143422998Y-58465400D01*
X143325186Y-58584586D01*
X143223729Y-58667848D01*
X143187991Y-58697178D01*
X143031466Y-58780843D01*
X142861627Y-58832363D01*
X142795443Y-58838881D01*
X142729260Y-58845400D01*
X142640740Y-58845400D01*
X142574557Y-58838881D01*
X142508373Y-58832363D01*
X142338534Y-58780843D01*
X142182009Y-58697178D01*
X142146271Y-58667848D01*
X142044814Y-58584586D01*
X141947002Y-58465400D01*
X141932222Y-58447391D01*
X141848557Y-58290866D01*
X141797037Y-58121027D01*
X141779641Y-57944400D01*
X141797037Y-57767773D01*
X141848557Y-57597934D01*
X141932222Y-57441409D01*
X141961552Y-57405671D01*
X142044814Y-57304214D01*
X142159696Y-57209934D01*
X142182009Y-57191622D01*
X142338534Y-57107957D01*
X142508373Y-57056437D01*
X142574557Y-57049919D01*
X142640740Y-57043400D01*
X142729260Y-57043400D01*
X142795443Y-57049919D01*
X142795443Y-57049919D01*
G37*
G36*
X140255443Y-57049919D02*
G01*
X140321627Y-57056437D01*
X140491466Y-57107957D01*
X140647991Y-57191622D01*
X140670304Y-57209934D01*
X140785186Y-57304214D01*
X140868448Y-57405671D01*
X140897778Y-57441409D01*
X140981443Y-57597934D01*
X141032963Y-57767773D01*
X141050359Y-57944400D01*
X141032963Y-58121027D01*
X140981443Y-58290866D01*
X140897778Y-58447391D01*
X140882998Y-58465400D01*
X140785186Y-58584586D01*
X140683729Y-58667848D01*
X140647991Y-58697178D01*
X140491466Y-58780843D01*
X140321627Y-58832363D01*
X140255443Y-58838881D01*
X140189260Y-58845400D01*
X140100740Y-58845400D01*
X140034557Y-58838881D01*
X139968373Y-58832363D01*
X139798534Y-58780843D01*
X139642009Y-58697178D01*
X139606271Y-58667848D01*
X139504814Y-58584586D01*
X139407002Y-58465400D01*
X139392222Y-58447391D01*
X139308557Y-58290866D01*
X139257037Y-58121027D01*
X139239641Y-57944400D01*
X139257037Y-57767773D01*
X139308557Y-57597934D01*
X139392222Y-57441409D01*
X139421552Y-57405671D01*
X139504814Y-57304214D01*
X139619696Y-57209934D01*
X139642009Y-57191622D01*
X139798534Y-57107957D01*
X139968373Y-57056437D01*
X140034557Y-57049919D01*
X140100740Y-57043400D01*
X140189260Y-57043400D01*
X140255443Y-57049919D01*
X140255443Y-57049919D01*
G37*
G36*
X137715443Y-57049919D02*
G01*
X137781627Y-57056437D01*
X137951466Y-57107957D01*
X138107991Y-57191622D01*
X138130304Y-57209934D01*
X138245186Y-57304214D01*
X138328448Y-57405671D01*
X138357778Y-57441409D01*
X138441443Y-57597934D01*
X138492963Y-57767773D01*
X138510359Y-57944400D01*
X138492963Y-58121027D01*
X138441443Y-58290866D01*
X138357778Y-58447391D01*
X138342998Y-58465400D01*
X138245186Y-58584586D01*
X138143729Y-58667848D01*
X138107991Y-58697178D01*
X137951466Y-58780843D01*
X137781627Y-58832363D01*
X137715443Y-58838881D01*
X137649260Y-58845400D01*
X137560740Y-58845400D01*
X137494557Y-58838881D01*
X137428373Y-58832363D01*
X137258534Y-58780843D01*
X137102009Y-58697178D01*
X137066271Y-58667848D01*
X136964814Y-58584586D01*
X136867002Y-58465400D01*
X136852222Y-58447391D01*
X136768557Y-58290866D01*
X136717037Y-58121027D01*
X136699641Y-57944400D01*
X136717037Y-57767773D01*
X136768557Y-57597934D01*
X136852222Y-57441409D01*
X136881552Y-57405671D01*
X136964814Y-57304214D01*
X137079696Y-57209934D01*
X137102009Y-57191622D01*
X137258534Y-57107957D01*
X137428373Y-57056437D01*
X137494557Y-57049919D01*
X137560740Y-57043400D01*
X137649260Y-57043400D01*
X137715443Y-57049919D01*
X137715443Y-57049919D01*
G37*
G36*
X151206000Y-58845400D02*
G01*
X149404000Y-58845400D01*
X149404000Y-57043400D01*
X151206000Y-57043400D01*
X151206000Y-58845400D01*
X151206000Y-58845400D01*
G37*
G36*
X109735443Y-56669919D02*
G01*
X109801627Y-56676437D01*
X109971466Y-56727957D01*
X110127991Y-56811622D01*
X110163729Y-56840952D01*
X110265186Y-56924214D01*
X110348448Y-57025671D01*
X110377778Y-57061409D01*
X110461443Y-57217934D01*
X110512963Y-57387773D01*
X110530359Y-57564400D01*
X110512963Y-57741027D01*
X110461443Y-57910866D01*
X110377778Y-58067391D01*
X110348448Y-58103129D01*
X110265186Y-58204586D01*
X110163729Y-58287848D01*
X110127991Y-58317178D01*
X109971466Y-58400843D01*
X109801627Y-58452363D01*
X109735442Y-58458882D01*
X109669260Y-58465400D01*
X109580740Y-58465400D01*
X109514558Y-58458882D01*
X109448373Y-58452363D01*
X109278534Y-58400843D01*
X109122009Y-58317178D01*
X109086271Y-58287848D01*
X108984814Y-58204586D01*
X108901552Y-58103129D01*
X108872222Y-58067391D01*
X108788557Y-57910866D01*
X108737037Y-57741027D01*
X108719641Y-57564400D01*
X108737037Y-57387773D01*
X108788557Y-57217934D01*
X108872222Y-57061409D01*
X108901552Y-57025671D01*
X108984814Y-56924214D01*
X109086271Y-56840952D01*
X109122009Y-56811622D01*
X109278534Y-56727957D01*
X109448373Y-56676437D01*
X109514557Y-56669919D01*
X109580740Y-56663400D01*
X109669260Y-56663400D01*
X109735443Y-56669919D01*
X109735443Y-56669919D01*
G37*
G36*
X174024443Y-56661919D02*
G01*
X174090627Y-56668437D01*
X174260466Y-56719957D01*
X174416991Y-56803622D01*
X174452729Y-56832952D01*
X174554186Y-56916214D01*
X174637448Y-57017671D01*
X174666778Y-57053409D01*
X174750443Y-57209934D01*
X174801963Y-57379773D01*
X174819359Y-57556400D01*
X174801963Y-57733027D01*
X174750443Y-57902866D01*
X174666778Y-58059391D01*
X174637448Y-58095129D01*
X174554186Y-58196586D01*
X174452729Y-58279848D01*
X174416991Y-58309178D01*
X174260466Y-58392843D01*
X174090627Y-58444363D01*
X174024442Y-58450882D01*
X173958260Y-58457400D01*
X173869740Y-58457400D01*
X173803558Y-58450882D01*
X173737373Y-58444363D01*
X173567534Y-58392843D01*
X173411009Y-58309178D01*
X173375271Y-58279848D01*
X173273814Y-58196586D01*
X173190552Y-58095129D01*
X173161222Y-58059391D01*
X173077557Y-57902866D01*
X173026037Y-57733027D01*
X173008641Y-57556400D01*
X173026037Y-57379773D01*
X173077557Y-57209934D01*
X173161222Y-57053409D01*
X173190552Y-57017671D01*
X173273814Y-56916214D01*
X173375271Y-56832952D01*
X173411009Y-56803622D01*
X173567534Y-56719957D01*
X173737373Y-56668437D01*
X173803557Y-56661919D01*
X173869740Y-56655400D01*
X173958260Y-56655400D01*
X174024443Y-56661919D01*
X174024443Y-56661919D01*
G37*
G36*
X110526000Y-55925400D02*
G01*
X108724000Y-55925400D01*
X108724000Y-54123400D01*
X110526000Y-54123400D01*
X110526000Y-55925400D01*
X110526000Y-55925400D01*
G37*
G36*
X174024442Y-54121918D02*
G01*
X174090627Y-54128437D01*
X174260466Y-54179957D01*
X174416991Y-54263622D01*
X174452729Y-54292952D01*
X174554186Y-54376214D01*
X174637448Y-54477671D01*
X174666778Y-54513409D01*
X174750443Y-54669934D01*
X174801963Y-54839773D01*
X174819359Y-55016400D01*
X174801963Y-55193027D01*
X174750443Y-55362866D01*
X174666778Y-55519391D01*
X174637448Y-55555129D01*
X174554186Y-55656586D01*
X174452729Y-55739848D01*
X174416991Y-55769178D01*
X174260466Y-55852843D01*
X174090627Y-55904363D01*
X174024442Y-55910882D01*
X173958260Y-55917400D01*
X173869740Y-55917400D01*
X173803558Y-55910882D01*
X173737373Y-55904363D01*
X173567534Y-55852843D01*
X173411009Y-55769178D01*
X173375271Y-55739848D01*
X173273814Y-55656586D01*
X173190552Y-55555129D01*
X173161222Y-55519391D01*
X173077557Y-55362866D01*
X173026037Y-55193027D01*
X173008641Y-55016400D01*
X173026037Y-54839773D01*
X173077557Y-54669934D01*
X173161222Y-54513409D01*
X173190552Y-54477671D01*
X173273814Y-54376214D01*
X173375271Y-54292952D01*
X173411009Y-54263622D01*
X173567534Y-54179957D01*
X173737373Y-54128437D01*
X173803558Y-54121918D01*
X173869740Y-54115400D01*
X173958260Y-54115400D01*
X174024442Y-54121918D01*
X174024442Y-54121918D01*
G37*
G36*
X121120823Y-54195713D02*
G01*
X121281242Y-54244376D01*
X121413906Y-54315286D01*
X121429078Y-54323396D01*
X121558659Y-54429741D01*
X121665004Y-54559322D01*
X121665005Y-54559324D01*
X121744024Y-54707158D01*
X121792687Y-54867577D01*
X121809117Y-55034400D01*
X121792687Y-55201223D01*
X121744024Y-55361642D01*
X121673114Y-55494306D01*
X121665004Y-55509478D01*
X121558659Y-55639059D01*
X121429078Y-55745404D01*
X121429076Y-55745405D01*
X121281242Y-55824424D01*
X121120823Y-55873087D01*
X120995804Y-55885400D01*
X120912196Y-55885400D01*
X120787177Y-55873087D01*
X120626758Y-55824424D01*
X120478924Y-55745405D01*
X120478922Y-55745404D01*
X120349341Y-55639059D01*
X120242996Y-55509478D01*
X120234886Y-55494306D01*
X120163976Y-55361642D01*
X120115313Y-55201223D01*
X120098883Y-55034400D01*
X120115313Y-54867577D01*
X120163976Y-54707158D01*
X120242995Y-54559324D01*
X120242996Y-54559322D01*
X120349341Y-54429741D01*
X120478922Y-54323396D01*
X120494094Y-54315286D01*
X120626758Y-54244376D01*
X120787177Y-54195713D01*
X120912196Y-54183400D01*
X120995804Y-54183400D01*
X121120823Y-54195713D01*
X121120823Y-54195713D01*
G37*
G36*
X116040823Y-54195713D02*
G01*
X116201242Y-54244376D01*
X116333906Y-54315286D01*
X116349078Y-54323396D01*
X116478659Y-54429741D01*
X116585004Y-54559322D01*
X116585005Y-54559324D01*
X116664024Y-54707158D01*
X116712687Y-54867577D01*
X116729117Y-55034400D01*
X116712687Y-55201223D01*
X116664024Y-55361642D01*
X116593114Y-55494306D01*
X116585004Y-55509478D01*
X116478659Y-55639059D01*
X116349078Y-55745404D01*
X116349076Y-55745405D01*
X116201242Y-55824424D01*
X116040823Y-55873087D01*
X115915804Y-55885400D01*
X115832196Y-55885400D01*
X115707177Y-55873087D01*
X115546758Y-55824424D01*
X115398924Y-55745405D01*
X115398922Y-55745404D01*
X115269341Y-55639059D01*
X115162996Y-55509478D01*
X115154886Y-55494306D01*
X115083976Y-55361642D01*
X115035313Y-55201223D01*
X115018883Y-55034400D01*
X115035313Y-54867577D01*
X115083976Y-54707158D01*
X115162995Y-54559324D01*
X115162996Y-54559322D01*
X115269341Y-54429741D01*
X115398922Y-54323396D01*
X115414094Y-54315286D01*
X115546758Y-54244376D01*
X115707177Y-54195713D01*
X115832196Y-54183400D01*
X115915804Y-54183400D01*
X116040823Y-54195713D01*
X116040823Y-54195713D01*
G37*
G36*
X161366823Y-54195713D02*
G01*
X161527242Y-54244376D01*
X161659906Y-54315286D01*
X161675078Y-54323396D01*
X161804659Y-54429741D01*
X161911004Y-54559322D01*
X161911005Y-54559324D01*
X161990024Y-54707158D01*
X162038687Y-54867577D01*
X162055117Y-55034400D01*
X162038687Y-55201223D01*
X161990024Y-55361642D01*
X161919114Y-55494306D01*
X161911004Y-55509478D01*
X161804659Y-55639059D01*
X161675078Y-55745404D01*
X161675076Y-55745405D01*
X161527242Y-55824424D01*
X161366823Y-55873087D01*
X161241804Y-55885400D01*
X161158196Y-55885400D01*
X161033177Y-55873087D01*
X160872758Y-55824424D01*
X160724924Y-55745405D01*
X160724922Y-55745404D01*
X160595341Y-55639059D01*
X160488996Y-55509478D01*
X160480886Y-55494306D01*
X160409976Y-55361642D01*
X160361313Y-55201223D01*
X160344883Y-55034400D01*
X160361313Y-54867577D01*
X160409976Y-54707158D01*
X160488995Y-54559324D01*
X160488996Y-54559322D01*
X160595341Y-54429741D01*
X160724922Y-54323396D01*
X160740094Y-54315286D01*
X160872758Y-54244376D01*
X161033177Y-54195713D01*
X161158196Y-54183400D01*
X161241804Y-54183400D01*
X161366823Y-54195713D01*
X161366823Y-54195713D01*
G37*
G36*
X163906823Y-54195713D02*
G01*
X164067242Y-54244376D01*
X164199906Y-54315286D01*
X164215078Y-54323396D01*
X164344659Y-54429741D01*
X164451004Y-54559322D01*
X164451005Y-54559324D01*
X164530024Y-54707158D01*
X164578687Y-54867577D01*
X164595117Y-55034400D01*
X164578687Y-55201223D01*
X164530024Y-55361642D01*
X164459114Y-55494306D01*
X164451004Y-55509478D01*
X164344659Y-55639059D01*
X164215078Y-55745404D01*
X164215076Y-55745405D01*
X164067242Y-55824424D01*
X163906823Y-55873087D01*
X163781804Y-55885400D01*
X163698196Y-55885400D01*
X163573177Y-55873087D01*
X163412758Y-55824424D01*
X163264924Y-55745405D01*
X163264922Y-55745404D01*
X163135341Y-55639059D01*
X163028996Y-55509478D01*
X163020886Y-55494306D01*
X162949976Y-55361642D01*
X162901313Y-55201223D01*
X162884883Y-55034400D01*
X162901313Y-54867577D01*
X162949976Y-54707158D01*
X163028995Y-54559324D01*
X163028996Y-54559322D01*
X163135341Y-54429741D01*
X163264922Y-54323396D01*
X163280094Y-54315286D01*
X163412758Y-54244376D01*
X163573177Y-54195713D01*
X163698196Y-54183400D01*
X163781804Y-54183400D01*
X163906823Y-54195713D01*
X163906823Y-54195713D01*
G37*
G36*
X118580823Y-54195713D02*
G01*
X118741242Y-54244376D01*
X118873906Y-54315286D01*
X118889078Y-54323396D01*
X119018659Y-54429741D01*
X119125004Y-54559322D01*
X119125005Y-54559324D01*
X119204024Y-54707158D01*
X119252687Y-54867577D01*
X119269117Y-55034400D01*
X119252687Y-55201223D01*
X119204024Y-55361642D01*
X119133114Y-55494306D01*
X119125004Y-55509478D01*
X119018659Y-55639059D01*
X118889078Y-55745404D01*
X118889076Y-55745405D01*
X118741242Y-55824424D01*
X118580823Y-55873087D01*
X118455804Y-55885400D01*
X118372196Y-55885400D01*
X118247177Y-55873087D01*
X118086758Y-55824424D01*
X117938924Y-55745405D01*
X117938922Y-55745404D01*
X117809341Y-55639059D01*
X117702996Y-55509478D01*
X117694886Y-55494306D01*
X117623976Y-55361642D01*
X117575313Y-55201223D01*
X117558883Y-55034400D01*
X117575313Y-54867577D01*
X117623976Y-54707158D01*
X117702995Y-54559324D01*
X117702996Y-54559322D01*
X117809341Y-54429741D01*
X117938922Y-54323396D01*
X117954094Y-54315286D01*
X118086758Y-54244376D01*
X118247177Y-54195713D01*
X118372196Y-54183400D01*
X118455804Y-54183400D01*
X118580823Y-54195713D01*
X118580823Y-54195713D01*
G37*
M02*
