<?xml version="1.0" standalone="no"?>
 <!DOCTYPE svg PUBLIC "-//W3C//DTD SVG 1.1//EN" 
 "http://www.w3.org/Graphics/SVG/1.1/DTD/svg11.dtd"> 
<svg xmlns="http://www.w3.org/2000/svg" version="1.1" 
    width="29.7002cm" height="21.0007cm" viewBox="0 0 116930 82680 ">
<title>SVG Picture created as shim-PCB-NPTH-drl_map.svg date 2020/08/10 15:30:14 </title>
  <desc>Picture generated by PCBNEW </desc>
<g style="fill:#000000; fill-opacity:1;stroke:#000000; stroke-opacity:1;
stroke-linecap:round; stroke-linejoin:round; "
 transform="translate(0 0) scale(1 1)">
</g>
<g style="fill:#000000; fill-opacity:0.0; 
stroke:#000000; stroke-width:-0.000393701; stroke-opacity:1; 
stroke-linecap:round; stroke-linejoin:round;">
</g>
<g style="fill:#000000; fill-opacity:0.0; 
stroke:#000000; stroke-width:19.685; stroke-opacity:1; 
stroke-linecap:round; stroke-linejoin:round;">
<path d="M42471 18900
L69065 18900
" />
<path d="M42471 53434
L42471 54934
" />
<path d="M67591 21480
L67591 23072
" />
<path d="M42471 18896
L69065 18896
" />
<path d="M67591 27107
L67591 28699
" />
<path d="M66091.4 23072.9 A750 750 0.0 0 0 67591.4 23072.9 " />
<path d="M67591.4 27107.2 A750 750 0.0 0 0 66091.4 27107.2 " />
<path d="M69065 18896
L69065 54934
" />
<path d="M66091 23072
L66091 21480
" />
<path d="M67591.4 21480.5 A750 750 0.0 0 0 66091.4 21480.5 " />
<path d="M66091.4 28699.7 A750 750 0.0 0 0 67591.4 28699.7 " />
<path d="M42471 53434
L42471 18896
" />
<path d="M66091 28699
L66091 27107
" />
<path d="M42471.7 54934.7 A30748.7 30748.7 0.0 0 0 69043.9 54944.9 " />
</g>
<g style="fill:#000000; fill-opacity:0.0; 
stroke:#000000; stroke-width:78.7402; stroke-opacity:1; 
stroke-linecap:round; stroke-linejoin:round;">
<path d="M45902 51761
L46768 52627
" />
<path d="M46768 51761
L45902 52627
" />
<path d="M64864 51761
L65730 52627
" />
<path d="M65730 51761
L64864 52627
" />
</g>
<g style="fill:#000000; fill-opacity:0.0; 
stroke:#000000; stroke-width:118.11; stroke-opacity:1; 
stroke-linecap:round; stroke-linejoin:round;">
<path d="M43589 59801
L43589 58620
L43870 58620
L44039 58676
L44151 58789
L44208 58901
L44264 59126
L44264 59295
L44208 59520
L44151 59632
L44039 59745
L43870 59801
L43589 59801
" />
<path d="M44770 59801
L44770 59014
" />
<path d="M44770 59239
L44826 59126
L44883 59070
L44995 59014
L45108 59014
" />
<path d="M45501 59801
L45501 59014
" />
<path d="M45501 58620
L45445 58676
L45501 58733
L45558 58676
L45501 58620
L45501 58733
" />
<path d="M46232 59801
L46120 59745
L46064 59632
L46064 58620
" />
<path d="M46851 59801
L46739 59745
L46682 59632
L46682 58620
" />
<path d="M48201 59801
L48201 58620
L48595 59464
L48988 58620
L48988 59801
" />
<path d="M50057 59801
L50057 59183
L50001 59070
L49888 59014
L49663 59014
L49551 59070
" />
<path d="M50057 59745
L49944 59801
L49663 59801
L49551 59745
L49495 59632
L49495 59520
L49551 59407
L49663 59351
L49944 59351
L50057 59295
" />
<path d="M50619 59014
L50619 60195
" />
<path d="M50619 59070
L50732 59014
L50957 59014
L51069 59070
L51126 59126
L51182 59239
L51182 59576
L51126 59689
L51069 59745
L50957 59801
L50732 59801
L50619 59745
" />
<path d="M51688 59689
L51744 59745
L51688 59801
L51632 59745
L51688 59689
L51688 59801
" />
<path d="M51688 59070
L51744 59126
L51688 59183
L51632 59126
L51688 59070
L51688 59183
" />
<path d="M41595 61314
L42461 62180
" />
<path d="M42461 61314
L41595 62180
" />
<path d="M43533 61213
L43589 61157
L43701 61100
L43983 61100
L44095 61157
L44151 61213
L44208 61325
L44208 61438
L44151 61607
L43477 62281
L44208 62281
" />
<path d="M44714 62169
L44770 62225
L44714 62281
L44658 62225
L44714 62169
L44714 62281
" />
<path d="M45220 61213
L45276 61157
L45389 61100
L45670 61100
L45782 61157
L45839 61213
L45895 61325
L45895 61438
L45839 61607
L45164 62281
L45895 62281
" />
<path d="M46626 61100
L46739 61100
L46851 61157
L46907 61213
L46964 61325
L47020 61550
L47020 61832
L46964 62057
L46907 62169
L46851 62225
L46739 62281
L46626 62281
L46514 62225
L46457 62169
L46401 62057
L46345 61832
L46345 61550
L46401 61325
L46457 61213
L46514 61157
L46626 61100
" />
<path d="M47526 62281
L47526 61494
" />
<path d="M47526 61607
L47582 61550
L47695 61494
L47863 61494
L47976 61550
L48032 61663
L48032 62281
" />
<path d="M48032 61663
L48088 61550
L48201 61494
L48370 61494
L48482 61550
L48538 61663
L48538 62281
" />
<path d="M49101 62281
L49101 61494
" />
<path d="M49101 61607
L49157 61550
L49270 61494
L49438 61494
L49551 61550
L49607 61663
L49607 62281
" />
<path d="M49607 61663
L49663 61550
L49776 61494
L49944 61494
L50057 61550
L50113 61663
L50113 62281
" />
<path d="M52419 61044
L51407 62563
" />
<path d="M53938 61100
L54050 61100
L54163 61157
L54219 61213
L54275 61325
L54331 61550
L54331 61832
L54275 62057
L54219 62169
L54163 62225
L54050 62281
L53938 62281
L53825 62225
L53769 62169
L53713 62057
L53657 61832
L53657 61550
L53713 61325
L53769 61213
L53825 61157
L53938 61100
" />
<path d="M54838 62169
L54894 62225
L54838 62281
L54781 62225
L54838 62169
L54838 62281
" />
<path d="M55625 61100
L55737 61100
L55850 61157
L55906 61213
L55962 61325
L56019 61550
L56019 61832
L55962 62057
L55906 62169
L55850 62225
L55737 62281
L55625 62281
L55513 62225
L55456 62169
L55400 62057
L55344 61832
L55344 61550
L55400 61325
L55456 61213
L55513 61157
L55625 61100
" />
<path d="M56694 61607
L56581 61550
L56525 61494
L56469 61382
L56469 61325
L56525 61213
L56581 61157
L56694 61100
L56919 61100
L57031 61157
L57087 61213
L57144 61325
L57144 61382
L57087 61494
L57031 61550
L56919 61607
L56694 61607
L56581 61663
L56525 61719
L56469 61832
L56469 62057
L56525 62169
L56581 62225
L56694 62281
L56919 62281
L57031 62225
L57087 62169
L57144 62057
L57144 61832
L57087 61719
L57031 61663
L56919 61607
" />
<path d="M57537 61100
L58325 61100
L57818 62281
" />
<path d="M58718 61100
L58718 61325
" />
<path d="M59168 61100
L59168 61325
" />
<path d="M60912 62731
L60856 62675
L60743 62506
L60687 62394
L60631 62225
L60574 61944
L60574 61719
L60631 61438
L60687 61269
L60743 61157
L60856 60988
L60912 60932
" />
<path d="M61306 61213
L61362 61157
L61474 61100
L61755 61100
L61868 61157
L61924 61213
L61980 61325
L61980 61438
L61924 61607
L61249 62281
L61980 62281
" />
<path d="M63387 62281
L63387 61100
" />
<path d="M63893 62281
L63893 61663
L63836 61550
L63724 61494
L63555 61494
L63443 61550
L63387 61607
" />
<path d="M64624 62281
L64511 62225
L64455 62169
L64399 62057
L64399 61719
L64455 61607
L64511 61550
L64624 61494
L64793 61494
L64905 61550
L64961 61607
L65018 61719
L65018 62057
L64961 62169
L64905 62225
L64793 62281
L64624 62281
" />
<path d="M65692 62281
L65580 62225
L65524 62113
L65524 61100
" />
<path d="M66592 62225
L66480 62281
L66255 62281
L66142 62225
L66086 62113
L66086 61663
L66142 61550
L66255 61494
L66480 61494
L66592 61550
L66649 61663
L66649 61775
L66086 61888
" />
<path d="M67099 62225
L67211 62281
L67436 62281
L67549 62225
L67605 62113
L67605 62057
L67549 61944
L67436 61888
L67267 61888
L67155 61832
L67099 61719
L67099 61663
L67155 61550
L67267 61494
L67436 61494
L67549 61550
" />
<path d="M67998 62731
L68055 62675
L68167 62506
L68223 62394
L68280 62225
L68336 61944
L68336 61719
L68280 61438
L68223 61269
L68167 61157
L68055 60988
L67998 60932
" />
<path d="M70136 62731
L70079 62675
L69967 62506
L69911 62394
L69854 62225
L69798 61944
L69798 61719
L69854 61438
L69911 61269
L69967 61157
L70079 60988
L70136 60932
" />
<path d="M70586 61494
L70586 62281
" />
<path d="M70586 61607
L70642 61550
L70754 61494
L70923 61494
L71036 61550
L71092 61663
L71092 62281
" />
<path d="M71823 62281
L71710 62225
L71654 62169
L71598 62057
L71598 61719
L71654 61607
L71710 61550
L71823 61494
L71992 61494
L72104 61550
L72160 61607
L72217 61719
L72217 62057
L72160 62169
L72104 62225
L71992 62281
L71823 62281
" />
<path d="M72554 61494
L73004 61494
" />
<path d="M72723 61100
L72723 62113
L72779 62225
L72892 62281
L73004 62281
" />
<path d="M74298 61494
L74298 62675
" />
<path d="M74298 61550
L74410 61494
L74635 61494
L74748 61550
L74804 61607
L74860 61719
L74860 62057
L74804 62169
L74748 62225
L74635 62281
L74410 62281
L74298 62225
" />
<path d="M75535 62281
L75423 62225
L75366 62113
L75366 61100
" />
<path d="M76491 62281
L76491 61663
L76435 61550
L76322 61494
L76097 61494
L75985 61550
" />
<path d="M76491 62225
L76379 62281
L76097 62281
L75985 62225
L75929 62113
L75929 62000
L75985 61888
L76097 61832
L76379 61832
L76491 61775
" />
<path d="M76885 61494
L77335 61494
" />
<path d="M77054 61100
L77054 62113
L77110 62225
L77222 62281
L77335 62281
" />
<path d="M78178 62225
L78066 62281
L77841 62281
L77728 62225
L77672 62113
L77672 61663
L77728 61550
L77841 61494
L78066 61494
L78178 61550
L78235 61663
L78235 61775
L77672 61888
" />
<path d="M79247 62281
L79247 61100
" />
<path d="M79247 62225
L79135 62281
L78910 62281
L78797 62225
L78741 62169
L78685 62057
L78685 61719
L78741 61607
L78797 61550
L78910 61494
L79135 61494
L79247 61550
" />
<path d="M79697 62731
L79753 62675
L79866 62506
L79922 62394
L79978 62225
L80034 61944
L80034 61719
L79978 61438
L79922 61269
L79866 61157
L79753 60988
L79697 60932
" />
</g> 
</svg>
