M48
; DRILL file {KiCad (5.1.2)-2} date 7/24/2020 1:05:51 PM
; FORMAT={-:-/ absolute / inch / decimal}
; #@! TF.CreationDate,2020-07-24T13:05:51-04:00
; #@! TF.GenerationSoftware,Kicad,Pcbnew,(5.1.2)-2
; #@! TF.FileFunction,Plated,1,4,PTH
FMAT,2
INCH
T1C0.0157
T2C0.0276
T3C0.0315
T4C0.0394
%
G90
G05
T1
X5.3007Y-2.9831
X5.4063Y-3.5994
X5.4805Y-3.7176
X5.9169Y-3.5567
X6.4004Y-4.81
X6.5175Y-4.815
X6.6004Y-4.81
T2
X4.39Y-5.05
X4.69Y-5.05
T3
X5.6675Y-2.4667
X5.9675Y-2.4667
X5.6675Y-2.6
X5.9675Y-2.6
X4.562Y-2.1667
X4.562Y-2.4667
X4.762Y-2.1667
X4.762Y-2.4667
X6.4465Y-2.1667
X6.4465Y-2.4667
X4.662Y-2.1667
X4.662Y-2.4667
X6.3465Y-2.1667
X6.3465Y-2.4667
T4
X5.8Y-5.4
X5.9Y-5.4
X6.0Y-5.4
X6.1Y-5.4
X6.2Y-5.4
X6.3Y-5.4
X5.7Y-5.1
X5.8Y-5.1
X5.9Y-5.1
X4.36Y-3.06
X4.46Y-3.06
X4.56Y-3.06
X4.66Y-3.06
X4.76Y-3.06
X4.86Y-3.06
X4.96Y-3.06
X5.06Y-3.06
X5.16Y-3.06
X5.26Y-3.06
X5.36Y-3.06
X5.46Y-3.06
X5.56Y-3.06
X5.66Y-3.06
X5.76Y-3.06
X5.86Y-3.06
X5.96Y-3.06
X6.06Y-3.06
X6.16Y-3.06
X5.32Y-5.4
X5.42Y-5.4
X5.52Y-5.4
X5.62Y-5.4
X4.36Y-4.51
X4.46Y-4.51
X4.56Y-4.51
X4.66Y-4.51
X4.76Y-4.51
X4.86Y-4.51
X4.96Y-4.51
X5.06Y-4.51
X5.16Y-4.51
X5.26Y-4.51
X5.36Y-4.51
X5.46Y-4.51
X5.56Y-4.51
X5.66Y-4.51
X5.76Y-4.51
X5.86Y-4.51
X5.96Y-4.51
X6.06Y-4.51
X6.16Y-4.51
X6.1Y-5.1
X6.2Y-5.1
X6.3Y-5.1
X4.36Y-3.374
X4.46Y-3.374
X4.56Y-3.374
X4.66Y-3.374
X4.76Y-3.374
X4.86Y-3.374
X4.96Y-3.374
X5.06Y-3.374
X5.16Y-3.374
X5.26Y-3.374
X5.36Y-3.374
X5.46Y-3.374
X5.56Y-3.374
X5.66Y-3.374
X5.76Y-3.374
X5.86Y-3.374
X6.847Y-2.166
X6.847Y-2.266
X6.847Y-2.366
X6.847Y-2.466
X6.847Y-2.566
X6.847Y-2.666
X4.36Y-4.174
X4.46Y-4.174
X4.56Y-4.174
X4.66Y-4.174
X4.76Y-4.174
X4.86Y-4.174
X4.96Y-4.174
X5.06Y-4.174
X5.16Y-4.174
X5.26Y-4.174
X5.36Y-4.174
X5.46Y-4.174
X5.32Y-5.1
X5.42Y-5.1
X5.52Y-5.1
X5.0175Y-2.2813
X5.1175Y-2.2813
X5.2175Y-2.2813
X4.86Y-5.1
X4.96Y-5.1
X5.06Y-5.1
X5.16Y-5.1
X4.36Y-4.81
X4.46Y-4.81
X4.56Y-4.81
X4.66Y-4.81
X4.76Y-4.81
X4.86Y-4.81
X4.96Y-4.81
X5.06Y-4.81
X5.16Y-4.81
X5.26Y-4.81
X5.36Y-4.81
X5.46Y-4.81
X5.56Y-4.81
X5.66Y-4.81
X5.76Y-4.81
X5.86Y-4.81
X5.96Y-4.81
X6.06Y-4.81
X6.16Y-4.81
X5.4175Y-2.2813
X5.5175Y-2.2813
X5.6175Y-2.2813
X5.7175Y-2.2813
X5.8175Y-2.2813
X5.9175Y-2.2813
X4.36Y-3.506
X4.46Y-3.506
X4.56Y-3.506
X4.66Y-3.506
X4.76Y-3.506
X4.86Y-3.506
X4.96Y-3.506
X5.06Y-3.506
X5.16Y-3.506
X5.26Y-3.506
X5.36Y-3.506
X5.46Y-3.506
X5.56Y-3.506
X5.66Y-3.506
X5.76Y-3.506
X5.86Y-3.506
X5.96Y-3.506
X6.06Y-3.506
X6.16Y-3.506
X4.86Y-5.4
X4.96Y-5.4
X5.06Y-5.4
X5.16Y-5.4
X4.3159Y-2.1663
X4.3159Y-2.2663
X4.3159Y-2.3663
X4.3159Y-2.4663
X4.3159Y-2.5663
X4.3159Y-2.6663
T0
M30
