<?xml version="1.0" standalone="no"?>
 <!DOCTYPE svg PUBLIC "-//W3C//DTD SVG 1.1//EN" 
 "http://www.w3.org/Graphics/SVG/1.1/DTD/svg11.dtd"> 
<svg xmlns="http://www.w3.org/2000/svg" version="1.1" 
    width="29.7002cm" height="21.0007cm" viewBox="0 0 116930 82680 ">
<title>SVG Picture created as shim-PCB-PTH-drl_map.svg date 2020/08/10 15:30:14 </title>
  <desc>Picture generated by PCBNEW </desc>
<g style="fill:#000000; fill-opacity:1;stroke:#000000; stroke-opacity:1;
stroke-linecap:round; stroke-linejoin:round; "
 transform="translate(0 0) scale(1 1)">
</g>
<g style="fill:#000000; fill-opacity:0.0; 
stroke:#000000; stroke-width:-0.000393701; stroke-opacity:1; 
stroke-linecap:round; stroke-linejoin:round;">
</g>
<g style="fill:#000000; fill-opacity:0.0; 
stroke:#000000; stroke-width:19.685; stroke-opacity:1; 
stroke-linecap:round; stroke-linejoin:round;">
<path d="M42471 18900
L69065 18900
" />
<path d="M42471 53434
L42471 54934
" />
<path d="M67591 21480
L67591 23072
" />
<path d="M42471 18896
L69065 18896
" />
<path d="M67591 27107
L67591 28699
" />
<path d="M66091.4 23072.9 A750 750 0.0 0 0 67591.4 23072.9 " />
<path d="M67591.4 27107.2 A750 750 0.0 0 0 66091.4 27107.2 " />
<path d="M69065 18896
L69065 54934
" />
<path d="M66091 23072
L66091 21480
" />
<path d="M67591.4 21480.5 A750 750 0.0 0 0 66091.4 21480.5 " />
<path d="M66091.4 28699.7 A750 750 0.0 0 0 67591.4 28699.7 " />
<path d="M42471 53434
L42471 18896
" />
<path d="M66091 28699
L66091 27107
" />
<path d="M42471.7 54934.7 A30748.7 30748.7 0.0 0 0 69043.9 54944.9 " />
</g>
<g style="fill:#000000; fill-opacity:0.0; 
stroke:#000000; stroke-width:78.7402; stroke-opacity:1; 
stroke-linecap:round; stroke-linejoin:round;">
<path d="M50721 46296
L50878 46453
" />
<path d="M50878 46296
L50721 46453
" />
<path d="M51058 46046
L51215 46203
" />
<path d="M51215 46046
L51058 46203
" />
<path d="M52928 29752
L53086 29910
" />
<path d="M53086 29752
L52928 29910
" />
<path d="M53983 35915
L54141 36073
" />
<path d="M54141 35915
L53983 36073
" />
<path d="M54726 37097
L54883 37254
" />
<path d="M54883 37097
L54726 37254
" />
<path d="M59090 35488
L59248 35645
" />
<path d="M59248 35488
L59090 35645
" />
<path d="M63925 48021
L64082 48178
" />
<path d="M64082 48021
L63925 48178
" />
<path d="M64521 46246
L64678 46403
" />
<path d="M64678 46246
L64521 46403
" />
<path d="M65096 46571
L65253 46728
" />
<path d="M65253 46571
L65096 46728
" />
<circle cx="43900" cy="50500" r="137.795" /> 
<circle cx="46900" cy="50500" r="137.795" /> 
<path d="M64464 21509
L64464 21824
" />
<path d="M64307 21667
L64622 21667
" />
<path d="M64464 24509
L64464 24824
" />
<path d="M64307 24667
L64622 24667
" />
<path d="M47619 21509
L47619 21824
" />
<path d="M47462 21667
L47777 21667
" />
<path d="M47619 24509
L47619 24824
" />
<path d="M47462 24667
L47777 24667
" />
<path d="M46619 21509
L46619 21824
" />
<path d="M46462 21667
L46777 21667
" />
<path d="M46619 24509
L46619 24824
" />
<path d="M46462 24667
L46777 24667
" />
<path d="M45619 21509
L45619 21824
" />
<path d="M45462 21667
L45777 21667
" />
<path d="M45619 24509
L45619 24824
" />
<path d="M45462 24667
L45777 24667
" />
<path d="M63464 21509
L63464 21824
" />
<path d="M63307 21667
L63622 21667
" />
<path d="M63464 24509
L63464 24824
" />
<path d="M63307 24667
L63622 24667
" />
<path d="M56675 24509
L56675 24824
" />
<path d="M56517 24667
L56832 24667
" />
<path d="M59675 24509
L59675 24824
" />
<path d="M59517 24667
L59832 24667
" />
<path style="fill:#000000; fill-opacity:0.0; 
stroke:#000000; stroke-width:78.7402; stroke-opacity:1; 
stroke-linecap:round; stroke-linejoin:round;fill:none"
d="M 43739,35199
43739,34920
43460,34920
43460,35199
43739,35199
Z" /> 
<path style="fill:#000000; fill-opacity:0.0; 
stroke:#000000; stroke-width:78.7402; stroke-opacity:1; 
stroke-linecap:round; stroke-linejoin:round;fill:none"
d="M 44739,35199
44739,34920
44460,34920
44460,35199
44739,35199
Z" /> 
<path style="fill:#000000; fill-opacity:0.0; 
stroke:#000000; stroke-width:78.7402; stroke-opacity:1; 
stroke-linecap:round; stroke-linejoin:round;fill:none"
d="M 45739,35199
45739,34920
45460,34920
45460,35199
45739,35199
Z" /> 
<path style="fill:#000000; fill-opacity:0.0; 
stroke:#000000; stroke-width:78.7402; stroke-opacity:1; 
stroke-linecap:round; stroke-linejoin:round;fill:none"
d="M 46739,35199
46739,34920
46460,34920
46460,35199
46739,35199
Z" /> 
<path style="fill:#000000; fill-opacity:0.0; 
stroke:#000000; stroke-width:78.7402; stroke-opacity:1; 
stroke-linecap:round; stroke-linejoin:round;fill:none"
d="M 47739,35199
47739,34920
47460,34920
47460,35199
47739,35199
Z" /> 
<path style="fill:#000000; fill-opacity:0.0; 
stroke:#000000; stroke-width:78.7402; stroke-opacity:1; 
stroke-linecap:round; stroke-linejoin:round;fill:none"
d="M 48739,35199
48739,34920
48460,34920
48460,35199
48739,35199
Z" /> 
<path style="fill:#000000; fill-opacity:0.0; 
stroke:#000000; stroke-width:78.7402; stroke-opacity:1; 
stroke-linecap:round; stroke-linejoin:round;fill:none"
d="M 49739,35199
49739,34920
49460,34920
49460,35199
49739,35199
Z" /> 
<path style="fill:#000000; fill-opacity:0.0; 
stroke:#000000; stroke-width:78.7402; stroke-opacity:1; 
stroke-linecap:round; stroke-linejoin:round;fill:none"
d="M 50739,35199
50739,34920
50460,34920
50460,35199
50739,35199
Z" /> 
<path style="fill:#000000; fill-opacity:0.0; 
stroke:#000000; stroke-width:78.7402; stroke-opacity:1; 
stroke-linecap:round; stroke-linejoin:round;fill:none"
d="M 51739,35199
51739,34920
51460,34920
51460,35199
51739,35199
Z" /> 
<path style="fill:#000000; fill-opacity:0.0; 
stroke:#000000; stroke-width:78.7402; stroke-opacity:1; 
stroke-linecap:round; stroke-linejoin:round;fill:none"
d="M 52739,35199
52739,34920
52460,34920
52460,35199
52739,35199
Z" /> 
<path style="fill:#000000; fill-opacity:0.0; 
stroke:#000000; stroke-width:78.7402; stroke-opacity:1; 
stroke-linecap:round; stroke-linejoin:round;fill:none"
d="M 53739,35199
53739,34920
53460,34920
53460,35199
53739,35199
Z" /> 
<path style="fill:#000000; fill-opacity:0.0; 
stroke:#000000; stroke-width:78.7402; stroke-opacity:1; 
stroke-linecap:round; stroke-linejoin:round;fill:none"
d="M 54739,35199
54739,34920
54460,34920
54460,35199
54739,35199
Z" /> 
<path style="fill:#000000; fill-opacity:0.0; 
stroke:#000000; stroke-width:78.7402; stroke-opacity:1; 
stroke-linecap:round; stroke-linejoin:round;fill:none"
d="M 55739,35199
55739,34920
55460,34920
55460,35199
55739,35199
Z" /> 
<path style="fill:#000000; fill-opacity:0.0; 
stroke:#000000; stroke-width:78.7402; stroke-opacity:1; 
stroke-linecap:round; stroke-linejoin:round;fill:none"
d="M 56739,35199
56739,34920
56460,34920
56460,35199
56739,35199
Z" /> 
<path style="fill:#000000; fill-opacity:0.0; 
stroke:#000000; stroke-width:78.7402; stroke-opacity:1; 
stroke-linecap:round; stroke-linejoin:round;fill:none"
d="M 57739,35199
57739,34920
57460,34920
57460,35199
57739,35199
Z" /> 
<path style="fill:#000000; fill-opacity:0.0; 
stroke:#000000; stroke-width:78.7402; stroke-opacity:1; 
stroke-linecap:round; stroke-linejoin:round;fill:none"
d="M 58739,35199
58739,34920
58460,34920
58460,35199
58739,35199
Z" /> 
<path style="fill:#000000; fill-opacity:0.0; 
stroke:#000000; stroke-width:78.7402; stroke-opacity:1; 
stroke-linecap:round; stroke-linejoin:round;fill:none"
d="M 59739,35199
59739,34920
59460,34920
59460,35199
59739,35199
Z" /> 
<path style="fill:#000000; fill-opacity:0.0; 
stroke:#000000; stroke-width:78.7402; stroke-opacity:1; 
stroke-linecap:round; stroke-linejoin:round;fill:none"
d="M 60739,35199
60739,34920
60460,34920
60460,35199
60739,35199
Z" /> 
<path style="fill:#000000; fill-opacity:0.0; 
stroke:#000000; stroke-width:78.7402; stroke-opacity:1; 
stroke-linecap:round; stroke-linejoin:round;fill:none"
d="M 61739,35199
61739,34920
61460,34920
61460,35199
61739,35199
Z" /> 
<path style="fill:#000000; fill-opacity:0.0; 
stroke:#000000; stroke-width:78.7402; stroke-opacity:1; 
stroke-linecap:round; stroke-linejoin:round;fill:none"
d="M 43739,41879
43739,41600
43460,41600
43460,41879
43739,41879
Z" /> 
<path style="fill:#000000; fill-opacity:0.0; 
stroke:#000000; stroke-width:78.7402; stroke-opacity:1; 
stroke-linecap:round; stroke-linejoin:round;fill:none"
d="M 44739,41879
44739,41600
44460,41600
44460,41879
44739,41879
Z" /> 
<path style="fill:#000000; fill-opacity:0.0; 
stroke:#000000; stroke-width:78.7402; stroke-opacity:1; 
stroke-linecap:round; stroke-linejoin:round;fill:none"
d="M 45739,41879
45739,41600
45460,41600
45460,41879
45739,41879
Z" /> 
<path style="fill:#000000; fill-opacity:0.0; 
stroke:#000000; stroke-width:78.7402; stroke-opacity:1; 
stroke-linecap:round; stroke-linejoin:round;fill:none"
d="M 46739,41879
46739,41600
46460,41600
46460,41879
46739,41879
Z" /> 
<path style="fill:#000000; fill-opacity:0.0; 
stroke:#000000; stroke-width:78.7402; stroke-opacity:1; 
stroke-linecap:round; stroke-linejoin:round;fill:none"
d="M 47739,41879
47739,41600
47460,41600
47460,41879
47739,41879
Z" /> 
<path style="fill:#000000; fill-opacity:0.0; 
stroke:#000000; stroke-width:78.7402; stroke-opacity:1; 
stroke-linecap:round; stroke-linejoin:round;fill:none"
d="M 48739,41879
48739,41600
48460,41600
48460,41879
48739,41879
Z" /> 
<path style="fill:#000000; fill-opacity:0.0; 
stroke:#000000; stroke-width:78.7402; stroke-opacity:1; 
stroke-linecap:round; stroke-linejoin:round;fill:none"
d="M 49739,41879
49739,41600
49460,41600
49460,41879
49739,41879
Z" /> 
<path style="fill:#000000; fill-opacity:0.0; 
stroke:#000000; stroke-width:78.7402; stroke-opacity:1; 
stroke-linecap:round; stroke-linejoin:round;fill:none"
d="M 50739,41879
50739,41600
50460,41600
50460,41879
50739,41879
Z" /> 
<path style="fill:#000000; fill-opacity:0.0; 
stroke:#000000; stroke-width:78.7402; stroke-opacity:1; 
stroke-linecap:round; stroke-linejoin:round;fill:none"
d="M 51739,41879
51739,41600
51460,41600
51460,41879
51739,41879
Z" /> 
<path style="fill:#000000; fill-opacity:0.0; 
stroke:#000000; stroke-width:78.7402; stroke-opacity:1; 
stroke-linecap:round; stroke-linejoin:round;fill:none"
d="M 52739,41879
52739,41600
52460,41600
52460,41879
52739,41879
Z" /> 
<path style="fill:#000000; fill-opacity:0.0; 
stroke:#000000; stroke-width:78.7402; stroke-opacity:1; 
stroke-linecap:round; stroke-linejoin:round;fill:none"
d="M 53739,41879
53739,41600
53460,41600
53460,41879
53739,41879
Z" /> 
<path style="fill:#000000; fill-opacity:0.0; 
stroke:#000000; stroke-width:78.7402; stroke-opacity:1; 
stroke-linecap:round; stroke-linejoin:round;fill:none"
d="M 54739,41879
54739,41600
54460,41600
54460,41879
54739,41879
Z" /> 
<path style="fill:#000000; fill-opacity:0.0; 
stroke:#000000; stroke-width:78.7402; stroke-opacity:1; 
stroke-linecap:round; stroke-linejoin:round;fill:none"
d="M 58139,54139
58139,53860
57860,53860
57860,54139
58139,54139
Z" /> 
<path style="fill:#000000; fill-opacity:0.0; 
stroke:#000000; stroke-width:78.7402; stroke-opacity:1; 
stroke-linecap:round; stroke-linejoin:round;fill:none"
d="M 59139,54139
59139,53860
58860,53860
58860,54139
59139,54139
Z" /> 
<path style="fill:#000000; fill-opacity:0.0; 
stroke:#000000; stroke-width:78.7402; stroke-opacity:1; 
stroke-linecap:round; stroke-linejoin:round;fill:none"
d="M 60139,54139
60139,53860
59860,53860
59860,54139
60139,54139
Z" /> 
<path style="fill:#000000; fill-opacity:0.0; 
stroke:#000000; stroke-width:78.7402; stroke-opacity:1; 
stroke-linecap:round; stroke-linejoin:round;fill:none"
d="M 61139,54139
61139,53860
60860,53860
60860,54139
61139,54139
Z" /> 
<path style="fill:#000000; fill-opacity:0.0; 
stroke:#000000; stroke-width:78.7402; stroke-opacity:1; 
stroke-linecap:round; stroke-linejoin:round;fill:none"
d="M 62139,54139
62139,53860
61860,53860
61860,54139
62139,54139
Z" /> 
<path style="fill:#000000; fill-opacity:0.0; 
stroke:#000000; stroke-width:78.7402; stroke-opacity:1; 
stroke-linecap:round; stroke-linejoin:round;fill:none"
d="M 63139,54139
63139,53860
62860,53860
62860,54139
63139,54139
Z" /> 
<path style="fill:#000000; fill-opacity:0.0; 
stroke:#000000; stroke-width:78.7402; stroke-opacity:1; 
stroke-linecap:round; stroke-linejoin:round;fill:none"
d="M 57139,51139
57139,50860
56860,50860
56860,51139
57139,51139
Z" /> 
<path style="fill:#000000; fill-opacity:0.0; 
stroke:#000000; stroke-width:78.7402; stroke-opacity:1; 
stroke-linecap:round; stroke-linejoin:round;fill:none"
d="M 58139,51139
58139,50860
57860,50860
57860,51139
58139,51139
Z" /> 
<path style="fill:#000000; fill-opacity:0.0; 
stroke:#000000; stroke-width:78.7402; stroke-opacity:1; 
stroke-linecap:round; stroke-linejoin:round;fill:none"
d="M 59139,51139
59139,50860
58860,50860
58860,51139
59139,51139
Z" /> 
<path style="fill:#000000; fill-opacity:0.0; 
stroke:#000000; stroke-width:78.7402; stroke-opacity:1; 
stroke-linecap:round; stroke-linejoin:round;fill:none"
d="M 43739,30739
43739,30460
43460,30460
43460,30739
43739,30739
Z" /> 
<path style="fill:#000000; fill-opacity:0.0; 
stroke:#000000; stroke-width:78.7402; stroke-opacity:1; 
stroke-linecap:round; stroke-linejoin:round;fill:none"
d="M 44739,30739
44739,30460
44460,30460
44460,30739
44739,30739
Z" /> 
<path style="fill:#000000; fill-opacity:0.0; 
stroke:#000000; stroke-width:78.7402; stroke-opacity:1; 
stroke-linecap:round; stroke-linejoin:round;fill:none"
d="M 45739,30739
45739,30460
45460,30460
45460,30739
45739,30739
Z" /> 
<path style="fill:#000000; fill-opacity:0.0; 
stroke:#000000; stroke-width:78.7402; stroke-opacity:1; 
stroke-linecap:round; stroke-linejoin:round;fill:none"
d="M 46739,30739
46739,30460
46460,30460
46460,30739
46739,30739
Z" /> 
<path style="fill:#000000; fill-opacity:0.0; 
stroke:#000000; stroke-width:78.7402; stroke-opacity:1; 
stroke-linecap:round; stroke-linejoin:round;fill:none"
d="M 47739,30739
47739,30460
47460,30460
47460,30739
47739,30739
Z" /> 
<path style="fill:#000000; fill-opacity:0.0; 
stroke:#000000; stroke-width:78.7402; stroke-opacity:1; 
stroke-linecap:round; stroke-linejoin:round;fill:none"
d="M 48739,30739
48739,30460
48460,30460
48460,30739
48739,30739
Z" /> 
<path style="fill:#000000; fill-opacity:0.0; 
stroke:#000000; stroke-width:78.7402; stroke-opacity:1; 
stroke-linecap:round; stroke-linejoin:round;fill:none"
d="M 49739,30739
49739,30460
49460,30460
49460,30739
49739,30739
Z" /> 
<path style="fill:#000000; fill-opacity:0.0; 
stroke:#000000; stroke-width:78.7402; stroke-opacity:1; 
stroke-linecap:round; stroke-linejoin:round;fill:none"
d="M 50739,30739
50739,30460
50460,30460
50460,30739
50739,30739
Z" /> 
<path style="fill:#000000; fill-opacity:0.0; 
stroke:#000000; stroke-width:78.7402; stroke-opacity:1; 
stroke-linecap:round; stroke-linejoin:round;fill:none"
d="M 51739,30739
51739,30460
51460,30460
51460,30739
51739,30739
Z" /> 
<path style="fill:#000000; fill-opacity:0.0; 
stroke:#000000; stroke-width:78.7402; stroke-opacity:1; 
stroke-linecap:round; stroke-linejoin:round;fill:none"
d="M 52739,30739
52739,30460
52460,30460
52460,30739
52739,30739
Z" /> 
<path style="fill:#000000; fill-opacity:0.0; 
stroke:#000000; stroke-width:78.7402; stroke-opacity:1; 
stroke-linecap:round; stroke-linejoin:round;fill:none"
d="M 53739,30739
53739,30460
53460,30460
53460,30739
53739,30739
Z" /> 
<path style="fill:#000000; fill-opacity:0.0; 
stroke:#000000; stroke-width:78.7402; stroke-opacity:1; 
stroke-linecap:round; stroke-linejoin:round;fill:none"
d="M 54739,30739
54739,30460
54460,30460
54460,30739
54739,30739
Z" /> 
<path style="fill:#000000; fill-opacity:0.0; 
stroke:#000000; stroke-width:78.7402; stroke-opacity:1; 
stroke-linecap:round; stroke-linejoin:round;fill:none"
d="M 55739,30739
55739,30460
55460,30460
55460,30739
55739,30739
Z" /> 
<path style="fill:#000000; fill-opacity:0.0; 
stroke:#000000; stroke-width:78.7402; stroke-opacity:1; 
stroke-linecap:round; stroke-linejoin:round;fill:none"
d="M 56739,30739
56739,30460
56460,30460
56460,30739
56739,30739
Z" /> 
<path style="fill:#000000; fill-opacity:0.0; 
stroke:#000000; stroke-width:78.7402; stroke-opacity:1; 
stroke-linecap:round; stroke-linejoin:round;fill:none"
d="M 57739,30739
57739,30460
57460,30460
57460,30739
57739,30739
Z" /> 
<path style="fill:#000000; fill-opacity:0.0; 
stroke:#000000; stroke-width:78.7402; stroke-opacity:1; 
stroke-linecap:round; stroke-linejoin:round;fill:none"
d="M 58739,30739
58739,30460
58460,30460
58460,30739
58739,30739
Z" /> 
<path style="fill:#000000; fill-opacity:0.0; 
stroke:#000000; stroke-width:78.7402; stroke-opacity:1; 
stroke-linecap:round; stroke-linejoin:round;fill:none"
d="M 59739,30739
59739,30460
59460,30460
59460,30739
59739,30739
Z" /> 
<path style="fill:#000000; fill-opacity:0.0; 
stroke:#000000; stroke-width:78.7402; stroke-opacity:1; 
stroke-linecap:round; stroke-linejoin:round;fill:none"
d="M 60739,30739
60739,30460
60460,30460
60460,30739
60739,30739
Z" /> 
<path style="fill:#000000; fill-opacity:0.0; 
stroke:#000000; stroke-width:78.7402; stroke-opacity:1; 
stroke-linecap:round; stroke-linejoin:round;fill:none"
d="M 61739,30739
61739,30460
61460,30460
61460,30739
61739,30739
Z" /> 
<path style="fill:#000000; fill-opacity:0.0; 
stroke:#000000; stroke-width:78.7402; stroke-opacity:1; 
stroke-linecap:round; stroke-linejoin:round;fill:none"
d="M 53339,54139
53339,53860
53060,53860
53060,54139
53339,54139
Z" /> 
<path style="fill:#000000; fill-opacity:0.0; 
stroke:#000000; stroke-width:78.7402; stroke-opacity:1; 
stroke-linecap:round; stroke-linejoin:round;fill:none"
d="M 54339,54139
54339,53860
54060,53860
54060,54139
54339,54139
Z" /> 
<path style="fill:#000000; fill-opacity:0.0; 
stroke:#000000; stroke-width:78.7402; stroke-opacity:1; 
stroke-linecap:round; stroke-linejoin:round;fill:none"
d="M 55339,54139
55339,53860
55060,53860
55060,54139
55339,54139
Z" /> 
<path style="fill:#000000; fill-opacity:0.0; 
stroke:#000000; stroke-width:78.7402; stroke-opacity:1; 
stroke-linecap:round; stroke-linejoin:round;fill:none"
d="M 56339,54139
56339,53860
56060,53860
56060,54139
56339,54139
Z" /> 
<path style="fill:#000000; fill-opacity:0.0; 
stroke:#000000; stroke-width:78.7402; stroke-opacity:1; 
stroke-linecap:round; stroke-linejoin:round;fill:none"
d="M 43739,48239
43739,47960
43460,47960
43460,48239
43739,48239
Z" /> 
<path style="fill:#000000; fill-opacity:0.0; 
stroke:#000000; stroke-width:78.7402; stroke-opacity:1; 
stroke-linecap:round; stroke-linejoin:round;fill:none"
d="M 44739,48239
44739,47960
44460,47960
44460,48239
44739,48239
Z" /> 
<path style="fill:#000000; fill-opacity:0.0; 
stroke:#000000; stroke-width:78.7402; stroke-opacity:1; 
stroke-linecap:round; stroke-linejoin:round;fill:none"
d="M 45739,48239
45739,47960
45460,47960
45460,48239
45739,48239
Z" /> 
<path style="fill:#000000; fill-opacity:0.0; 
stroke:#000000; stroke-width:78.7402; stroke-opacity:1; 
stroke-linecap:round; stroke-linejoin:round;fill:none"
d="M 46739,48239
46739,47960
46460,47960
46460,48239
46739,48239
Z" /> 
<path style="fill:#000000; fill-opacity:0.0; 
stroke:#000000; stroke-width:78.7402; stroke-opacity:1; 
stroke-linecap:round; stroke-linejoin:round;fill:none"
d="M 47739,48239
47739,47960
47460,47960
47460,48239
47739,48239
Z" /> 
<path style="fill:#000000; fill-opacity:0.0; 
stroke:#000000; stroke-width:78.7402; stroke-opacity:1; 
stroke-linecap:round; stroke-linejoin:round;fill:none"
d="M 48739,48239
48739,47960
48460,47960
48460,48239
48739,48239
Z" /> 
<path style="fill:#000000; fill-opacity:0.0; 
stroke:#000000; stroke-width:78.7402; stroke-opacity:1; 
stroke-linecap:round; stroke-linejoin:round;fill:none"
d="M 49739,48239
49739,47960
49460,47960
49460,48239
49739,48239
Z" /> 
<path style="fill:#000000; fill-opacity:0.0; 
stroke:#000000; stroke-width:78.7402; stroke-opacity:1; 
stroke-linecap:round; stroke-linejoin:round;fill:none"
d="M 50739,48239
50739,47960
50460,47960
50460,48239
50739,48239
Z" /> 
<path style="fill:#000000; fill-opacity:0.0; 
stroke:#000000; stroke-width:78.7402; stroke-opacity:1; 
stroke-linecap:round; stroke-linejoin:round;fill:none"
d="M 51739,48239
51739,47960
51460,47960
51460,48239
51739,48239
Z" /> 
<path style="fill:#000000; fill-opacity:0.0; 
stroke:#000000; stroke-width:78.7402; stroke-opacity:1; 
stroke-linecap:round; stroke-linejoin:round;fill:none"
d="M 52739,48239
52739,47960
52460,47960
52460,48239
52739,48239
Z" /> 
<path style="fill:#000000; fill-opacity:0.0; 
stroke:#000000; stroke-width:78.7402; stroke-opacity:1; 
stroke-linecap:round; stroke-linejoin:round;fill:none"
d="M 53739,48239
53739,47960
53460,47960
53460,48239
53739,48239
Z" /> 
<path style="fill:#000000; fill-opacity:0.0; 
stroke:#000000; stroke-width:78.7402; stroke-opacity:1; 
stroke-linecap:round; stroke-linejoin:round;fill:none"
d="M 54739,48239
54739,47960
54460,47960
54460,48239
54739,48239
Z" /> 
<path style="fill:#000000; fill-opacity:0.0; 
stroke:#000000; stroke-width:78.7402; stroke-opacity:1; 
stroke-linecap:round; stroke-linejoin:round;fill:none"
d="M 55739,48239
55739,47960
55460,47960
55460,48239
55739,48239
Z" /> 
<path style="fill:#000000; fill-opacity:0.0; 
stroke:#000000; stroke-width:78.7402; stroke-opacity:1; 
stroke-linecap:round; stroke-linejoin:round;fill:none"
d="M 56739,48239
56739,47960
56460,47960
56460,48239
56739,48239
Z" /> 
<path style="fill:#000000; fill-opacity:0.0; 
stroke:#000000; stroke-width:78.7402; stroke-opacity:1; 
stroke-linecap:round; stroke-linejoin:round;fill:none"
d="M 57739,48239
57739,47960
57460,47960
57460,48239
57739,48239
Z" /> 
<path style="fill:#000000; fill-opacity:0.0; 
stroke:#000000; stroke-width:78.7402; stroke-opacity:1; 
stroke-linecap:round; stroke-linejoin:round;fill:none"
d="M 58739,48239
58739,47960
58460,47960
58460,48239
58739,48239
Z" /> 
<path style="fill:#000000; fill-opacity:0.0; 
stroke:#000000; stroke-width:78.7402; stroke-opacity:1; 
stroke-linecap:round; stroke-linejoin:round;fill:none"
d="M 59739,48239
59739,47960
59460,47960
59460,48239
59739,48239
Z" /> 
<path style="fill:#000000; fill-opacity:0.0; 
stroke:#000000; stroke-width:78.7402; stroke-opacity:1; 
stroke-linecap:round; stroke-linejoin:round;fill:none"
d="M 60739,48239
60739,47960
60460,47960
60460,48239
60739,48239
Z" /> 
<path style="fill:#000000; fill-opacity:0.0; 
stroke:#000000; stroke-width:78.7402; stroke-opacity:1; 
stroke-linecap:round; stroke-linejoin:round;fill:none"
d="M 61739,48239
61739,47960
61460,47960
61460,48239
61739,48239
Z" /> 
<path style="fill:#000000; fill-opacity:0.0; 
stroke:#000000; stroke-width:78.7402; stroke-opacity:1; 
stroke-linecap:round; stroke-linejoin:round;fill:none"
d="M 68609,21799
68609,21520
68330,21520
68330,21799
68609,21799
Z" /> 
<path style="fill:#000000; fill-opacity:0.0; 
stroke:#000000; stroke-width:78.7402; stroke-opacity:1; 
stroke-linecap:round; stroke-linejoin:round;fill:none"
d="M 68609,22799
68609,22520
68330,22520
68330,22799
68609,22799
Z" /> 
<path style="fill:#000000; fill-opacity:0.0; 
stroke:#000000; stroke-width:78.7402; stroke-opacity:1; 
stroke-linecap:round; stroke-linejoin:round;fill:none"
d="M 68609,23799
68609,23520
68330,23520
68330,23799
68609,23799
Z" /> 
<path style="fill:#000000; fill-opacity:0.0; 
stroke:#000000; stroke-width:78.7402; stroke-opacity:1; 
stroke-linecap:round; stroke-linejoin:round;fill:none"
d="M 68609,24799
68609,24520
68330,24520
68330,24799
68609,24799
Z" /> 
<path style="fill:#000000; fill-opacity:0.0; 
stroke:#000000; stroke-width:78.7402; stroke-opacity:1; 
stroke-linecap:round; stroke-linejoin:round;fill:none"
d="M 68609,25799
68609,25520
68330,25520
68330,25799
68609,25799
Z" /> 
<path style="fill:#000000; fill-opacity:0.0; 
stroke:#000000; stroke-width:78.7402; stroke-opacity:1; 
stroke-linecap:round; stroke-linejoin:round;fill:none"
d="M 68609,26799
68609,26520
68330,26520
68330,26799
68609,26799
Z" /> 
<path style="fill:#000000; fill-opacity:0.0; 
stroke:#000000; stroke-width:78.7402; stroke-opacity:1; 
stroke-linecap:round; stroke-linejoin:round;fill:none"
d="M 54314,22951
54314,22673
54036,22673
54036,22951
54314,22951
Z" /> 
<path style="fill:#000000; fill-opacity:0.0; 
stroke:#000000; stroke-width:78.7402; stroke-opacity:1; 
stroke-linecap:round; stroke-linejoin:round;fill:none"
d="M 55314,22951
55314,22673
55036,22673
55036,22951
55314,22951
Z" /> 
<path style="fill:#000000; fill-opacity:0.0; 
stroke:#000000; stroke-width:78.7402; stroke-opacity:1; 
stroke-linecap:round; stroke-linejoin:round;fill:none"
d="M 56314,22951
56314,22673
56036,22673
56036,22951
56314,22951
Z" /> 
<path style="fill:#000000; fill-opacity:0.0; 
stroke:#000000; stroke-width:78.7402; stroke-opacity:1; 
stroke-linecap:round; stroke-linejoin:round;fill:none"
d="M 57314,22951
57314,22673
57036,22673
57036,22951
57314,22951
Z" /> 
<path style="fill:#000000; fill-opacity:0.0; 
stroke:#000000; stroke-width:78.7402; stroke-opacity:1; 
stroke-linecap:round; stroke-linejoin:round;fill:none"
d="M 58314,22951
58314,22673
58036,22673
58036,22951
58314,22951
Z" /> 
<path style="fill:#000000; fill-opacity:0.0; 
stroke:#000000; stroke-width:78.7402; stroke-opacity:1; 
stroke-linecap:round; stroke-linejoin:round;fill:none"
d="M 59314,22951
59314,22673
59036,22673
59036,22951
59314,22951
Z" /> 
<path style="fill:#000000; fill-opacity:0.0; 
stroke:#000000; stroke-width:78.7402; stroke-opacity:1; 
stroke-linecap:round; stroke-linejoin:round;fill:none"
d="M 43739,33879
43739,33601
43460,33601
43460,33879
43739,33879
Z" /> 
<path style="fill:#000000; fill-opacity:0.0; 
stroke:#000000; stroke-width:78.7402; stroke-opacity:1; 
stroke-linecap:round; stroke-linejoin:round;fill:none"
d="M 44739,33879
44739,33601
44460,33601
44460,33879
44739,33879
Z" /> 
<path style="fill:#000000; fill-opacity:0.0; 
stroke:#000000; stroke-width:78.7402; stroke-opacity:1; 
stroke-linecap:round; stroke-linejoin:round;fill:none"
d="M 45739,33879
45739,33601
45460,33601
45460,33879
45739,33879
Z" /> 
<path style="fill:#000000; fill-opacity:0.0; 
stroke:#000000; stroke-width:78.7402; stroke-opacity:1; 
stroke-linecap:round; stroke-linejoin:round;fill:none"
d="M 46739,33879
46739,33601
46460,33601
46460,33879
46739,33879
Z" /> 
<path style="fill:#000000; fill-opacity:0.0; 
stroke:#000000; stroke-width:78.7402; stroke-opacity:1; 
stroke-linecap:round; stroke-linejoin:round;fill:none"
d="M 47739,33879
47739,33601
47460,33601
47460,33879
47739,33879
Z" /> 
<path style="fill:#000000; fill-opacity:0.0; 
stroke:#000000; stroke-width:78.7402; stroke-opacity:1; 
stroke-linecap:round; stroke-linejoin:round;fill:none"
d="M 48739,33879
48739,33601
48460,33601
48460,33879
48739,33879
Z" /> 
<path style="fill:#000000; fill-opacity:0.0; 
stroke:#000000; stroke-width:78.7402; stroke-opacity:1; 
stroke-linecap:round; stroke-linejoin:round;fill:none"
d="M 49739,33879
49739,33601
49460,33601
49460,33879
49739,33879
Z" /> 
<path style="fill:#000000; fill-opacity:0.0; 
stroke:#000000; stroke-width:78.7402; stroke-opacity:1; 
stroke-linecap:round; stroke-linejoin:round;fill:none"
d="M 50739,33879
50739,33601
50460,33601
50460,33879
50739,33879
Z" /> 
<path style="fill:#000000; fill-opacity:0.0; 
stroke:#000000; stroke-width:78.7402; stroke-opacity:1; 
stroke-linecap:round; stroke-linejoin:round;fill:none"
d="M 51739,33879
51739,33601
51460,33601
51460,33879
51739,33879
Z" /> 
<path style="fill:#000000; fill-opacity:0.0; 
stroke:#000000; stroke-width:78.7402; stroke-opacity:1; 
stroke-linecap:round; stroke-linejoin:round;fill:none"
d="M 52739,33879
52739,33601
52460,33601
52460,33879
52739,33879
Z" /> 
<path style="fill:#000000; fill-opacity:0.0; 
stroke:#000000; stroke-width:78.7402; stroke-opacity:1; 
stroke-linecap:round; stroke-linejoin:round;fill:none"
d="M 53739,33879
53739,33601
53460,33601
53460,33879
53739,33879
Z" /> 
<path style="fill:#000000; fill-opacity:0.0; 
stroke:#000000; stroke-width:78.7402; stroke-opacity:1; 
stroke-linecap:round; stroke-linejoin:round;fill:none"
d="M 54739,33879
54739,33601
54460,33601
54460,33879
54739,33879
Z" /> 
<path style="fill:#000000; fill-opacity:0.0; 
stroke:#000000; stroke-width:78.7402; stroke-opacity:1; 
stroke-linecap:round; stroke-linejoin:round;fill:none"
d="M 55739,33879
55739,33601
55460,33601
55460,33879
55739,33879
Z" /> 
<path style="fill:#000000; fill-opacity:0.0; 
stroke:#000000; stroke-width:78.7402; stroke-opacity:1; 
stroke-linecap:round; stroke-linejoin:round;fill:none"
d="M 56739,33879
56739,33601
56460,33601
56460,33879
56739,33879
Z" /> 
<path style="fill:#000000; fill-opacity:0.0; 
stroke:#000000; stroke-width:78.7402; stroke-opacity:1; 
stroke-linecap:round; stroke-linejoin:round;fill:none"
d="M 57739,33879
57739,33601
57460,33601
57460,33879
57739,33879
Z" /> 
<path style="fill:#000000; fill-opacity:0.0; 
stroke:#000000; stroke-width:78.7402; stroke-opacity:1; 
stroke-linecap:round; stroke-linejoin:round;fill:none"
d="M 58739,33879
58739,33601
58460,33601
58460,33879
58739,33879
Z" /> 
<path style="fill:#000000; fill-opacity:0.0; 
stroke:#000000; stroke-width:78.7402; stroke-opacity:1; 
stroke-linecap:round; stroke-linejoin:round;fill:none"
d="M 43739,45239
43739,44960
43460,44960
43460,45239
43739,45239
Z" /> 
<path style="fill:#000000; fill-opacity:0.0; 
stroke:#000000; stroke-width:78.7402; stroke-opacity:1; 
stroke-linecap:round; stroke-linejoin:round;fill:none"
d="M 44739,45239
44739,44960
44460,44960
44460,45239
44739,45239
Z" /> 
<path style="fill:#000000; fill-opacity:0.0; 
stroke:#000000; stroke-width:78.7402; stroke-opacity:1; 
stroke-linecap:round; stroke-linejoin:round;fill:none"
d="M 45739,45239
45739,44960
45460,44960
45460,45239
45739,45239
Z" /> 
<path style="fill:#000000; fill-opacity:0.0; 
stroke:#000000; stroke-width:78.7402; stroke-opacity:1; 
stroke-linecap:round; stroke-linejoin:round;fill:none"
d="M 46739,45239
46739,44960
46460,44960
46460,45239
46739,45239
Z" /> 
<path style="fill:#000000; fill-opacity:0.0; 
stroke:#000000; stroke-width:78.7402; stroke-opacity:1; 
stroke-linecap:round; stroke-linejoin:round;fill:none"
d="M 47739,45239
47739,44960
47460,44960
47460,45239
47739,45239
Z" /> 
<path style="fill:#000000; fill-opacity:0.0; 
stroke:#000000; stroke-width:78.7402; stroke-opacity:1; 
stroke-linecap:round; stroke-linejoin:round;fill:none"
d="M 48739,45239
48739,44960
48460,44960
48460,45239
48739,45239
Z" /> 
<path style="fill:#000000; fill-opacity:0.0; 
stroke:#000000; stroke-width:78.7402; stroke-opacity:1; 
stroke-linecap:round; stroke-linejoin:round;fill:none"
d="M 49739,45239
49739,44960
49460,44960
49460,45239
49739,45239
Z" /> 
<path style="fill:#000000; fill-opacity:0.0; 
stroke:#000000; stroke-width:78.7402; stroke-opacity:1; 
stroke-linecap:round; stroke-linejoin:round;fill:none"
d="M 50739,45239
50739,44960
50460,44960
50460,45239
50739,45239
Z" /> 
<path style="fill:#000000; fill-opacity:0.0; 
stroke:#000000; stroke-width:78.7402; stroke-opacity:1; 
stroke-linecap:round; stroke-linejoin:round;fill:none"
d="M 51739,45239
51739,44960
51460,44960
51460,45239
51739,45239
Z" /> 
<path style="fill:#000000; fill-opacity:0.0; 
stroke:#000000; stroke-width:78.7402; stroke-opacity:1; 
stroke-linecap:round; stroke-linejoin:round;fill:none"
d="M 52739,45239
52739,44960
52460,44960
52460,45239
52739,45239
Z" /> 
<path style="fill:#000000; fill-opacity:0.0; 
stroke:#000000; stroke-width:78.7402; stroke-opacity:1; 
stroke-linecap:round; stroke-linejoin:round;fill:none"
d="M 53739,45239
53739,44960
53460,44960
53460,45239
53739,45239
Z" /> 
<path style="fill:#000000; fill-opacity:0.0; 
stroke:#000000; stroke-width:78.7402; stroke-opacity:1; 
stroke-linecap:round; stroke-linejoin:round;fill:none"
d="M 54739,45239
54739,44960
54460,44960
54460,45239
54739,45239
Z" /> 
<path style="fill:#000000; fill-opacity:0.0; 
stroke:#000000; stroke-width:78.7402; stroke-opacity:1; 
stroke-linecap:round; stroke-linejoin:round;fill:none"
d="M 55739,45239
55739,44960
55460,44960
55460,45239
55739,45239
Z" /> 
<path style="fill:#000000; fill-opacity:0.0; 
stroke:#000000; stroke-width:78.7402; stroke-opacity:1; 
stroke-linecap:round; stroke-linejoin:round;fill:none"
d="M 56739,45239
56739,44960
56460,44960
56460,45239
56739,45239
Z" /> 
<path style="fill:#000000; fill-opacity:0.0; 
stroke:#000000; stroke-width:78.7402; stroke-opacity:1; 
stroke-linecap:round; stroke-linejoin:round;fill:none"
d="M 57739,45239
57739,44960
57460,44960
57460,45239
57739,45239
Z" /> 
<path style="fill:#000000; fill-opacity:0.0; 
stroke:#000000; stroke-width:78.7402; stroke-opacity:1; 
stroke-linecap:round; stroke-linejoin:round;fill:none"
d="M 58739,45239
58739,44960
58460,44960
58460,45239
58739,45239
Z" /> 
<path style="fill:#000000; fill-opacity:0.0; 
stroke:#000000; stroke-width:78.7402; stroke-opacity:1; 
stroke-linecap:round; stroke-linejoin:round;fill:none"
d="M 59739,45239
59739,44960
59460,44960
59460,45239
59739,45239
Z" /> 
<path style="fill:#000000; fill-opacity:0.0; 
stroke:#000000; stroke-width:78.7402; stroke-opacity:1; 
stroke-linecap:round; stroke-linejoin:round;fill:none"
d="M 60739,45239
60739,44960
60460,44960
60460,45239
60739,45239
Z" /> 
<path style="fill:#000000; fill-opacity:0.0; 
stroke:#000000; stroke-width:78.7402; stroke-opacity:1; 
stroke-linecap:round; stroke-linejoin:round;fill:none"
d="M 61739,45239
61739,44960
61460,44960
61460,45239
61739,45239
Z" /> 
<path style="fill:#000000; fill-opacity:0.0; 
stroke:#000000; stroke-width:78.7402; stroke-opacity:1; 
stroke-linecap:round; stroke-linejoin:round;fill:none"
d="M 48739,51139
48739,50860
48460,50860
48460,51139
48739,51139
Z" /> 
<path style="fill:#000000; fill-opacity:0.0; 
stroke:#000000; stroke-width:78.7402; stroke-opacity:1; 
stroke-linecap:round; stroke-linejoin:round;fill:none"
d="M 49739,51139
49739,50860
49460,50860
49460,51139
49739,51139
Z" /> 
<path style="fill:#000000; fill-opacity:0.0; 
stroke:#000000; stroke-width:78.7402; stroke-opacity:1; 
stroke-linecap:round; stroke-linejoin:round;fill:none"
d="M 50739,51139
50739,50860
50460,50860
50460,51139
50739,51139
Z" /> 
<path style="fill:#000000; fill-opacity:0.0; 
stroke:#000000; stroke-width:78.7402; stroke-opacity:1; 
stroke-linecap:round; stroke-linejoin:round;fill:none"
d="M 51739,51139
51739,50860
51460,50860
51460,51139
51739,51139
Z" /> 
<path style="fill:#000000; fill-opacity:0.0; 
stroke:#000000; stroke-width:78.7402; stroke-opacity:1; 
stroke-linecap:round; stroke-linejoin:round;fill:none"
d="M 50314,22951
50314,22673
50036,22673
50036,22951
50314,22951
Z" /> 
<path style="fill:#000000; fill-opacity:0.0; 
stroke:#000000; stroke-width:78.7402; stroke-opacity:1; 
stroke-linecap:round; stroke-linejoin:round;fill:none"
d="M 51314,22951
51314,22673
51036,22673
51036,22951
51314,22951
Z" /> 
<path style="fill:#000000; fill-opacity:0.0; 
stroke:#000000; stroke-width:78.7402; stroke-opacity:1; 
stroke-linecap:round; stroke-linejoin:round;fill:none"
d="M 52314,22951
52314,22673
52036,22673
52036,22951
52314,22951
Z" /> 
<path style="fill:#000000; fill-opacity:0.0; 
stroke:#000000; stroke-width:78.7402; stroke-opacity:1; 
stroke-linecap:round; stroke-linejoin:round;fill:none"
d="M 48739,54139
48739,53860
48460,53860
48460,54139
48739,54139
Z" /> 
<path style="fill:#000000; fill-opacity:0.0; 
stroke:#000000; stroke-width:78.7402; stroke-opacity:1; 
stroke-linecap:round; stroke-linejoin:round;fill:none"
d="M 49739,54139
49739,53860
49460,53860
49460,54139
49739,54139
Z" /> 
<path style="fill:#000000; fill-opacity:0.0; 
stroke:#000000; stroke-width:78.7402; stroke-opacity:1; 
stroke-linecap:round; stroke-linejoin:round;fill:none"
d="M 50739,54139
50739,53860
50460,53860
50460,54139
50739,54139
Z" /> 
<path style="fill:#000000; fill-opacity:0.0; 
stroke:#000000; stroke-width:78.7402; stroke-opacity:1; 
stroke-linecap:round; stroke-linejoin:round;fill:none"
d="M 51739,54139
51739,53860
51460,53860
51460,54139
51739,54139
Z" /> 
<path style="fill:#000000; fill-opacity:0.0; 
stroke:#000000; stroke-width:78.7402; stroke-opacity:1; 
stroke-linecap:round; stroke-linejoin:round;fill:none"
d="M 61139,51139
61139,50860
60860,50860
60860,51139
61139,51139
Z" /> 
<path style="fill:#000000; fill-opacity:0.0; 
stroke:#000000; stroke-width:78.7402; stroke-opacity:1; 
stroke-linecap:round; stroke-linejoin:round;fill:none"
d="M 62139,51139
62139,50860
61860,50860
61860,51139
62139,51139
Z" /> 
<path style="fill:#000000; fill-opacity:0.0; 
stroke:#000000; stroke-width:78.7402; stroke-opacity:1; 
stroke-linecap:round; stroke-linejoin:round;fill:none"
d="M 63139,51139
63139,50860
62860,50860
62860,51139
63139,51139
Z" /> 
<path style="fill:#000000; fill-opacity:0.0; 
stroke:#000000; stroke-width:78.7402; stroke-opacity:1; 
stroke-linecap:round; stroke-linejoin:round;fill:none"
d="M 43298,21802
43298,21523
43020,21523
43020,21802
43298,21802
Z" /> 
<path style="fill:#000000; fill-opacity:0.0; 
stroke:#000000; stroke-width:78.7402; stroke-opacity:1; 
stroke-linecap:round; stroke-linejoin:round;fill:none"
d="M 43298,22802
43298,22523
43020,22523
43020,22802
43298,22802
Z" /> 
<path style="fill:#000000; fill-opacity:0.0; 
stroke:#000000; stroke-width:78.7402; stroke-opacity:1; 
stroke-linecap:round; stroke-linejoin:round;fill:none"
d="M 43298,23802
43298,23523
43020,23523
43020,23802
43298,23802
Z" /> 
<path style="fill:#000000; fill-opacity:0.0; 
stroke:#000000; stroke-width:78.7402; stroke-opacity:1; 
stroke-linecap:round; stroke-linejoin:round;fill:none"
d="M 43298,24802
43298,24523
43020,24523
43020,24802
43298,24802
Z" /> 
<path style="fill:#000000; fill-opacity:0.0; 
stroke:#000000; stroke-width:78.7402; stroke-opacity:1; 
stroke-linecap:round; stroke-linejoin:round;fill:none"
d="M 43298,25802
43298,25523
43020,25523
43020,25802
43298,25802
Z" /> 
<path style="fill:#000000; fill-opacity:0.0; 
stroke:#000000; stroke-width:78.7402; stroke-opacity:1; 
stroke-linecap:round; stroke-linejoin:round;fill:none"
d="M 43298,26802
43298,26523
43020,26523
43020,26802
43298,26802
Z" /> 
<path style="fill:#000000; fill-opacity:0.0; 
stroke:#000000; stroke-width:78.7402; stroke-opacity:1; 
stroke-linecap:round; stroke-linejoin:round;fill:none"
d="M 53339,51139
53339,50860
53060,50860
53060,51139
53339,51139
Z" /> 
<path style="fill:#000000; fill-opacity:0.0; 
stroke:#000000; stroke-width:78.7402; stroke-opacity:1; 
stroke-linecap:round; stroke-linejoin:round;fill:none"
d="M 54339,51139
54339,50860
54060,50860
54060,51139
54339,51139
Z" /> 
<path style="fill:#000000; fill-opacity:0.0; 
stroke:#000000; stroke-width:78.7402; stroke-opacity:1; 
stroke-linecap:round; stroke-linejoin:round;fill:none"
d="M 55339,51139
55339,50860
55060,50860
55060,51139
55339,51139
Z" /> 
</g>
<g style="fill:#000000; fill-opacity:0.0; 
stroke:#000000; stroke-width:118.11; stroke-opacity:1; 
stroke-linecap:round; stroke-linejoin:round;">
<path d="M43589 59801
L43589 58620
L43870 58620
L44039 58676
L44151 58789
L44208 58901
L44264 59126
L44264 59295
L44208 59520
L44151 59632
L44039 59745
L43870 59801
L43589 59801
" />
<path d="M44770 59801
L44770 59014
" />
<path d="M44770 59239
L44826 59126
L44883 59070
L44995 59014
L45108 59014
" />
<path d="M45501 59801
L45501 59014
" />
<path d="M45501 58620
L45445 58676
L45501 58733
L45558 58676
L45501 58620
L45501 58733
" />
<path d="M46232 59801
L46120 59745
L46064 59632
L46064 58620
" />
<path d="M46851 59801
L46739 59745
L46682 59632
L46682 58620
" />
<path d="M48201 59801
L48201 58620
L48595 59464
L48988 58620
L48988 59801
" />
<path d="M50057 59801
L50057 59183
L50001 59070
L49888 59014
L49663 59014
L49551 59070
" />
<path d="M50057 59745
L49944 59801
L49663 59801
L49551 59745
L49495 59632
L49495 59520
L49551 59407
L49663 59351
L49944 59351
L50057 59295
" />
<path d="M50619 59014
L50619 60195
" />
<path d="M50619 59070
L50732 59014
L50957 59014
L51069 59070
L51126 59126
L51182 59239
L51182 59576
L51126 59689
L51069 59745
L50957 59801
L50732 59801
L50619 59745
" />
<path d="M51688 59689
L51744 59745
L51688 59801
L51632 59745
L51688 59689
L51688 59801
" />
<path d="M51688 59070
L51744 59126
L51688 59183
L51632 59126
L51688 59070
L51688 59183
" />
<path d="M42304 61668
L42461 61826
" />
<path d="M42461 61668
L42304 61826
" />
<path d="M43814 61100
L43926 61100
L44039 61157
L44095 61213
L44151 61325
L44208 61550
L44208 61832
L44151 62057
L44095 62169
L44039 62225
L43926 62281
L43814 62281
L43701 62225
L43645 62169
L43589 62057
L43533 61832
L43533 61550
L43589 61325
L43645 61213
L43701 61157
L43814 61100
" />
<path d="M44714 62169
L44770 62225
L44714 62281
L44658 62225
L44714 62169
L44714 62281
" />
<path d="M45782 61494
L45782 62281
" />
<path d="M45501 61044
L45220 61888
L45951 61888
" />
<path d="M46626 61100
L46739 61100
L46851 61157
L46907 61213
L46964 61325
L47020 61550
L47020 61832
L46964 62057
L46907 62169
L46851 62225
L46739 62281
L46626 62281
L46514 62225
L46457 62169
L46401 62057
L46345 61832
L46345 61550
L46401 61325
L46457 61213
L46514 61157
L46626 61100
" />
<path d="M47526 62281
L47526 61494
" />
<path d="M47526 61607
L47582 61550
L47695 61494
L47863 61494
L47976 61550
L48032 61663
L48032 62281
" />
<path d="M48032 61663
L48088 61550
L48201 61494
L48370 61494
L48482 61550
L48538 61663
L48538 62281
" />
<path d="M49101 62281
L49101 61494
" />
<path d="M49101 61607
L49157 61550
L49270 61494
L49438 61494
L49551 61550
L49607 61663
L49607 62281
" />
<path d="M49607 61663
L49663 61550
L49776 61494
L49944 61494
L50057 61550
L50113 61663
L50113 62281
" />
<path d="M52419 61044
L51407 62563
" />
<path d="M53938 61100
L54050 61100
L54163 61157
L54219 61213
L54275 61325
L54331 61550
L54331 61832
L54275 62057
L54219 62169
L54163 62225
L54050 62281
L53938 62281
L53825 62225
L53769 62169
L53713 62057
L53657 61832
L53657 61550
L53713 61325
L53769 61213
L53825 61157
L53938 61100
" />
<path d="M54838 62169
L54894 62225
L54838 62281
L54781 62225
L54838 62169
L54838 62281
" />
<path d="M55625 61100
L55737 61100
L55850 61157
L55906 61213
L55962 61325
L56019 61550
L56019 61832
L55962 62057
L55906 62169
L55850 62225
L55737 62281
L55625 62281
L55513 62225
L55456 62169
L55400 62057
L55344 61832
L55344 61550
L55400 61325
L55456 61213
L55513 61157
L55625 61100
" />
<path d="M57144 62281
L56469 62281
" />
<path d="M56806 62281
L56806 61100
L56694 61269
L56581 61382
L56469 61438
" />
<path d="M58156 61100
L57931 61100
L57818 61157
L57762 61213
L57650 61382
L57594 61607
L57594 62057
L57650 62169
L57706 62225
L57818 62281
L58043 62281
L58156 62225
L58212 62169
L58268 62057
L58268 61775
L58212 61663
L58156 61607
L58043 61550
L57818 61550
L57706 61607
L57650 61663
L57594 61775
" />
<path d="M58718 61100
L58718 61325
" />
<path d="M59168 61100
L59168 61325
" />
<path d="M60912 62731
L60856 62675
L60743 62506
L60687 62394
L60631 62225
L60574 61944
L60574 61719
L60631 61438
L60687 61269
L60743 61157
L60856 60988
L60912 60932
" />
<path d="M61418 62281
L61643 62281
L61755 62225
L61812 62169
L61924 62000
L61980 61775
L61980 61325
L61924 61213
L61868 61157
L61755 61100
L61531 61100
L61418 61157
L61362 61213
L61306 61325
L61306 61607
L61362 61719
L61418 61775
L61531 61832
L61755 61832
L61868 61775
L61924 61719
L61980 61607
" />
<path d="M63387 62281
L63387 61100
" />
<path d="M63893 62281
L63893 61663
L63836 61550
L63724 61494
L63555 61494
L63443 61550
L63387 61607
" />
<path d="M64624 62281
L64511 62225
L64455 62169
L64399 62057
L64399 61719
L64455 61607
L64511 61550
L64624 61494
L64793 61494
L64905 61550
L64961 61607
L65018 61719
L65018 62057
L64961 62169
L64905 62225
L64793 62281
L64624 62281
" />
<path d="M65692 62281
L65580 62225
L65524 62113
L65524 61100
" />
<path d="M66592 62225
L66480 62281
L66255 62281
L66142 62225
L66086 62113
L66086 61663
L66142 61550
L66255 61494
L66480 61494
L66592 61550
L66649 61663
L66649 61775
L66086 61888
" />
<path d="M67099 62225
L67211 62281
L67436 62281
L67549 62225
L67605 62113
L67605 62057
L67549 61944
L67436 61888
L67267 61888
L67155 61832
L67099 61719
L67099 61663
L67155 61550
L67267 61494
L67436 61494
L67549 61550
" />
<path d="M67998 62731
L68055 62675
L68167 62506
L68223 62394
L68280 62225
L68336 61944
L68336 61719
L68280 61438
L68223 61269
L68167 61157
L68055 60988
L67998 60932
" />
<circle cx="42324" cy="63306.7" r="137.795" /> 
<path d="M43814 62659
L43926 62659
L44039 62716
L44095 62772
L44151 62884
L44208 63109
L44208 63391
L44151 63616
L44095 63728
L44039 63784
L43926 63841
L43814 63841
L43701 63784
L43645 63728
L43589 63616
L43533 63391
L43533 63109
L43589 62884
L43645 62772
L43701 62716
L43814 62659
" />
<path d="M44714 63728
L44770 63784
L44714 63841
L44658 63784
L44714 63728
L44714 63841
" />
<path d="M45164 62659
L45951 62659
L45445 63841
" />
<path d="M46626 62659
L46739 62659
L46851 62716
L46907 62772
L46964 62884
L47020 63109
L47020 63391
L46964 63616
L46907 63728
L46851 63784
L46739 63841
L46626 63841
L46514 63784
L46457 63728
L46401 63616
L46345 63391
L46345 63109
L46401 62884
L46457 62772
L46514 62716
L46626 62659
" />
<path d="M47526 63841
L47526 63053
" />
<path d="M47526 63166
L47582 63109
L47695 63053
L47863 63053
L47976 63109
L48032 63222
L48032 63841
" />
<path d="M48032 63222
L48088 63109
L48201 63053
L48370 63053
L48482 63109
L48538 63222
L48538 63841
" />
<path d="M49101 63841
L49101 63053
" />
<path d="M49101 63166
L49157 63109
L49270 63053
L49438 63053
L49551 63109
L49607 63222
L49607 63841
" />
<path d="M49607 63222
L49663 63109
L49776 63053
L49944 63053
L50057 63109
L50113 63222
L50113 63841
" />
<path d="M52419 62603
L51407 64122
" />
<path d="M53938 62659
L54050 62659
L54163 62716
L54219 62772
L54275 62884
L54331 63109
L54331 63391
L54275 63616
L54219 63728
L54163 63784
L54050 63841
L53938 63841
L53825 63784
L53769 63728
L53713 63616
L53657 63391
L53657 63109
L53713 62884
L53769 62772
L53825 62716
L53938 62659
" />
<path d="M54838 63728
L54894 63784
L54838 63841
L54781 63784
L54838 63728
L54838 63841
" />
<path d="M55625 62659
L55737 62659
L55850 62716
L55906 62772
L55962 62884
L56019 63109
L56019 63391
L55962 63616
L55906 63728
L55850 63784
L55737 63841
L55625 63841
L55513 63784
L55456 63728
L55400 63616
L55344 63391
L55344 63109
L55400 62884
L55456 62772
L55513 62716
L55625 62659
" />
<path d="M56469 62772
L56525 62716
L56637 62659
L56919 62659
L57031 62716
L57087 62772
L57144 62884
L57144 62997
L57087 63166
L56412 63841
L57144 63841
" />
<path d="M57818 63166
L57706 63109
L57650 63053
L57594 62941
L57594 62884
L57650 62772
L57706 62716
L57818 62659
L58043 62659
L58156 62716
L58212 62772
L58268 62884
L58268 62941
L58212 63053
L58156 63109
L58043 63166
L57818 63166
L57706 63222
L57650 63278
L57594 63391
L57594 63616
L57650 63728
L57706 63784
L57818 63841
L58043 63841
L58156 63784
L58212 63728
L58268 63616
L58268 63391
L58212 63278
L58156 63222
L58043 63166
" />
<path d="M58718 62659
L58718 62884
" />
<path d="M59168 62659
L59168 62884
" />
<path d="M60912 64290
L60856 64234
L60743 64066
L60687 63953
L60631 63784
L60574 63503
L60574 63278
L60631 62997
L60687 62828
L60743 62716
L60856 62547
L60912 62491
" />
<path d="M61306 62772
L61362 62716
L61474 62659
L61755 62659
L61868 62716
L61924 62772
L61980 62884
L61980 62997
L61924 63166
L61249 63841
L61980 63841
" />
<path d="M63387 63841
L63387 62659
" />
<path d="M63893 63841
L63893 63222
L63836 63109
L63724 63053
L63555 63053
L63443 63109
L63387 63166
" />
<path d="M64624 63841
L64511 63784
L64455 63728
L64399 63616
L64399 63278
L64455 63166
L64511 63109
L64624 63053
L64793 63053
L64905 63109
L64961 63166
L65018 63278
L65018 63616
L64961 63728
L64905 63784
L64793 63841
L64624 63841
" />
<path d="M65692 63841
L65580 63784
L65524 63672
L65524 62659
" />
<path d="M66592 63784
L66480 63841
L66255 63841
L66142 63784
L66086 63672
L66086 63222
L66142 63109
L66255 63053
L66480 63053
L66592 63109
L66649 63222
L66649 63334
L66086 63447
" />
<path d="M67099 63784
L67211 63841
L67436 63841
L67549 63784
L67605 63672
L67605 63616
L67549 63503
L67436 63447
L67267 63447
L67155 63391
L67099 63278
L67099 63222
L67155 63109
L67267 63053
L67436 63053
L67549 63109
" />
<path d="M67998 64290
L68055 64234
L68167 64066
L68223 63953
L68280 63784
L68336 63503
L68336 63278
L68280 62997
L68223 62828
L68167 62716
L68055 62547
L67998 62491
" />
<path d="M42304 64708
L42304 65023
" />
<path d="M42146 64865
L42461 64865
" />
<path d="M43814 64219
L43926 64219
L44039 64275
L44095 64331
L44151 64443
L44208 64668
L44208 64950
L44151 65175
L44095 65287
L44039 65343
L43926 65400
L43814 65400
L43701 65343
L43645 65287
L43589 65175
L43533 64950
L43533 64668
L43589 64443
L43645 64331
L43701 64275
L43814 64219
" />
<path d="M44714 65287
L44770 65343
L44714 65400
L44658 65343
L44714 65287
L44714 65400
" />
<path d="M45445 64725
L45333 64668
L45276 64612
L45220 64500
L45220 64443
L45276 64331
L45333 64275
L45445 64219
L45670 64219
L45782 64275
L45839 64331
L45895 64443
L45895 64500
L45839 64612
L45782 64668
L45670 64725
L45445 64725
L45333 64781
L45276 64837
L45220 64950
L45220 65175
L45276 65287
L45333 65343
L45445 65400
L45670 65400
L45782 65343
L45839 65287
L45895 65175
L45895 64950
L45839 64837
L45782 64781
L45670 64725
" />
<path d="M46626 64219
L46739 64219
L46851 64275
L46907 64331
L46964 64443
L47020 64668
L47020 64950
L46964 65175
L46907 65287
L46851 65343
L46739 65400
L46626 65400
L46514 65343
L46457 65287
L46401 65175
L46345 64950
L46345 64668
L46401 64443
L46457 64331
L46514 64275
L46626 64219
" />
<path d="M47526 65400
L47526 64612
" />
<path d="M47526 64725
L47582 64668
L47695 64612
L47863 64612
L47976 64668
L48032 64781
L48032 65400
" />
<path d="M48032 64781
L48088 64668
L48201 64612
L48370 64612
L48482 64668
L48538 64781
L48538 65400
" />
<path d="M49101 65400
L49101 64612
" />
<path d="M49101 64725
L49157 64668
L49270 64612
L49438 64612
L49551 64668
L49607 64781
L49607 65400
" />
<path d="M49607 64781
L49663 64668
L49776 64612
L49944 64612
L50057 64668
L50113 64781
L50113 65400
" />
<path d="M52419 64162
L51407 65681
" />
<path d="M53938 64219
L54050 64219
L54163 64275
L54219 64331
L54275 64443
L54331 64668
L54331 64950
L54275 65175
L54219 65287
L54163 65343
L54050 65400
L53938 65400
L53825 65343
L53769 65287
L53713 65175
L53657 64950
L53657 64668
L53713 64443
L53769 64331
L53825 64275
L53938 64219
" />
<path d="M54838 65287
L54894 65343
L54838 65400
L54781 65343
L54838 65287
L54838 65400
" />
<path d="M55625 64219
L55737 64219
L55850 64275
L55906 64331
L55962 64443
L56019 64668
L56019 64950
L55962 65175
L55906 65287
L55850 65343
L55737 65400
L55625 65400
L55513 65343
L55456 65287
L55400 65175
L55344 64950
L55344 64668
L55400 64443
L55456 64331
L55513 64275
L55625 64219
" />
<path d="M56412 64219
L57144 64219
L56750 64668
L56919 64668
L57031 64725
L57087 64781
L57144 64893
L57144 65175
L57087 65287
L57031 65343
L56919 65400
L56581 65400
L56469 65343
L56412 65287
" />
<path d="M58268 65400
L57594 65400
" />
<path d="M57931 65400
L57931 64219
L57818 64387
L57706 64500
L57594 64556
" />
<path d="M58718 64219
L58718 64443
" />
<path d="M59168 64219
L59168 64443
" />
<path d="M60912 65850
L60856 65793
L60743 65625
L60687 65512
L60631 65343
L60574 65062
L60574 64837
L60631 64556
L60687 64387
L60743 64275
L60856 64106
L60912 64050
" />
<path d="M61980 65400
L61306 65400
" />
<path d="M61643 65400
L61643 64219
L61531 64387
L61418 64500
L61306 64556
" />
<path d="M62430 64331
L62487 64275
L62599 64219
L62880 64219
L62993 64275
L63049 64331
L63105 64443
L63105 64556
L63049 64725
L62374 65400
L63105 65400
" />
<path d="M64511 65400
L64511 64219
" />
<path d="M65018 65400
L65018 64781
L64961 64668
L64849 64612
L64680 64612
L64568 64668
L64511 64725
" />
<path d="M65749 65400
L65636 65343
L65580 65287
L65524 65175
L65524 64837
L65580 64725
L65636 64668
L65749 64612
L65917 64612
L66030 64668
L66086 64725
L66142 64837
L66142 65175
L66086 65287
L66030 65343
L65917 65400
L65749 65400
" />
<path d="M66817 65400
L66705 65343
L66649 65231
L66649 64219
" />
<path d="M67717 65343
L67605 65400
L67380 65400
L67267 65343
L67211 65231
L67211 64781
L67267 64668
L67380 64612
L67605 64612
L67717 64668
L67773 64781
L67773 64893
L67211 65006
" />
<path d="M68223 65343
L68336 65400
L68561 65400
L68673 65343
L68730 65231
L68730 65175
L68673 65062
L68561 65006
L68392 65006
L68280 64950
L68223 64837
L68223 64781
L68280 64668
L68392 64612
L68561 64612
L68673 64668
" />
<path d="M69123 65850
L69180 65793
L69292 65625
L69348 65512
L69405 65343
L69461 65062
L69461 64837
L69405 64556
L69348 64387
L69292 64275
L69180 64106
L69123 64050
" />
<path style="fill:#000000; fill-opacity:0.0; 
stroke:#000000; stroke-width:118.11; stroke-opacity:1; 
stroke-linecap:round; stroke-linejoin:round;fill:none"
d="M 42404,66564
42404,66285
42125,66285
42125,66564
42404,66564
Z" /> 
<path d="M44208 66959
L43533 66959
" />
<path d="M43870 66959
L43870 65778
L43758 65946
L43645 66059
L43533 66115
" />
<path d="M44714 66846
L44770 66902
L44714 66959
L44658 66902
L44714 66846
L44714 66959
" />
<path d="M45501 65778
L45614 65778
L45726 65834
L45782 65890
L45839 66003
L45895 66228
L45895 66509
L45839 66734
L45782 66846
L45726 66902
L45614 66959
L45501 66959
L45389 66902
L45333 66846
L45276 66734
L45220 66509
L45220 66228
L45276 66003
L45333 65890
L45389 65834
L45501 65778
" />
<path d="M46626 65778
L46739 65778
L46851 65834
L46907 65890
L46964 66003
L47020 66228
L47020 66509
L46964 66734
L46907 66846
L46851 66902
L46739 66959
L46626 66959
L46514 66902
L46457 66846
L46401 66734
L46345 66509
L46345 66228
L46401 66003
L46457 65890
L46514 65834
L46626 65778
" />
<path d="M47526 66959
L47526 66171
" />
<path d="M47526 66284
L47582 66228
L47695 66171
L47863 66171
L47976 66228
L48032 66340
L48032 66959
" />
<path d="M48032 66340
L48088 66228
L48201 66171
L48370 66171
L48482 66228
L48538 66340
L48538 66959
" />
<path d="M49101 66959
L49101 66171
" />
<path d="M49101 66284
L49157 66228
L49270 66171
L49438 66171
L49551 66228
L49607 66340
L49607 66959
" />
<path d="M49607 66340
L49663 66228
L49776 66171
L49944 66171
L50057 66228
L50113 66340
L50113 66959
" />
<path d="M52419 65721
L51407 67240
" />
<path d="M53938 65778
L54050 65778
L54163 65834
L54219 65890
L54275 66003
L54331 66228
L54331 66509
L54275 66734
L54219 66846
L54163 66902
L54050 66959
L53938 66959
L53825 66902
L53769 66846
L53713 66734
L53657 66509
L53657 66228
L53713 66003
L53769 65890
L53825 65834
L53938 65778
" />
<path d="M54838 66846
L54894 66902
L54838 66959
L54781 66902
L54838 66846
L54838 66959
" />
<path d="M55625 65778
L55737 65778
L55850 65834
L55906 65890
L55962 66003
L56019 66228
L56019 66509
L55962 66734
L55906 66846
L55850 66902
L55737 66959
L55625 66959
L55513 66902
L55456 66846
L55400 66734
L55344 66509
L55344 66228
L55400 66003
L55456 65890
L55513 65834
L55625 65778
" />
<path d="M56412 65778
L57144 65778
L56750 66228
L56919 66228
L57031 66284
L57087 66340
L57144 66452
L57144 66734
L57087 66846
L57031 66902
L56919 66959
L56581 66959
L56469 66902
L56412 66846
" />
<path d="M57706 66959
L57931 66959
L58043 66902
L58100 66846
L58212 66677
L58268 66452
L58268 66003
L58212 65890
L58156 65834
L58043 65778
L57818 65778
L57706 65834
L57650 65890
L57594 66003
L57594 66284
L57650 66396
L57706 66452
L57818 66509
L58043 66509
L58156 66452
L58212 66396
L58268 66284
" />
<path d="M58718 65778
L58718 66003
" />
<path d="M59168 65778
L59168 66003
" />
<path d="M60912 67409
L60856 67352
L60743 67184
L60687 67071
L60631 66902
L60574 66621
L60574 66396
L60631 66115
L60687 65946
L60743 65834
L60856 65665
L60912 65609
" />
<path d="M61980 66959
L61306 66959
" />
<path d="M61643 66959
L61643 65778
L61531 65946
L61418 66059
L61306 66115
" />
<path d="M63049 65778
L62487 65778
L62430 66340
L62487 66284
L62599 66228
L62880 66228
L62993 66284
L63049 66340
L63105 66452
L63105 66734
L63049 66846
L62993 66902
L62880 66959
L62599 66959
L62487 66902
L62430 66846
" />
<path d="M63555 65890
L63612 65834
L63724 65778
L64005 65778
L64118 65834
L64174 65890
L64230 66003
L64230 66115
L64174 66284
L63499 66959
L64230 66959
" />
<path d="M65636 66959
L65636 65778
" />
<path d="M66142 66959
L66142 66340
L66086 66228
L65974 66171
L65805 66171
L65692 66228
L65636 66284
" />
<path d="M66874 66959
L66761 66902
L66705 66846
L66649 66734
L66649 66396
L66705 66284
L66761 66228
L66874 66171
L67042 66171
L67155 66228
L67211 66284
L67267 66396
L67267 66734
L67211 66846
L67155 66902
L67042 66959
L66874 66959
" />
<path d="M67942 66959
L67830 66902
L67773 66790
L67773 65778
" />
<path d="M68842 66902
L68730 66959
L68505 66959
L68392 66902
L68336 66790
L68336 66340
L68392 66228
L68505 66171
L68730 66171
L68842 66228
L68898 66340
L68898 66452
L68336 66565
" />
<path d="M69348 66902
L69461 66959
L69686 66959
L69798 66902
L69854 66790
L69854 66734
L69798 66621
L69686 66565
L69517 66565
L69405 66509
L69348 66396
L69348 66340
L69405 66228
L69517 66171
L69686 66171
L69798 66228
" />
<path d="M70248 67409
L70304 67352
L70417 67184
L70473 67071
L70529 66902
L70586 66621
L70586 66396
L70529 66115
L70473 65946
L70417 65834
L70304 65665
L70248 65609
" />
</g> 
</svg>
